0
SECTION
2
HEADER
9
$INSUNITS
70
4
9
$ACADVER
1
AC1014
9
$HANDSEED
5
FFFF
0
ENDSEC
0
SECTION
2
TABLES
0
TABLE
2
VPORT
5
8
100
AcDbSymbolTable
0
ENDTAB
0
TABLE
2
LTYPE
5
5
100
AcDbSymbolTable
0
LTYPE
5
14
100
AcDbSymbolTableRecord
100
AcDbLinetypeTableRecord
2
BYBLOCK
70
0
0
LTYPE
5
15
100
AcDbSymbolTableRecord
100
AcDbLinetypeTableRecord
2
BYLAYER
70
0
0
ENDTAB
0
TABLE
2
LAYER
5
2
100
AcDbSymbolTable
70
2
0
LAYER
5
50
100
AcDbSymbolTableRecord
100
AcDbLayerTableRecord
2
0
70
0
6
CONTINUOUS
0
ENDTAB
0
TABLE
2
STYLE
5
3
100
AcDbSymbolTable
70
1
0
STYLE
5
11
100
AcDbSymbolTableRecord
100
AcDbTextStyleTableRecord
2
STANDARD
70
0
0
ENDTAB
0
TABLE
2
VIEW
5
6
100
AcDbSymbolTable
70
0
0
ENDTAB
0
TABLE
2
UCS
5
7
100
AcDbSymbolTable
70
0
0
ENDTAB
0
TABLE
2
APPID
5
9
100
AcDbSymbolTable
70
2
0
APPID
5
12
100
AcDbSymbolTableRecord
100
AcDbRegAppTableRecord
2
ACAD
70
0
0
ENDTAB
0
TABLE
2
DIMSTYLE
5
A
100
AcDbSymbolTable
70
1
0
ENDTAB
0
TABLE
2
BLOCK_RECORD
5
1
100
AcDbSymbolTable
70
1
0
BLOCK_RECORD
5
1F
100
AcDbSymbolTableRecord
100
AcDbBlockTableRecord
2
*MODEL_SPACE
0
BLOCK_RECORD
5
1B
100
AcDbSymbolTableRecord
100
AcDbBlockTableRecord
2
*PAPER_SPACE
0
ENDTAB
0
ENDSEC
0
SECTION
2
BLOCKS
0
BLOCK
5
20
100
AcDbEntity
100
AcDbBlockBegin
2
*MODEL_SPACE
0
ENDBLK
5
21
100
AcDbEntity
100
AcDbBlockEnd
0
BLOCK
5
1C
100
AcDbEntity
100
AcDbBlockBegin
2
*PAPER_SPACE
0
ENDBLK
5
1D
100
AcDbEntity
100
AcDbBlockEnd
0
ENDSEC
0
SECTION
2
ENTITIES
0
LWPOLYLINE
5
100
100
AcDbEntity
8
0
100
AcDbPolyline
90
76
70
1
43
0.0
10
-28.999999999999993
20
-13.439300514640349
42
-2.4142135623730812
10
-29.550000000000001
20
-13.98930051464035
10
-31.999999999999993
20
-13.98930051464035
10
-31.999999999999993
20
-21.989300514640352
10
-29.549999999999997
20
-21.989300514640352
42
-2.4142135623730812
10
-28.999999999999993
20
-22.539300514640349
10
-28.999999999999993
20
-29.000000000000004
10
-22.54999999999999
20
-29.000000000000004
42
-2.4142135623730949
10
-21.999999999999993
20
-29.550000000000001
10
-21.999999999999993
20
-32
10
-13.999999999999995
20
-32
10
-13.999999999999995
20
-29.550000000000001
42
-2.4142135623730812
10
-13.44999999999999
20
-29.000000000000004
10
-4.5499999999999918
20
-29.000000000000004
42
-2.4142135623730949
10
-3.9999999999999947
20
-29.550000000000001
10
-3.9999999999999947
20
-31.999999999999993
10
4.0000000000000053
20
-31.999999999999993
10
4.0000000000000053
20
-29.550000000000001
42
-2.4142135623731007
10
4.5500000000000016
20
-29.000000000000004
10
13.450000000000006
20
-29.000000000000004
42
-2.4142135623730949
10
14.000000000000004
20
-29.550000000000001
10
14.000000000000004
20
-31.999999999999993
10
22.000000000000007
20
-31.999999999999993
10
22.000000000000007
20
-29.550000000000001
42
-2.4142135623731082
10
22.549999999999997
20
-29.000000000000004
10
29.000000000000004
20
-29.000000000000004
10
29.000000000000004
20
-22.539300514640349
42
-2.4142135623730949
10
29.550000000000001
20
-21.989300514640352
10
32
20
-21.989300514640352
10
32
20
-13.98930051464035
10
29.550000000000001
20
-13.98930051464035
42
-2.4142135623730949
10
29.000000000000004
20
-13.439300514640351
10
29.000000000000004
20
-4.544650257320165
42
-2.4142135623730949
10
29.550000000000001
20
-3.9946502573201674
10
32
20
-3.9946502573201674
10
32
20
4.005349742679833
10
29.550000000000001
20
4.005349742679833
42
-2.4142135623730949
10
29.000000000000004
20
4.5553497426798328
10
29.000000000000004
20
13.450000000000015
42
-2.4142135623730949
10
29.550000000000004
20
14.000000000000018
10
32.000000000000014
20
14.000000000000018
10
32.000000000000014
20
22.000000000000025
10
29.550000000000001
20
22.000000000000021
42
-2.4142135623731082
10
29.000000000000007
20
22.550000000000018
10
29.000000000000007
20
29.000000000000004
10
22.550000000000004
20
29.000000000000004
42
-2.4142135623730674
10
22.000000000000007
20
29.550000000000011
10
22.000000000000007
20
32.000000000000014
10
14.000000000000004
20
32.000000000000014
10
14.000000000000004
20
29.550000000000011
42
-2.4142135623731082
10
13.450000000000008
20
29.000000000000007
10
4.5500000000000025
20
29.000000000000007
42
-2.4142135623730812
10
4.0000000000000053
20
29.550000000000011
10
4.0000000000000053
20
32.000000000000014
10
-3.9999999999999947
20
32.000000000000014
10
-3.9999999999999947
20
29.550000000000011
42
-2.4142135623731433
10
-4.5499999999999776
20
29.000000000000014
10
-13.449999999999998
20
29.000000000000014
42
-2.4142135623730949
10
-13.999999999999995
20
29.550000000000011
10
-13.999999999999995
20
32.000000000000014
10
-21.999999999999993
20
32.000000000000014
10
-21.999999999999993
20
29.550000000000015
42
-2.414213562373122
10
-22.549999999999983
20
29.000000000000018
10
-28.999999999999993
20
29.000000000000018
10
-28.999999999999993
20
22.550000000000018
42
-2.4142135623730812
10
-29.549999999999997
20
22.000000000000021
10
-31.999999999999993
20
22.000000000000021
10
-31.999999999999993
20
14.000000000000018
10
-29.550000000000001
20
14.000000000000018
42
-2.4142135623730812
10
-28.999999999999993
20
13.450000000000017
10
-28.999999999999993
20
4.5553497426798302
42
-2.4142135623730812
10
-29.549999999999997
20
4.005349742679833
10
-31.999999999999993
20
4.005349742679833
10
-31.999999999999993
20
-3.994650257320167
10
-29.550000000000001
20
-3.9946502573201674
42
-2.4142135623730812
10
-28.999999999999993
20
-4.5446502573201659
0
LWPOLYLINE
5
101
100
AcDbEntity
8
0
100
AcDbPolyline
90
4
70
1
43
0.0
10
4.7096856294486154
20
-5.0000000000000009
42
-2.3157076850186447
10
4.7096856294486162
20
4.9999999999999991
10
4.900941821310159
20
5
42
-0.99999999999999989
10
4.900941821310159
20
-5
0
CIRCLE
5
102
100
AcDbEntity
8
0
100
AcDbCircle
10
15.909902576697288
20
15.909902576697348
30
0
40
2.6000000000000001
210
0
220
-0
230
1
0
CIRCLE
5
103
100
AcDbEntity
8
0
100
AcDbCircle
10
15.909902576698201
20
-15.909902576697315
30
0
40
2.5999999999997621
210
0
220
-0
230
1
0
CIRCLE
5
104
100
AcDbEntity
8
0
100
AcDbCircle
10
-15.909902576696432
20
-15.909902576698203
30
0
40
2.6000000000006436
210
0
220
-0
230
1
0
CIRCLE
5
105
100
AcDbEntity
8
0
100
AcDbCircle
10
-15.909902576697323
20
15.909902576696432
30
0
40
2.6000000000009349
210
0
220
-0
230
1
0
CIRCLE
5
106
100
AcDbEntity
8
0
100
AcDbCircle
10
9.8994949366116511
20
-9.8994949366116796
30
0
40
1.5499999999999994
210
0
220
-0
230
1
0
CIRCLE
5
107
100
AcDbEntity
8
0
100
AcDbCircle
10
-9.8994949366116813
20
-9.8994949366116494
30
0
40
1.5500000000000012
210
0
220
-0
230
1
0
CIRCLE
5
108
100
AcDbEntity
8
0
100
AcDbCircle
10
-9.8994949366116494
20
9.8994949366116796
30
0
40
1.5500000000000012
210
0
220
-0
230
1
0
CIRCLE
5
109
100
AcDbEntity
8
0
100
AcDbCircle
10
9.8994949366116796
20
9.8994949366116511
30
0
40
1.5499999999999994
210
0
220
-0
230
1
0
ENDSEC
0
SECTION
2
OBJECTS
0
DICTIONARY
5
C
100
AcDbDictionary
3
ACAD_GROUP
350
D
3
ACAD_MLINESTYLE
350
17
0
DICTIONARY
5
D
100
AcDbDictionary
0
DICTIONARY
5
1A
330
C
100
AcDbDictionary
0
DICTIONARY
5
17
100
AcDbDictionary
0
ENDSEC
0
EOF
