<?xml version="1.0" encoding="UTF-8" standalone="no"?>
<svg
   xmlns:dc="http://purl.org/dc/elements/1.1/"
   xmlns:cc="http://creativecommons.org/ns#"
   xmlns:rdf="http://www.w3.org/1999/02/22-rdf-syntax-ns#"
   xmlns:svg="http://www.w3.org/2000/svg"
   xmlns="http://www.w3.org/2000/svg"
   xmlns:sodipodi="http://sodipodi.sourceforge.net/DTD/sodipodi-0.dtd"
   xmlns:inkscape="http://www.inkscape.org/namespaces/inkscape"
   width="210mm"
   height="297mm"
   viewBox="0 0 210 297"
   version="1.1"
   id="svg5033"
   inkscape:version="1.0.2-2 (e86c870879, 2021-01-15)"
   sodipodi:docname="cage_all_parts.svg">
  <defs
     id="defs5027">
    <marker
       id="DistanceX"
       orient="auto"
       refX="0.0"
       refY="0.0"
       style="overflow:visible">
      <path
         d="M 3,-3 L -3,3 M 0,-5 L  0,5"
         style="stroke:#000000; stroke-width:0.5"
         id="path5596" />
    </marker>
    <pattern
       id="Hatch"
       patternUnits="userSpaceOnUse"
       width="8"
       height="8"
       x="0"
       y="0">
      <path
         d="M8 4 l-4,4"
         stroke="#000000"
         stroke-width="0.25"
         linecap="square"
         id="path5599" />
      <path
         d="M6 2 l-4,4"
         stroke="#000000"
         stroke-width="0.25"
         linecap="square"
         id="path5601" />
      <path
         d="M4 0 l-4,4"
         stroke="#000000"
         stroke-width="0.25"
         linecap="square"
         id="path5603" />
    </pattern>
    <symbol
       id="*MODEL_SPACE" />
    <symbol
       id="*PAPER_SPACE" />
    <marker
       id="DistanceX-2"
       orient="auto"
       refX="0.0"
       refY="0.0"
       style="overflow:visible">
      <path
         d="M 3,-3 L -3,3 M 0,-5 L  0,5"
         style="stroke:#000000; stroke-width:0.5"
         id="path6145" />
    </marker>
    <pattern
       id="Hatch-6"
       patternUnits="userSpaceOnUse"
       width="8"
       height="8"
       x="0"
       y="0">
      <path
         d="M8 4 l-4,4"
         stroke="#000000"
         stroke-width="0.25"
         linecap="square"
         id="path6148" />
      <path
         d="M6 2 l-4,4"
         stroke="#000000"
         stroke-width="0.25"
         linecap="square"
         id="path6150" />
      <path
         d="M4 0 l-4,4"
         stroke="#000000"
         stroke-width="0.25"
         linecap="square"
         id="path6152" />
    </pattern>
    <symbol
       id="*MODEL_SPACE-1" />
    <symbol
       id="*PAPER_SPACE-7" />
    <marker
       id="DistanceX-4"
       orient="auto"
       refX="0.0"
       refY="0.0"
       style="overflow:visible">
      <path
         d="M 3,-3 L -3,3 M 0,-5 L  0,5"
         style="stroke:#000000; stroke-width:0.5"
         id="path6226" />
    </marker>
    <pattern
       id="Hatch-9"
       patternUnits="userSpaceOnUse"
       width="8"
       height="8"
       x="0"
       y="0">
      <path
         d="M8 4 l-4,4"
         stroke="#000000"
         stroke-width="0.25"
         linecap="square"
         id="path6229" />
      <path
         d="M6 2 l-4,4"
         stroke="#000000"
         stroke-width="0.25"
         linecap="square"
         id="path6231" />
      <path
         d="M4 0 l-4,4"
         stroke="#000000"
         stroke-width="0.25"
         linecap="square"
         id="path6233" />
    </pattern>
    <symbol
       id="*MODEL_SPACE-7" />
    <symbol
       id="*PAPER_SPACE-71" />
    <marker
       id="DistanceX-1"
       orient="auto"
       refX="0.0"
       refY="0.0"
       style="overflow:visible">
      <path
         d="M 3,-3 L -3,3 M 0,-5 L  0,5"
         style="stroke:#000000; stroke-width:0.5"
         id="path6301" />
    </marker>
    <pattern
       id="Hatch-3"
       patternUnits="userSpaceOnUse"
       width="8"
       height="8"
       x="0"
       y="0">
      <path
         d="M8 4 l-4,4"
         stroke="#000000"
         stroke-width="0.25"
         linecap="square"
         id="path6304" />
      <path
         d="M6 2 l-4,4"
         stroke="#000000"
         stroke-width="0.25"
         linecap="square"
         id="path6306" />
      <path
         d="M4 0 l-4,4"
         stroke="#000000"
         stroke-width="0.25"
         linecap="square"
         id="path6308" />
    </pattern>
    <symbol
       id="*MODEL_SPACE-9" />
    <symbol
       id="*PAPER_SPACE-6" />
    <marker
       id="DistanceX-40"
       orient="auto"
       refX="0.0"
       refY="0.0"
       style="overflow:visible">
      <path
         d="M 3,-3 L -3,3 M 0,-5 L  0,5"
         style="stroke:#000000; stroke-width:0.5"
         id="path6364" />
    </marker>
    <pattern
       id="Hatch-7"
       patternUnits="userSpaceOnUse"
       width="8"
       height="8"
       x="0"
       y="0">
      <path
         d="M8 4 l-4,4"
         stroke="#000000"
         stroke-width="0.25"
         linecap="square"
         id="path6367" />
      <path
         d="M6 2 l-4,4"
         stroke="#000000"
         stroke-width="0.25"
         linecap="square"
         id="path6369" />
      <path
         d="M4 0 l-4,4"
         stroke="#000000"
         stroke-width="0.25"
         linecap="square"
         id="path6371" />
    </pattern>
    <symbol
       id="*MODEL_SPACE-95" />
    <symbol
       id="*PAPER_SPACE-8" />
    <marker
       id="DistanceX-7"
       orient="auto"
       refX="0.0"
       refY="0.0"
       style="overflow:visible">
      <path
         d="M 3,-3 L -3,3 M 0,-5 L  0,5"
         style="stroke:#000000; stroke-width:0.5"
         id="path6538" />
    </marker>
    <pattern
       id="Hatch-1"
       patternUnits="userSpaceOnUse"
       width="8"
       height="8"
       x="0"
       y="0">
      <path
         d="M8 4 l-4,4"
         stroke="#000000"
         stroke-width="0.25"
         linecap="square"
         id="path6541" />
      <path
         d="M6 2 l-4,4"
         stroke="#000000"
         stroke-width="0.25"
         linecap="square"
         id="path6543" />
      <path
         d="M4 0 l-4,4"
         stroke="#000000"
         stroke-width="0.25"
         linecap="square"
         id="path6545" />
    </pattern>
    <symbol
       id="*MODEL_SPACE-8" />
    <symbol
       id="*PAPER_SPACE-89" />
    <marker
       id="DistanceX-21"
       orient="auto"
       refX="0.0"
       refY="0.0"
       style="overflow:visible">
      <path
         d="M 3,-3 L -3,3 M 0,-5 L  0,5"
         style="stroke:#000000; stroke-width:0.5"
         id="path6637" />
    </marker>
    <pattern
       id="Hatch-8"
       patternUnits="userSpaceOnUse"
       width="8"
       height="8"
       x="0"
       y="0">
      <path
         d="M8 4 l-4,4"
         stroke="#000000"
         stroke-width="0.25"
         linecap="square"
         id="path6640" />
      <path
         d="M6 2 l-4,4"
         stroke="#000000"
         stroke-width="0.25"
         linecap="square"
         id="path6642" />
      <path
         d="M4 0 l-4,4"
         stroke="#000000"
         stroke-width="0.25"
         linecap="square"
         id="path6644" />
    </pattern>
    <symbol
       id="*MODEL_SPACE-5" />
    <symbol
       id="*PAPER_SPACE-3" />
    <marker
       id="DistanceX-47"
       orient="auto"
       refX="0.0"
       refY="0.0"
       style="overflow:visible">
      <path
         d="M 3,-3 L -3,3 M 0,-5 L  0,5"
         style="stroke:#000000; stroke-width:0.5"
         id="path7009" />
    </marker>
    <pattern
       id="Hatch-31"
       patternUnits="userSpaceOnUse"
       width="8"
       height="8"
       x="0"
       y="0">
      <path
         d="M8 4 l-4,4"
         stroke="#000000"
         stroke-width="0.25"
         linecap="square"
         id="path7012" />
      <path
         d="M6 2 l-4,4"
         stroke="#000000"
         stroke-width="0.25"
         linecap="square"
         id="path7014" />
      <path
         d="M4 0 l-4,4"
         stroke="#000000"
         stroke-width="0.25"
         linecap="square"
         id="path7016" />
    </pattern>
    <symbol
       id="*MODEL_SPACE-4" />
    <symbol
       id="*PAPER_SPACE-0" />
    <marker
       id="DistanceX-5"
       orient="auto"
       refX="0.0"
       refY="0.0"
       style="overflow:visible">
      <path
         d="M 3,-3 L -3,3 M 0,-5 L  0,5"
         style="stroke:#000000; stroke-width:0.5"
         id="path7774" />
    </marker>
    <pattern
       id="Hatch-80"
       patternUnits="userSpaceOnUse"
       width="8"
       height="8"
       x="0"
       y="0">
      <path
         d="M8 4 l-4,4"
         stroke="#000000"
         stroke-width="0.25"
         linecap="square"
         id="path7777" />
      <path
         d="M6 2 l-4,4"
         stroke="#000000"
         stroke-width="0.25"
         linecap="square"
         id="path7779" />
      <path
         d="M4 0 l-4,4"
         stroke="#000000"
         stroke-width="0.25"
         linecap="square"
         id="path7781" />
    </pattern>
    <symbol
       id="*MODEL_SPACE-14" />
    <symbol
       id="*PAPER_SPACE-9" />
  </defs>
  <sodipodi:namedview
     id="base"
     pagecolor="#ffffff"
     bordercolor="#666666"
     borderopacity="1.0"
     inkscape:pageopacity="0.0"
     inkscape:pageshadow="2"
     inkscape:zoom="0.98939912"
     inkscape:cx="59.389315"
     inkscape:cy="-39.23148"
     inkscape:document-units="mm"
     inkscape:current-layer="layer1"
     inkscape:document-rotation="0"
     showgrid="false"
     inkscape:window-width="1858"
     inkscape:window-height="1057"
     inkscape:window-x="54"
     inkscape:window-y="-8"
     inkscape:window-maximized="1"
     inkscape:snap-global="true" />
  <metadata
     id="metadata5030">
    <rdf:RDF>
      <cc:Work
         rdf:about="">
        <dc:format>image/svg+xml</dc:format>
        <dc:type
           rdf:resource="http://purl.org/dc/dcmitype/StillImage" />
        <dc:title></dc:title>
      </cc:Work>
    </rdf:RDF>
  </metadata>
  <g
     inkscape:label="Layer 1"
     inkscape:groupmode="layer"
     id="layer1">
    <path
       id="path7794"
       style="fill:#cccccc;stroke:#000000;stroke-width:0.999999"
       d="M 27.316406 -427.04688 A 15.11811 15.11811 0 0 0 12.199219 -411.92773 L 12.199219 176.46484 A 15.11811 15.11811 0 0 0 27.316406 191.58398 L 261.64648 191.58398 A 15.11811 15.11811 0 0 0 276.76562 176.46484 L 276.76562 -411.92773 A 15.11811 15.11811 0 0 0 261.64648 -427.04688 L 27.316406 -427.04688 z M 260.03516 -407.4707 A 5.6692912 5.6692912 0 0 1 265.80469 -401.79688 A 5.6692912 5.6692912 0 1 1 254.4668 -401.79688 A 5.6692912 5.6692912 0 0 1 260.03516 -407.4707 z M 28.726562 -407.46875 A 5.6692912 5.6692912 0 0 1 34.498047 -401.79688 A 5.6699219 5.6699219 0 0 1 23.158203 -401.79688 A 5.6692912 5.6692912 0 0 1 28.726562 -407.46875 z M 35.234375 -375.72461 A 2.07874 2.07874 0 1 1 35.253906 -371.56641 L 35.253906 -343.97461 A 2.07874 2.07874 0 1 1 33.173828 -341.89648 L 24.482422 -341.89648 A 2.07874 2.07874 0 1 1 22.402344 -343.97461 L 22.402344 -371.56641 A 2.07874 2.07874 0 1 1 22.419922 -375.72266 A 2.07874 2.07874 0 0 1 24.482422 -373.64453 L 33.173828 -373.64453 A 2.07874 2.07874 0 0 1 35.234375 -375.72461 z M 266.54492 -375.72461 A 2.07874 2.07874 0 1 1 266.56055 -371.56641 L 266.56055 -343.97461 A 2.07874 2.07874 0 1 1 264.48242 -341.89648 L 255.78906 -341.89648 A 2.07874 2.07874 0 1 1 253.71094 -343.97461 L 253.71094 -371.56641 A 2.07874 2.07874 0 1 1 253.72656 -375.72266 A 2.07874 2.07874 0 0 1 255.78906 -373.64453 L 264.48242 -373.64453 A 2.07874 2.07874 0 0 1 266.54492 -375.72461 z M 106.62695 -372.26758 A 2.07874 2.07874 0 0 1 108.62305 -370.94531 L 180.33984 -370.94531 A 2.07874 2.07874 0 1 1 183.0332 -368.25195 L 183.0332 -360.78711 A 2.07874 2.07874 0 1 1 180.33984 -358.09375 L 108.62305 -358.09375 A 2.07874 2.07874 0 1 1 105.92969 -360.78711 L 105.92969 -368.25195 A 2.07874 2.07874 0 0 1 106.62695 -372.26758 z M 23.099609 -304.47852 A 2.07874 2.07874 0 0 1 25.095703 -303.15625 L 32.560547 -303.15625 A 2.07874 2.07874 0 1 1 35.253906 -300.46484 L 35.253906 -271.49219 A 2.07874 2.07874 0 1 1 32.417969 -269.55664 L 25.238281 -269.55664 A 2.07874 2.07874 0 1 1 22.402344 -271.49219 L 22.402344 -300.46484 A 2.07874 2.07874 0 0 1 23.099609 -304.47852 z M 254.4082 -304.47852 A 2.07874 2.07874 0 0 1 256.40234 -303.15625 L 263.86719 -303.15625 A 2.07874 2.07874 0 1 1 266.56055 -300.46484 L 266.56055 -271.49219 A 2.07874 2.07874 0 1 1 263.72656 -269.55664 L 256.54492 -269.55664 A 2.07874 2.07874 0 1 1 253.71094 -271.49219 L 253.71094 -300.46484 A 2.07874 2.07874 0 0 1 254.4082 -304.47852 z M 23.099609 -233.99023 A 2.07874 2.07874 0 0 1 25.095703 -232.66797 L 32.560547 -232.66797 A 2.07874 2.07874 0 1 1 35.253906 -229.97656 L 35.253906 -203.61328 A 2.07874 2.07874 0 1 1 32.560547 -200.91992 L 25.095703 -200.91992 A 2.07874 2.07874 0 1 1 22.402344 -203.61328 L 22.402344 -229.97656 A 2.07874 2.07874 0 0 1 23.099609 -233.99023 z M 254.4082 -233.99023 A 2.07874 2.07874 0 0 1 256.40234 -232.66797 L 263.86719 -232.66797 A 2.07874 2.07874 0 1 1 266.56055 -229.97656 L 266.56055 -203.61328 A 2.07874 2.07874 0 1 1 263.86719 -200.91992 L 256.40234 -200.91992 A 2.07874 2.07874 0 1 1 253.71094 -203.61328 L 253.71094 -229.97656 A 2.07874 2.07874 0 0 1 254.4082 -233.99023 z M 61.273438 -179.32227 A 2.07874 2.07874 0 0 1 63.267578 -178 L 89.632812 -178 A 2.07874 2.07874 0 1 1 92.324219 -175.30664 L 92.324219 -167.8418 A 2.07874 2.07874 0 1 1 89.632812 -165.15039 L 63.267578 -165.15039 A 2.07874 2.07874 0 1 1 60.576172 -167.8418 L 60.576172 -175.30664 A 2.07874 2.07874 0 0 1 61.273438 -179.32227 z M 129.30469 -179.32227 A 2.07874 2.07874 0 0 1 131.30078 -178 L 157.66406 -178 A 2.07874 2.07874 0 1 1 160.35547 -175.30664 L 160.35547 -167.8418 A 2.07874 2.07874 0 1 1 157.66406 -165.15039 L 131.30078 -165.15039 A 2.07874 2.07874 0 1 1 128.60742 -167.8418 L 128.60742 -175.30664 A 2.07874 2.07874 0 0 1 129.30469 -179.32227 z M 197.33594 -179.32227 A 2.07874 2.07874 0 0 1 199.33203 -178 L 225.69531 -178 A 2.07874 2.07874 0 1 1 228.38672 -175.30664 L 228.38672 -167.8418 A 2.07874 2.07874 0 1 1 225.69531 -165.15039 L 199.33203 -165.15039 A 2.07874 2.07874 0 1 1 196.63867 -167.8418 L 196.63867 -175.30664 A 2.07874 2.07874 0 0 1 197.33594 -179.32227 z M 23.099609 -163.50195 A 2.07874 2.07874 0 0 1 25.095703 -162.17969 L 32.560547 -162.17969 A 2.07874 2.07874 0 1 1 35.253906 -159.48828 L 35.253906 -133.125 A 2.07874 2.07874 0 1 1 32.560547 -130.43164 L 25.095703 -130.43164 A 2.07874 2.07874 0 1 1 22.402344 -133.125 L 22.402344 -159.48828 A 2.07874 2.07874 0 0 1 23.099609 -163.50195 z M 254.4082 -163.50195 A 2.07874 2.07874 0 0 1 256.40234 -162.17969 L 263.86719 -162.17969 A 2.07874 2.07874 0 1 1 266.56055 -159.48828 L 266.56055 -133.125 A 2.07874 2.07874 0 1 1 263.86719 -130.43164 L 256.40234 -130.43164 A 2.07874 2.07874 0 1 1 253.71094 -133.125 L 253.71094 -159.48828 A 2.07874 2.07874 0 0 1 254.4082 -163.50195 z M 68.742188 -160.07227 A 9.4488188 9.4488188 0 0 1 78.339844 -150.62305 A 9.4492189 9.4492189 0 1 1 59.441406 -150.62305 A 9.4488188 9.4488188 0 0 1 68.742188 -160.07227 z M 219.92188 -160.07227 A 9.4488188 9.4488188 0 0 1 229.52148 -150.62305 A 9.4492149 9.4492149 0 0 1 210.62305 -150.62305 A 9.4488188 9.4488188 0 0 1 219.92188 -160.07227 z M 23.099609 -93.013672 A 2.07874 2.07874 0 0 1 25.095703 -91.691406 L 32.560547 -91.691406 A 2.07874 2.07874 0 1 1 35.253906 -89 L 35.253906 -62.636719 A 2.07874 2.07874 0 1 1 32.560547 -59.943359 L 25.095703 -59.943359 A 2.07874 2.07874 0 1 1 22.402344 -62.636719 L 22.402344 -89 A 2.07874 2.07874 0 0 1 23.099609 -93.013672 z M 254.4082 -93.013672 A 2.07874 2.07874 0 0 1 256.40234 -91.691406 L 263.86719 -91.691406 A 2.07874 2.07874 0 1 1 266.56055 -89 L 266.56055 -62.636719 A 2.07874 2.07874 0 1 1 263.86719 -59.943359 L 256.40234 -59.943359 A 2.07874 2.07874 0 1 1 253.71094 -62.636719 L 253.71094 -89 A 2.07874 2.07874 0 0 1 254.4082 -93.013672 z M 53.414062 -83.574219 A 5.6692912 5.6692912 0 0 1 59.1875 -77.904297 A 5.6692912 5.6692912 0 1 1 47.849609 -77.904297 A 5.6692912 5.6692912 0 0 1 53.414062 -83.574219 z M 235.33984 -83.574219 A 5.6692912 5.6692912 0 0 1 241.11328 -77.904297 A 5.6692912 5.6692912 0 0 1 229.77539 -77.904297 A 5.6692912 5.6692912 0 0 1 235.33984 -83.574219 z M 23.099609 -22.525391 A 2.07874 2.07874 0 0 1 25.095703 -21.203125 L 32.560547 -21.203125 A 2.07874 2.07874 0 1 1 35.253906 -18.511719 L 35.253906 7.8515625 A 2.07874 2.07874 0 1 1 32.560547 10.544922 L 25.095703 10.544922 A 2.07874 2.07874 0 1 1 22.402344 7.8515625 L 22.402344 -18.511719 A 2.07874 2.07874 0 0 1 23.099609 -22.525391 z M 254.4082 -22.525391 A 2.07874 2.07874 0 0 1 256.40234 -21.203125 L 263.86719 -21.203125 A 2.07874 2.07874 0 1 1 266.56055 -18.511719 L 266.56055 7.8515625 A 2.07874 2.07874 0 1 1 263.86719 10.544922 L 256.40234 10.544922 A 2.07874 2.07874 0 1 1 253.71094 7.8515625 L 253.71094 -18.511719 A 2.07874 2.07874 0 0 1 254.4082 -22.525391 z M 23.099609 47.962891 A 2.07874 2.07874 0 0 1 25.095703 49.285156 L 32.560547 49.285156 A 2.07874 2.07874 0 1 1 35.253906 51.976562 L 35.253906 78.339844 A 2.07874 2.07874 0 1 1 32.560547 81.033203 L 25.095703 81.033203 A 2.07874 2.07874 0 1 1 22.402344 78.339844 L 22.402344 51.976562 A 2.07874 2.07874 0 0 1 23.099609 47.962891 z M 254.4082 47.962891 A 2.07874 2.07874 0 0 1 256.40234 49.285156 L 263.86719 49.285156 A 2.07874 2.07874 0 1 1 266.56055 51.976562 L 266.56055 78.339844 A 2.07874 2.07874 0 1 1 263.86719 81.033203 L 256.40234 81.033203 A 2.07874 2.07874 0 1 1 253.71094 78.339844 L 253.71094 51.976562 A 2.07874 2.07874 0 0 1 254.4082 47.962891 z M 68.742188 66.699219 A 9.4488188 9.4488188 0 0 1 69 66.699219 A 9.4488188 9.4488188 0 0 1 78.339844 76.148438 A 9.4492189 9.4492189 0 1 1 59.441406 76.148438 A 9.4488188 9.4488188 0 0 1 68.742188 66.699219 z M 219.92383 66.699219 A 9.4488188 9.4488188 0 0 1 220.18164 66.699219 A 9.4488188 9.4488188 0 0 1 229.52148 76.148438 A 9.4492149 9.4492149 0 0 1 210.62305 76.148438 A 9.4488188 9.4488188 0 0 1 219.92383 66.699219 z M 91.509766 88.892578 A 2.07874 2.07874 0 0 1 92.324219 92.908203 L 92.324219 100.375 A 2.07874 2.07874 0 1 1 89.632812 103.06641 L 63.267578 103.06641 A 2.07874 2.07874 0 1 1 60.576172 100.375 L 60.576172 92.908203 A 2.07874 2.07874 0 0 1 61.273438 88.894531 A 2.07874 2.07874 0 0 1 63.267578 90.216797 L 89.632812 90.216797 A 2.07874 2.07874 0 0 1 91.509766 88.892578 z M 159.54102 88.892578 A 2.07874 2.07874 0 0 1 160.35547 92.908203 L 160.35547 100.375 A 2.07874 2.07874 0 1 1 157.66406 103.06641 L 131.30078 103.06641 A 2.07874 2.07874 0 1 1 128.60742 100.375 L 128.60742 92.908203 A 2.07874 2.07874 0 0 1 129.30469 88.894531 A 2.07874 2.07874 0 0 1 131.30078 90.216797 L 157.66406 90.216797 A 2.07874 2.07874 0 0 1 159.54102 88.892578 z M 227.57227 88.892578 A 2.07874 2.07874 0 0 1 228.38672 92.908203 L 228.38672 100.375 A 2.07874 2.07874 0 1 1 225.69531 103.06641 L 199.33203 103.06641 A 2.07874 2.07874 0 1 1 196.63867 100.375 L 196.63867 92.908203 A 2.07874 2.07874 0 0 1 197.33594 88.894531 A 2.07874 2.07874 0 0 1 199.33203 90.216797 L 225.69531 90.216797 A 2.07874 2.07874 0 0 1 227.57227 88.892578 z M 23.099609 118.45117 A 2.07874 2.07874 0 0 1 25.095703 119.77344 L 32.560547 119.77344 A 2.07874 2.07874 0 1 1 35.253906 122.46484 L 35.253906 148.82812 A 2.07874 2.07874 0 1 1 32.560547 151.52148 L 25.095703 151.52148 A 2.07874 2.07874 0 1 1 22.402344 148.82812 L 22.402344 122.46484 A 2.07874 2.07874 0 0 1 23.099609 118.45117 z M 254.4082 118.45117 A 2.07874 2.07874 0 0 1 256.40234 119.77344 L 263.86719 119.77344 A 2.07874 2.07874 0 1 1 266.56055 122.46484 L 266.56055 148.82812 A 2.07874 2.07874 0 1 1 263.86719 151.52148 L 256.40234 151.52148 A 2.07874 2.07874 0 1 1 253.71094 148.82812 L 253.71094 122.46484 A 2.07874 2.07874 0 0 1 254.4082 118.45117 z M 91.509766 146.00195 A 2.07874 2.07874 0 0 1 92.324219 150.01758 L 92.324219 157.48438 A 2.07874 2.07874 0 1 1 89.632812 160.17578 L 63.267578 160.17578 A 2.07874 2.07874 0 1 1 60.576172 157.48438 L 60.576172 150.01758 A 2.07874 2.07874 0 0 1 61.273438 146.00391 A 2.07874 2.07874 0 0 1 63.267578 147.32617 L 89.632812 147.32617 A 2.07874 2.07874 0 0 1 91.509766 146.00195 z M 159.54102 146.00195 A 2.07874 2.07874 0 0 1 160.35547 150.01758 L 160.35547 157.48438 A 2.07874 2.07874 0 1 1 157.66406 160.17578 L 131.30078 160.17578 A 2.07874 2.07874 0 1 1 128.60742 157.48438 L 128.60742 150.01758 A 2.07874 2.07874 0 0 1 129.30469 146.00391 A 2.07874 2.07874 0 0 1 131.30078 147.32617 L 157.66406 147.32617 A 2.07874 2.07874 0 0 1 159.54102 146.00195 z M 227.57227 146.00195 A 2.07874 2.07874 0 0 1 228.38672 150.01758 L 228.38672 157.48438 A 2.07874 2.07874 0 1 1 225.69531 160.17578 L 199.33203 160.17578 A 2.07874 2.07874 0 1 1 196.63867 157.48438 L 196.63867 150.01758 A 2.07874 2.07874 0 0 1 197.33594 146.00391 A 2.07874 2.07874 0 0 1 199.33203 147.32617 L 225.69531 147.32617 A 2.07874 2.07874 0 0 1 227.57227 146.00195 z M 53.414062 164.42383 A 5.6692912 5.6692912 0 0 1 59.1875 170.0918 A 5.6692912 5.6692912 0 1 1 47.849609 170.0918 A 5.6692912 5.6692912 0 0 1 53.414062 164.42383 z M 235.33984 164.42383 A 5.6692912 5.6692912 0 0 1 241.11328 170.0918 A 5.6692912 5.6692912 0 0 1 229.77539 170.0918 A 5.6692912 5.6692912 0 0 1 235.33984 164.42383 z "
       transform="scale(0.26458333)" />
    <path
       id="path7023"
       style="fill:#cccccc;stroke:#000000;stroke-width:0.999999"
       d="M -251.27734 -427.5957 A 15.11811 15.11811 0 0 0 -266.39648 -412.47656 L -266.39648 175.91797 A 15.11811 15.11811 0 0 0 -251.27734 191.03516 L -16.947266 191.03516 A 15.11811 15.11811 0 0 0 -1.828125 175.91797 L -1.828125 -412.47656 A 15.11811 15.11811 0 0 0 -16.947266 -427.5957 L -251.27734 -427.5957 z M -249.86523 -408.01758 A 5.6692912 5.6692912 0 0 1 -244.0957 -402.3457 A 5.6699249 5.6699249 0 1 1 -255.43555 -402.3457 A 5.6692912 5.6692912 0 0 1 -249.86523 -408.01758 z M -18.560547 -408.01758 A 5.6692912 5.6692912 0 0 1 -12.789062 -402.3457 A 5.6699219 5.6699219 0 0 1 -24.128906 -402.3457 A 5.6692912 5.6692912 0 0 1 -18.560547 -408.01758 z M -256.19922 -376.27148 A 2.07874 2.07874 0 0 1 -254.11328 -374.19336 L -245.41992 -374.19336 A 2.07874 2.07874 0 1 1 -243.33984 -372.11328 L -243.33984 -344.52344 A 2.07874 2.07874 0 1 1 -245.41992 -342.44531 L -254.11328 -342.44531 A 2.07874 2.07874 0 1 1 -256.19141 -344.52344 L -256.19141 -372.11328 A 2.0791036 2.0791036 0 0 1 -256.19922 -376.27148 z M -24.892578 -376.27148 A 2.07874 2.07874 0 0 1 -22.804688 -374.19336 L -14.113281 -374.19336 A 2.07874 2.07874 0 1 1 -12.033203 -372.11328 L -12.033203 -344.52344 A 2.07874 2.07874 0 1 1 -14.113281 -342.44531 L -22.804688 -342.44531 A 2.07874 2.07874 0 1 1 -24.884766 -344.52344 L -24.884766 -372.11328 A 2.0791036 2.0791036 0 0 1 -24.892578 -376.27148 z M -171.96289 -372.81445 A 2.07874 2.07874 0 0 1 -169.9707 -371.49219 L -98.253906 -371.49219 A 2.07874 2.07874 0 1 1 -95.560547 -368.80078 L -95.560547 -361.33594 A 2.07874 2.07874 0 1 1 -98.253906 -358.64258 L -169.9707 -358.64258 A 2.07874 2.07874 0 1 1 -172.66406 -361.33594 L -172.66406 -368.80078 A 2.07874 2.07874 0 0 1 -171.96289 -372.81445 z M -153.79297 -320.19336 L -66.357422 -305.61133 L -82.507812 -298.09961 L -154.16016 -310.58398 L -179.98438 -301.44531 L -198.35156 -305.46094 L -153.79297 -320.19336 z M -38.148438 -306.0332 C -37.997707 -306.03596 -37.960803 -305.87348 -38.035156 -305.54492 L -45.666016 -277.05469 C -45.863931 -276.19393 -46.032372 -276.00931 -46.166016 -276.50391 L -49.90625 -286.7168 L -46.154297 -301.3457 C -46.021044 -301.8673 -45.920922 -302.14542 -45.851562 -302.18164 L -38.337891 -305.97461 C -38.262338 -306.01234 -38.19868 -306.03229 -38.148438 -306.0332 z M -255.49023 -305.02734 A 2.07874 2.07874 0 0 1 -253.49805 -303.70508 L -246.0332 -303.70508 A 2.07874 2.07874 0 1 1 -243.33984 -301.01172 L -243.33984 -272.04102 A 2.07874 2.07874 0 1 1 -246.17578 -270.10547 L -253.35742 -270.10547 A 2.07874 2.07874 0 1 1 -256.19141 -272.04102 L -256.19141 -301.01172 A 2.07874 2.07874 0 0 1 -255.49023 -305.02734 z M -24.181641 -305.02734 A 2.07874 2.07874 0 0 1 -22.191406 -303.70508 L -14.726562 -303.70508 A 2.07874 2.07874 0 1 1 -12.033203 -301.01172 L -12.033203 -272.04102 A 2.07874 2.07874 0 1 1 -14.869141 -270.10547 L -22.048828 -270.10547 A 2.07874 2.07874 0 1 1 -24.884766 -272.04102 L -24.884766 -301.01172 A 2.07874 2.07874 0 0 1 -24.181641 -305.02734 z M -228.43164 -299.15039 C -228.37326 -299.15882 -228.30514 -299.15359 -228.22656 -299.13477 L -223.01562 -297.94336 L -212.63867 -261.04883 L -216.22266 -262.23438 L -216.22266 -241.94141 C -216.22266 -241.57449 -216.40307 -241.46398 -216.76367 -241.60352 L -228.15234 -246.08789 C -228.51283 -246.2279 -228.69336 -246.44997 -228.69336 -246.75195 L -228.69336 -298.71484 C -228.69336 -298.97676 -228.60679 -299.12509 -228.43164 -299.15039 z M -219.35742 -297.10547 L -218.65234 -296.94141 L -216.6875 -296.49414 L -193.95117 -291.28906 C -193.46867 -291.17817 -193.22852 -290.9566 -193.22852 -290.61914 L -193.22852 -278.60156 C -193.22852 -278.26488 -193.40235 -278.14295 -193.74609 -278.23633 L -215.65234 -284.04688 L -219.35742 -297.10547 z M -56.441406 -296.81641 C -56.352542 -296.81666 -56.282224 -296.74052 -56.234375 -296.58789 L -37.837891 -248.42188 C -37.768918 -248.13875 -37.854845 -247.90396 -38.087891 -247.74023 L -46.154297 -242.01758 C -46.223689 -242.01759 -46.270294 -242.1046 -46.304688 -242.25 L -64.703125 -292.0332 C -64.801544 -292.40556 -64.740454 -292.64922 -64.5 -292.77148 L -56.537109 -296.79102 C -56.503651 -296.80857 -56.471028 -296.81632 -56.441406 -296.81641 z M -67.419922 -291.25977 C -67.319145 -291.24266 -67.297565 -291.08227 -67.349609 -290.78125 L -67.390625 -290.56641 C -67.36757 -290.46137 -67.349609 -290.35802 -67.349609 -290.18945 L -67.529297 -227.39453 C -67.534966 -227.02179 -67.655992 -226.75187 -67.890625 -226.58594 L -75.283203 -221.33984 C -75.52188 -221.17135 -75.636719 -221.31135 -75.636719 -221.74805 L -75.533203 -250.32227 L -78.441406 -237.48047 C -78.546061 -236.90428 -78.645344 -236.83554 -78.744141 -237.27734 L -82.460938 -252.02148 L -75.712891 -286.64062 C -75.678119 -286.97258 -75.608561 -287.1632 -75.503906 -287.2168 L -67.546875 -291.23047 C -67.495596 -291.25663 -67.453514 -291.26547 -67.419922 -291.25977 z M -184.23438 -289.52148 L -172.30469 -286.79297 C -172.19784 -286.76311 -172.09281 -286.62026 -171.99023 -286.36328 L -156.14648 -218.29297 C -156.09913 -217.96687 -156.11789 -217.81743 -156.22266 -217.85742 L -168.93164 -222.85938 C -168.98678 -222.94716 -169.07128 -223.11189 -169.16406 -223.3125 L -184.4668 -288.88086 C -184.57145 -289.36961 -184.49666 -289.57988 -184.23438 -289.52148 z M -152.79102 -282.28516 C -152.73292 -282.2996 -152.66494 -282.29684 -152.58789 -282.2793 L -146.86523 -280.96484 L -136.40039 -235.67383 L -140.57617 -237.0625 L -140.57617 -225.29102 L -133.50391 -222.73828 L -130.1543 -207.59766 L -141.12305 -211.91797 L -145.41016 -213.59961 L -152.51172 -216.39844 C -152.87195 -216.54384 -153.05273 -216.79954 -153.05273 -217.17773 L -153.05273 -281.72852 C -153.05273 -282.0553 -152.96531 -282.24182 -152.79102 -282.28516 z M -186.71875 -282 C -186.56198 -281.96334 -186.46231 -281.85377 -186.41016 -281.66797 L -180.04102 -257.54297 L -182.16992 -249.84766 L -178.40625 -248.5918 C -178.35885 -248.57328 -178.27886 -248.48134 -178.17383 -248.33594 L -174.74805 -233.4043 C -174.70042 -233.14702 -174.77789 -233.05523 -174.98047 -233.13086 L -185.01367 -236.87109 L -187.52734 -230.35156 C -187.57504 -230.25791 -187.6851 -230.23984 -187.8418 -230.30273 L -187.8418 -230.30469 L -199.61328 -234.93359 C -199.97389 -235.07899 -200.1543 -235.31694 -200.1543 -235.64844 L -187.0332 -281.82031 C -186.97961 -281.98283 -186.87628 -282.04108 -186.71875 -282 z M -143.20508 -280.12695 L -141.05469 -279.63672 L -141.03711 -279.62695 L -128.96094 -276.86328 C -124.19725 -275.76976 -120.38925 -273.04144 -117.54492 -268.62109 C -114.70115 -264.16969 -113.27539 -258.85759 -113.27539 -252.71289 C -113.2754 -245.88718 -114.93415 -241.09192 -118.24219 -238.35352 C -114.93815 -232.94163 -113.2754 -227.36992 -113.27539 -221.71289 C -113.27538 -215.23447 -114.67305 -210.66405 -117.46289 -208.02539 C -119.8126 -205.89639 -122.84186 -205.35694 -126.53516 -206.32812 L -129.8457 -221.41602 L -129.19336 -221.18359 C -122.3359 -218.6242 -122.11484 -230.99549 -129.19336 -233.27539 L -129.19531 -233.2832 L -132.74219 -234.45703 L -136.95898 -253.11133 L -129.11328 -250.83008 C -122.38948 -248.88724 -122.37186 -261.30507 -129.11328 -262.92773 L -139.86133 -265.74414 L -143.20508 -280.12695 z M -91.564453 -278.97852 C -91.474698 -278.97339 -91.407281 -278.88753 -91.359375 -278.71289 L -79.617188 -231.52539 L -79.773438 -230.37305 C -79.843433 -229.94647 -79.930841 -229.69807 -80.035156 -229.62891 L -87.777344 -224.41016 C -87.800021 -224.43775 -87.828569 -224.49069 -87.841797 -224.51562 C -87.871655 -224.57213 -87.901278 -224.63631 -87.927734 -224.69531 L -91.947266 -241.13867 L -92.103516 -210.09766 C -92.103519 -209.636 -92.224655 -209.3183 -92.464844 -209.14844 L -99.857422 -203.89648 C -100.09674 -203.72648 -100.21433 -203.84603 -100.20703 -204.25195 L -99.822266 -273.67578 C -99.822262 -273.88547 -99.805022 -274.04797 -99.775391 -274.19336 C -99.85854 -274.59076 -99.788945 -274.84676 -99.566406 -274.96094 L -91.662109 -278.95703 C -91.627224 -278.973 -91.594372 -278.98022 -91.564453 -278.97852 z M -212.67969 -273.38477 L -200.07617 -269.66797 C -199.5529 -269.51118 -199.29102 -269.27261 -199.29102 -268.94141 L -199.29102 -257.12109 C -199.29102 -256.7945 -199.47725 -256.69253 -199.85547 -256.81445 L -208.98047 -259.83789 L -212.67969 -273.38477 z M -56.683594 -260.92773 C -56.62364 -260.93455 -56.569662 -260.84223 -56.519531 -260.65234 L -52.732422 -251.29492 L -56.699219 -235.24023 C -56.832901 -234.67004 -56.938419 -234.37442 -57.001953 -234.31641 L -57.007812 -234.31641 L -64.517578 -228.98242 C -64.818504 -228.7685 -64.917939 -228.90949 -64.818359 -229.40625 L -57.025391 -260.07031 C -56.898021 -260.63005 -56.783516 -260.91638 -56.683594 -260.92773 z M -255.49414 -234.53906 A 2.07874 2.07874 0 0 1 -253.49805 -233.2168 L -246.0332 -233.2168 A 2.07874 2.07874 0 1 1 -243.33984 -230.52344 L -243.33984 -204.16016 A 2.07874 2.07874 0 1 1 -246.0332 -201.46875 L -253.49805 -201.46875 A 2.07874 2.07874 0 1 1 -256.19141 -204.16016 L -256.19141 -230.52344 A 2.07874 2.07874 0 0 1 -255.49414 -234.53906 z M -24.1875 -234.53906 A 2.07874 2.07874 0 0 1 -22.191406 -233.2168 L -14.726562 -233.2168 A 2.07874 2.07874 0 1 1 -12.033203 -230.52344 L -12.033203 -204.16016 A 2.07874 2.07874 0 1 1 -14.726562 -201.46875 L -22.191406 -201.46875 A 2.07874 2.07874 0 1 1 -24.884766 -204.16016 L -24.884766 -230.52344 A 2.07874 2.07874 0 0 1 -24.1875 -234.53906 z M -217.31641 -179.87109 A 2.07874 2.07874 0 0 1 -215.32617 -178.54883 L -188.96289 -178.54883 A 2.07874 2.07874 0 1 1 -186.26953 -175.85547 L -186.26953 -168.39062 A 2.07874 2.07874 0 1 1 -188.96289 -165.69727 L -215.32617 -165.69727 A 2.07874 2.07874 0 1 1 -218.01758 -168.39062 L -218.01758 -175.85547 A 2.07874 2.07874 0 0 1 -217.31641 -179.87109 z M -149.28516 -179.87109 A 2.07874 2.07874 0 0 1 -147.29492 -178.54883 L -120.93164 -178.54883 A 2.07874 2.07874 0 1 1 -118.23828 -175.85547 L -118.23828 -168.39062 A 2.07874 2.07874 0 1 1 -120.93164 -165.69727 L -147.29492 -165.69727 A 2.07874 2.07874 0 1 1 -149.98633 -168.39062 L -149.98633 -175.85547 A 2.07874 2.07874 0 0 1 -149.28516 -179.87109 z M -81.253906 -179.87109 A 2.07874 2.07874 0 0 1 -79.261719 -178.54883 L -52.898438 -178.54883 A 2.07874 2.07874 0 1 1 -50.207031 -175.85547 L -50.207031 -168.39062 A 2.07874 2.07874 0 1 1 -52.898438 -165.69727 L -79.261719 -165.69727 A 2.07874 2.07874 0 1 1 -81.955078 -168.39062 L -81.955078 -175.85547 A 2.07874 2.07874 0 0 1 -81.253906 -179.87109 z M -255.49414 -164.05078 A 2.07874 2.07874 0 0 1 -253.49805 -162.72852 L -246.0332 -162.72852 A 2.07874 2.07874 0 1 1 -243.33984 -160.03516 L -243.33984 -133.67188 A 2.07874 2.07874 0 1 1 -246.0332 -130.98047 L -253.49805 -130.98047 A 2.07874 2.07874 0 1 1 -256.19141 -133.67188 L -256.19141 -160.03516 A 2.07874 2.07874 0 0 1 -255.49414 -164.05078 z M -24.181641 -164.05078 A 2.07874 2.07874 0 0 1 -22.191406 -162.72852 L -14.726562 -162.72852 A 2.07874 2.07874 0 1 1 -12.033203 -160.03516 L -12.033203 -133.67188 A 2.07874 2.07874 0 1 1 -14.726562 -130.98047 L -22.191406 -130.98047 A 2.07874 2.07874 0 1 1 -24.884766 -133.67188 L -24.884766 -160.03516 A 2.07874 2.07874 0 0 1 -24.181641 -164.05078 z M -209.85156 -160.62109 A 9.4488188 9.4488188 0 0 1 -209.59375 -160.62109 A 9.4488188 9.4488188 0 0 1 -200.25391 -151.17188 A 9.4492149 9.4492149 0 0 1 -219.15234 -151.17188 A 9.4488188 9.4488188 0 0 1 -209.85156 -160.62109 z M -58.671875 -160.62109 A 9.4488188 9.4488188 0 0 1 -58.414062 -160.62109 A 9.4488188 9.4488188 0 0 1 -49.072266 -151.17188 A 9.4492184 9.4492184 0 0 1 -67.970703 -151.17188 A 9.4488188 9.4488188 0 0 1 -58.671875 -160.62109 z M -213.48242 -127.90234 L -54.742188 -127.90234 L -54.742188 51.873047 L -213.48242 51.873047 L -213.48242 -127.90234 z M -255.49023 -93.5625 A 2.07874 2.07874 0 0 1 -253.49805 -92.240234 L -246.0332 -92.240234 A 2.07874 2.07874 0 1 1 -243.33984 -89.548828 L -243.33984 -63.183594 A 2.07874 2.07874 0 1 1 -246.0332 -60.492188 L -253.49805 -60.492188 A 2.07874 2.07874 0 1 1 -256.19141 -63.183594 L -256.19141 -89.548828 A 2.07874 2.07874 0 0 1 -255.49023 -93.5625 z M -24.181641 -93.5625 A 2.07874 2.07874 0 0 1 -22.191406 -92.240234 L -14.726562 -92.240234 A 2.07874 2.07874 0 1 1 -12.033203 -89.548828 L -12.033203 -63.183594 A 2.07874 2.07874 0 1 1 -14.726562 -60.492188 L -22.191406 -60.492188 A 2.07874 2.07874 0 1 1 -24.884766 -63.183594 L -24.884766 -89.548828 A 2.07874 2.07874 0 0 1 -24.181641 -93.5625 z M -225.17969 -84.121094 A 5.6692912 5.6692912 0 0 1 -219.40625 -78.453125 A 5.6692912 5.6692912 0 0 1 -230.74414 -78.453125 A 5.6692912 5.6692912 0 0 1 -225.17969 -84.121094 z M -43.253906 -84.121094 A 5.6692916 5.6692916 0 0 1 -37.480469 -78.453125 A 5.6692916 5.6692916 0 1 1 -48.818359 -78.453125 A 5.6692916 5.6692916 0 0 1 -43.253906 -84.121094 z M -255.49023 -23.074219 A 2.07874 2.07874 0 0 1 -253.49805 -21.751953 L -246.0332 -21.751953 A 2.07874 2.07874 0 1 1 -243.33984 -19.060547 L -243.33984 7.3027344 A 2.07874 2.07874 0 1 1 -246.0332 9.9960938 L -253.49805 9.9960938 A 2.07874 2.07874 0 1 1 -256.19141 7.3027344 L -256.19141 -19.060547 A 2.07874 2.07874 0 0 1 -255.49023 -23.074219 z M -24.181641 -23.074219 A 2.07874 2.07874 0 0 1 -22.191406 -21.751953 L -14.726562 -21.751953 A 2.07874 2.07874 0 1 1 -12.033203 -19.060547 L -12.033203 7.3027344 A 2.07874 2.07874 0 1 1 -14.726562 9.9960938 L -22.191406 9.9960938 A 2.07874 2.07874 0 1 1 -24.884766 7.3027344 L -24.884766 -19.060547 A 2.07874 2.07874 0 0 1 -24.181641 -23.074219 z M -255.49023 47.414062 A 2.07874 2.07874 0 0 1 -253.49805 48.736328 L -246.0332 48.736328 A 2.07874 2.07874 0 1 1 -243.33984 51.427734 L -243.33984 77.791016 A 2.07874 2.07874 0 1 1 -246.0332 80.484375 L -253.49805 80.484375 A 2.07874 2.07874 0 1 1 -256.19141 77.791016 L -256.19141 51.427734 A 2.07874 2.07874 0 0 1 -255.49023 47.414062 z M -24.181641 47.414062 A 2.07874 2.07874 0 0 1 -22.191406 48.736328 L -14.726562 48.736328 A 2.07874 2.07874 0 1 1 -12.033203 51.427734 L -12.033203 77.791016 A 2.07874 2.07874 0 1 1 -14.726562 80.484375 L -22.191406 80.484375 A 2.07874 2.07874 0 1 1 -24.884766 77.791016 L -24.884766 51.427734 A 2.07874 2.07874 0 0 1 -24.181641 47.414062 z M -209.85352 66.152344 A 9.4488188 9.4488188 0 0 1 -200.25391 75.599609 A 9.4492149 9.4492149 0 0 1 -219.15234 75.599609 A 9.4488188 9.4488188 0 0 1 -209.85352 66.152344 z M -58.671875 66.152344 A 9.4488188 9.4488188 0 0 1 -49.072266 75.599609 A 9.4492184 9.4492184 0 0 1 -67.970703 75.599609 A 9.4488188 9.4488188 0 0 1 -58.671875 66.152344 z M -217.31641 88.345703 A 2.07874 2.07874 0 0 1 -215.32617 89.667969 L -188.96289 89.667969 A 2.07874 2.07874 0 1 1 -186.26953 92.361328 L -186.26953 99.826172 A 2.07874 2.07874 0 1 1 -188.96289 102.51953 L -215.32617 102.51953 A 2.07874 2.07874 0 1 1 -218.01758 99.826172 L -218.01758 92.361328 A 2.07874 2.07874 0 0 1 -217.31641 88.345703 z M -149.28516 88.345703 A 2.07874 2.07874 0 0 1 -147.29492 89.667969 L -120.93164 89.667969 A 2.07874 2.07874 0 1 1 -118.23828 92.361328 L -118.23828 99.826172 A 2.07874 2.07874 0 1 1 -120.93164 102.51953 L -147.29492 102.51953 A 2.07874 2.07874 0 1 1 -149.98633 99.826172 L -149.98633 92.361328 A 2.07874 2.07874 0 0 1 -149.28516 88.345703 z M -81.253906 88.345703 A 2.07874 2.07874 0 0 1 -79.261719 89.667969 L -52.898438 89.667969 A 2.07874 2.07874 0 1 1 -50.207031 92.361328 L -50.207031 99.826172 A 2.07874 2.07874 0 1 1 -52.898438 102.51953 L -79.261719 102.51953 A 2.07874 2.07874 0 1 1 -81.955078 99.826172 L -81.955078 92.361328 A 2.07874 2.07874 0 0 1 -81.253906 88.345703 z M -255.49023 117.90234 A 2.07874 2.07874 0 0 1 -253.49805 119.22461 L -246.0332 119.22461 A 2.07874 2.07874 0 1 1 -243.33984 121.91602 L -243.33984 148.2793 A 2.07874 2.07874 0 1 1 -246.0332 150.97266 L -253.49805 150.97266 A 2.07874 2.07874 0 1 1 -256.19141 148.2793 L -256.19141 121.91602 A 2.07874 2.07874 0 0 1 -255.49023 117.90234 z M -24.181641 117.90234 A 2.07874 2.07874 0 0 1 -22.191406 119.22461 L -14.726562 119.22461 A 2.07874 2.07874 0 1 1 -12.033203 121.91602 L -12.033203 148.2793 A 2.07874 2.07874 0 1 1 -14.726562 150.97266 L -22.191406 150.97266 A 2.07874 2.07874 0 1 1 -24.884766 148.2793 L -24.884766 121.91602 A 2.07874 2.07874 0 0 1 -24.181641 117.90234 z M -51.021484 145.45312 A 2.07874 2.07874 0 0 1 -50.207031 149.46875 L -50.207031 156.93555 A 2.07874 2.07874 0 1 1 -52.898438 159.62695 L -79.261719 159.62695 A 2.07874 2.07874 0 1 1 -81.955078 156.93555 L -81.955078 149.46875 A 2.07874 2.07874 0 0 1 -81.253906 145.45508 A 2.07874 2.07874 0 0 1 -79.261719 146.77734 L -52.898438 146.77734 A 2.07874 2.07874 0 0 1 -51.021484 145.45312 z M -217.31641 145.45508 A 2.07874 2.07874 0 0 1 -215.32617 146.77734 L -188.96289 146.77734 A 2.07874 2.07874 0 1 1 -186.26953 149.46875 L -186.26953 156.93555 A 2.07874 2.07874 0 1 1 -188.96289 159.62695 L -215.32617 159.62695 A 2.07874 2.07874 0 1 1 -218.01758 156.93555 L -218.01758 149.46875 A 2.07874 2.07874 0 0 1 -217.31641 145.45508 z M -149.28516 145.45508 A 2.07874 2.07874 0 0 1 -147.29492 146.77734 L -120.93164 146.77734 A 2.07874 2.07874 0 1 1 -118.23828 149.46875 L -118.23828 156.93555 A 2.07874 2.07874 0 1 1 -120.93164 159.62695 L -147.29492 159.62695 A 2.07874 2.07874 0 1 1 -149.98633 156.93555 L -149.98633 149.46875 A 2.07874 2.07874 0 0 1 -149.28516 145.45508 z M -225.17969 163.875 A 5.6692912 5.6692912 0 0 1 -219.40625 169.54297 A 5.6692912 5.6692912 0 0 1 -230.74414 169.54297 A 5.6692912 5.6692912 0 0 1 -225.17969 163.875 z M -43.253906 163.875 A 5.6692916 5.6692916 0 0 1 -37.480469 169.54297 A 5.6692916 5.6692916 0 1 1 -48.818359 169.54297 A 5.6692916 5.6692916 0 0 1 -43.253906 163.875 z "
       transform="scale(0.26458333)" />
    <path
       id="path6317"
       style="fill:#cccccc;stroke:#000000;stroke-width:0.999999"
       d="M -436.66016 62.013672 L -436.66016 71.273438 A 2.07874 2.07874 0 1 1 -438.74023 73.353516 L -508.47266 73.353516 L -508.47266 143.10547 A 2.07874 2.07874 0 1 1 -510.55078 145.18359 L -519.81055 145.18359 L -519.81055 220.77539 L -510.55078 220.77539 A 2.07874 2.07874 0 1 1 -508.47266 222.85352 L -508.47266 292.56445 L -438.74023 292.56445 A 2.07874 2.07874 0 1 1 -436.66016 294.64453 L -436.66016 303.9043 L -361.07031 303.9043 L -361.07031 294.64453 A 2.07874 2.07874 0 1 1 -358.99219 292.56445 L -289.25977 292.56445 L -289.25977 222.85352 A 2.07874 2.07874 0 1 1 -287.18164 220.77539 L -277.92188 220.77539 L -277.92188 145.18359 L -287.18164 145.18359 A 2.07874 2.07874 0 1 1 -289.25977 143.10547 L -289.25977 73.353516 L -358.99219 73.353516 A 2.07874 2.07874 0 1 1 -361.07031 71.273438 L -361.07031 62.013672 L -436.66016 62.013672 z M -398.69922 75.998047 A 106.96063 106.96063 0 0 1 -291.9043 182.95898 A 106.96063 106.96063 0 0 1 -505.82617 182.95898 A 106.96063 106.96063 0 0 1 -398.69922 75.998047 z "
       transform="scale(0.26458333)" />
    <path
       id="path6159"
       style="fill:#cccccc;stroke:#000000;stroke-width:0.999999"
       d="M 295.9082 -423.13086 L 295.9082 -402.82031 A 1.03937 1.03937 0 1 1 294.86914 -401.78125 L 284.56836 -401.78125 L 284.56836 -371.54492 L 294.86914 -371.54492 A 1.03937 1.03937 0 1 1 295.9082 -370.50586 L 295.9082 -332.33398 A 1.03937 1.03937 0 1 1 294.86914 -331.29297 L 284.56836 -331.29297 L 284.56836 -301.05664 L 294.86914 -301.05664 A 1.03937 1.03937 0 1 1 295.9082 -300.01758 L 295.9082 -261.8457 A 1.03937 1.03937 0 1 1 294.86914 -260.80469 L 284.56836 -260.80469 L 284.56836 -230.56836 L 294.86914 -230.56836 A 1.03937 1.03937 0 1 1 295.9082 -229.5293 L 295.9082 -191.35742 A 1.03937 1.03937 0 1 1 294.86914 -190.31641 L 284.56836 -190.31641 L 284.56836 -160.08203 L 294.86914 -160.08203 A 1.03937 1.03937 0 1 1 295.9082 -159.04102 L 295.9082 -120.86914 A 1.03937 1.03937 0 1 1 294.86914 -119.83008 L 284.56836 -119.83008 L 284.56836 -89.59375 L 294.86914 -89.59375 A 1.03937 1.03937 0 1 1 295.9082 -88.552734 L 295.9082 -50.380859 A 1.03937 1.03937 0 1 1 294.86914 -49.341797 L 284.56836 -49.341797 L 284.56836 -19.105469 L 294.86914 -19.105469 A 1.03937 1.03937 0 1 1 295.9082 -18.064453 L 295.9082 20.107422 A 1.03937 1.03937 0 1 1 294.86914 21.146484 L 284.56836 21.146484 L 284.56836 51.382812 L 294.86914 51.382812 A 1.03937 1.03937 0 1 1 295.9082 52.421875 L 295.9082 90.595703 A 1.03937 1.03937 0 1 1 294.86914 91.634766 L 284.56836 91.634766 L 284.56836 121.87109 L 294.86914 121.87109 A 1.03937 1.03937 0 1 1 295.9082 122.91016 L 295.9082 141.27344 A 1.0393702 1.0393702 0 1 1 295.90625 143.35156 L 295.85938 162.11914 L 480.78125 162.11914 L 480.78125 162.02539 L 515.12109 161.98438 L 515.12109 143.08789 A 1.03937 1.03937 0 1 1 515.12109 141.49609 L 515.12109 122.64258 A 1.03937 1.03937 0 1 1 515.48633 121.87109 L 526.45898 121.87109 L 526.45898 91.634766 L 515.48047 91.634766 A 1.03937 1.03937 0 1 1 515.12109 90.826172 L 515.12109 52.142578 A 1.03937 1.03937 0 1 1 515.47266 51.382812 L 526.45898 51.382812 L 526.45898 21.146484 L 515.4668 21.146484 A 1.03937 1.03937 0 1 1 515.12109 20.351562 L 515.12109 -18.359375 A 1.03937 1.03937 0 1 1 515.45898 -19.105469 L 526.45898 -19.105469 L 526.45898 -49.341797 L 515.45312 -49.341797 A 1.03937 1.03937 0 1 1 515.12109 -50.125 L 515.12109 -88.859375 A 1.03937 1.03937 0 1 1 515.44531 -89.59375 L 526.45898 -89.59375 L 526.45898 -119.83008 L 515.43945 -119.83008 A 1.03937 1.03937 0 1 1 515.12109 -120.59961 L 515.12109 -159.36133 A 1.03937 1.03937 0 1 1 515.43164 -160.08203 L 526.45898 -160.08203 L 526.45898 -190.31641 L 515.42578 -190.31641 A 1.03937 1.03937 0 1 1 515.12109 -191.07422 L 515.12109 -229.86328 A 1.03937 1.03937 0 1 1 515.41797 -230.56836 L 526.45898 -230.56836 L 526.45898 -260.80469 L 515.41211 -260.80469 A 1.03937 1.03937 0 1 1 515.12109 -261.54883 L 515.12109 -300.36719 A 1.03937 1.03937 0 1 1 515.40234 -301.05664 L 526.45898 -301.05664 L 526.45898 -331.29297 L 515.39648 -331.29297 A 1.03937 1.03937 0 1 1 515.12109 -332.02148 L 515.12109 -370.86914 A 1.03937 1.03937 0 1 1 515.38867 -371.54492 L 526.45898 -371.54492 L 526.45898 -401.78125 L 515.38281 -401.78125 A 1.03937 1.03937 0 1 1 515.12109 -402.49414 L 515.12109 -423.13086 L 295.9082 -423.13086 z M 367.30469 -401.16016 A 2.07874 2.07874 0 0 1 369.27734 -399.83789 L 440.97461 -399.83789 A 2.07874 2.07874 0 1 1 443.66797 -397.14648 L 443.66797 -389.6875 A 2.07874 2.07874 0 1 1 440.99414 -386.98828 L 369.27734 -386.98828 A 2.07874 2.07874 0 1 1 366.56445 -389.67188 L 366.56445 -397.1543 A 2.07874 2.07874 0 0 1 367.30469 -401.16016 z M 352.16406 -208.2168 A 2.07874 2.07874 0 0 1 352.97852 -204.20117 L 352.97852 -196.73438 A 2.07874 2.07874 0 1 1 350.28711 -194.04297 L 323.92383 -194.04297 A 2.07874 2.07874 0 1 1 321.23047 -196.73438 L 321.23047 -204.20117 A 2.07874 2.07874 0 0 1 321.92773 -208.21484 A 2.07874 2.07874 0 0 1 323.92383 -206.89258 L 350.28711 -206.89258 A 2.07874 2.07874 0 0 1 352.16406 -208.2168 z M 420.21484 -208.2168 A 2.07874 2.07874 0 0 1 420.99023 -204.19336 L 420.99023 -196.74219 A 2.07874 2.07874 0 1 1 418.31836 -194.04297 L 391.95508 -194.04297 A 2.07874 2.07874 0 1 1 389.24219 -196.72656 L 389.24219 -204.20898 A 2.07874 2.07874 0 0 1 389.98047 -208.21484 A 2.07874 2.07874 0 0 1 391.95508 -206.89258 L 418.31836 -206.89258 A 2.07874 2.07874 0 0 1 420.21484 -208.2168 z M 458.03516 -208.21484 A 2.07874 2.07874 0 0 1 459.98633 -206.89258 L 486.30859 -206.89258 A 2.07874 2.07874 0 1 1 489.00195 -204.20117 L 489.00195 -196.75 A 2.07874 2.07874 0 1 1 486.34961 -194.04297 L 459.98633 -194.04297 A 2.07874 2.07874 0 1 1 457.25391 -196.71875 L 457.25391 -204.2168 A 2.07874 2.07874 0 0 1 458.03516 -208.21484 z M 325.58984 -163.80664 L 405.11328 -163.80664 L 484.63477 -163.68164 L 484.33008 31.210938 L 404.96094 31.087891 L 325.58984 31.087891 L 325.58984 -163.80664 z M 352.16406 60 A 2.07874 2.07874 0 0 1 352.97852 64.015625 L 352.97852 71.482422 A 2.07874 2.07874 0 1 1 350.28711 74.173828 L 323.92383 74.173828 A 2.07874 2.07874 0 1 1 321.23047 71.482422 L 321.23047 64.015625 A 2.07874 2.07874 0 0 1 321.92773 60.001953 A 2.07874 2.07874 0 0 1 323.92383 61.324219 L 350.28711 61.324219 A 2.07874 2.07874 0 0 1 352.16406 60 z M 488.26758 60 A 2.07874 2.07874 0 0 1 489.00195 64.03125 L 489.00195 71.466797 A 2.07874 2.07874 0 1 1 486.34961 74.173828 L 459.94531 74.173828 A 2.07874 2.07874 0 1 1 457.25391 71.482422 L 457.25391 64.015625 A 2.07874 2.07874 0 0 1 457.95117 60.001953 A 2.07874 2.07874 0 0 1 459.94531 61.324219 L 486.34961 61.324219 A 2.07874 2.07874 0 0 1 488.26758 60 z M 389.57227 60.001953 A 2.07874 2.07874 0 0 1 391.57617 61.324219 L 418.29688 61.324219 A 2.07874 2.07874 0 1 1 420.99023 64.015625 L 420.99023 71.121094 A 2.07874 2.07874 0 1 1 418.8125 74.173828 L 391.99414 74.173828 A 2.07874 2.07874 0 1 1 389.24219 71.4375 L 389.24219 64.119141 A 2.07874 2.07874 0 0 1 389.57227 60.001953 z M 321.92773 117.10938 A 2.07874 2.07874 0 0 1 323.92383 118.43164 L 350.28711 118.43164 A 2.07874 2.07874 0 1 1 352.97852 121.125 L 352.97852 128.58984 A 2.07874 2.07874 0 1 1 350.28711 131.2832 L 323.92383 131.2832 A 2.07874 2.07874 0 1 1 321.23047 128.58984 L 321.23047 121.125 A 2.07874 2.07874 0 0 1 321.92773 117.10938 z M 457.95117 117.10938 A 2.07874 2.07874 0 0 1 459.94531 118.43164 L 486.30859 118.43164 A 2.07874 2.07874 0 1 1 489.00195 121.125 L 489.00195 128.57422 A 2.07874 2.07874 0 1 1 486.34961 131.2832 L 459.98633 131.2832 A 2.07874 2.07874 0 1 1 457.25391 128.60742 L 457.25391 121.125 A 2.07874 2.07874 0 0 1 457.95117 117.10938 z M 420.19336 117.11523 A 2.07874 2.07874 0 0 1 420.99023 121.13867 L 420.99023 128.58203 A 2.07874 2.07874 0 1 1 418.31836 131.2832 L 391.93359 131.2832 A 2.07874 2.07874 0 1 1 389.24219 128.58984 L 389.24219 121.42969 A 2.07874 2.07874 0 1 1 391.58789 118.43164 L 418.32031 118.43164 A 2.07874 2.07874 0 0 1 420.19336 117.11523 z "
       transform="scale(0.26458333)" />
    <path
       id="path6240"
       style="fill:#cccccc;stroke:#000000;stroke-width:0.999999"
       d="M 546.98633 -423.13086 L 546.98633 -402.82031 A 1.03937 1.03937 0 1 1 545.94727 -401.78125 L 535.64844 -401.78125 L 535.64844 -371.54492 L 545.94727 -371.54492 A 1.03937 1.03937 0 1 1 546.98633 -370.50586 L 546.98633 -332.33398 A 1.03937 1.03937 0 1 1 545.94727 -331.29297 L 535.64844 -331.29297 L 535.64844 -301.05664 L 545.94727 -301.05664 A 1.03937 1.03937 0 1 1 546.98633 -300.01758 L 546.98633 -261.8457 A 1.03937 1.03937 0 1 1 545.94727 -260.80469 L 535.64844 -260.80469 L 535.64844 -230.56836 L 545.94727 -230.56836 A 1.03937 1.03937 0 1 1 546.98633 -229.5293 L 546.98633 -191.35742 A 1.03937 1.03937 0 1 1 545.94727 -190.31641 L 535.64844 -190.31641 L 535.64844 -160.08203 L 545.94727 -160.08203 A 1.03937 1.03937 0 1 1 546.98633 -159.04102 L 546.98633 -120.86914 A 1.03937 1.03937 0 1 1 545.94727 -119.83008 L 535.64844 -119.83008 L 535.64844 -89.59375 L 545.94727 -89.59375 A 1.03937 1.03937 0 1 1 546.98633 -88.552734 L 546.98633 -50.380859 A 1.03937 1.03937 0 1 1 545.94727 -49.341797 L 535.64844 -49.341797 L 535.64844 -19.105469 L 545.94727 -19.105469 A 1.03937 1.03937 0 1 1 546.98633 -18.064453 L 546.98633 20.107422 A 1.03937 1.03937 0 1 1 545.94727 21.146484 L 535.64844 21.146484 L 535.64844 51.382812 L 545.94727 51.382812 A 1.03937 1.03937 0 1 1 546.98633 52.421875 L 546.98633 90.595703 A 1.03937 1.03937 0 1 1 545.94727 91.634766 L 535.64844 91.634766 L 535.64844 121.87109 L 545.94727 121.87109 A 1.03937 1.03937 0 1 1 546.98633 122.91016 L 546.98633 141.27344 A 1.03937 1.03937 0 1 1 546.23047 143.02734 L 546.23047 162.11914 L 731.86133 162.11914 L 731.86133 162.02539 L 766.19922 161.98438 L 766.19922 143.08789 A 1.03937 1.03937 0 1 1 766.19922 141.49609 L 766.19922 122.64258 A 1.03937 1.03937 0 1 1 766.56641 121.87109 L 777.53906 121.87109 L 777.53906 91.634766 L 766.56055 91.634766 A 1.03937 1.03937 0 1 1 766.19922 90.826172 L 766.19922 52.142578 A 1.03937 1.03937 0 1 1 766.55273 51.382812 L 777.53906 51.382812 L 777.53906 21.146484 L 766.54688 21.146484 A 1.03937 1.03937 0 1 1 766.19922 20.351562 L 766.19922 -18.359375 A 1.03937 1.03937 0 1 1 766.53711 -19.105469 L 777.53906 -19.105469 L 777.53906 -49.341797 L 766.53125 -49.341797 A 1.03937 1.03937 0 1 1 766.19922 -50.125 L 766.19922 -88.859375 A 1.03937 1.03937 0 1 1 766.52344 -89.59375 L 777.53906 -89.59375 L 777.53906 -119.83008 L 766.51758 -119.83008 A 1.03937 1.03937 0 1 1 766.19922 -120.59961 L 766.19922 -159.36133 A 1.03937 1.03937 0 1 1 766.50977 -160.08203 L 777.53906 -160.08203 L 777.53906 -190.31641 L 766.50391 -190.31641 A 1.03937 1.03937 0 1 1 766.19922 -191.07422 L 766.19922 -229.86328 A 1.03937 1.03937 0 1 1 766.49609 -230.56836 L 777.53906 -230.56836 L 777.53906 -260.80469 L 766.49023 -260.80469 A 1.03937 1.03937 0 1 1 766.19922 -261.54883 L 766.19922 -300.36719 A 1.03937 1.03937 0 1 1 766.48242 -301.05664 L 777.53906 -301.05664 L 777.53906 -331.29297 L 766.47656 -331.29297 A 1.03937 1.03937 0 1 1 766.19922 -332.02148 L 766.19922 -370.86914 A 1.03937 1.03937 0 1 1 766.46875 -371.54492 L 777.53906 -371.54492 L 777.53906 -401.78125 L 766.46289 -401.78125 A 1.03937 1.03937 0 1 1 766.19922 -402.49414 L 766.19922 -423.13086 L 546.98633 -423.13086 z M 693.93164 -401.16211 A 2.07874 2.07874 0 0 1 694.74609 -397.14648 L 694.74609 -389.6875 A 2.07874 2.07874 0 1 1 692.07422 -386.98828 L 620.35742 -386.98828 A 2.07874 2.07874 0 1 1 617.64453 -389.67188 L 617.64453 -397.1543 A 2.07874 2.07874 0 0 1 618.36523 -401.16016 A 2.07874 2.07874 0 0 1 620.35742 -399.83789 L 692.05469 -399.83789 A 2.07874 2.07874 0 0 1 693.93164 -401.16211 z M 610.86133 -282.95312 A 4.3466749 4.3466749 0 0 1 610.86133 -274.25977 A 4.3466749 4.3466749 0 0 1 610.86133 -282.95312 z M 701.57031 -282.95312 A 4.3466749 4.3466749 0 0 1 701.57031 -274.25977 A 4.3466749 4.3466749 0 0 1 701.57031 -282.95312 z M 671.29297 -208.2168 A 2.07874 2.07874 0 0 1 672.06836 -204.19336 L 672.06836 -196.74219 A 2.07874 2.07874 0 1 1 669.39648 -194.04297 L 643.0332 -194.04297 A 2.07874 2.07874 0 1 1 640.32227 -196.72656 L 640.32227 -204.20898 A 2.07874 2.07874 0 0 1 641.04297 -208.21484 A 2.07874 2.07874 0 0 1 643.0332 -206.89258 L 669.39648 -206.89258 A 2.07874 2.07874 0 0 1 671.29297 -208.2168 z M 739.26562 -208.2168 A 2.07874 2.07874 0 0 1 740.08008 -204.20117 L 740.08008 -196.75 A 2.07874 2.07874 0 1 1 737.42969 -194.04297 L 711.06445 -194.04297 A 2.07874 2.07874 0 1 1 708.33203 -196.71875 L 708.33203 -204.2168 A 2.07874 2.07874 0 0 1 709.07422 -208.21484 A 2.07874 2.07874 0 0 1 711.06445 -206.89258 L 737.38867 -206.89258 A 2.07874 2.07874 0 0 1 739.26562 -208.2168 z M 573.01172 -208.21484 A 2.07874 2.07874 0 0 1 575.00195 -206.89258 L 601.36523 -206.89258 A 2.07874 2.07874 0 1 1 604.05859 -204.20117 L 604.05859 -196.73438 A 2.07874 2.07874 0 1 1 601.36523 -194.04297 L 575.00195 -194.04297 A 2.07874 2.07874 0 1 1 572.31055 -196.73438 L 572.31055 -204.20117 A 2.07874 2.07874 0 0 1 573.01172 -208.21484 z M 588.70312 -70.408203 L 723.72656 -70.408203 L 723.72656 61.324219 L 737.42969 61.324219 A 2.07874 2.07874 0 1 1 740.08008 64.03125 L 740.08008 71.466797 A 2.07874 2.07874 0 0 1 741.41016 73.796875 L 744.25586 73.796875 A 1.03937 1.03937 0 1 1 745.29492 74.835938 L 745.29492 118.14844 A 1.03937 1.03937 0 1 1 744.25586 119.1875 L 741.4043 119.1875 A 2.07874 2.07874 0 0 1 740.08008 121.125 L 740.08008 128.57422 A 2.07874 2.07874 0 1 1 737.42969 131.2832 L 711.06445 131.2832 A 2.07874 2.07874 0 1 1 708.33203 128.60742 L 708.33203 121.125 A 2.07874 2.07874 0 0 1 707.00977 119.1875 L 684.58398 119.1875 L 684.58398 119.19336 L 673.41211 119.19336 A 2.07874 2.07874 0 0 1 672.06836 121.13672 L 672.06836 128.58203 A 2.07874 2.07874 0 1 1 669.39648 131.2832 L 643.01367 131.2832 A 2.07874 2.07874 0 1 1 640.32227 128.58984 L 640.32227 121.42773 A 2.07874 2.07874 0 0 1 638.76758 119.19336 L 627.84766 119.19336 L 627.84766 119.1875 L 605.38086 119.1875 A 2.07874 2.07874 0 0 1 604.05859 121.125 L 604.05859 128.58984 A 2.07874 2.07874 0 1 1 601.36523 131.2832 L 575.00195 131.2832 A 2.07874 2.07874 0 1 1 572.31055 128.58984 L 572.31055 121.125 A 2.07874 2.07874 0 0 1 570.98633 119.1875 L 568.17578 119.1875 A 1.03937 1.03937 0 1 1 567.13477 118.14844 L 567.13477 74.835938 A 1.03937 1.03937 0 1 1 568.17578 73.796875 L 571.02148 73.796875 A 2.07874 2.07874 0 0 1 572.31055 71.482422 L 572.31055 64.015625 A 2.07874 2.07874 0 1 1 575.00195 61.324219 L 588.70312 61.324219 L 588.70312 -70.408203 z "
       transform="scale(0.26458333)" />
    <path
       id="path6552"
       style="fill:#cccccc;stroke:#000000;stroke-width:0.999999"
       d="M -483.15039 -186.25391 L -483.15039 -176.99414 A 2.07874 2.07874 0 1 1 -485.22852 -174.91602 L -509.60547 -174.91602 L -509.60547 -150.53711 A 2.07874 2.07874 0 1 1 -511.68555 -148.45898 L -520.94531 -148.45898 L -520.94531 -118.22266 L -511.68555 -118.22266 A 2.07874 2.07874 0 1 1 -509.60547 -116.14453 L -509.60547 -82.525391 A 2.07874 2.07874 0 1 1 -511.68555 -80.447266 L -520.94531 -80.447266 L -520.94531 -50.210938 L -511.68555 -50.210938 A 2.07874 2.07874 0 1 1 -509.60547 -48.132812 L -509.60547 -14.515625 A 2.07874 2.07874 0 1 1 -511.68555 -12.435547 L -520.94531 -12.435547 L -520.94531 17.800781 L -511.68555 17.800781 A 2.07874 2.07874 0 1 1 -509.60547 19.878906 L -509.60547 44.296875 L -485.22852 44.296875 A 2.07874 2.07874 0 1 1 -483.15039 46.375 L -483.15039 55.636719 L -452.91406 55.636719 L -452.91406 46.375 A 2.07874 2.07874 0 1 1 -450.83398 44.296875 L -417.19727 44.296875 A 2.07874 2.07874 0 1 1 -415.11719 46.375 L -415.11719 55.636719 L -384.88281 55.636719 L -384.88281 46.375 A 2.07874 2.07874 0 1 1 -382.80273 44.296875 L -349.16602 44.296875 A 2.07874 2.07874 0 1 1 -347.08594 46.375 L -347.08594 55.636719 L -316.84961 55.636719 L -316.84961 46.375 A 2.07874 2.07874 0 1 1 -314.77148 44.296875 L -290.39453 44.296875 L -290.39453 19.878906 A 2.07874 2.07874 0 1 1 -288.31445 17.800781 L -279.05469 17.800781 L -279.05469 -12.435547 L -288.31445 -12.435547 A 2.07874 2.07874 0 1 1 -290.39453 -14.515625 L -290.39453 -48.132812 A 2.07874 2.07874 0 1 1 -288.31445 -50.210938 L -279.05469 -50.210938 L -279.05469 -80.447266 L -288.31445 -80.447266 A 2.07874 2.07874 0 1 1 -290.39453 -82.525391 L -290.39453 -116.14453 A 2.07874 2.07874 0 1 1 -288.31445 -118.22266 L -279.05469 -118.22266 L -279.05469 -148.45898 L -288.31445 -148.45898 A 2.07874 2.07874 0 1 1 -290.39453 -150.53711 L -290.39453 -174.91602 L -314.77148 -174.91602 A 2.07874 2.07874 0 1 1 -316.84961 -176.99414 L -316.84961 -186.25391 L -347.08594 -186.25391 L -347.08594 -176.99414 A 2.07874 2.07874 0 1 1 -349.16602 -174.91602 L -382.80273 -174.91602 A 2.07874 2.07874 0 1 1 -384.88281 -176.99414 L -384.88281 -186.25391 L -415.11719 -186.25391 L -415.11719 -176.99414 A 2.07874 2.07874 0 1 1 -417.19727 -174.91602 L -450.83398 -174.91602 A 2.07874 2.07874 0 1 1 -452.91406 -176.99414 L -452.91406 -186.25391 L -483.15039 -186.25391 z M -339.97852 -135.27344 A 9.8267719 9.8267719 0 0 1 -330.04102 -125.44141 A 9.8271449 9.8271449 0 1 1 -349.69531 -125.44141 A 9.8267719 9.8267719 0 0 1 -339.97852 -135.27344 z M -460.24609 -135.26953 A 9.8267719 9.8267719 0 0 1 -450.30469 -125.44141 A 9.8271449 9.8271449 0 0 1 -469.95898 -125.44141 A 9.8267719 9.8267719 0 0 1 -460.24609 -135.26953 z M -437.36914 -108.58398 A 5.858268 5.858268 0 0 1 -431.55664 -102.72461 A 5.8583999 5.8583999 0 1 1 -443.27344 -102.72461 A 5.858268 5.858268 0 0 1 -437.36914 -108.58398 z M -362.53906 -108.58398 A 5.858268 5.858268 0 0 1 -356.72656 -102.72461 A 5.8583999 5.8583999 0 0 1 -368.44336 -102.72461 A 5.858268 5.858268 0 0 1 -362.53906 -108.58398 z M -400.05859 -91.269531 A 25.961018 25.961018 0 0 1 -382.19922 -84.207031 L -381.47656 -84.207031 A 18.89765 18.89765 0 0 1 -381.47656 -46.412109 L -382.19922 -46.412109 A 25.961018 25.961018 0 1 1 -400.05859 -91.269531 z M -437.36914 -33.753906 A 5.858268 5.858268 0 0 1 -431.55664 -27.894531 A 5.8583999 5.8583999 0 1 1 -443.27344 -27.894531 A 5.858268 5.858268 0 0 1 -437.36914 -33.753906 z M -362.53906 -33.753906 A 5.858268 5.858268 0 0 1 -356.72656 -27.894531 A 5.8583999 5.8583999 0 0 1 -368.44336 -27.894531 A 5.858268 5.858268 0 0 1 -362.53906 -33.753906 z M -339.97852 -15.009766 A 9.8267719 9.8267719 0 0 1 -330.04102 -5.1777344 A 9.8271449 9.8271449 0 1 1 -349.69531 -5.1777344 A 9.8267719 9.8267719 0 0 1 -339.97852 -15.009766 z M -460.24609 -15.005859 A 9.8267719 9.8267719 0 0 1 -450.30469 -5.1777344 A 9.8271449 9.8271449 0 0 1 -469.95898 -5.1777344 A 9.8267719 9.8267719 0 0 1 -460.24609 -15.005859 z "
       transform="scale(0.26458333)" />
    <path
       id="path6651"
       style="fill:#cccccc;stroke:#000000;stroke-width:0.999999"
       d="M -483.15039 -435.23047 L -483.15039 -425.9707 A 2.07874 2.07874 0 1 1 -485.22852 -423.89258 L -509.60547 -423.89258 L -509.60547 -399.47266 A 2.07874 2.07874 0 1 1 -511.68555 -397.39453 L -520.94531 -397.39453 L -520.94531 -367.1582 L -511.68555 -367.1582 A 2.07874 2.07874 0 1 1 -509.60547 -365.08008 L -509.60547 -331.46289 A 2.07874 2.07874 0 1 1 -511.68555 -329.38281 L -520.94531 -329.38281 L -520.94531 -299.14648 L -511.68555 -299.14648 A 2.07874 2.07874 0 1 1 -509.60547 -297.06836 L -509.60547 -263.45117 A 2.07874 2.07874 0 1 1 -511.68555 -261.37305 L -520.94531 -261.37305 L -520.94531 -231.13672 L -511.68555 -231.13672 A 2.07874 2.07874 0 1 1 -509.60547 -229.05664 L -509.60547 -204.67969 L -485.22852 -204.67969 A 2.07874 2.07874 0 1 1 -483.15039 -202.60156 L -483.15039 -193.33984 L -452.91406 -193.33984 L -452.91406 -202.60156 A 2.07874 2.07874 0 1 1 -450.83398 -204.67969 L -417.19727 -204.67969 A 2.07874 2.07874 0 1 1 -415.11719 -202.60156 L -415.11719 -193.33984 L -384.88281 -193.33984 L -384.88281 -202.60156 A 2.07874 2.07874 0 1 1 -382.80273 -204.67969 L -349.16602 -204.67969 A 2.07874 2.07874 0 1 1 -347.08594 -202.60156 L -347.08594 -193.33984 L -316.84961 -193.33984 L -316.84961 -202.60156 A 2.07874 2.07874 0 1 1 -314.77148 -204.67969 L -290.39453 -204.67969 L -290.39453 -229.05664 A 2.07874 2.07874 0 1 1 -288.31445 -231.13672 L -279.05469 -231.13672 L -279.05469 -261.37305 L -288.31445 -261.37305 A 2.07874 2.07874 0 1 1 -290.39453 -263.45117 L -290.39453 -297.06836 A 2.07874 2.07874 0 1 1 -288.31445 -299.14648 L -279.05469 -299.14648 L -279.05469 -329.38281 L -288.31445 -329.38281 A 2.07874 2.07874 0 1 1 -290.39453 -331.46289 L -290.39453 -365.08008 A 2.07874 2.07874 0 1 1 -288.31445 -367.1582 L -279.05469 -367.1582 L -279.05469 -397.39453 L -288.31445 -397.39453 A 2.0787402 2.0787402 0 0 1 -292.47266 -397.39453 L -316.84961 -397.39453 L -316.84961 -421.8125 A 2.0787591 2.0787591 0 0 1 -316.84961 -425.9707 L -316.84961 -435.23047 L -347.08594 -435.23047 L -347.08594 -425.9707 A 2.07874 2.07874 0 1 1 -349.16602 -423.89258 L -382.80273 -423.89258 A 2.07874 2.07874 0 1 1 -384.88281 -425.9707 L -384.88281 -435.23047 L -415.11719 -435.23047 L -415.11719 -425.9707 A 2.07874 2.07874 0 1 1 -417.19727 -423.89258 L -450.83398 -423.89258 A 2.07874 2.07874 0 1 1 -452.91406 -425.9707 L -452.91406 -435.23047 L -483.15039 -435.23047 z M -339.97852 -384.25 A 9.8267719 9.8267719 0 0 1 -330.04102 -374.41797 A 9.8271449 9.8271449 0 1 1 -349.69531 -374.41797 A 9.8267719 9.8267719 0 0 1 -339.97852 -384.25 z M -460.24609 -384.24609 A 9.8267719 9.8267719 0 0 1 -450.30469 -374.41797 A 9.8271449 9.8271449 0 0 1 -469.95898 -374.41797 A 9.8267719 9.8267719 0 0 1 -460.24609 -384.24609 z M -399.86719 -378.93359 A 64.648818 64.648818 0 0 1 -335.35156 -314.28516 A 64.648818 64.648818 0 0 1 -464.64844 -314.28516 A 64.648818 64.648818 0 0 1 -399.86719 -378.93359 z M -339.97852 -263.98633 A 9.8267719 9.8267719 0 0 1 -330.04102 -254.1543 A 9.8271449 9.8271449 0 1 1 -349.69531 -254.1543 A 9.8267719 9.8267719 0 0 1 -339.97852 -263.98633 z M -460.24609 -263.98242 A 9.8267719 9.8267719 0 0 1 -450.30469 -254.1543 A 9.8271449 9.8271449 0 0 1 -469.95898 -254.1543 A 9.8267719 9.8267719 0 0 1 -460.24609 -263.98242 z "
       transform="scale(0.26458333)" />
  </g>
</svg>
