0
SECTION
2
HEADER
9
$INSUNITS
70
4
9
$ACADVER
1
AC1014
9
$HANDSEED
5
FFFF
0
ENDSEC
0
SECTION
2
TABLES
0
TABLE
2
VPORT
5
8
100
AcDbSymbolTable
0
ENDTAB
0
TABLE
2
LTYPE
5
5
100
AcDbSymbolTable
0
LTYPE
5
14
100
AcDbSymbolTableRecord
100
AcDbLinetypeTableRecord
2
BYBLOCK
70
0
0
LTYPE
5
15
100
AcDbSymbolTableRecord
100
AcDbLinetypeTableRecord
2
BYLAYER
70
0
0
ENDTAB
0
TABLE
2
LAYER
5
2
100
AcDbSymbolTable
70
2
0
LAYER
5
50
100
AcDbSymbolTableRecord
100
AcDbLayerTableRecord
2
0
70
0
6
CONTINUOUS
0
ENDTAB
0
TABLE
2
STYLE
5
3
100
AcDbSymbolTable
70
1
0
STYLE
5
11
100
AcDbSymbolTableRecord
100
AcDbTextStyleTableRecord
2
STANDARD
70
0
0
ENDTAB
0
TABLE
2
VIEW
5
6
100
AcDbSymbolTable
70
0
0
ENDTAB
0
TABLE
2
UCS
5
7
100
AcDbSymbolTable
70
0
0
ENDTAB
0
TABLE
2
APPID
5
9
100
AcDbSymbolTable
70
2
0
APPID
5
12
100
AcDbSymbolTableRecord
100
AcDbRegAppTableRecord
2
ACAD
70
0
0
ENDTAB
0
TABLE
2
DIMSTYLE
5
A
100
AcDbSymbolTable
70
1
0
ENDTAB
0
TABLE
2
BLOCK_RECORD
5
1
100
AcDbSymbolTable
70
1
0
BLOCK_RECORD
5
1F
100
AcDbSymbolTableRecord
100
AcDbBlockTableRecord
2
*MODEL_SPACE
0
BLOCK_RECORD
5
1B
100
AcDbSymbolTableRecord
100
AcDbBlockTableRecord
2
*PAPER_SPACE
0
ENDTAB
0
ENDSEC
0
SECTION
2
BLOCKS
0
BLOCK
5
20
100
AcDbEntity
100
AcDbBlockBegin
2
*MODEL_SPACE
0
ENDBLK
5
21
100
AcDbEntity
100
AcDbBlockEnd
0
BLOCK
5
1C
100
AcDbEntity
100
AcDbBlockBegin
2
*PAPER_SPACE
0
ENDBLK
5
1D
100
AcDbEntity
100
AcDbBlockEnd
0
ENDSEC
0
SECTION
2
ENTITIES
0
LWPOLYLINE
5
100
100
AcDbEntity
8
0
100
AcDbPolyline
90
106
70
1
43
0.0
10
72.050151504106807
20
29.000000000000018
42
-2.4142135623730674
10
71.775151504106816
20
29.275000000000023
10
71.775151504106816
20
32.000000000000021
10
63.775151504106837
20
32.000000000000021
10
63.775151504106837
20
29.275000000000023
42
-2.4142135623730949
10
63.500151504106832
20
29.000000000000018
10
53.400151504106859
20
29.000000000000018
42
-2.4142135623730674
10
53.12515150410686
20
29.275000000000023
10
53.12515150410686
20
32.000000000000021
10
45.125151504106888
20
32.000000000000021
10
45.125151504106888
20
29.275000000000023
42
-2.4142135623730949
10
44.850151504106883
20
29.000000000000018
10
34.750151504106952
20
29.000000000000018
42
-2.4142135623730674
10
34.475151504106947
20
29.275000000000023
10
34.475151504106947
20
32.000000000000021
10
26.47515150410694
20
32.000000000000021
10
26.47515150410694
20
29.27500000000002
42
-2.4142135623730949
10
26.200151504106937
20
29.000000000000018
10
16.100151504106964
20
29.000000000000018
42
-2.4142135623730674
10
15.825151504106962
20
29.275000000000023
10
15.825151504106962
20
32.000000000000021
10
7.8251515041069908
20
32.000000000000021
10
7.8251515041069908
20
29.27500000000002
42
-2.4142135623730949
10
7.5501515041069869
20
29.000000000000018
10
-2.5498484958929835
20
29.000000000000018
42
-2.4142135623730674
10
-2.8248484958929865
20
29.275000000000023
10
-2.8248484958929865
20
32.000000000000021
10
-10.824848495892994
20
32.000000000000021
10
-10.824848495892994
20
29.27500000000002
42
-2.4142135623733161
10
-11.099848495892958
20
29.000000000000018
10
-21.199848495892933
20
29.000000000000018
42
-2.4142135623730674
10
-21.474848495892935
20
29.275000000000023
10
-21.474848495892935
20
32.000000000000021
10
-29.474848495892942
20
32.000000000000021
10
-29.474848495892942
20
29.27500000000002
42
-2.4142135623733161
10
-29.749848495892909
20
29.000000000000018
10
-39.849848495892878
20
29.000000000000018
42
-2.4142135623730674
10
-40.124848495892884
20
29.275000000000023
10
-40.124848495892884
20
32.000000000000021
10
-48.124848495892891
20
32.000000000000021
10
-48.124848495892891
20
29.275000000000016
42
-2.4142135623734799
10
-48.399848495892826
20
29.000000000000018
10
-58.499848495892799
20
29.000000000000018
42
-2.4142135623727641
10
-58.774848495892854
20
29.27500000000002
10
-58.774848495892854
20
32.000000000000021
10
-66.77484849589284
20
32.000000000000021
10
-66.77484849589284
20
29.27500000000002
42
-2.4142135623730674
10
-67.049848495892832
20
29.000000000000018
10
-71.908301989150047
20
29.000000000000018
42
-1.5203044016239229
10
-72.372047850031848
20
29.200000000000003
10
-77.423804234522123
20
29.200000000000017
10
-77.423804234522123
20
-19.914585356158767
10
-77.399001492269846
20
-19.914554682792534
10
-77.387765589850716
20
-29.000000000000004
10
-72.388048973700805
20
-29.000000000000004
42
-2.1477199860843323
10
-71.967130074521535
20
-29.000000000000004
10
-66.978692160019435
20
-29.000000000000004
42
-4.659373056140657
10
-66.77484849589284
20
-29.096864071412149
10
-66.77484849589284
20
-31.999999999999996
10
-58.774848495892854
20
-31.999999999999996
10
-58.774848495892854
20
-29.095283398241961
42
-4.4737974289767219
10
-58.560933829714429
20
-29.000000000000004
10
-48.325504474724006
20
-29.000000000000007
42
-4.7620838902238267
10
-48.124848495892891
20
-29.093179127083989
10
-48.124848495892891
20
-31.999999999999996
10
-40.124848495892884
20
-31.999999999999996
10
-40.124848495892884
20
-29.091598453913569
42
-4.5694239544403761
10
-39.914171708686631
20
-29.000000000000014
10
-29.672199901106655
20
-29
42
-4.8709574119377024
10
-29.474848495892942
20
-29.089494182755313
10
-29.474848495892942
20
-31.999999999999996
10
-21.474848495892935
20
-31.999999999999996
10
-21.474848495892935
20
-29.087913509584734
42
-4.6706783968884755
10
-21.267528894636847
20
-29.000000000000004
10
-11.018772634039776
20
-29
42
-4.9866555939577637
10
-10.824848495892994
20
-29.085809238426201
10
-10.824848495892994
20
-31.999999999999996
10
-2.8248484958929865
20
-31.999999999999996
10
-2.8248484958929865
20
-29.084228565255398
42
-4.7781589391465156
10
-2.6210114516801752
20
-29.000000000000004
10
7.6347837607466618
20
-28.999999999999989
42
-5.1099442644992257
10
7.8251515041069908
20
-29.082124294096594
10
7.8251515041069908
20
-31.999999999999996
10
15.825151504106962
20
-31.999999999999996
10
15.825151504106962
20
-29.080543620925582
42
-4.892557009507696
10
16.025373887031677
20
-28.999999999999989
10
26.288476444926086
20
-29.000000000000014
42
-5.2417150358746056
10
26.47515150410694
20
-29.078439349766505
10
26.47515150410694
20
-31.999999999999996
10
34.475151504106947
20
-31.999999999999996
10
34.475151504106947
20
-29.076858676595265
42
-5.0146769029202538
10
34.671619612687081
20
-29.000000000000007
10
44.942313426728887
20
-29.000000000000021
42
-5.3830131666775962
10
45.125151504106888
20
-29.074754405435922
10
45.125151504106888
20
-31.999999999999996
10
53.12515150410686
20
-31.999999999999996
10
53.12515150410686
20
-29.073173732264497
42
-5.1454607058727317
10
53.317717311046913
20
-29
10
63.596303706700432
20
-29.000000000000004
42
-5.5350733520630868
10
63.775151504106837
20
-29.071069461104862
10
63.775151504106837
20
-31.999999999999996
10
71.775151504106816
20
-31.999999999999996
10
71.775151504106816
20
-29.069488787933221
42
-5.2860203094381291
10
71.963657503065576
20
-28.999999999999993
10
77.423804234522066
20
-29.000000000000004
10
77.423804234522066
20
29.000000000000021
0
CIRCLE
5
101
100
AcDbEntity
8
0
100
AcDbCircle
10
39.185097090873242
20
12.099999999999998
30
0
40
1.1500000000000035
210
0
220
0
230
1
0
CIRCLE
5
102
100
AcDbEntity
8
0
100
AcDbCircle
10
39.185097090873242
20
-11.900000000000006
30
0
40
1.1500000000000035
210
0
220
0
230
1
0
LWPOLYLINE
5
103
100
AcDbEntity
8
0
100
AcDbPolyline
90
8
70
1
43
0.0
10
71.260810136854715
20
-9.3823027190222135
10
71.260810136854715
20
9.5876524617020173
42
1.5216762611867838
10
70.550583243030786
20
10.30534974267982
10
68.571037030678852
20
10.30534974267983
42
1.5216762611863193
10
67.860810136854681
20
9.5876524617020973
10
67.860810136854681
20
-9.3876524617020731
42
1.5391251048094494
10
68.57521394450518
20
-10.094650257320163
10
70.548462598556767
20
-10.094650257320172
42
1.5303836105167339
0
LWPOLYLINE
5
104
100
AcDbEntity
8
0
100
AcDbPolyline
90
8
70
1
43
0.0
10
20.210810136854604
20
-21.37695297634238
10
20.210810136854604
20
-14.412347538298055
42
1.513001567321383
10
19.502769068761747
20
-13.689300514640363
10
17.518851204947932
20
-13.689300514640353
42
1.5130015673205965
10
16.810810136854588
20
-14.412347538297858
10
16.810810136854588
20
-21.387652461702103
42
1.5479022313788042
10
17.527206607753811
20
-22.089300514640342
10
19.498462598556632
20
-22.089300514640357
42
1.5303836105167532
0
LWPOLYLINE
5
105
100
AcDbEntity
8
0
100
AcDbPolyline
90
8
70
1
43
0.0
10
20.210810136854711
20
-3.3876524617019705
10
20.210810136854711
20
3.5876524617019916
42
1.5216762611867856
10
19.500583243030789
20
4.3053497426798177
10
17.521037030678858
20
4.3053497426798382
42
1.5216762611863346
10
16.810810136854712
20
3.5876524617021008
10
16.810810136854712
20
-3.3876524617020696
42
1.5391251048094692
10
17.525213944505182
20
-4.0946502573201622
10
19.496406329204504
20
-4.0946502573201871
42
1.5391251048098364
0
LWPOLYLINE
5
106
100
AcDbEntity
8
0
100
AcDbPolyline
90
8
70
1
43
0.0
10
20.210810136854853
20
14.612347538297987
10
20.210810136854853
20
21.587652461702042
42
1.5303836105167532
10
19.498462598556863
20
22.300000000000001
10
17.523157675152813
20
22.300000000000008
42
1.5303836105167885
10
16.810810136854855
20
21.587652461702032
10
16.810810136854855
20
14.612347538297996
42
1.53038361051681
10
17.523157675152845
20
13.900000000000022
10
19.498462598556877
20
13.899999999999988
42
1.5303836105166808
0
LWPOLYLINE
5
107
100
AcDbEntity
8
0
100
AcDbPolyline
90
48
70
1
43
0.0
10
-50.75484849589283
20
17.962436804688572
10
-50.75484849589283
20
21.587652461702042
42
1.530383610516771
10
-51.46719603419082
20
22.300000000000001
10
-53.442500957594852
20
22.300000000000022
42
0.35978556221142344
10
-54.054848495892841
20
22.640832691319609
10
-54.054848495892841
20
23.394072596594246
42
2.4142135623730949
10
-54.329848495892826
20
23.669072596594248
10
-65.789848495893082
20
23.669072596594248
42
2.4142135623730949
10
-66.064848495893088
20
23.394072596594246
10
-66.064848495893088
20
22.65000000000002
42
0.3089604114329223
10
-66.57719603419082
20
22.300000000000001
10
-68.552500957594859
20
22.300000000000022
42
1.5303836105167563
10
-69.264848495892835
20
21.587652461702042
10
-69.264848495892835
20
14.612347538298003
42
1.5303836105167694
10
-68.552500957594859
20
13.900000000000022
10
-66.577196034190806
20
13.900000000000002
42
0.30896041143290626
10
-66.064848495893088
20
13.550000000000011
10
-66.064848495893088
20
7.6057499634826131
10
-66.066260638584495
20
7.6057499634826105
10
-66.066260638584495
20
4.7164364733633626
42
0.37291245123527744
10
-66.657668849434117
20
4.3053497426798373
10
-68.552500957594987
20
4.3053497426798186
42
1.5303836105167647
10
-69.264848495892977
20
3.5930022043818473
10
-69.264848495892977
20
-3.3876524617020536
42
1.5391251048094341
10
-68.550444688242493
20
-4.0946502573201817
10
-66.580664446234863
20
-4.0946502573201569
42
0.31181655162563904
10
-66.066260638584495
20
-4.4499999999999886
10
-66.066260638584495
20
-7.4057499634826263
10
-66.064848495893088
20
-7.4057499634826272
10
-66.064848495893088
20
-13.339300514640355
42
0.30896041143304198
10
-66.577196034191076
20
-13.689300514640363
10
-68.556807427799725
20
-13.689300514640347
42
1.5130015673206119
10
-69.264848495893091
20
-14.412347538297862
10
-69.264848495893091
20
-21.387652461702096
42
1.5479022313787976
10
-68.548452024993878
20
-22.089300514640342
10
-66.577196034191061
20
-22.089300514640364
42
0.30896041143303216
10
-66.064848495893088
20
-22.439300514640355
10
-66.064848495893088
20
-23.19407259659425
42
2.4142135623730949
10
-65.789848495893082
20
-23.469072596594252
10
-54.329848495892833
20
-23.469072596594252
42
2.4142135623730949
10
-54.054848495892841
20
-23.19407259659425
10
-54.054848495892841
20
-22.440832691319585
42
0.3656698304619877
10
-53.438452024993886
20
-22.089300514640342
10
-51.471244966791772
20
-22.089300514640367
42
1.5479022313795758
10
-50.754848495893086
20
-21.387652461701911
10
-50.754848495893086
20
-17.762436804688583
10
-15.900691451555957
20
-17.762436804688583
10
-15.900691451555957
20
17.962436804688565
0
ENDSEC
0
SECTION
2
OBJECTS
0
DICTIONARY
5
C
100
AcDbDictionary
3
ACAD_GROUP
350
D
3
ACAD_MLINESTYLE
350
17
0
DICTIONARY
5
D
100
AcDbDictionary
0
DICTIONARY
5
1A
330
C
100
AcDbDictionary
0
DICTIONARY
5
17
100
AcDbDictionary
0
ENDSEC
0
EOF
