0
SECTION
2
HEADER
9
$INSUNITS
70
4
9
$ACADVER
1
AC1014
9
$HANDSEED
5
FFFF
0
ENDSEC
0
SECTION
2
TABLES
0
TABLE
2
VPORT
5
8
100
AcDbSymbolTable
0
ENDTAB
0
TABLE
2
LTYPE
5
5
100
AcDbSymbolTable
0
LTYPE
5
14
100
AcDbSymbolTableRecord
100
AcDbLinetypeTableRecord
2
BYBLOCK
70
0
0
LTYPE
5
15
100
AcDbSymbolTableRecord
100
AcDbLinetypeTableRecord
2
BYLAYER
70
0
0
ENDTAB
0
TABLE
2
LAYER
5
2
100
AcDbSymbolTable
70
2
0
LAYER
5
50
100
AcDbSymbolTableRecord
100
AcDbLayerTableRecord
2
0
70
0
6
CONTINUOUS
0
ENDTAB
0
TABLE
2
STYLE
5
3
100
AcDbSymbolTable
70
1
0
STYLE
5
11
100
AcDbSymbolTableRecord
100
AcDbTextStyleTableRecord
2
STANDARD
70
0
0
ENDTAB
0
TABLE
2
VIEW
5
6
100
AcDbSymbolTable
70
0
0
ENDTAB
0
TABLE
2
UCS
5
7
100
AcDbSymbolTable
70
0
0
ENDTAB
0
TABLE
2
APPID
5
9
100
AcDbSymbolTable
70
2
0
APPID
5
12
100
AcDbSymbolTableRecord
100
AcDbRegAppTableRecord
2
ACAD
70
0
0
ENDTAB
0
TABLE
2
DIMSTYLE
5
A
100
AcDbSymbolTable
70
1
0
ENDTAB
0
TABLE
2
BLOCK_RECORD
5
1
100
AcDbSymbolTable
70
1
0
BLOCK_RECORD
5
1F
100
AcDbSymbolTableRecord
100
AcDbBlockTableRecord
2
*MODEL_SPACE
0
BLOCK_RECORD
5
1B
100
AcDbSymbolTableRecord
100
AcDbBlockTableRecord
2
*PAPER_SPACE
0
ENDTAB
0
ENDSEC
0
SECTION
2
BLOCKS
0
BLOCK
5
20
100
AcDbEntity
100
AcDbBlockBegin
2
*MODEL_SPACE
0
ENDBLK
5
21
100
AcDbEntity
100
AcDbBlockEnd
0
BLOCK
5
1C
100
AcDbEntity
100
AcDbBlockBegin
2
*PAPER_SPACE
0
ENDBLK
5
1D
100
AcDbEntity
100
AcDbBlockEnd
0
ENDSEC
0
SECTION
2
ENTITIES
0
LWPOLYLINE
5
100
100
AcDbEntity
8
0
100
AcDbPolyline
90
8
70
1
43
0.0
10
-35
20
-77.839618205903122
10
-35.000000000000313
20
77.839618205902724
42
-0.41421356237310025
10
-31.000000000000007
20
81.839618205903108
10
31.000000000000007
20
81.839618205902781
42
-0.4142135623731012
10
35
20
77.839618205902724
10
35
20
-77.839618205903122
42
-0.4142135623730947
10
31.000000000000011
20
-81.839618205903122
10
-31
20
-81.839618205903122
42
-0.41421356237309598
0
LWPOLYLINE
5
101
100
AcDbEntity
8
0
100
AcDbPolyline
90
6
70
1
43
0.0
10
17.926711936033854
20
49.564642323293327
10
-5.2070594239661716
20
53.423153148293338
10
-16.996527208966381
20
49.524808773293273
10
-12.136931263966382
20
48.462613158293223
10
-5.3045058889663244
20
50.880509643293252
10
13.653737881033855
20
47.577142488293219
0
ELLIPSE
5
102
100
AcDbEntity
8
0
100
AcDbEllipse
10
35.228612559152189
20
17.162567427966007
30
0
11
26.119482881626492
21
-24.269573657616572
31
0.0
40
0.054336171403382955
41
3.1218745661937111
42
3.2182270373409598
0
LINE
5
103
100
AcDbEntity
8
0
100
AcDbLine
10
9.1402080460337878
20
41.455405938293211
30
0
11
11.231566576033705
21
42.51264664829344
31
0
0
SPLINE
5
104
100
AcDbEntity
8
0
100
AcDbSpline
70
0
71
3
72
8
73
4
74
0
42
0.000000001
43
0.0000000001
44
0.0000000001
40
0.8125
40
0.8125
40
0.8125
40
0.8125
40
0.875
40
0.875
40
0.875
40
0.875
10
11.311622296033804
20
42.448038573293246
30
0
10
11.294717326033721
20
42.509634843293199
30
0
10
11.26848547603382
20
42.529551618293326
30
0
10
11.231566576033721
20
42.512646648293412
30
0
0
LINE
5
105
100
AcDbEntity
8
0
100
AcDbLine
10
11.311622296033804
20
42.448038573293246
30
0
11
14.418736351033736
21
29.962649523293088
31
0
0
LINE
5
106
100
AcDbEntity
8
0
100
AcDbLine
10
14.418736351033736
20
29.962649523293088
30
0
11
14.377251166033769
21
29.657971443293309
31
0
0
ELLIPSE
5
107
100
AcDbEntity
8
0
100
AcDbEllipse
10
13.075622404505712
20
42.75771332568381
30
0
11
1.2183933330232257
21
-13.301940264336547
31
0.0
40
0.044700295327810717
41
0.024080949836937617
42
0.17053462218015281
0
LINE
5
108
100
AcDbEntity
8
0
100
AcDbLine
10
14.307979651033813
20
29.460941103293266
30
0
11
12.259660786033731
21
28.080465708293421
31
0
0
SPLINE
5
109
100
AcDbEntity
8
0
100
AcDbSpline
70
0
71
3
72
10
73
6
74
0
42
0.000000001
43
0.0000000001
44
0.0000000001
40
-0.0091605781400826165
40
-0.0091605781400826165
40
-0.0091605781400826165
40
-0.0091605781400826165
40
-0.0027862952359273994
40
-0.0027862952359273994
40
0
40
0
40
0
40
0
10
12.219632926033739
20
28.155857988293373
30
0
10
12.226588567288669
20
28.140226099788812
30
0
10
12.234643308744168
20
28.12302250494831
30
0
10
12.24605129293192
20
28.101539855604152
30
0
10
12.253678278167861
20
28.087569936384185
30
0
10
12.259660786033709
20
28.080465708293421
30
0
0
LINE
5
110
100
AcDbEntity
8
0
100
AcDbLine
10
12.219632926033739
20
28.155857988293373
30
0
11
11.156174296033853
21
32.506458888293395
31
0
0
LINE
5
111
100
AcDbEntity
8
0
100
AcDbLine
10
11.156174296033853
20
32.506458888293395
30
0
11
11.114689111033742
21
24.293266653293415
31
0
0
ELLIPSE
5
112
100
AcDbEntity
8
0
100
AcDbEllipse
10
-2.6784278831408037
20
40.865975641813023
30
0
11
13.707554348524738
21
-16.81608471051748
31
0.0
40
0.09121974710855299
41
6.2769423101926591
42
6.3946282072541454
0
LINE
5
113
100
AcDbEntity
8
0
100
AcDbLine
10
11.019282901033771
20
24.042412443293468
30
0
11
9.0632612860337165
21
22.652804478293493
31
0
0
ELLIPSE
5
114
100
AcDbEntity
8
0
100
AcDbEllipse
10
14.086160841815804
20
34.53605364637545
30
0
11
-5.0832137466364067
21
-11.900609093362508
31
0.0
40
0.048055026870405797
41
6.1653690369746199
42
6.3614925975255874
0
LINE
5
115
100
AcDbEntity
8
0
100
AcDbLine
10
8.970964036033676
20
22.746656208293349
30
0
11
9.0725881660336753
21
41.115266283293352
31
0
0
SPLINE
5
116
100
AcDbEntity
8
0
100
AcDbSpline
70
0
71
3
72
8
73
4
74
0
42
0.000000001
43
0.0000000001
44
0.0000000001
40
0.0625
40
0.0625
40
0.0625
40
0.0625
40
0.125
40
0.125
40
0.125
40
0.125
10
9.0848296960337294
20
41.252254833293392
30
0
10
9.0770572960337166
20
41.213781453293322
30
0
10
9.0725881660336753
20
41.170741788293256
30
0
10
9.0725881660336753
20
41.115266283293352
30
0
0
SPLINE
5
117
100
AcDbEntity
8
0
100
AcDbSpline
70
0
71
3
72
8
73
4
74
0
42
0.000000001
43
0.0000000001
44
0.0000000001
40
0.1111111111111111
40
0.1111111111111111
40
0.1111111111111111
40
0.1111111111111111
40
0.22222222222222221
40
0.22222222222222221
40
0.22222222222222221
40
0.22222222222222221
10
23.232249331033788
20
32.800449918293339
30
0
10
23.241381901033758
20
32.761976538293297
30
0
10
23.253817741033757
20
32.738853648293315
30
0
10
23.272180036033813
20
32.738853648293315
30
0
0
LINE
5
118
100
AcDbEntity
8
0
100
AcDbLine
10
23.232249331033788
20
32.800449918293339
30
0
11
18.364589521033764
21
45.972239043293385
31
0
0
SPLINE
5
119
100
AcDbEntity
8
0
100
AcDbSpline
70
0
71
3
72
8
73
4
74
0
42
0.000000001
43
0.0000000001
44
0.0000000001
40
0.33333333333333331
40
0.33333333333333331
40
0.33333333333333331
40
0.33333333333333331
40
0.44444444444444442
40
0.44444444444444442
40
0.44444444444444442
40
0.44444444444444442
10
18.418510546033758
20
46.167714903293358
30
0
10
18.354874021033815
20
46.135362288293265
30
0
10
18.338551981033838
20
46.070754213293256
30
0
10
18.36458952103375
20
45.972239043293413
30
0
0
LINE
5
120
100
AcDbEntity
8
0
100
AcDbLine
10
18.418510546033758
20
46.167714903293358
30
0
11
20.525316721033718
21
47.231076378293423
31
0
0
ELLIPSE
5
121
100
AcDbEntity
8
0
100
AcDbEllipse
10
20.386207539564225
20
46.504200676945104
30
0
11
-0.17303806432770089
21
-0.73285592332555105
31
0.0
40
0.22199673433092237
41
2.7836694338130639
42
3.3320559357412347
0
LINE
5
122
100
AcDbEntity
8
0
100
AcDbLine
10
20.605275286033692
20
47.177155353293287
30
0
11
25.472837941031649
21
34.433236848293646
31
0
0
ELLIPSE
5
123
100
AcDbEntity
8
0
100
AcDbEllipse
10
24.450624782221936
20
34.734026453557135
30
0
11
1.0176754576683673
21
-0.40639865085167837
31
0.0
40
0.36335217732704089
41
6.0501070374109531
42
6.5364323190242235
0
LINE
5
124
100
AcDbEntity
8
0
100
AcDbLine
10
25.406675386031896
20
34.253208633293553
30
0
11
23.272180036033816
21
32.738853648293315
31
0
0
SPLINE
5
125
100
AcDbEntity
8
0
100
AcDbSpline
70
0
71
3
72
8
73
4
74
0
42
0.000000001
43
0.0000000001
44
0.0000000001
40
0.0625
40
0.0625
40
0.0625
40
0.0625
40
0.125
40
0.125
40
0.125
40
0.125
10
-17.473558258966243
20
31.053991638293343
30
0
10
-17.473558258966243
20
30.966260673293391
30
0
10
-17.425855153966253
20
30.903207078293295
30
0
10
-17.330448943966221
20
30.864733698293261
30
0
0
LINE
5
126
100
AcDbEntity
8
0
100
AcDbLine
10
-17.473558258966243
20
31.053991638293343
30
0
11
-14.001724333966308
21
43.270067028293241
31
0
0
SPLINE
5
127
100
AcDbEntity
8
0
100
AcDbSpline
70
0
71
3
72
8
73
4
74
0
42
0.000000001
43
0.0000000001
44
0.0000000001
40
0.1875
40
0.1875
40
0.1875
40
0.1875
40
0.25
40
0.25
40
0.25
40
0.25
10
-13.918559653966195
20
43.317672978293288
30
0
10
-13.960239148966153
20
43.328554338293245
30
0
10
-13.987539703966196
20
43.313106693293349
30
0
10
-14.001724333966312
20
43.270067028293241
30
0
0
SPLINE
5
128
100
AcDbEntity
8
0
100
AcDbSpline
70
0
71
3
72
8
73
4
74
0
42
0.000000001
43
0.0000000001
44
0.0000000001
40
0.25
40
0.25
40
0.25
40
0.25
40
0.3125
40
0.3125
40
0.3125
40
0.3125
10
-13.837046608966187
20
43.230039168293345
30
0
10
-13.850842618966187
20
43.279199598293218
30
0
10
-13.87707446896618
20
43.307957478293403
30
0
10
-13.918559653966195
20
43.317672978293288
30
0
0
LINE
5
129
100
AcDbEntity
8
0
100
AcDbLine
10
-13.837046608966187
20
43.230039168293345
30
0
11
-12.151893133966308
21
36.846567048293352
31
0
0
LINE
5
130
100
AcDbEntity
8
0
100
AcDbLine
10
-12.151893133966308
20
36.846567048293352
30
0
11
-12.715100668966301
21
34.810586868293299
31
0
0
LINE
5
131
100
AcDbEntity
8
0
100
AcDbLine
10
-12.715100668966301
20
34.810586868293299
30
0
11
-11.719456228966237
21
34.478219613293405
31
0
0
SPLINE
5
132
100
AcDbEntity
8
0
100
AcDbSpline
70
0
71
3
72
8
73
4
74
0
42
0.000000001
43
0.0000000001
44
0.0000000001
40
0.5
40
0.5
40
0.5
40
0.5
40
0.5625
40
0.5625
40
0.5625
40
0.5625
10
-11.65785995896618
20
34.410502578293304
30
0
10
-11.685646288966261
20
34.448975958293332
30
0
10
-11.706923233966222
20
34.473361863293363
30
0
10
-11.719456228966237
20
34.478219613293405
30
0
0
LINE
5
133
100
AcDbEntity
8
0
100
AcDbLine
10
-11.65785995896618
20
34.410502578293304
30
0
11
-10.751403808966289
21
30.460083123293344
31
0
0
ELLIPSE
5
134
100
AcDbEntity
8
0
100
AcDbEllipse
10
-15.317165079276535
20
36.462324707210399
30
0
11
4.5554686603872367
21
-6.0754622041263104
31
0.0
40
0.058567222741026555
41
6.1920297962100994
42
6.4007386418555843
0
LINE
5
135
100
AcDbEntity
8
0
100
AcDbLine
10
-10.813000078966301
20
30.387799803293426
30
0
11
-13.467663298966146
21
31.377323478293242
31
0
0
LINE
5
136
100
AcDbEntity
8
0
100
AcDbLine
10
-13.467663298966146
20
31.377323478293242
30
0
11
-14.132494963966211
21
29.652142143293378
31
0
0
ELLIPSE
5
137
100
AcDbEntity
8
0
100
AcDbEllipse
10
-14.388773117432329
20
29.953623574531463
30
0
11
0.24516542374372066
21
-0.3152286818911692
31
0.0
40
0.30417312885007419
41
5.8028336301643231
42
6.4253598371099976
0
LINE
5
138
100
AcDbEntity
8
0
100
AcDbLine
10
-14.21565964396634
20
29.639609148293253
30
0
11
-14.21565964396633
21
29.639706303293298
31
0
0
LINE
5
139
100
AcDbEntity
8
0
100
AcDbLine
10
-14.21565964396633
20
29.639706303293298
30
0
11
-17.330448943966221
21
30.864733698293261
31
0
0
ELLIPSE
5
140
100
AcDbEntity
8
0
100
AcDbEllipse
10
-19.827702835630049
20
47.522142190455639
30
0
11
4.1550442567935439
21
-5.1923050547916514
31
0.0
40
0.098481457965809774
41
6.1491114625649645
42
6.4056369800484347
0
LINE
5
141
100
AcDbEntity
8
0
100
AcDbLine
10
-15.778300663966153
20
42.321737073293299
30
0
11
-21.573985033966242
21
43.859117793293322
31
0
0
LINE
5
142
100
AcDbEntity
8
0
100
AcDbLine
10
-21.573985033966242
20
43.859117793293322
30
0
11
-22.554278983966313
21
47.314046748293336
31
0
0
LINE
5
143
100
AcDbEntity
8
0
100
AcDbLine
10
-22.554278983966313
20
47.314046748293336
30
0
11
-22.367935693966267
21
47.27110423829329
31
0
0
LINE
5
144
100
AcDbEntity
8
0
100
AcDbLine
10
-22.367935693966267
20
47.27110423829329
30
0
11
-21.847767823966187
21
47.15257513829323
31
0
0
LINE
5
145
100
AcDbEntity
8
0
100
AcDbLine
10
-21.847767823966187
20
47.15257513829323
30
0
11
-15.832124533966283
21
45.775208703293359
31
0
0
SPLINE
5
146
100
AcDbEntity
8
0
100
AcDbSpline
70
0
71
3
72
8
73
4
74
0
42
0.000000001
43
0.0000000001
44
0.0000000001
40
0.44444444444444442
40
0.44444444444444442
40
0.44444444444444442
40
0.44444444444444442
40
0.55555555555555558
40
0.55555555555555558
40
0.55555555555555558
40
0.55555555555555558
10
-15.641312113966135
20
45.598192293293337
30
0
10
-15.641312113966226
20
45.687477738293168
30
0
10
-15.704462863966171
20
45.745867893293251
30
0
10
-15.832124533966311
20
45.775208703293387
30
0
0
LINE
5
147
100
AcDbEntity
8
0
100
AcDbLine
10
-15.641312113966135
20
45.598192293293337
30
0
11
-15.64131211396627
21
42.418697763293373
31
0
0
ELLIPSE
5
148
100
AcDbEntity
8
0
100
AcDbEllipse
10
-9.2813544556178531
20
27.84397361095289
30
0
11
0.084229440257250057
21
-0.19167843215707289
31
0.0
40
0.074482722263631174
41
4.9645811029727822
42
5.8163000530635305
0
LINE
5
149
100
AcDbEntity
8
0
100
AcDbLine
10
-9.2741620339663093
20
27.790069413293274
30
0
11
-13.323096658966216
21
45.138357678293218
31
0
0
SPLINE
5
150
100
AcDbEntity
8
0
100
AcDbSpline
70
0
71
3
72
8
73
4
74
0
42
0.000000001
43
0.0000000001
44
0.0000000001
40
0.29999999999999999
40
0.29999999999999999
40
0.29999999999999999
40
0.29999999999999999
40
0.40000000000000002
40
0.40000000000000002
40
0.40000000000000002
40
0.40000000000000002
10
-13.261500388966256
20
45.307601688293261
30
0
10
-13.330869058966197
20
45.323049333293298
30
0
10
-13.350785833966095
20
45.267670983293428
30
0
10
-13.323096658966211
20
45.138357678293218
30
0
0
LINE
5
151
100
AcDbEntity
8
0
100
AcDbLine
10
-13.261500388966256
20
45.307601688293261
30
0
11
-10.105128748966214
21
44.585837193293457
31
0
0
ELLIPSE
5
152
100
AcDbEntity
8
0
100
AcDbEllipse
10
-10.389045395683318
20
27.219656116138164
30
0
11
-0.27334785198941136
21
-17.367744697140356
31
0.0
40
0.048079741701383134
41
3.0269418023821948
42
3.1289093008207867
0
LINE
5
153
100
AcDbEntity
8
0
100
AcDbLine
10
-10.021964068966263
20
44.471874378293265
30
0
11
-5.8299201289661902
21
26.461863408293365
31
0
0
SPLINE
5
154
100
AcDbEntity
8
0
100
AcDbSpline
70
0
71
3
72
8
73
4
74
0
42
0.000000001
43
0.0000000001
44
0.0000000001
40
0.69999999999999996
40
0.69999999999999996
40
0.69999999999999996
40
0.69999999999999996
40
0.80000000000000004
40
0.80000000000000004
40
0.80000000000000004
40
0.80000000000000004
10
-5.8498369039661604
20
26.346346113293269
30
0
10
-5.8221477289661454
20
26.335659063293324
30
0
10
-5.8173871339663297
20
26.375589768293271
30
0
10
-5.8299201289661902
20
26.461863408293365
30
0
0
LINE
5
155
100
AcDbEntity
8
0
100
AcDbLine
10
-5.8498369039661604
20
26.346346113293269
30
0
11
-5.850031213966254
21
26.346540423293359
31
0
0
LINE
5
156
100
AcDbEntity
8
0
100
AcDbLine
10
-5.850031213966254
20
26.346540423293359
30
0
11
-9.2125657639662641
21
27.669985833293403
31
0
0
ELLIPSE
5
157
100
AcDbEntity
8
0
100
AcDbEllipse
10
-2.8261161799203025
20
39.832808171230255
30
0
11
2.1358584639884661
21
-3.5518520621790675
31
0.0
40
0.13009828181426958
41
3.0172799931183536
42
3.3546594790189945
0
LINE
5
158
100
AcDbEntity
8
0
100
AcDbLine
10
-4.8881967139662743
20
43.391705088293349
30
0
11
-3.3739388839661433
21
43.043987343293381
31
0
0
LINE
5
159
100
AcDbEntity
8
0
100
AcDbLine
10
-3.3739388839661433
20
43.043987343293381
30
0
11
-0.60541000396611477
21
31.060306713293357
31
0
0
LINE
5
160
100
AcDbEntity
8
0
100
AcDbLine
10
-0.60541000396611477
20
31.060306713293357
30
0
11
-1.7103538189662522
21
31.428135543293276
31
0
0
LINE
5
161
100
AcDbEntity
8
0
100
AcDbLine
10
-1.7103538189662522
20
31.428135543293276
30
0
11
-1.7103538189662517
21
28.313346243293314
31
0
0
LINE
5
162
100
AcDbEntity
8
0
100
AcDbLine
10
-1.7103538189662517
20
28.313346243293314
30
0
11
0.16094863603377446
21
27.637827528293339
31
0
0
LINE
5
163
100
AcDbEntity
8
0
100
AcDbLine
10
0.16094863603377446
20
27.637827528293339
30
0
11
1.0472937010338186
21
23.631932568293283
31
0
0
LINE
5
164
100
AcDbEntity
8
0
100
AcDbLine
10
1.0472937010338186
20
23.631932568293283
30
0
11
-1.8550176139661918
21
24.775349763293253
31
0
0
LINE
5
165
100
AcDbEntity
8
0
100
AcDbLine
10
-1.8550176139661918
20
24.775349763293253
30
0
11
-2.9892050839661204
21
25.22012535329333
31
0
0
LINE
5
166
100
AcDbEntity
8
0
100
AcDbLine
10
-2.9892050839661204
20
25.22012535329333
30
0
11
-4.868279938966265
21
25.960349298293206
31
0
0
SPLINE
5
167
100
AcDbEntity
8
0
100
AcDbSpline
70
0
71
3
72
8
73
4
74
0
42
0.000000001
43
0.0000000001
44
0.0000000001
40
0.15384615384615385
40
0.15384615384615385
40
0.15384615384615385
40
0.15384615384615385
40
0.23076923076923078
40
0.23076923076923078
40
0.23076923076923078
40
0.23076923076923078
10
-5.0113892539662306
20
26.166609363293336
30
0
10
-5.0113892539662377
20
26.066539713293366
30
0
10
-4.9635889939662308
20
25.998822678293383
30
0
10
-4.8682799389662463
20
25.960349298293206
30
0
0
LINE
5
168
100
AcDbEntity
8
0
100
AcDbLine
10
-5.0113892539662306
20
26.166609363293336
30
0
11
-5.011389253966235
21
43.245583968293595
31
0
0
SPLINE
5
169
100
AcDbEntity
8
0
100
AcDbSpline
70
0
71
3
72
8
73
4
74
0
42
0.000000001
43
0.0000000001
44
0.0000000001
40
0.10000000000000001
40
0.10000000000000001
40
0.10000000000000001
40
0.10000000000000001
40
0.14999999999999999
40
0.14999999999999999
40
0.14999999999999999
40
0.14999999999999999
10
1.3228252810337506
20
38.271636588293333
30
0
10
3.1064939260336679
20
37.842308643293222
30
0
10
3.1018304860337347
20
34.556623698293322
30
0
10
1.3228252810337506
20
35.070670803293226
30
0
0
LINE
5
170
100
AcDbEntity
8
0
100
AcDbLine
10
1.3228252810337506
20
38.271636588293333
30
0
11
-1.520998723966098
21
39.016523973293374
31
0
0
LINE
5
171
100
AcDbEntity
8
0
100
AcDbLine
10
-1.520998723966098
20
39.016523973293374
30
0
11
-2.4058864639661426
21
42.82227963329332
31
0
0
LINE
5
172
100
AcDbEntity
8
0
100
AcDbLine
10
-2.4058864639661426
20
42.82227963329332
30
0
11
-1.836849628966196
21
42.692480553293407
31
0
0
LINE
5
173
100
AcDbEntity
8
0
100
AcDbLine
10
-1.836849628966196
20
42.692480553293407
30
0
11
-1.8319918789618495
21
42.6895659032906
31
0
0
LINE
5
174
100
AcDbEntity
8
0
100
AcDbLine
10
-1.8319918789618495
20
42.6895659032906
30
0
11
1.3627559860319822
21
41.958571683292107
31
0
0
SPLINE
5
175
100
AcDbEntity
8
0
100
AcDbSpline
70
0
71
3
72
8
73
4
74
0
42
0.000000001
43
0.0000000001
44
0.0000000001
40
0.75
40
0.75
40
0.75
40
0.75
40
0.80000000000000004
40
0.80000000000000004
40
0.80000000000000004
40
0.80000000000000004
10
4.3836935560320249
20
39.777927708292196
30
0
10
3.6311309260319939
20
40.94747959829219
30
0
10
2.6231478010320681
20
41.669244093292065
30
0
10
1.3627559860319822
20
41.958571683292107
30
0
0
ELLIPSE
5
176
100
AcDbEntity
8
0
100
AcDbEllipse
10
-154.50543757315361
20
-57.272157894075342
30
0
11
158.96306641318381
21
96.931641008944624
31
0.0
40
0.18931488434734084
41
6.1682547534997321
42
6.2871463973992174
0
ELLIPSE
5
177
100
AcDbEntity
8
0
100
AcDbEllipse
10
-156.33758891398571
20
232.83596338805822
30
0
11
160.49819341941037
21
-201.09800692418375
31
0.0
40
0.10383836727921997
41
0.0018567090801952354
42
0.12937867280275023
0
ELLIPSE
5
178
100
AcDbEntity
8
0
100
AcDbEllipse
10
-68.644881076701992
20
24.114505691206958
30
0
11
74.149115408955609
21
3.6239658499513383
31
0.0
40
0.3202210551526265
41
6.2675363988629265
42
6.4560798725271029
0
ELLIPSE
5
179
100
AcDbEntity
8
0
100
AcDbEllipse
10
-177.32039780855857
20
276.43362776283942
30
0
11
181.47198133139923
21
-252.89771439704509
31
0.0
40
0.088071171274246324
41
0.011973861103025578
42
0.12212438103004954
0
SPLINE
5
180
100
AcDbEntity
8
0
100
AcDbSpline
70
0
71
3
72
8
73
4
74
0
42
0.000000001
43
0.0000000001
44
0.0000000001
40
0.5
40
0.5
40
0.5
40
0.5
40
0.55000000000000004
40
0.55000000000000004
40
0.55000000000000004
40
0.55000000000000004
10
2.0045619160337362
20
23.29606773329326
30
0
10
2.9817469060337993
20
23.039092758293318
30
0
10
3.7835671210337676
20
23.18210491829328
30
0
10
4.4052619660338319
20
23.745409608293357
30
0
0
LINE
5
181
100
AcDbEntity
8
0
100
AcDbLine
10
2.0045619160337362
20
23.29606773329326
30
0
11
1.1289039010337074
21
27.288069528293395
31
0
0
LINE
5
182
100
AcDbEntity
8
0
100
AcDbLine
10
1.1289039010337074
20
27.288069528293395
30
0
11
1.301256871033831
21
27.226473258293389
31
0
0
SPLINE
5
183
100
AcDbEntity
8
0
100
AcDbSpline
70
0
71
3
72
8
73
4
74
0
42
0.000000001
43
0.0000000001
44
0.0000000001
40
0.34999999999999998
40
0.34999999999999998
40
0.34999999999999998
40
0.34999999999999998
40
0.40000000000000002
40
0.40000000000000002
40
0.40000000000000002
40
0.40000000000000002
10
1.301256871033831
20
30.425787408293417
30
0
10
3.1741138060337564
20
29.822552013293375
30
0
10
3.1156264960337348
20
26.549302908293431
30
0
10
1.301256871033831
20
27.226473258293389
30
0
0
LINE
5
184
100
AcDbEntity
8
0
100
AcDbLine
10
1.301256871033831
20
30.425787408293417
30
0
11
1.301256871033831
21
30.427730508293251
31
0
0
LINE
5
185
100
AcDbEntity
8
0
100
AcDbLine
10
1.301256871033831
20
30.427730508293251
30
0
11
0.36264241603388092
21
30.738626508293372
31
0
0
LINE
5
186
100
AcDbEntity
8
0
100
AcDbLine
10
0.36264241603388092
20
30.738626508293372
30
0
11
-0.75308560396619373
21
35.674003353293259
31
0
0
LINE
5
187
100
AcDbEntity
8
0
100
AcDbLine
10
-0.75308560396619373
20
35.674003353293259
30
0
11
1.3228252810337506
21
35.070670803293226
31
0
0
SPLINE
5
188
100
AcDbEntity
8
0
100
AcDbSpline
70
0
71
3
72
8
73
4
74
0
42
0.000000001
43
0.0000000001
44
0.0000000001
40
0
40
0
40
0
40
0
40
0.10000000000000001
40
0.10000000000000001
40
0.10000000000000001
40
0.10000000000000001
10
-24.901155163966248
20
47.851119588293457
30
0
10
-24.984319843966176
20
47.871036363293328
30
0
10
-25.024347703966168
20
47.832757293293383
30
0
10
-25.024347703966168
20
47.740362888293348
30
0
0
LINE
5
189
100
AcDbEntity
8
0
100
AcDbLine
10
-24.901155163966248
20
47.851119588293457
30
0
11
-23.522428558966229
21
47.535754458293255
31
0
0
LINE
5
190
100
AcDbEntity
8
0
100
AcDbLine
10
-23.522428558966229
20
47.535754458293255
30
0
11
-20.776925413966222
21
37.774300143293388
31
0
0
LINE
5
191
100
AcDbEntity
8
0
100
AcDbLine
10
-20.776925413966222
20
37.774300143293388
30
0
11
-21.72486674896637
21
38.088207948293288
31
0
0
LINE
5
192
100
AcDbEntity
8
0
100
AcDbLine
10
-21.72486674896637
20
38.088207948293288
30
0
11
-21.72486674896637
21
32.71883971829336
31
0
0
SPLINE
5
193
100
AcDbEntity
8
0
100
AcDbSpline
70
0
71
3
72
8
73
4
74
0
42
0.000000001
43
0.0000000001
44
0.0000000001
40
0.40000000000000002
40
0.40000000000000002
40
0.40000000000000002
40
0.40000000000000002
40
0.5
40
0.5
40
0.5
40
0.5
10
-21.8679760639662
20
32.629554273293309
30
0
10
-21.772569853966214
20
32.592635373293319
30
0
10
-21.72486674896637
20
32.621781873293401
30
0
10
-21.72486674896637
20
32.71883971829336
30
0
0
LINE
5
194
100
AcDbEntity
8
0
100
AcDbLine
10
-21.8679760639662
20
32.629554273293309
30
0
11
-24.881238388966249
21
33.816108288293364
31
0
0
ELLIPSE
5
195
100
AcDbEntity
8
0
100
AcDbEllipse
10
40.543622433862332
20
63.33206336909447
30
0
11
65.553971619532177
21
29.409171545353875
31
0.0
40
0.046067636356824711
41
3.1209284791892227
42
3.1870103235068346
0
LINE
5
196
100
AcDbEntity
8
0
100
AcDbLine
10
-25.024347703966185
20
33.991570218293418
30
0
11
-25.024347703966164
21
47.740362888293348
31
0
0
SPLINE
5
197
100
AcDbEntity
8
0
100
AcDbSpline
70
0
71
3
72
8
73
4
74
0
42
0.000000001
43
0.0000000001
44
0.0000000001
40
0.2857142857142857
40
0.2857142857142857
40
0.2857142857142857
40
0.2857142857142857
40
0.42857142857142855
40
0.42857142857142855
40
0.42857142857142855
40
0.42857142857142855
10
-17.39427977896635
20
36.653811528293389
30
0
10
-17.294210128966242
20
36.62155606829343
30
0
10
-17.244952543966164
20
36.648953778293404
30
0
10
-17.244952543966164
20
36.735324573293312
30
0
0
LINE
5
198
100
AcDbEntity
8
0
100
AcDbLine
10
-17.39427977896635
20
36.653811528293389
30
0
11
-19.808872993966268
21
37.454077263293414
31
0
0
LINE
5
199
100
AcDbEntity
8
0
100
AcDbLine
10
-19.808872993966268
20
37.454077263293414
30
0
11
-20.787612463966237
21
41.038222368293319
31
0
0
LINE
5
200
100
AcDbEntity
8
0
100
AcDbLine
10
-20.787612463966237
20
41.038222368293319
30
0
11
-17.452669933966305
21
40.054819458293295
31
0
0
SPLINE
5
201
100
AcDbEntity
8
0
100
AcDbSpline
70
0
71
3
72
8
73
4
74
0
42
0.000000001
43
0.0000000001
44
0.0000000001
40
0.5714285714285714
40
0.5714285714285714
40
0.5714285714285714
40
0.5714285714285714
40
0.7142857142857143
40
0.7142857142857143
40
0.7142857142857143
40
0.7142857142857143
10
-17.244952543966097
20
39.862452558293441
30
0
10
-17.2449525439662
20
39.950086368293455
30
0
10
-17.314224058966246
20
40.013334273293196
30
0
10
-17.452669933966298
20
40.054819458293295
30
0
0
LINE
5
202
100
AcDbEntity
8
0
100
AcDbLine
10
-17.244952543966097
20
39.862452558293441
30
0
11
-17.244952543966164
21
36.735324573293312
31
0
0
ELLIPSE
5
203
100
AcDbEntity
8
0
100
AcDbEllipse
10
54.087214375394836
20
92.716159648810518
30
0
11
35.744539218279137
21
63.44822917558318
31
0.0
40
0.018178540144722626
41
3.0859044258742774
42
3.1802069695139825
0
LINE
5
204
100
AcDbEntity
8
0
100
AcDbLine
10
18.333888541033744
20
29.402453793293368
30
0
11
20.396100571033774
21
37.515673533293437
31
0
0
SPLINE
5
205
100
AcDbEntity
8
0
100
AcDbSpline
70
0
71
3
72
8
73
4
74
0
42
0.000000001
43
0.0000000001
44
0.0000000001
40
0.33333333333333331
40
0.33333333333333331
40
0.33333333333333331
40
0.33333333333333331
40
0.44444444444444442
40
0.44444444444444442
40
0.44444444444444442
40
0.44444444444444442
10
20.529980161033802
20
37.669469898293301
30
0
10
20.494615741033787
20
37.803446643293398
30
0
10
20.450021596033686
20
37.75263457829324
30
0
10
20.396100571033774
20
37.515673533293409
30
0
0
LINE
5
206
100
AcDbEntity
8
0
100
AcDbLine
10
20.529980161033802
20
37.669469898293301
30
0
11
21.531842521033838
21
35.193377568293315
31
0
0
LINE
5
207
100
AcDbEntity
8
0
100
AcDbLine
10
21.531842521033838
20
35.193377568293315
30
0
11
20.482277056033841
21
30.945858123293437
31
0
0
SPLINE
5
208
100
AcDbEntity
8
0
100
AcDbSpline
70
0
71
3
72
8
73
4
74
0
42
0.000000001
43
0.0000000001
44
0.0000000001
40
0.66666666666666663
40
0.66666666666666663
40
0.66666666666666663
40
0.66666666666666663
40
0.77777777777777779
40
0.77777777777777779
40
0.77777777777777779
40
0.77777777777777779
10
20.402318491033743
20
30.701124678293414
30
0
10
20.419126306033672
20
30.716572323293487
30
0
10
20.446912636033737
20
30.794976408293362
30
0
10
20.482277056033841
20
30.945858123293437
30
0
0
LINE
5
209
100
AcDbEntity
8
0
100
AcDbLine
10
20.402318491033743
20
30.701124678293414
30
0
11
20.400569701033952
21
30.701318988293256
31
0
0
LINE
5
210
100
AcDbEntity
8
0
100
AcDbLine
10
20.400569701033952
20
30.701318988293256
30
0
11
18.413847106033725
21
29.290142613293249
31
0
0
SPLINE
5
211
100
AcDbEntity
8
0
100
AcDbSpline
70
0
71
3
72
8
73
4
74
0
42
0.000000001
43
0.0000000001
44
0.0000000001
40
0.1111111111111111
40
0.1111111111111111
40
0.1111111111111111
40
0.1111111111111111
40
0.22222222222222221
40
0.22222222222222221
40
0.22222222222222221
40
0.22222222222222221
10
25.420471396033669
20
49.547057268293372
30
0
10
25.446703246033678
20
49.662963183293328
30
0
10
25.420471396033683
20
49.700950788293397
30
0
10
25.340512831033791
20
49.661020083293351
30
0
0
LINE
5
212
100
AcDbEntity
8
0
100
AcDbLine
10
25.420471396033669
20
49.547057268293372
30
0
11
23.401396186033764
21
42.009383748293331
31
0
0
ELLIPSE
5
213
100
AcDbEntity
8
0
100
AcDbEllipse
10
23.911338867491573
20
54.084721327412439
30
0
11
-0.60078099127485429
21
-12.292830871839296
31
0.0
40
0.034452208146800473
41
6.1770447801237482
42
6.4732650041577173
0
LINE
5
214
100
AcDbEntity
8
0
100
AcDbLine
10
23.269071076033782
20
41.86326262829327
30
0
11
22.279547401033724
21
44.565628953293398
31
0
0
LINE
5
215
100
AcDbEntity
8
0
100
AcDbLine
10
22.279547401033724
20
44.565628953293398
30
0
11
23.272180036033816
21
48.436089843293274
31
0
0
SPLINE
5
216
100
AcDbEntity
8
0
100
AcDbSpline
70
0
71
3
72
8
73
4
74
0
42
0.000000001
43
0.0000000001
44
0.0000000001
40
0.66666666666666663
40
0.66666666666666663
40
0.66666666666666663
40
0.66666666666666663
40
0.77777777777777779
40
0.77777777777777779
40
0.77777777777777779
40
0.77777777777777779
10
23.352138601033904
20
48.657700398293372
30
0
10
23.333776306033847
20
48.648470673293303
30
0
10
23.307544456033749
20
48.574535718293376
30
0
10
23.272180036033816
20
48.436089843293274
30
0
0
LINE
5
217
100
AcDbEntity
8
0
100
AcDbLine
10
23.352138601033904
20
48.657700398293372
30
0
11
23.352235756033647
21
48.657603243293494
31
0
0
LINE
5
218
100
AcDbEntity
8
0
100
AcDbLine
10
23.352235756033647
20
48.657603243293494
30
0
11
25.340512831033791
21
49.661020083293359
31
0
0
SPLINE
5
219
100
AcDbEntity
8
0
100
AcDbSpline
70
0
71
3
72
8
73
4
74
0
42
0.000000001
43
0.0000000001
44
0.0000000001
40
0
40
0
40
0
40
0
40
0.066666666666666666
40
0.066666666666666666
40
0.066666666666666666
40
0.066666666666666666
10
15.506775196033793
20
44.69795406329338
30
0
10
15.479086021033734
20
44.683769433293307
30
0
10
15.460626571033751
20
44.633345988293399
30
0
10
15.451396846033759
20
44.545517868293402
30
0
0
LINE
5
220
100
AcDbEntity
8
0
100
AcDbLine
10
15.506775196033793
20
44.69795406329338
30
0
11
17.612026891033807
21
45.759663903293216
31
0
0
SPLINE
5
221
100
AcDbEntity
8
0
100
AcDbSpline
70
0
71
3
72
8
73
4
74
0
42
0.000000001
43
0.0000000001
44
0.0000000001
40
0.80000000000000004
40
0.80000000000000004
40
0.80000000000000004
40
0.80000000000000004
40
0.8666666666666667
40
0.8666666666666667
40
0.8666666666666667
40
0.8666666666666667
10
17.664393436033805
20
45.641231958293261
30
0
10
17.68275573103363
20
45.747422373293446
30
0
10
17.666336536033739
20
45.787353078293179
30
0
10
17.612026891033793
20
45.759663903293287
30
0
0
LINE
5
222
100
AcDbEntity
8
0
100
AcDbLine
10
17.664393436033805
20
45.641231958293261
30
0
11
17.653414921033811
21
45.584396283293188
31
0
0
SPLINE
5
223
100
AcDbEntity
8
0
100
AcDbSpline
70
0
71
3
72
8
73
4
74
0
42
0.000000001
43
0.0000000001
44
0.0000000001
40
0.66666666666666663
40
0.66666666666666663
40
0.66666666666666663
40
0.66666666666666663
40
0.73333333333333328
40
0.73333333333333328
40
0.73333333333333328
40
0.73333333333333328
10
17.664393436033826
20
45.484326633293307
30
0
10
17.664393436033787
20
45.528920778293354
30
0
10
17.659535686033671
20
45.556609953293275
30
0
10
17.653414921033811
20
45.58439628329333
30
0
0
LINE
5
224
100
AcDbEntity
8
0
100
AcDbLine
10
17.664393436033826
20
45.484326633293307
30
0
11
17.616787486033765
21
28.869947238293374
31
0
0
ELLIPSE
5
225
100
AcDbEntity
8
0
100
AcDbEllipse
10
1.3923359155552606
20
43.36965322606504
30
0
11
16.162810736202321
21
-14.683838555018273
31
0.0
40
0.096265999659977508
41
6.2618895010627345
42
6.3678361639231023
0
LINE
5
226
100
AcDbEntity
8
0
100
AcDbLine
10
17.521381276033779
20
28.656011928293331
30
0
11
15.565359661033744
21
27.267958443293274
31
0
0
SPLINE
5
227
100
AcDbEntity
8
0
100
AcDbSpline
70
0
71
3
72
8
73
4
74
0
42
0.000000001
43
0.0000000001
44
0.0000000001
40
0.40000000000000002
40
0.40000000000000002
40
0.40000000000000002
40
0.40000000000000002
40
0.46666666666666667
40
0.46666666666666667
40
0.46666666666666667
40
0.46666666666666667
10
15.471507931033804
20
27.375800493293294
30
0
10
15.471507931033804
20
27.26028319829334
30
0
10
15.502208911033835
20
27.223364298293369
30
0
10
15.565359661033744
20
27.267958443293274
30
0
0
LINE
5
228
100
AcDbEntity
8
0
100
AcDbLine
10
15.471507931033804
20
27.375800493293294
30
0
11
15.499197106033748
21
34.936499748293116
31
0
0
LINE
5
229
100
AcDbEntity
8
0
100
AcDbLine
10
15.499197106033748
20
34.936499748293116
30
0
11
14.729729506033756
21
31.538503623293455
31
0
0
SPLINE
5
230
100
AcDbEntity
8
0
100
AcDbSpline
70
0
71
3
72
8
73
4
74
0
42
0.000000001
43
0.0000000001
44
0.0000000001
40
0.20000000000000001
40
0.20000000000000001
40
0.20000000000000001
40
0.20000000000000001
40
0.26666666666666666
40
0.26666666666666666
40
0.26666666666666666
40
0.26666666666666666
10
14.649673786033722
20
31.484582598293311
30
0
10
14.675808481033698
20
31.367705133293207
30
0
10
14.702040331033741
20
31.386067428293298
30
0
10
14.729729506033756
20
31.538503623293455
30
0
0
LINE
5
231
100
AcDbEntity
8
0
100
AcDbLine
10
14.649673786033722
20
31.484582598293311
30
0
11
13.666270876033773
21
35.385744468293311
31
0
0
LINE
5
232
100
AcDbEntity
8
0
100
AcDbLine
10
13.666270876033773
20
35.385744468293311
30
0
11
15.451396846033758
21
44.545517868293388
31
0
0
LWPOLYLINE
5
233
100
AcDbEntity
8
0
100
AcDbPolyline
90
4
70
1
43
0.0
10
-21
20
-45.0196182059031
10
21
20
-45.0196182059031
10
20.999999999999993
20
2.546040426844538
10
-21
20
2.546040426844538
0
CIRCLE
5
234
100
AcDbEntity
8
0
100
AcDbCircle
10
-20
20
8.7027693377848614
30
0
40
2.499999999999992
210
0
220
-0
230
1
0
CIRCLE
5
235
100
AcDbEntity
8
0
100
AcDbCircle
10
-20
20
-51.297230662215142
30
0
40
2.4999999999999991
210
0
220
-0
230
1
0
CIRCLE
5
236
100
AcDbEntity
8
0
100
AcDbCircle
10
20
20
-51.297230662215142
30
0
40
2.4999999999999991
210
0
220
-0
230
1
0
CIRCLE
5
237
100
AcDbEntity
8
0
100
AcDbCircle
10
20
20
8.7027693377848614
30
0
40
2.4999999999999991
210
0
220
-0
230
1
0
CIRCLE
5
238
100
AcDbEntity
8
0
100
AcDbCircle
10
-30.600000000000009
20
75.159034524511782
30
0
40
1.5000000000000013
210
0
220
-0
230
1
0
CIRCLE
5
239
100
AcDbEntity
8
0
100
AcDbCircle
10
-24.067222489272201
20
-10.537365302450095
30
0
40
1.5000000000000013
210
0
220
-0
230
1
0
CIRCLE
5
240
100
AcDbEntity
8
0
100
AcDbCircle
10
24.067222489272201
20
-10.537365302450095
30
0
40
1.5000000000000013
210
-0
220
0
230
1
0
CIRCLE
5
241
100
AcDbEntity
8
0
100
AcDbCircle
10
30.600000000000009
20
75.159034524511782
30
0
40
1.5000000000000049
210
-0
220
0
230
1
0
CIRCLE
5
242
100
AcDbEntity
8
0
100
AcDbCircle
10
-24.06722248927219
20
-76.153300031012122
30
0
40
1.5000000000000013
210
0
220
-0
230
1
0
CIRCLE
5
243
100
AcDbEntity
8
0
100
AcDbCircle
10
24.06722248927219
20
-76.153300031012122
30
0
40
1.5000000000000049
210
-0
220
0
230
1
0
LWPOLYLINE
5
244
100
AcDbEntity
8
0
100
AcDbPolyline
90
8
70
1
43
0.0
10
-31.587652461702028
20
-71.239618205903128
10
-29.612347538297996
20
-71.239618205903128
42
1.5303836105167459
10
-28.900000000000009
20
-70.527270667605137
10
-28.900000000000009
20
-63.551965744201119
42
1.5303836105167459
10
-29.612347538297989
20
-62.839618205903129
10
-31.587652461702035
20
-62.839618205903129
42
1.5303836105167323
10
-32.300000000000011
20
-63.551965744201112
10
-32.300000000000011
20
-70.527270667605137
42
1.5303836105167372
0
LWPOLYLINE
5
245
100
AcDbEntity
8
0
100
AcDbPolyline
90
8
70
1
43
0.0
10
-28.899999999999942
20
-51.877270667605195
10
-28.899999999999942
20
-44.901965744201142
42
1.5303836105167532
10
-29.612347538297922
20
-44.189618205903173
10
-31.587652461701971
20
-44.189618205903173
42
1.5303836105167472
10
-32.299999999999955
20
-44.901965744201142
10
-32.299999999999955
20
-51.877270667605195
42
1.5303836105167425
10
-31.587652461701978
20
-52.589618205903164
10
-29.612347538297925
20
-52.589618205903164
42
1.5303836105167563
0
LWPOLYLINE
5
246
100
AcDbEntity
8
0
100
AcDbPolyline
90
8
70
1
43
0.0
10
-22.199999999999992
20
-55.731965744201098
10
-22.199999999999992
20
-57.70727066760513
42
1.5303836105167394
10
-21.487652461702019
20
-58.419618205903127
10
-14.512347538297966
20
-58.419618205903127
42
1.5303836105167257
10
-13.799999999999994
20
-57.707270667605137
10
-13.79999999999999
20
-55.731965744201091
42
1.5303836105167348
10
-14.512347538297972
20
-55.019618205903107
10
-21.487652461702019
20
-55.019618205903107
42
1.5303836105167521
0
LWPOLYLINE
5
247
100
AcDbEntity
8
0
100
AcDbPolyline
90
8
70
1
43
0.0
10
-22.199999999999992
20
-70.841965744201104
10
-22.199999999999992
20
-72.817270667605143
42
1.5303836105167621
10
-21.487652461702016
20
-73.52961820590312
10
-14.512347538297977
20
-73.52961820590312
42
1.5303836105167563
10
-13.799999999999994
20
-72.817270667605143
10
-13.799999999999992
20
-70.84196574420109
42
1.5303836105167532
10
-14.512347538297977
20
-70.129618205903114
10
-21.487652461702016
20
-70.129618205903114
42
1.5303836105167672
0
LWPOLYLINE
5
248
100
AcDbEntity
8
0
100
AcDbPolyline
90
8
70
1
43
0.0
10
-4.1999999999999948
20
-70.841965744201104
10
-4.1999999999999948
20
-72.817270667605143
42
1.5303836105167592
10
-3.4876524617020155
20
-73.52961820590312
10
3.4876524617020213
20
-73.52961820590312
42
1.530383610516755
10
4.2000000000000046
20
-72.817270667605143
10
4.2000000000000064
20
-70.84196574420109
42
1.5303836105167532
10
3.4876524617020221
20
-70.129618205903114
10
-3.4876524617020142
20
-70.129618205903114
42
1.5303836105167647
0
LWPOLYLINE
5
249
100
AcDbEntity
8
0
100
AcDbPolyline
90
8
70
1
43
0.0
10
3.487652461702027
20
-55.019618205903107
10
-3.4876524617020204
20
-55.019618205903107
42
1.5303836105167488
10
-4.1999999999999948
20
-55.731965744201098
10
-4.199999999999994
20
-57.707270667605137
42
1.5303836105167321
10
-3.4876524617020213
20
-58.419618205903127
10
3.4876524617020301
20
-58.419618205903127
42
1.530383610516725
10
4.2000000000000046
20
-57.707270667605137
10
4.2000000000000082
20
-55.731965744201091
42
1.5303836105167348
0
LWPOLYLINE
5
250
100
AcDbEntity
8
0
100
AcDbPolyline
90
8
70
1
43
0.0
10
22.200000000000003
20
-57.707270667605137
10
22.200000000000003
20
-55.731965744201084
42
1.5303836105167425
10
21.48765246170203
20
-55.019618205903107
10
14.512347538297981
20
-55.019618205903107
42
1.5303836105167361
10
13.800000000000004
20
-55.731965744201084
10
13.800000000000004
20
-57.707270667605137
42
1.5303836105167272
10
14.512347538297979
20
-58.419618205903127
10
21.487652461702034
20
-58.419618205903127
42
1.5303836105167323
0
LWPOLYLINE
5
251
100
AcDbEntity
8
0
100
AcDbPolyline
90
8
70
1
43
0.0
10
13.800000000000004
20
-70.841965744201104
10
13.800000000000004
20
-72.817270667605143
42
1.5303836105167548
10
14.512347538297982
20
-73.52961820590312
10
21.487652461702027
20
-73.52961820590312
42
1.5303836105167621
10
22.200000000000003
20
-72.817270667605143
10
22.200000000000003
20
-70.84196574420109
42
1.5303836105167621
10
21.487652461702027
20
-70.129618205903114
10
14.512347538297984
20
-70.129618205903114
42
1.530383610516761
0
LWPOLYLINE
5
252
100
AcDbEntity
8
0
100
AcDbPolyline
90
8
70
1
43
0.0
10
-28.899999999999881
20
-33.227270667605247
10
-28.899999999999881
20
-26.251965744201193
42
1.5303836105167599
10
-29.612347538297854
20
-25.539618205903221
10
-31.587652461701907
20
-25.539618205903221
42
1.5303836105167599
10
-32.299999999999883
20
-26.251965744201193
10
-32.299999999999883
20
-33.227270667605247
42
1.5303836105167348
10
-31.587652461701907
20
-33.939618205903237
10
-29.61234753829785
20
-33.939618205903237
42
1.5303836105167323
0
LWPOLYLINE
5
253
100
AcDbEntity
8
0
100
AcDbPolyline
90
8
70
1
43
0.0
10
32.300000000000011
20
-70.527270667605137
10
32.300000000000011
20
-63.551965744201112
42
1.5303836105167299
10
31.587652461702042
20
-62.839618205903129
10
29.612347538297993
20
-62.839618205903129
42
1.5303836105167483
10
28.900000000000009
20
-63.551965744201119
10
28.900000000000009
20
-70.527270667605137
42
1.5303836105167459
10
29.612347538297996
20
-71.239618205903128
10
31.587652461702028
20
-71.239618205903128
42
1.5303836105167372
0
LWPOLYLINE
5
254
100
AcDbEntity
8
0
100
AcDbPolyline
90
8
70
1
43
0.0
10
-28.899999999999814
20
-14.577270667605298
10
-28.899999999999814
20
-7.6019657442012445
42
1.5303836105167532
10
-29.61234753829779
20
-6.8896182059032718
10
-31.58765246170184
20
-6.8896182059032718
42
1.5303836105167599
10
-32.299999999999812
20
-7.6019657442012445
10
-32.299999999999812
20
-14.577270667605298
42
1.5303836105167576
10
-31.587652461701843
20
-15.28961820590327
10
-29.612347538297797
20
-15.28961820590327
42
1.5303836105167563
0
LWPOLYLINE
5
255
100
AcDbEntity
8
0
100
AcDbPolyline
90
8
70
1
43
0.0
10
28.899999999999942
20
-44.901965744201142
10
28.899999999999942
20
-51.877270667605195
42
1.5303836105167532
10
29.612347538297922
20
-52.589618205903164
10
31.587652461701971
20
-52.589618205903164
42
1.5303836105167472
10
32.299999999999955
20
-51.877270667605195
10
32.299999999999955
20
-44.901965744201142
42
1.5303836105167425
10
31.587652461701978
20
-44.189618205903173
10
29.612347538297925
20
-44.189618205903173
42
1.5303836105167563
0
LWPOLYLINE
5
256
100
AcDbEntity
8
0
100
AcDbPolyline
90
8
70
1
43
0.0
10
29.612347538297854
20
-33.939618205903237
10
31.587652461701907
20
-33.939618205903237
42
1.5303836105167348
10
32.299999999999883
20
-33.227270667605247
10
32.299999999999883
20
-26.251965744201193
42
1.5303836105167599
10
31.587652461701907
20
-25.539618205903221
10
29.612347538297858
20
-25.539618205903221
42
1.5303836105167621
10
28.899999999999881
20
-26.251965744201193
10
28.899999999999881
20
-33.227270667605239
42
1.5303836105167372
0
LWPOLYLINE
5
257
100
AcDbEntity
8
0
100
AcDbPolyline
90
8
70
1
43
0.0
10
-29.61234753829773
20
11.760381794096677
42
-1.5303836105167532
10
-28.899999999999753
20
11.048034255798704
10
-28.899999999999753
20
4.0727293323946876
42
-1.5303836105167257
10
-29.612347538297726
20
3.3603817940966962
10
-31.587652461701779
20
3.3603817940966958
42
-1.530383610516715
10
-32.299999999999748
20
4.0727293323946823
10
-32.299999999999741
20
11.048034255798706
42
-1.530383610516757
10
-31.587652461701769
20
11.760381794096677
0
LWPOLYLINE
5
258
100
AcDbEntity
8
0
100
AcDbPolyline
90
8
70
1
43
0.0
10
-14.512347538297959
20
15.946040426844572
10
-21.487652461702016
20
15.946040426844572
42
1.5303836105167221
10
-22.199999999999996
20
15.233692888546582
10
-22.199999999999985
20
13.258387965142532
42
1.5303836105167936
10
-21.487652461702016
20
12.546040426844574
10
-14.512347538297966
20
12.546040426844574
42
1.5303836105167785
10
-13.79999999999999
20
13.258387965142528
10
-13.799999999999981
20
15.233692888546592
42
1.530383610516705
0
LWPOLYLINE
5
259
100
AcDbEntity
8
0
100
AcDbPolyline
90
8
70
1
43
0.0
10
-4.1999999999999984
20
15.233692888546617
10
-4.1999999999999984
20
13.258387965142528
42
1.5303836105167725
10
-3.4876524617020319
20
12.546040426844574
10
3.4876524617020301
20
12.546040426844574
42
1.5303836105167821
10
4.2000000000000073
20
13.258387965142528
10
4.2000000000000188
20
15.233692888546596
42
1.5303836105166964
10
3.4876524617020395
20
15.946040426844572
10
-3.4876524617020315
20
15.946040426844572
42
1.5303836105166952
0
LWPOLYLINE
5
260
100
AcDbEntity
8
0
100
AcDbPolyline
90
8
70
1
43
0.0
10
22.200000000000006
20
13.258387965142564
10
22.200000000000003
20
15.233692888546582
42
1.5303836105167348
10
21.48765246170203
20
15.946040426844572
10
14.512347538297965
20
15.946040426844572
42
1.5303836105166984
10
13.799999999999999
20
15.233692888546617
10
13.800000000000008
20
13.25838796514253
42
1.5303836105168045
10
14.512347538297959
20
12.546040426844574
10
21.487652461702027
20
12.546040426844574
42
1.5303836105168096
0
LWPOLYLINE
5
261
100
AcDbEntity
8
0
100
AcDbPolyline
90
8
70
1
43
0.0
10
29.61234753829779
20
-15.28961820590327
10
31.587652461701843
20
-15.28961820590327
42
1.5303836105167576
10
32.299999999999812
20
-14.577270667605298
10
32.299999999999812
20
-7.6019657442012436
42
1.5303836105167565
10
31.587652461701843
20
-6.8896182059032718
10
29.612347538297797
20
-6.8896182059032718
42
1.5303836105167563
10
28.899999999999814
20
-7.6019657442012445
10
28.899999999999814
20
-14.577270667605298
42
1.5303836105167532
0
LWPOLYLINE
5
262
100
AcDbEntity
8
0
100
AcDbPolyline
90
8
70
1
43
0.0
10
28.899999999999753
20
11.048034255798687
10
28.899999999999753
20
4.0727293323946867
42
1.5303836105167257
10
29.612347538297726
20
3.3603817940966962
10
31.587652461701779
20
3.3603817940966958
42
1.5303836105167166
10
32.299999999999748
20
4.0727293323946867
10
32.299999999999741
20
11.048034255798704
42
1.530383610516755
10
31.587652461701779
20
11.760381794096677
10
29.612347538297733
20
11.760381794096675
42
1.5303836105167687
0
LWPOLYLINE
5
263
100
AcDbEntity
8
0
100
AcDbPolyline
90
8
70
1
43
0.0
10
10.20000000000001
20
64.308387965142501
10
10.20000000000001
20
66.283692888546582
42
1.5303836105166964
10
9.4876524617020497
20
66.996040426844573
10
-9.4876524617020408
20
66.996040426844573
42
1.5303836105166748
10
-10.199999999999999
20
66.283692888546582
10
-10.200000000000006
20
64.308387965142501
42
1.5303836105167257
10
-9.4876524617020301
20
63.596040426844539
10
9.4876524617020461
20
63.596040426844539
42
1.5303836105167488
0
LWPOLYLINE
5
264
100
AcDbEntity
8
0
100
AcDbPolyline
90
8
70
1
43
0.0
10
28.899999999999558
20
67.160381794096523
10
28.899999999999558
20
59.860381794096554
42
2.4142135623730949
10
29.449999999999555
20
59.310381794096529
10
31.749999999999549
20
59.310381794096529
42
2.4142135623730949
10
32.29999999999955
20
59.860381794096554
10
32.29999999999955
20
67.160381794096551
42
2.4142135623730949
10
31.749999999999549
20
67.710381794096563
10
29.449999999999555
20
67.710381794096563
42
2.4142135623730949
0
LWPOLYLINE
5
265
100
AcDbEntity
8
0
100
AcDbPolyline
90
8
70
1
43
0.0
10
-32.29999999999955
20
67.160381794096523
10
-32.29999999999955
20
59.860381794096554
42
2.4142135623730949
10
-31.749999999999549
20
59.310381794096529
10
-29.449999999999555
20
59.310381794096529
42
2.4142135623730949
10
-28.899999999999558
20
59.860381794096554
10
-28.899999999999558
20
67.160381794096565
42
2.4142135623730949
10
-29.449999999999555
20
67.710381794096563
10
-31.749999999999549
20
67.710381794096563
42
2.4142135623730949
0
LWPOLYLINE
5
266
100
AcDbEntity
8
0
100
AcDbPolyline
90
8
70
1
43
0.0
10
29.649999999999615
20
40.170381794096656
10
31.549999999999628
20
40.170381794096656
42
1.8941901927030338
10
32.299999999999621
20
40.682729332394686
10
32.299999999999621
20
48.348034255798595
42
1.5303836105167168
10
31.587652461701644
20
49.060381794096614
10
29.612347538297584
20
49.060381794096614
42
1.5303836105166946
10
28.899999999999618
20
48.348034255798623
10
28.899999999999647
20
40.682729332394636
42
1.8941901927030338
0
LWPOLYLINE
5
267
100
AcDbEntity
8
0
100
AcDbPolyline
90
8
70
1
43
0.0
10
-31.549999999999628
20
40.170381794096656
10
-29.649999999999615
20
40.170381794096656
42
1.8941901927030154
10
-28.899999999999618
20
40.682729332394686
10
-28.899999999999618
20
48.348034255798602
42
1.5303836105167095
10
-29.612347538297591
20
49.060381794096614
10
-31.587652461701659
20
49.060381794096614
42
1.5303836105166946
10
-32.299999999999621
20
48.348034255798623
10
-32.299999999999606
20
40.682729332394644
42
1.8941901927030318
0
LWPOLYLINE
5
268
100
AcDbEntity
8
0
100
AcDbPolyline
90
8
70
1
43
0.0
10
31.587652461701708
20
30.410381794096644
42
-1.5303836105167472
10
32.299999999999685
20
29.698034255798667
10
32.299999999999677
20
22.722729332394636
42
-1.5303836105167636
10
31.587652461701708
20
22.010381794096663
10
29.612347538297659
20
22.010381794096663
42
-1.5303836105167683
10
28.899999999999689
20
22.722729332394639
10
28.899999999999682
20
29.698034255798667
42
-1.5303836105167472
10
29.612347538297669
20
30.410381794096644
0
LWPOLYLINE
5
269
100
AcDbEntity
8
0
100
AcDbPolyline
90
8
70
1
43
0.0
10
-32.299999999999692
20
29.698034255798667
42
-1.5303836105167472
10
-31.587652461701712
20
30.410381794096644
10
-29.612347538297655
20
30.41038179409664
42
-1.5303836105167532
10
-28.899999999999686
20
29.698034255798671
10
-28.899999999999689
20
22.722729332394643
42
-1.5303836105167721
10
-29.612347538297662
20
22.010381794096663
10
-31.587652461701712
20
22.010381794096659
42
-1.5303836105167636
10
-32.299999999999677
20
22.722729332394636
0
ENDSEC
0
SECTION
2
OBJECTS
0
DICTIONARY
5
C
100
AcDbDictionary
3
ACAD_GROUP
350
D
3
ACAD_MLINESTYLE
350
17
0
DICTIONARY
5
D
100
AcDbDictionary
0
DICTIONARY
5
1A
330
C
100
AcDbDictionary
0
DICTIONARY
5
17
100
AcDbDictionary
0
ENDSEC
0
EOF
