  0
SECTION
  2
HEADER
  9
$ACADVER
  1
AC1027
  9
$ACADMAINTVER
 70
105
  9
$DWGCODEPAGE
  3
ANSI_1252
  9
$LASTSAVEDBY
  1
ezdxf
  9
$REQUIREDVERSIONS
160
0
  9
$INSBASE
 10
0.0
 20
0.0
 30
0.0
  9
$EXTMIN
 10
1e+20
 20
1e+20
 30
1e+20
  9
$EXTMAX
 10
-1e+20
 20
-1e+20
 30
-1e+20
  9
$LIMMIN
 10
0.0
 20
0.0
  9
$LIMMAX
 10
420.0
 20
297.0
  9
$ORTHOMODE
 70
0
  9
$REGENMODE
 70
1
  9
$FILLMODE
 70
1
  9
$QTEXTMODE
 70
0
  9
$MIRRTEXT
 70
1
  9
$LTSCALE
 40
1.0
  9
$ATTMODE
 70
1
  9
$TEXTSIZE
 40
2.5
  9
$TRACEWID
 40
1.0
  9
$TEXTSTYLE
  7
Standard
  9
$CLAYER
  8
0
  9
$CELTYPE
  6
ByLayer
  9
$CECOLOR
 62
256
  9
$CELTSCALE
 40
1.0
  9
$DISPSILH
 70
0
  9
$DIMSCALE
 40
1.0
  9
$DIMASZ
 40
2.5
  9
$DIMEXO
 40
0.625
  9
$DIMDLI
 40
3.75
  9
$DIMRND
 40
0.0
  9
$DIMDLE
 40
0.0
  9
$DIMEXE
 40
1.25
  9
$DIMTP
 40
0.0
  9
$DIMTM
 40
0.0
  9
$DIMTXT
 40
2.5
  9
$DIMCEN
 40
2.5
  9
$DIMTSZ
 40
0.0
  9
$DIMTOL
 70
0
  9
$DIMLIM
 70
0
  9
$DIMTIH
 70
0
  9
$DIMTOH
 70
0
  9
$DIMSE1
 70
0
  9
$DIMSE2
 70
0
  9
$DIMTAD
 70
1
  9
$DIMZIN
 70
8
  9
$DIMBLK
  1

  9
$DIMASO
 70
1
  9
$DIMSHO
 70
1
  9
$DIMPOST
  1

  9
$DIMAPOST
  1

  9
$DIMALT
 70
0
  9
$DIMALTD
 70
3
  9
$DIMALTF
 40
0.03937007874
  9
$DIMLFAC
 40
1.0
  9
$DIMTOFL
 70
1
  9
$DIMTVP
 40
0.0
  9
$DIMTIX
 70
0
  9
$DIMSOXD
 70
0
  9
$DIMSAH
 70
0
  9
$DIMBLK1
  1

  9
$DIMBLK2
  1

  9
$DIMSTYLE
  2
ISO-25
  9
$DIMCLRD
 70
0
  9
$DIMCLRE
 70
0
  9
$DIMCLRT
 70
0
  9
$DIMTFAC
 40
1.0
  9
$DIMGAP
 40
0.625
  9
$DIMJUST
 70
0
  9
$DIMSD1
 70
0
  9
$DIMSD2
 70
0
  9
$DIMTOLJ
 70
0
  9
$DIMTZIN
 70
8
  9
$DIMALTZ
 70
0
  9
$DIMALTTZ
 70
0
  9
$DIMUPT
 70
0
  9
$DIMDEC
 70
2
  9
$DIMTDEC
 70
2
  9
$DIMALTU
 70
2
  9
$DIMALTTD
 70
3
  9
$DIMTXSTY
  7
Standard
  9
$DIMAUNIT
 70
0
  9
$DIMADEC
 70
0
  9
$DIMALTRND
 40
0.0
  9
$DIMAZIN
 70
0
  9
$DIMDSEP
 70
44
  9
$DIMATFIT
 70
3
  9
$DIMFRAC
 70
0
  9
$DIMLDRBLK
  1

  9
$DIMLUNIT
 70
2
  9
$DIMLWD
 70
-2
  9
$DIMLWE
 70
-2
  9
$DIMTMOVE
 70
0
  9
$DIMFXL
 40
1.0
  9
$DIMFXLON
 70
0
  9
$DIMJOGANG
 40
0.785398163397
  9
$DIMTFILL
 70
0
  9
$DIMTFILLCLR
 70
0
  9
$DIMARCSYM
 70
0
  9
$DIMLTYPE
  6

  9
$DIMLTEX1
  6

  9
$DIMLTEX2
  6

  9
$DIMTXTDIRECTION
 70
0
  9
$LUNITS
 70
2
  9
$LUPREC
 70
4
  9
$SKETCHINC
 40
1.0
  9
$FILLETRAD
 40
10.0
  9
$AUNITS
 70
0
  9
$AUPREC
 70
2
  9
$MENU
  1
.
  9
$ELEVATION
 40
0.0
  9
$PELEVATION
 40
0.0
  9
$THICKNESS
 40
0.0
  9
$LIMCHECK
 70
0
  9
$CHAMFERA
 40
0.0
  9
$CHAMFERB
 40
0.0
  9
$CHAMFERC
 40
0.0
  9
$CHAMFERD
 40
0.0
  9
$SKPOLY
 70
0
  9
$TDCREATE
 40
2460300.6357175927
  9
$TDUCREATE
 40
2458532.153996898
  9
$TDUPDATE
 40
2460300.6357175927
  9
$TDUUPDATE
 40
2458532.1544311
  9
$TDINDWG
 40
0.0
  9
$TDUSRTIMER
 40
0.0
  9
$USRTIMER
 70
1
  9
$ANGBASE
 50
0.0
  9
$ANGDIR
 70
0
  9
$PDMODE
 70
0
  9
$PDSIZE
 40
0.0
  9
$PLINEWID
 40
0.0
  9
$SPLFRAME
 70
0
  9
$SPLINETYPE
 70
6
  9
$SPLINESEGS
 70
8
  9
$HANDSEED
  5
23B
  9
$SURFTAB1
 70
6
  9
$SURFTAB2
 70
6
  9
$SURFTYPE
 70
6
  9
$SURFU
 70
6
  9
$SURFV
 70
6
  9
$UCSBASE
  2

  9
$UCSNAME
  2

  9
$UCSORG
 10
0.0
 20
0.0
 30
0.0
  9
$UCSXDIR
 10
1.0
 20
0.0
 30
0.0
  9
$UCSYDIR
 10
0.0
 20
1.0
 30
0.0
  9
$UCSORTHOREF
  2

  9
$UCSORTHOVIEW
 70
0
  9
$UCSORGTOP
 10
0.0
 20
0.0
 30
0.0
  9
$UCSORGBOTTOM
 10
0.0
 20
0.0
 30
0.0
  9
$UCSORGLEFT
 10
0.0
 20
0.0
 30
0.0
  9
$UCSORGRIGHT
 10
0.0
 20
0.0
 30
0.0
  9
$UCSORGFRONT
 10
0.0
 20
0.0
 30
0.0
  9
$UCSORGBACK
 10
0.0
 20
0.0
 30
0.0
  9
$PUCSBASE
  2

  9
$PUCSNAME
  2

  9
$PUCSORG
 10
0.0
 20
0.0
 30
0.0
  9
$PUCSXDIR
 10
1.0
 20
0.0
 30
0.0
  9
$PUCSYDIR
 10
0.0
 20
1.0
 30
0.0
  9
$PUCSORTHOREF
  2

  9
$PUCSORTHOVIEW
 70
0
  9
$PUCSORGTOP
 10
0.0
 20
0.0
 30
0.0
  9
$PUCSORGBOTTOM
 10
0.0
 20
0.0
 30
0.0
  9
$PUCSORGLEFT
 10
0.0
 20
0.0
 30
0.0
  9
$PUCSORGRIGHT
 10
0.0
 20
0.0
 30
0.0
  9
$PUCSORGFRONT
 10
0.0
 20
0.0
 30
0.0
  9
$PUCSORGBACK
 10
0.0
 20
0.0
 30
0.0
  9
$USERI1
 70
0
  9
$USERI2
 70
0
  9
$USERI3
 70
0
  9
$USERI4
 70
0
  9
$USERI5
 70
0
  9
$USERR1
 40
0.0
  9
$USERR2
 40
0.0
  9
$USERR3
 40
0.0
  9
$USERR4
 40
0.0
  9
$USERR5
 40
0.0
  9
$WORLDVIEW
 70
1
  9
$SHADEDGE
 70
3
  9
$SHADEDIF
 70
70
  9
$TILEMODE
 70
1
  9
$MAXACTVP
 70
64
  9
$PINSBASE
 10
0.0
 20
0.0
 30
0.0
  9
$PLIMCHECK
 70
0
  9
$PEXTMIN
 10
1e+20
 20
1e+20
 30
1e+20
  9
$PEXTMAX
 10
-1e+20
 20
-1e+20
 30
-1e+20
  9
$PLIMMIN
 10
0.0
 20
0.0
  9
$PLIMMAX
 10
420.0
 20
297.0
  9
$UNITMODE
 70
0
  9
$VISRETAIN
 70
1
  9
$PLINEGEN
 70
0
  9
$PSLTSCALE
 70
1
  9
$TREEDEPTH
 70
3020
  9
$CMLSTYLE
  2
Standard
  9
$CMLJUST
 70
0
  9
$CMLSCALE
 40
20.0
  9
$PROXYGRAPHICS
 70
1
  9
$MEASUREMENT
 70
1
  9
$CELWEIGHT
370
-1
  9
$ENDCAPS
280
0
  9
$JOINSTYLE
280
0
  9
$LWDISPLAY
290
0
  9
$INSUNITS
 70
4
  9
$HYPERLINKBASE
  1

  9
$STYLESHEET
  1

  9
$XEDIT
290
1
  9
$CEPSNTYPE
380
0
  9
$PSTYLEMODE
290
1
  9
$FINGERPRINTGUID
  2
{7D2345D4-F9EF-4951-A602-42F46614FC59}
  9
$VERSIONGUID
  2
{F47D1CE9-CE1F-4AE3-A95C-9321F8762213}
  9
$EXTNAMES
290
1
  9
$PSVPSCALE
 40
0.0
  9
$OLESTARTUP
290
0
  9
$SORTENTS
280
127
  9
$INDEXCTL
280
0
  9
$HIDETEXT
280
1
  9
$XCLIPFRAME
280
0
  9
$HALOGAP
280
0
  9
$OBSCOLOR
 70
257
  9
$OBSLTYPE
280
0
  9
$INTERSECTIONDISPLAY
280
0
  9
$INTERSECTIONCOLOR
 70
257
  9
$DIMASSOC
280
2
  9
$PROJECTNAME
  1

  9
$CAMERADISPLAY
290
0
  9
$LENSLENGTH
 40
50.0
  9
$CAMERAHEIGHT
 40
0.0
  9
$STEPSPERSEC
 40
24.0
  9
$STEPSIZE
 40
100.0
  9
$3DDWFPREC
 40
2.0
  9
$PSOLWIDTH
 40
0.005
  9
$PSOLHEIGHT
 40
0.08
  9
$LOFTANG1
 40
1.570796326795
  9
$LOFTANG2
 40
1.570796326795
  9
$LOFTMAG1
 40
0.0
  9
$LOFTMAG2
 40
0.0
  9
$LOFTPARAM
 70
7
  9
$LOFTNORMALS
280
1
  9
$LATITUDE
 40
37.795
  9
$LONGITUDE
 40
-122.394
  9
$NORTHDIRECTION
 40
0.0
  9
$TIMEZONE
 70
-8000
  9
$LIGHTGLYPHDISPLAY
280
1
  9
$TILEMODELIGHTSYNCH
280
1
  9
$CMATERIAL
347
20
  9
$SOLIDHIST
280
0
  9
$SHOWHIST
280
1
  9
$DWFFRAME
280
2
  9
$DGNFRAME
280
2
  9
$REALWORLDSCALE
290
1
  9
$INTERFERECOLOR
 62
256
  9
$CSHADOW
280
0
  9
$SHADOWPLANELOCATION
 40
0.0
  0
ENDSEC
  0
SECTION
  2
CLASSES
  0
CLASS
  1
ACDBDICTIONARYWDFLT
  2
AcDbDictionaryWithDefault
  3
ObjectDBX Classes
 90
0
 91
0
280
0
281
0
  0
CLASS
  1
SUN
  2
AcDbSun
  3
SCENEOE
 90
1153
 91
0
280
0
281
0
  0
CLASS
  1
VISUALSTYLE
  2
AcDbVisualStyle
  3
ObjectDBX Classes
 90
4095
 91
0
280
0
281
0
  0
CLASS
  1
MATERIAL
  2
AcDbMaterial
  3
ObjectDBX Classes
 90
1153
 91
0
280
0
281
0
  0
CLASS
  1
SCALE
  2
AcDbScale
  3
ObjectDBX Classes
 90
1153
 91
0
280
0
281
0
  0
CLASS
  1
TABLESTYLE
  2
AcDbTableStyle
  3
ObjectDBX Classes
 90
4095
 91
0
280
0
281
0
  0
CLASS
  1
MLEADERSTYLE
  2
AcDbMLeaderStyle
  3
ACDB_MLEADERSTYLE_CLASS
 90
4095
 91
0
280
0
281
0
  0
CLASS
  1
DICTIONARYVAR
  2
AcDbDictionaryVar
  3
ObjectDBX Classes
 90
0
 91
0
280
0
281
0
  0
CLASS
  1
CELLSTYLEMAP
  2
AcDbCellStyleMap
  3
ObjectDBX Classes
 90
1152
 91
0
280
0
281
0
  0
CLASS
  1
MENTALRAYRENDERSETTINGS
  2
AcDbMentalRayRenderSettings
  3
SCENEOE
 90
1024
 91
0
280
0
281
0
  0
CLASS
  1
ACDBDETAILVIEWSTYLE
  2
AcDbDetailViewStyle
  3
ObjectDBX Classes
 90
1025
 91
0
280
0
281
0
  0
CLASS
  1
ACDBSECTIONVIEWSTYLE
  2
AcDbSectionViewStyle
  3
ObjectDBX Classes
 90
1025
 91
0
280
0
281
0
  0
CLASS
  1
RASTERVARIABLES
  2
AcDbRasterVariables
  3
ISM
 90
0
 91
0
280
0
281
0
  0
CLASS
  1
ACDBPLACEHOLDER
  2
AcDbPlaceHolder
  3
ObjectDBX Classes
 90
0
 91
0
280
0
281
0
  0
CLASS
  1
LAYOUT
  2
AcDbLayout
  3
ObjectDBX Classes
 90
0
 91
0
280
0
281
0
  0
ENDSEC
  0
SECTION
  2
TABLES
  0
TABLE
  2
VPORT
  5
8
330
0
100
AcDbSymbolTable
 70
1
  0
VPORT
  5
23
330
8
100
AcDbSymbolTableRecord
100
AcDbViewportTableRecord
  2
*Active
 70
0
 10
0.0
 20
0.0
 11
1.0
 21
1.0
 12
0.0
 22
0.0
 13
0.0
 23
0.0
 14
0.5
 24
0.5
 15
0.5
 25
0.5
 16
0.0
 26
0.0
 36
1.0
 17
0.0
 27
0.0
 37
0.0
 40
1000.0
 41
1.34
 42
50.0
 43
0.0
 44
0.0
 50
0.0
 51
0.0
 71
0
 72
1000
 73
1
 74
3
 75
0
 76
0
 77
0
 78
0
281
0
 65
0
146
0.0
  0
ENDTAB
  0
TABLE
  2
LTYPE
  5
2
330
0
100
AcDbSymbolTable
 70
3
  0
LTYPE
  5
24
330
2
100
AcDbSymbolTableRecord
100
AcDbLinetypeTableRecord
  2
ByBlock
 70
0
  3

 72
65
 73
0
 40
0.0
  0
LTYPE
  5
25
330
2
100
AcDbSymbolTableRecord
100
AcDbLinetypeTableRecord
  2
ByLayer
 70
0
  3

 72
65
 73
0
 40
0.0
  0
LTYPE
  5
26
330
2
100
AcDbSymbolTableRecord
100
AcDbLinetypeTableRecord
  2
Continuous
 70
0
  3

 72
65
 73
0
 40
0.0
  0
ENDTAB
  0
TABLE
  2
LAYER
  5
1
330
0
100
AcDbSymbolTable
 70
2
  0
LAYER
  5
27
330
1
100
AcDbSymbolTableRecord
100
AcDbLayerTableRecord
  2
0
 70
0
 62
7
  6
Continuous
370
-3
390
13
347
21
  0
LAYER
  5
28
330
1
100
AcDbSymbolTableRecord
100
AcDbLayerTableRecord
  2
Defpoints
 70
0
 62
7
  6
Continuous
290
0
370
-3
390
13
347
21
  0
ENDTAB
  0
TABLE
  2
STYLE
  5
5
330
0
100
AcDbSymbolTable
 70
1
  0
STYLE
  5
29
330
5
100
AcDbSymbolTableRecord
100
AcDbTextStyleTableRecord
  2
Standard
 70
0
 40
0.0
 41
1.0
 50
0.0
 71
0
 42
2.5
  3
txt
  4

  0
ENDTAB
  0
TABLE
  2
VIEW
  5
7
330
0
100
AcDbSymbolTable
 70
0
  0
ENDTAB
  0
TABLE
  2
UCS
  5
6
330
0
100
AcDbSymbolTable
 70
0
  0
ENDTAB
  0
TABLE
  2
APPID
  5
3
330
0
100
AcDbSymbolTable
 70
3
  0
APPID
  5
2A
330
3
100
AcDbSymbolTableRecord
100
AcDbRegAppTableRecord
  2
ACAD
 70
0
  0
APPID
  5
238
330
3
100
AcDbSymbolTableRecord
100
AcDbRegAppTableRecord
  2
HATCHBACKGROUNDCOLOR
 70
0
  0
APPID
  5
239
330
3
100
AcDbSymbolTableRecord
100
AcDbRegAppTableRecord
  2
EZDXF
 70
0
  0
ENDTAB
  0
TABLE
  2
DIMSTYLE
  5
4
330
0
100
AcDbSymbolTable
 70
1
100
AcDbDimStyleTable
  0
DIMSTYLE
105
2B
330
4
100
AcDbSymbolTableRecord
100
AcDbDimStyleTableRecord
  2
Standard
 70
0
 40
1.0
 41
2.5
 42
0.625
 43
3.75
 44
1.25
 45
0.0
 46
0.0
 47
0.0
 48
0.0
 49
2.5
140
2.5
141
2.5
142
0.0
143
0.03937007874
144
1.0
145
0.0
146
1.0
147
0.625
148
0.0
 69
0
 70
0
 71
0
 72
0
 73
0
 74
0
 75
0
 76
0
 77
1
 78
8
 79
3
170
0
171
3
172
1
173
0
174
0
175
0
176
0
177
0
178
0
179
2
271
2
272
2
273
2
274
3
275
0
276
0
277
2
278
44
279
0
280
0
281
0
282
0
283
0
284
8
285
0
286
0
288
0
289
3
290
0
371
-2
372
-2
  0
ENDTAB
  0
TABLE
  2
BLOCK_RECORD
  5
9
330
0
100
AcDbSymbolTable
 70
2
  0
BLOCK_RECORD
  5
17
330
9
100
AcDbSymbolTableRecord
100
AcDbBlockTableRecord
  2
*Model_Space
340
1A
 70
0
280
1
281
0
  0
BLOCK_RECORD
  5
1B
330
9
100
AcDbSymbolTableRecord
100
AcDbBlockTableRecord
  2
*Paper_Space
340
1E
 70
0
280
1
281
0
  0
ENDTAB
  0
ENDSEC
  0
SECTION
  2
BLOCKS
  0
BLOCK
  5
18
330
17
100
AcDbEntity
  8
0
100
AcDbBlockBegin
  2
*Model_Space
 70
0
 10
0.0
 20
0.0
 30
0.0
  3
*Model_Space
  1

  0
ENDBLK
  5
19
330
17
100
AcDbEntity
  8
0
100
AcDbBlockEnd
  0
BLOCK
  5
1C
330
1B
100
AcDbEntity
  8
0
100
AcDbBlockBegin
  2
*Paper_Space
 70
0
 10
0.0
 20
0.0
 30
0.0
  3
*Paper_Space
  1

  0
ENDBLK
  5
1D
330
1B
100
AcDbEntity
  8
0
100
AcDbBlockEnd
  0
ENDSEC
  0
SECTION
  2
ENTITIES
  0
LINE
  5
2F
330
17
100
AcDbEntity
  8
0
100
AcDbLine
 10
-35.0
 20
-4.0
 30
0.0
 11
-35.0
 21
152.0
 31
0.0
  0
ARC
  5
30
330
17
100
AcDbEntity
  8
0
100
AcDbCircle
 10
-31.0
 20
-4.0
 30
0.0
 40
4.0
100
AcDbArc
 50
-180.0
 51
-90.0
  0
ARC
  5
31
330
17
100
AcDbEntity
  8
0
100
AcDbCircle
 10
-31.0
 20
152.0
 30
0.0
 40
4.0
100
AcDbArc
 50
90.0
 51
180.0
  0
LINE
  5
32
330
17
100
AcDbEntity
  8
0
100
AcDbLine
 10
31.0
 20
-8.0
 30
0.0
 11
-31.0
 21
-8.0
 31
0.0
  0
LINE
  5
33
330
17
100
AcDbEntity
  8
0
100
AcDbLine
 10
-31.0
 20
156.0
 30
0.0
 11
31.0
 21
156.0
 31
0.0
  0
ARC
  5
34
330
17
100
AcDbEntity
  8
0
100
AcDbCircle
 10
31.0
 20
-4.0
 30
0.0
 40
4.0
100
AcDbArc
 50
-90.0
 51
0.0
  0
ARC
  5
35
330
17
100
AcDbEntity
  8
0
100
AcDbCircle
 10
31.0
 20
152.0
 30
0.0
 40
4.0
100
AcDbArc
 50
0.0
 51
90.0
  0
LINE
  5
36
330
17
100
AcDbEntity
  8
0
100
AcDbLine
 10
35.0
 20
152.0
 30
0.0
 11
35.0
 21
-4.0
 31
0.0
  0
LINE
  5
37
330
17
100
AcDbEntity
  8
0
100
AcDbLine
 10
29.0
 20
-1.45
 30
0.0
 11
29.0
 21
6.449999999999999
 31
0.0
  0
ARC
  5
38
330
17
100
AcDbEntity
  8
0
100
AcDbCircle
 10
29.0
 20
-2.0
 30
0.0
 40
0.55
100
AcDbArc
 50
90.0
 51
360.0
  0
ARC
  5
39
330
17
100
AcDbEntity
  8
0
100
AcDbCircle
 10
29.0
 20
7.0
 30
0.0
 40
0.55
100
AcDbArc
 50
0.0
 51
270.0
  0
LINE
  5
3A
330
17
100
AcDbEntity
  8
0
100
AcDbLine
 10
31.45
 20
-2.0
 30
0.0
 11
29.55
 21
-2.0
 31
0.0
  0
LINE
  5
3B
330
17
100
AcDbEntity
  8
0
100
AcDbLine
 10
29.55
 20
7.0
 30
0.0
 11
31.45
 21
7.0
 31
0.0
  0
ARC
  5
3C
330
17
100
AcDbEntity
  8
0
100
AcDbCircle
 10
32.0
 20
-2.0
 30
0.0
 40
0.55
100
AcDbArc
 50
180.0
 51
360.0
  0
ARC
  5
3D
330
17
100
AcDbEntity
  8
0
100
AcDbCircle
 10
32.0
 20
7.0
 30
0.0
 40
0.55
100
AcDbArc
 50
0.0
 51
180.0
  0
ARC
  5
3E
330
17
100
AcDbEntity
  8
0
100
AcDbCircle
 10
32.0
 20
-2.0
 30
0.0
 40
0.55
100
AcDbArc
 50
0.0
 51
90.0
  0
ARC
  5
3F
330
17
100
AcDbEntity
  8
0
100
AcDbCircle
 10
32.0
 20
7.0
 30
0.0
 40
0.55
100
AcDbArc
 50
270.0
 51
360.0
  0
LINE
  5
40
330
17
100
AcDbEntity
  8
0
100
AcDbLine
 10
32.0
 20
6.45
 30
0.0
 11
32.0
 21
-1.4499999999999993
 31
0.0
  0
CIRCLE
  5
41
330
17
100
AcDbEntity
  8
0
100
AcDbCircle
 10
26.0
 20
14.0
 30
0.0
 40
2.6
  0
LINE
  5
42
330
17
100
AcDbEntity
  8
0
100
AcDbLine
 10
14.0
 20
0.55
 30
0.0
 11
14.0
 21
2.45
 31
0.0
  0
ARC
  5
43
330
17
100
AcDbEntity
  8
0
100
AcDbCircle
 10
14.0
 20
0.0
 30
0.0
 40
0.55
100
AcDbArc
 50
90.0
 51
360.0
  0
ARC
  5
44
330
17
100
AcDbEntity
  8
0
100
AcDbCircle
 10
14.0
 20
3.0
 30
0.0
 40
0.55
100
AcDbArc
 50
0.0
 51
270.0
  0
LINE
  5
45
330
17
100
AcDbEntity
  8
0
100
AcDbLine
 10
21.45
 20
0.0
 30
0.0
 11
14.55
 21
0.0
 31
0.0
  0
LINE
  5
46
330
17
100
AcDbEntity
  8
0
100
AcDbLine
 10
14.55
 20
3.0
 30
0.0
 11
21.45
 21
3.0
 31
0.0
  0
ARC
  5
47
330
17
100
AcDbEntity
  8
0
100
AcDbCircle
 10
22.0
 20
0.0
 30
0.0
 40
0.55
100
AcDbArc
 50
180.0
 51
360.0
  0
ARC
  5
48
330
17
100
AcDbEntity
  8
0
100
AcDbCircle
 10
22.0
 20
3.0
 30
0.0
 40
0.55
100
AcDbArc
 50
0.0
 51
180.0
  0
ARC
  5
49
330
17
100
AcDbEntity
  8
0
100
AcDbCircle
 10
22.0
 20
0.0
 30
0.0
 40
0.55
100
AcDbArc
 50
0.0
 51
90.0
  0
ARC
  5
4A
330
17
100
AcDbEntity
  8
0
100
AcDbCircle
 10
22.0
 20
3.0
 30
0.0
 40
0.55
100
AcDbArc
 50
270.0
 51
360.0
  0
LINE
  5
4B
330
17
100
AcDbEntity
  8
0
100
AcDbLine
 10
22.0
 20
2.45
 30
0.0
 11
22.0
 21
0.5499999999999998
 31
0.0
  0
LINE
  5
4C
330
17
100
AcDbEntity
  8
0
100
AcDbLine
 10
29.0
 20
21.55
 30
0.0
 11
29.0
 21
29.45
 31
0.0
  0
ARC
  5
4D
330
17
100
AcDbEntity
  8
0
100
AcDbCircle
 10
29.0
 20
21.0
 30
0.0
 40
0.55
100
AcDbArc
 50
90.0
 51
360.0
  0
ARC
  5
4E
330
17
100
AcDbEntity
  8
0
100
AcDbCircle
 10
29.0
 20
30.0
 30
0.0
 40
0.55
100
AcDbArc
 50
0.0
 51
270.0
  0
LINE
  5
4F
330
17
100
AcDbEntity
  8
0
100
AcDbLine
 10
31.45
 20
21.0
 30
0.0
 11
29.55
 21
21.0
 31
0.0
  0
LINE
  5
50
330
17
100
AcDbEntity
  8
0
100
AcDbLine
 10
29.55
 20
30.0
 30
0.0
 11
31.45
 21
30.0
 31
0.0
  0
ARC
  5
51
330
17
100
AcDbEntity
  8
0
100
AcDbCircle
 10
32.0
 20
21.0
 30
0.0
 40
0.55
100
AcDbArc
 50
180.0
 51
360.0
  0
ARC
  5
52
330
17
100
AcDbEntity
  8
0
100
AcDbCircle
 10
32.0
 20
30.0
 30
0.0
 40
0.55
100
AcDbArc
 50
0.0
 51
180.0
  0
ARC
  5
53
330
17
100
AcDbEntity
  8
0
100
AcDbCircle
 10
32.0
 20
21.0
 30
0.0
 40
0.55
100
AcDbArc
 50
0.0
 51
90.0
  0
ARC
  5
54
330
17
100
AcDbEntity
  8
0
100
AcDbCircle
 10
32.0
 20
30.0
 30
0.0
 40
0.55
100
AcDbArc
 50
270.0
 51
360.0
  0
LINE
  5
55
330
17
100
AcDbEntity
  8
0
100
AcDbLine
 10
32.0
 20
29.45
 30
0.0
 11
32.0
 21
21.55
 31
0.0
  0
LINE
  5
56
330
17
100
AcDbEntity
  8
0
100
AcDbLine
 10
29.0
 20
44.55
 30
0.0
 11
29.0
 21
52.45
 31
0.0
  0
ARC
  5
57
330
17
100
AcDbEntity
  8
0
100
AcDbCircle
 10
29.0
 20
44.0
 30
0.0
 40
0.55
100
AcDbArc
 50
90.0
 51
360.0
  0
ARC
  5
58
330
17
100
AcDbEntity
  8
0
100
AcDbCircle
 10
29.0
 20
53.0
 30
0.0
 40
0.55
100
AcDbArc
 50
0.0
 51
270.0
  0
LINE
  5
59
330
17
100
AcDbEntity
  8
0
100
AcDbLine
 10
31.45
 20
44.0
 30
0.0
 11
29.55
 21
44.0
 31
0.0
  0
LINE
  5
5A
330
17
100
AcDbEntity
  8
0
100
AcDbLine
 10
29.55
 20
53.0
 30
0.0
 11
31.45
 21
53.0
 31
0.0
  0
ARC
  5
5B
330
17
100
AcDbEntity
  8
0
100
AcDbCircle
 10
32.0
 20
44.0
 30
0.0
 40
0.55
100
AcDbArc
 50
180.0
 51
360.0
  0
ARC
  5
5C
330
17
100
AcDbEntity
  8
0
100
AcDbCircle
 10
32.0
 20
53.0
 30
0.0
 40
0.55
100
AcDbArc
 50
0.0
 51
180.0
  0
ARC
  5
5D
330
17
100
AcDbEntity
  8
0
100
AcDbCircle
 10
32.0
 20
44.0
 30
0.0
 40
0.55
100
AcDbArc
 50
0.0
 51
90.0
  0
ARC
  5
5E
330
17
100
AcDbEntity
  8
0
100
AcDbCircle
 10
32.0
 20
53.0
 30
0.0
 40
0.55
100
AcDbArc
 50
270.0
 51
360.0
  0
LINE
  5
5F
330
17
100
AcDbEntity
  8
0
100
AcDbLine
 10
32.0
 20
52.45
 30
0.0
 11
32.0
 21
44.55
 31
0.0
  0
LINE
  5
60
330
17
100
AcDbEntity
  8
0
100
AcDbLine
 10
-4.0
 20
0.55
 30
0.0
 11
-4.0
 21
2.45
 31
0.0
  0
ARC
  5
61
330
17
100
AcDbEntity
  8
0
100
AcDbCircle
 10
-4.0
 20
0.0
 30
0.0
 40
0.55
100
AcDbArc
 50
89.99999999999996
 51
360.0
  0
ARC
  5
62
330
17
100
AcDbEntity
  8
0
100
AcDbCircle
 10
-4.0
 20
3.0
 30
0.0
 40
0.55
100
AcDbArc
 50
0.0
 51
270.0000000000001
  0
LINE
  5
63
330
17
100
AcDbEntity
  8
0
100
AcDbLine
 10
3.45
 20
0.0
 30
0.0
 11
-3.45
 21
0.0
 31
0.0
  0
LINE
  5
64
330
17
100
AcDbEntity
  8
0
100
AcDbLine
 10
-3.45
 20
3.0
 30
0.0
 11
3.45
 21
3.0
 31
0.0
  0
ARC
  5
65
330
17
100
AcDbEntity
  8
0
100
AcDbCircle
 10
4.0
 20
0.0
 30
0.0
 40
0.55
100
AcDbArc
 50
180.0
 51
360.0
  0
ARC
  5
66
330
17
100
AcDbEntity
  8
0
100
AcDbCircle
 10
4.0
 20
3.0
 30
0.0
 40
0.55
100
AcDbArc
 50
0.0
 51
180.0
  0
ARC
  5
67
330
17
100
AcDbEntity
  8
0
100
AcDbCircle
 10
4.0
 20
0.0
 30
0.0
 40
0.55
100
AcDbArc
 50
0.0
 51
90.0
  0
ARC
  5
68
330
17
100
AcDbEntity
  8
0
100
AcDbCircle
 10
4.0
 20
3.0
 30
0.0
 40
0.55
100
AcDbArc
 50
270.0000000000001
 51
360.0
  0
LINE
  5
69
330
17
100
AcDbEntity
  8
0
100
AcDbLine
 10
4.0
 20
2.45
 30
0.0
 11
4.0
 21
0.5499999999999998
 31
0.0
  0
LINE
  5
6A
330
17
100
AcDbEntity
  8
0
100
AcDbLine
 10
-22.0
 20
0.55
 30
0.0
 11
-22.0
 21
2.45
 31
0.0
  0
ARC
  5
6B
330
17
100
AcDbEntity
  8
0
100
AcDbCircle
 10
-22.0
 20
0.0
 30
0.0
 40
0.55
100
AcDbArc
 50
90.0
 51
360.0
  0
ARC
  5
6C
330
17
100
AcDbEntity
  8
0
100
AcDbCircle
 10
-22.0
 20
3.0
 30
0.0
 40
0.55
100
AcDbArc
 50
0.0
 51
270.0
  0
LINE
  5
6D
330
17
100
AcDbEntity
  8
0
100
AcDbLine
 10
-14.55
 20
0.0
 30
0.0
 11
-21.45
 21
0.0
 31
0.0
  0
LINE
  5
6E
330
17
100
AcDbEntity
  8
0
100
AcDbLine
 10
-21.45
 20
3.0
 30
0.0
 11
-14.55
 21
3.0
 31
0.0
  0
ARC
  5
6F
330
17
100
AcDbEntity
  8
0
100
AcDbCircle
 10
-14.0
 20
0.0
 30
0.0
 40
0.55
100
AcDbArc
 50
180.0
 51
360.0
  0
ARC
  5
70
330
17
100
AcDbEntity
  8
0
100
AcDbCircle
 10
-14.0
 20
3.0
 30
0.0
 40
0.55
100
AcDbArc
 50
0.0
 51
180.0
  0
ARC
  5
71
330
17
100
AcDbEntity
  8
0
100
AcDbCircle
 10
-14.0
 20
0.0
 30
0.0
 40
0.55
100
AcDbArc
 50
0.0
 51
90.0
  0
ARC
  5
72
330
17
100
AcDbEntity
  8
0
100
AcDbCircle
 10
-14.0
 20
3.0
 30
0.0
 40
0.55
100
AcDbArc
 50
270.0
 51
360.0
  0
LINE
  5
73
330
17
100
AcDbEntity
  8
0
100
AcDbLine
 10
-14.0
 20
2.45
 30
0.0
 11
-14.0
 21
0.5499999999999998
 31
0.0
  0
LINE
  5
74
330
17
100
AcDbEntity
  8
0
100
AcDbLine
 10
-32.0
 20
-1.45
 30
0.0
 11
-32.0
 21
6.449999999999999
 31
0.0
  0
ARC
  5
75
330
17
100
AcDbEntity
  8
0
100
AcDbCircle
 10
-32.0
 20
-2.0
 30
0.0
 40
0.55
100
AcDbArc
 50
90.0
 51
360.0
  0
ARC
  5
76
330
17
100
AcDbEntity
  8
0
100
AcDbCircle
 10
-32.0
 20
7.0
 30
0.0
 40
0.55
100
AcDbArc
 50
0.0
 51
270.0
  0
LINE
  5
77
330
17
100
AcDbEntity
  8
0
100
AcDbLine
 10
-29.55
 20
-2.0
 30
0.0
 11
-31.45
 21
-2.0
 31
0.0
  0
LINE
  5
78
330
17
100
AcDbEntity
  8
0
100
AcDbLine
 10
-31.45
 20
7.0
 30
0.0
 11
-29.55
 21
7.0
 31
0.0
  0
ARC
  5
79
330
17
100
AcDbEntity
  8
0
100
AcDbCircle
 10
-29.0
 20
-2.0
 30
0.0
 40
0.55
100
AcDbArc
 50
180.0
 51
360.0
  0
ARC
  5
7A
330
17
100
AcDbEntity
  8
0
100
AcDbCircle
 10
-29.0
 20
7.0
 30
0.0
 40
0.55
100
AcDbArc
 50
0.0
 51
180.0
  0
ARC
  5
7B
330
17
100
AcDbEntity
  8
0
100
AcDbCircle
 10
-29.0
 20
-2.0
 30
0.0
 40
0.55
100
AcDbArc
 50
0.0
 51
90.0
  0
ARC
  5
7C
330
17
100
AcDbEntity
  8
0
100
AcDbCircle
 10
-29.0
 20
7.0
 30
0.0
 40
0.55
100
AcDbArc
 50
270.0
 51
360.0
  0
LINE
  5
7D
330
17
100
AcDbEntity
  8
0
100
AcDbLine
 10
-29.0
 20
6.45
 30
0.0
 11
-29.0
 21
-1.4499999999999993
 31
0.0
  0
CIRCLE
  5
7E
330
17
100
AcDbEntity
  8
0
100
AcDbCircle
 10
-26.0
 20
14.0
 30
0.0
 40
2.6
  0
LINE
  5
7F
330
17
100
AcDbEntity
  8
0
100
AcDbLine
 10
-32.0
 20
21.55
 30
0.0
 11
-32.0
 21
29.45
 31
0.0
  0
ARC
  5
80
330
17
100
AcDbEntity
  8
0
100
AcDbCircle
 10
-32.0
 20
21.0
 30
0.0
 40
0.55
100
AcDbArc
 50
90.0
 51
360.0
  0
ARC
  5
81
330
17
100
AcDbEntity
  8
0
100
AcDbCircle
 10
-32.0
 20
30.0
 30
0.0
 40
0.55
100
AcDbArc
 50
0.0
 51
270.0
  0
LINE
  5
82
330
17
100
AcDbEntity
  8
0
100
AcDbLine
 10
-29.55
 20
21.0
 30
0.0
 11
-31.45
 21
21.0
 31
0.0
  0
LINE
  5
83
330
17
100
AcDbEntity
  8
0
100
AcDbLine
 10
-31.45
 20
30.0
 30
0.0
 11
-29.55
 21
30.0
 31
0.0
  0
ARC
  5
84
330
17
100
AcDbEntity
  8
0
100
AcDbCircle
 10
-29.0
 20
21.0
 30
0.0
 40
0.55
100
AcDbArc
 50
180.0
 51
360.0
  0
ARC
  5
85
330
17
100
AcDbEntity
  8
0
100
AcDbCircle
 10
-29.0
 20
30.0
 30
0.0
 40
0.55
100
AcDbArc
 50
0.0
 51
180.0
  0
ARC
  5
86
330
17
100
AcDbEntity
  8
0
100
AcDbCircle
 10
-29.0
 20
21.0
 30
0.0
 40
0.55
100
AcDbArc
 50
0.0
 51
90.0
  0
ARC
  5
87
330
17
100
AcDbEntity
  8
0
100
AcDbCircle
 10
-29.0
 20
30.0
 30
0.0
 40
0.55
100
AcDbArc
 50
270.0
 51
360.0
  0
LINE
  5
88
330
17
100
AcDbEntity
  8
0
100
AcDbLine
 10
-29.0
 20
29.45
 30
0.0
 11
-29.0
 21
21.55
 31
0.0
  0
LINE
  5
89
330
17
100
AcDbEntity
  8
0
100
AcDbLine
 10
-21.0
 20
28.0
 30
0.0
 11
-21.0
 21
76.0
 31
0.0
  0
LINE
  5
8A
330
17
100
AcDbEntity
  8
0
100
AcDbLine
 10
21.0
 20
28.0
 30
0.0
 11
-21.0
 21
28.0
 31
0.0
  0
LINE
  5
8B
330
17
100
AcDbEntity
  8
0
100
AcDbLine
 10
-21.0
 20
76.0
 30
0.0
 11
21.0
 21
76.0
 31
0.0
  0
LINE
  5
8C
330
17
100
AcDbEntity
  8
0
100
AcDbLine
 10
21.0
 20
76.0
 30
0.0
 11
21.0
 21
28.0
 31
0.0
  0
LINE
  5
8D
330
17
100
AcDbEntity
  8
0
100
AcDbLine
 10
-32.0
 20
44.55
 30
0.0
 11
-32.0
 21
52.45
 31
0.0
  0
ARC
  5
8E
330
17
100
AcDbEntity
  8
0
100
AcDbCircle
 10
-32.0
 20
44.0
 30
0.0
 40
0.55
100
AcDbArc
 50
90.0
 51
360.0
  0
ARC
  5
8F
330
17
100
AcDbEntity
  8
0
100
AcDbCircle
 10
-32.0
 20
53.0
 30
0.0
 40
0.55
100
AcDbArc
 50
0.0
 51
270.0
  0
LINE
  5
90
330
17
100
AcDbEntity
  8
0
100
AcDbLine
 10
-29.55
 20
44.0
 30
0.0
 11
-31.45
 21
44.0
 31
0.0
  0
LINE
  5
91
330
17
100
AcDbEntity
  8
0
100
AcDbLine
 10
-31.45
 20
53.0
 30
0.0
 11
-29.55
 21
53.0
 31
0.0
  0
ARC
  5
92
330
17
100
AcDbEntity
  8
0
100
AcDbCircle
 10
-29.0
 20
44.0
 30
0.0
 40
0.55
100
AcDbArc
 50
180.0
 51
360.0
  0
ARC
  5
93
330
17
100
AcDbEntity
  8
0
100
AcDbCircle
 10
-29.0
 20
53.0
 30
0.0
 40
0.55
100
AcDbArc
 50
0.0
 51
180.0
  0
ARC
  5
94
330
17
100
AcDbEntity
  8
0
100
AcDbCircle
 10
-29.0
 20
44.0
 30
0.0
 40
0.55
100
AcDbArc
 50
0.0
 51
90.0
  0
ARC
  5
95
330
17
100
AcDbEntity
  8
0
100
AcDbCircle
 10
-29.0
 20
53.0
 30
0.0
 40
0.55
100
AcDbArc
 50
270.0
 51
360.0
  0
LINE
  5
96
330
17
100
AcDbEntity
  8
0
100
AcDbLine
 10
-29.0
 20
52.45
 30
0.0
 11
-29.0
 21
44.55
 31
0.0
  0
LINE
  5
97
330
17
100
AcDbEntity
  8
0
100
AcDbLine
 10
29.0
 20
67.55
 30
0.0
 11
29.0
 21
75.45
 31
0.0
  0
ARC
  5
98
330
17
100
AcDbEntity
  8
0
100
AcDbCircle
 10
29.0
 20
67.0
 30
0.0
 40
0.55
100
AcDbArc
 50
90.0
 51
360.0
  0
ARC
  5
99
330
17
100
AcDbEntity
  8
0
100
AcDbCircle
 10
29.0
 20
76.0
 30
0.0
 40
0.55
100
AcDbArc
 50
0.0
 51
270.0
  0
LINE
  5
9A
330
17
100
AcDbEntity
  8
0
100
AcDbLine
 10
31.45
 20
67.0
 30
0.0
 11
29.55
 21
67.0
 31
0.0
  0
LINE
  5
9B
330
17
100
AcDbEntity
  8
0
100
AcDbLine
 10
29.55
 20
76.0
 30
0.0
 11
31.45
 21
76.0
 31
0.0
  0
ARC
  5
9C
330
17
100
AcDbEntity
  8
0
100
AcDbCircle
 10
32.0
 20
67.0
 30
0.0
 40
0.55
100
AcDbArc
 50
180.0
 51
360.0
  0
ARC
  5
9D
330
17
100
AcDbEntity
  8
0
100
AcDbCircle
 10
32.0
 20
76.0
 30
0.0
 40
0.55
100
AcDbArc
 50
0.0
 51
180.0
  0
ARC
  5
9E
330
17
100
AcDbEntity
  8
0
100
AcDbCircle
 10
32.0
 20
67.0
 30
0.0
 40
0.55
100
AcDbArc
 50
0.0
 51
90.0
  0
ARC
  5
9F
330
17
100
AcDbEntity
  8
0
100
AcDbCircle
 10
32.0
 20
76.0
 30
0.0
 40
0.55
100
AcDbArc
 50
270.0
 51
360.0
  0
LINE
  5
A0
330
17
100
AcDbEntity
  8
0
100
AcDbLine
 10
32.0
 20
75.45
 30
0.0
 11
32.0
 21
67.55
 31
0.0
  0
CIRCLE
  5
A1
330
17
100
AcDbEntity
  8
0
100
AcDbCircle
 10
26.0
 20
81.0
 30
0.0
 40
2.6
  0
LINE
  5
A2
330
17
100
AcDbEntity
  8
0
100
AcDbLine
 10
14.0
 20
86.55
 30
0.0
 11
14.0
 21
88.45
 31
0.0
  0
ARC
  5
A3
330
17
100
AcDbEntity
  8
0
100
AcDbCircle
 10
14.0
 20
86.0
 30
0.0
 40
0.55
100
AcDbArc
 50
90.0
 51
360.0
  0
ARC
  5
A4
330
17
100
AcDbEntity
  8
0
100
AcDbCircle
 10
14.0
 20
89.0
 30
0.0
 40
0.55
100
AcDbArc
 50
0.0
 51
270.0
  0
LINE
  5
A5
330
17
100
AcDbEntity
  8
0
100
AcDbLine
 10
21.45
 20
86.0
 30
0.0
 11
14.55
 21
86.0
 31
0.0
  0
LINE
  5
A6
330
17
100
AcDbEntity
  8
0
100
AcDbLine
 10
14.55
 20
89.0
 30
0.0
 11
21.45
 21
89.0
 31
0.0
  0
ARC
  5
A7
330
17
100
AcDbEntity
  8
0
100
AcDbCircle
 10
22.0
 20
86.0
 30
0.0
 40
0.55
100
AcDbArc
 50
180.0
 51
360.0
  0
ARC
  5
A8
330
17
100
AcDbEntity
  8
0
100
AcDbCircle
 10
22.0
 20
89.0
 30
0.0
 40
0.55
100
AcDbArc
 50
0.0
 51
180.0
  0
ARC
  5
A9
330
17
100
AcDbEntity
  8
0
100
AcDbCircle
 10
22.0
 20
86.0
 30
0.0
 40
0.55
100
AcDbArc
 50
0.0
 51
90.0
  0
ARC
  5
AA
330
17
100
AcDbEntity
  8
0
100
AcDbCircle
 10
22.0
 20
89.0
 30
0.0
 40
0.55
100
AcDbArc
 50
270.0
 51
360.0
  0
LINE
  5
AB
330
17
100
AcDbEntity
  8
0
100
AcDbLine
 10
22.0
 20
88.45
 30
0.0
 11
22.0
 21
86.55
 31
0.0
  0
LINE
  5
AC
330
17
100
AcDbEntity
  8
0
100
AcDbLine
 10
29.0
 20
90.55
 30
0.0
 11
29.0
 21
98.45
 31
0.0
  0
ARC
  5
AD
330
17
100
AcDbEntity
  8
0
100
AcDbCircle
 10
29.0
 20
90.0
 30
0.0
 40
0.55
100
AcDbArc
 50
90.0
 51
360.0
  0
ARC
  5
AE
330
17
100
AcDbEntity
  8
0
100
AcDbCircle
 10
29.0
 20
99.0
 30
0.0
 40
0.55
100
AcDbArc
 50
0.0
 51
270.0
  0
LINE
  5
AF
330
17
100
AcDbEntity
  8
0
100
AcDbLine
 10
31.45
 20
90.0
 30
0.0
 11
29.55
 21
90.0
 31
0.0
  0
LINE
  5
B0
330
17
100
AcDbEntity
  8
0
100
AcDbLine
 10
29.55
 20
99.0
 30
0.0
 11
31.45
 21
99.0
 31
0.0
  0
ARC
  5
B1
330
17
100
AcDbEntity
  8
0
100
AcDbCircle
 10
32.0
 20
90.0
 30
0.0
 40
0.55
100
AcDbArc
 50
180.0
 51
360.0
  0
ARC
  5
B2
330
17
100
AcDbEntity
  8
0
100
AcDbCircle
 10
32.0
 20
99.0
 30
0.0
 40
0.55
100
AcDbArc
 50
0.0
 51
180.0
  0
ARC
  5
B3
330
17
100
AcDbEntity
  8
0
100
AcDbCircle
 10
32.0
 20
90.0
 30
0.0
 40
0.55
100
AcDbArc
 50
0.0
 51
90.0
  0
ARC
  5
B4
330
17
100
AcDbEntity
  8
0
100
AcDbCircle
 10
32.0
 20
99.0
 30
0.0
 40
0.55
100
AcDbArc
 50
270.0
 51
360.0
  0
LINE
  5
B5
330
17
100
AcDbEntity
  8
0
100
AcDbLine
 10
32.0
 20
98.45
 30
0.0
 11
32.0
 21
90.55
 31
0.0
  0
LINE
  5
B6
330
17
100
AcDbEntity
  8
0
100
AcDbLine
 10
18.50391
 20
102.61953
 30
0.0
 11
18.423952
 21
102.73184
 31
0.0
  0
LINE
  5
B7
330
17
100
AcDbEntity
  8
0
100
AcDbLine
 10
18.423952
 20
102.73184
 30
0.0
 11
18.423961
 21
102.731856
 31
0.0
  0
LINE
  5
B8
330
17
100
AcDbEntity
  8
0
100
AcDbLine
 10
18.423961
 20
102.731856
 30
0.0
 11
20.486171
 21
110.84502599999999
 31
0.0
  0
LINE
  5
B9
330
17
100
AcDbEntity
  8
0
100
AcDbLine
 10
20.486171
 20
110.84502599999999
 30
0.0
 11
20.486158
 21
110.845047
 31
0.0
  0
LINE
  5
BA
330
17
100
AcDbEntity
  8
0
100
AcDbLine
 10
20.486158
 20
110.845047
 30
0.0
 11
20.560057
 21
111.061046
 31
0.0
  0
LINE
  5
BB
330
17
100
AcDbEntity
  8
0
100
AcDbLine
 10
20.560057
 20
111.061046
 30
0.0
 11
20.620037
 21
110.99884399999999
 31
0.0
  0
LINE
  5
BC
330
17
100
AcDbEntity
  8
0
100
AcDbLine
 10
20.620037
 20
110.99884399999999
 30
0.0
 11
20.62005
 21
110.998749
 31
0.0
  0
LINE
  5
BD
330
17
100
AcDbEntity
  8
0
100
AcDbLine
 10
20.62005
 20
110.998749
 30
0.0
 11
21.62189
 21
108.52277900000001
 31
0.0
  0
LINE
  5
BE
330
17
100
AcDbEntity
  8
0
100
AcDbLine
 10
21.62189
 20
108.52277900000001
 30
0.0
 11
20.57234
 21
104.275159
 31
0.0
  0
LINE
  5
BF
330
17
100
AcDbEntity
  8
0
100
AcDbLine
 10
20.57234
 20
104.275159
 30
0.0
 11
20.572342
 21
104.27523299999999
 31
0.0
  0
LINE
  5
C0
330
17
100
AcDbEntity
  8
0
100
AcDbLine
 10
20.572342
 20
104.27523299999999
 30
0.0
 11
20.492383
 21
104.03049899999999
 31
0.0
  0
LINE
  5
C1
330
17
100
AcDbEntity
  8
0
100
AcDbLine
 10
20.492383
 20
104.03049899999999
 30
0.0
 11
20.4924
 21
104.031
 31
0.0
  0
LINE
  5
C2
330
17
100
AcDbEntity
  8
0
100
AcDbLine
 10
20.4924
 20
104.031
 30
0.0
 11
20.490627
 21
104.03126499999999
 31
0.0
  0
LINE
  5
C3
330
17
100
AcDbEntity
  8
0
100
AcDbLine
 10
20.490627
 20
104.03126499999999
 30
0.0
 11
20.4906
 21
104.031
 31
0.0
  0
LINE
  5
C4
330
17
100
AcDbEntity
  8
0
100
AcDbLine
 10
20.4906
 20
104.031
 30
0.0
 11
18.5039
 21
102.61971
 31
0.0
  0
LINE
  5
C5
330
17
100
AcDbEntity
  8
0
100
AcDbLine
 10
18.5039
 20
102.61971
 30
0.0
 11
18.50391
 21
102.61953
 31
0.0
  0
LINE
  5
C6
330
17
100
AcDbEntity
  8
0
100
AcDbLine
 10
11.1094
 20
97.37200000000001
 30
0.0
 11
9.15339
 21
95.98214999999999
 31
0.0
  0
LINE
  5
C7
330
17
100
AcDbEntity
  8
0
100
AcDbLine
 10
9.15339
 20
95.98214999999999
 30
0.0
 11
9.153382
 21
95.982272
 31
0.0
  0
LINE
  5
C8
330
17
100
AcDbEntity
  8
0
100
AcDbLine
 10
9.153382
 20
95.982272
 30
0.0
 11
9.061085
 21
96.076122
 31
0.0
  0
LINE
  5
C9
330
17
100
AcDbEntity
  8
0
100
AcDbLine
 10
9.061085
 20
96.076122
 30
0.0
 11
9.061077
 21
96.076077
 31
0.0
  0
LINE
  5
CA
330
17
100
AcDbEntity
  8
0
100
AcDbLine
 10
9.061077
 20
96.076077
 30
0.0
 11
9.162703
 21
114.44477699999999
 31
0.0
  0
LINE
  5
CB
330
17
100
AcDbEntity
  8
0
100
AcDbLine
 10
9.162703
 20
114.44477699999999
 30
0.0
 11
9.162708
 21
114.44473500000001
 31
0.0
  0
LINE
  5
CC
330
17
100
AcDbEntity
  8
0
100
AcDbLine
 10
9.162708
 20
114.44473500000001
 30
0.0
 11
9.174951
 21
114.58172300000001
 31
0.0
  0
LINE
  5
CD
330
17
100
AcDbEntity
  8
0
100
AcDbLine
 10
9.174951
 20
114.58172300000001
 30
0.0
 11
9.17492
 21
114.582
 31
0.0
  0
LINE
  5
CE
330
17
100
AcDbEntity
  8
0
100
AcDbLine
 10
9.17492
 20
114.582
 30
0.0
 11
9.230298
 21
114.78515200000001
 31
0.0
  0
LINE
  5
CF
330
17
100
AcDbEntity
  8
0
100
AcDbLine
 10
9.230298
 20
114.78515200000001
 30
0.0
 11
9.2303
 21
114.785044
 31
0.0
  0
LINE
  5
D0
330
17
100
AcDbEntity
  8
0
100
AcDbLine
 10
9.2303
 20
114.785044
 30
0.0
 11
11.32164
 21
115.84231399999999
 31
0.0
  0
LINE
  5
D1
330
17
100
AcDbEntity
  8
0
100
AcDbLine
 10
11.32164
 20
115.84231399999999
 30
0.0
 11
11.321651
 21
115.842388
 31
0.0
  0
LINE
  5
D2
330
17
100
AcDbEntity
  8
0
100
AcDbLine
 10
11.321651
 20
115.842388
 30
0.0
 11
11.401706
 21
115.77777900000001
 31
0.0
  0
LINE
  5
D3
330
17
100
AcDbEntity
  8
0
100
AcDbLine
 10
11.401706
 20
115.77777900000001
 30
0.0
 11
11.401701
 21
115.77775500000001
 31
0.0
  0
LINE
  5
D4
330
17
100
AcDbEntity
  8
0
100
AcDbLine
 10
11.401701
 20
115.77775500000001
 30
0.0
 11
14.508801
 21
103.29235499999999
 31
0.0
  0
LINE
  5
D5
330
17
100
AcDbEntity
  8
0
100
AcDbLine
 10
14.508801
 20
103.29235499999999
 30
0.0
 11
14.5088
 21
103.292
 31
0.0
  0
LINE
  5
D6
330
17
100
AcDbEntity
  8
0
100
AcDbLine
 10
14.5088
 20
103.292
 30
0.0
 11
14.467313
 21
102.98746499999999
 31
0.0
  0
LINE
  5
D7
330
17
100
AcDbEntity
  8
0
100
AcDbLine
 10
14.467313
 20
102.98746499999999
 30
0.0
 11
14.467325
 21
102.98738
 31
0.0
  0
LINE
  5
D8
330
17
100
AcDbEntity
  8
0
100
AcDbLine
 10
14.467325
 20
102.98738
 30
0.0
 11
14.398053
 21
102.79034999999999
 31
0.0
  0
LINE
  5
D9
330
17
100
AcDbEntity
  8
0
100
AcDbLine
 10
14.398053
 20
102.79034999999999
 30
0.0
 11
14.398
 21
102.791
 31
0.0
  0
LINE
  5
DA
330
17
100
AcDbEntity
  8
0
100
AcDbLine
 10
14.398
 20
102.791
 30
0.0
 11
12.3497
 21
101.41041000000001
 31
0.0
  0
LINE
  5
DB
330
17
100
AcDbEntity
  8
0
100
AcDbLine
 10
12.3497
 20
101.41041000000001
 30
0.0
 11
12.349687
 21
101.410529
 31
0.0
  0
LINE
  5
DC
330
17
100
AcDbEntity
  8
0
100
AcDbLine
 10
12.349687
 20
101.410529
 30
0.0
 11
12.332608
 21
101.43813800000001
 31
0.0
  0
LINE
  5
DD
330
17
100
AcDbEntity
  8
0
100
AcDbLine
 10
12.332608
 20
101.43813800000001
 30
0.0
 11
12.309661
 21
101.48592199999999
 31
0.0
  0
LINE
  5
DE
330
17
100
AcDbEntity
  8
0
100
AcDbLine
 10
12.309661
 20
101.48592199999999
 30
0.0
 11
12.30967
 21
101.485816
 31
0.0
  0
LINE
  5
DF
330
17
100
AcDbEntity
  8
0
100
AcDbLine
 10
12.30967
 20
101.485816
 30
0.0
 11
11.24621
 21
105.83661599999999
 31
0.0
  0
LINE
  5
E0
330
17
100
AcDbEntity
  8
0
100
AcDbLine
 10
11.24621
 20
105.83661599999999
 30
0.0
 11
11.2463
 21
105.83600000000001
 31
0.0
  0
LINE
  5
E1
330
17
100
AcDbEntity
  8
0
100
AcDbLine
 10
11.2463
 20
105.83600000000001
 30
0.0
 11
11.204813
 21
97.62280999999999
 31
0.0
  0
LINE
  5
E2
330
17
100
AcDbEntity
  8
0
100
AcDbLine
 10
11.204813
 20
97.62280999999999
 30
0.0
 11
11.204813
 21
97.622712
 31
0.0
  0
LINE
  5
E3
330
17
100
AcDbEntity
  8
0
100
AcDbLine
 10
11.204813
 20
97.622712
 30
0.0
 11
11.109407
 21
97.371858
 31
0.0
  0
LINE
  5
E4
330
17
100
AcDbEntity
  8
0
100
AcDbLine
 10
11.109407
 20
97.371858
 30
0.0
 11
11.1094
 21
97.37200000000001
 31
0.0
  0
LINE
  5
E5
330
17
100
AcDbEntity
  8
0
100
AcDbLine
 10
1.219
 20
100.618
 30
0.0
 11
2.094656
 21
96.62597
 31
0.0
  0
LINE
  5
E6
330
17
100
AcDbEntity
  8
0
100
AcDbLine
 10
1.218997
 20
100.618311
 30
0.0
 11
1.219
 21
100.618
 31
0.0
  0
LINE
  5
E7
330
17
100
AcDbEntity
  8
0
100
AcDbLine
 10
1.391349
 20
100.55666400000001
 30
0.0
 11
1.218997
 21
100.618311
 31
0.0
  0
LINE
  5
E8
330
17
100
AcDbEntity
  8
0
100
AcDbLine
 10
1.39135
 20
100.55669
 30
0.0
 11
1.391349
 21
100.55666400000001
 31
0.0
  0
LINE
  5
E9
330
17
100
AcDbEntity
  8
0
100
AcDbLine
 10
1.989089
 20
100.474996
 30
0.0
 11
1.39135
 21
100.55669
 31
0.0
  0
LINE
  5
EA
330
17
100
AcDbEntity
  8
0
100
AcDbLine
 10
2.420157
 20
100.686071
 30
0.0
 11
1.989089
 21
100.474996
 31
0.0
  0
LINE
  5
EB
330
17
100
AcDbEntity
  8
0
100
AcDbLine
 10
2.682498
 20
101.11233100000001
 30
0.0
 11
2.420157
 21
100.686071
 31
0.0
  0
LINE
  5
EC
330
17
100
AcDbEntity
  8
0
100
AcDbLine
 10
2.774058
 20
101.67619300000001
 30
0.0
 11
2.682498
 21
101.11233100000001
 31
0.0
  0
LINE
  5
ED
330
17
100
AcDbEntity
  8
0
100
AcDbLine
 10
2.692778
 20
102.300074
 30
0.0
 11
2.774058
 21
101.67619300000001
 31
0.0
  0
LINE
  5
EE
330
17
100
AcDbEntity
  8
0
100
AcDbLine
 10
2.436604
 20
102.90639100000001
 30
0.0
 11
2.692778
 21
102.300074
 31
0.0
  0
LINE
  5
EF
330
17
100
AcDbEntity
  8
0
100
AcDbLine
 10
2.00348
 20
103.41756000000001
 30
0.0
 11
2.436604
 21
102.90639100000001
 31
0.0
  0
LINE
  5
F0
330
17
100
AcDbEntity
  8
0
100
AcDbLine
 10
1.39135
 20
103.756
 30
0.0
 11
2.00348
 21
103.41756000000001
 31
0.0
  0
LINE
  5
F1
330
17
100
AcDbEntity
  8
0
100
AcDbLine
 10
1.39135
 20
103.75800000000001
 30
0.0
 11
1.39135
 21
103.756
 31
0.0
  0
LINE
  5
F2
330
17
100
AcDbEntity
  8
0
100
AcDbLine
 10
1.391356
 20
103.757845
 30
0.0
 11
1.39135
 21
103.75800000000001
 31
0.0
  0
LINE
  5
F3
330
17
100
AcDbEntity
  8
0
100
AcDbLine
 10
0.452743
 20
104.06872999999999
 30
0.0
 11
1.391356
 21
103.757845
 31
0.0
  0
LINE
  5
F4
330
17
100
AcDbEntity
  8
0
100
AcDbLine
 10
-0.662987
 20
109.00399999999999
 30
0.0
 11
0.4527430000000001
 21
104.06872999999999
 31
0.0
  0
LINE
  5
F5
330
17
100
AcDbEntity
  8
0
100
AcDbLine
 10
-0.66299
 20
109.00325699999999
 30
0.0
 11
-0.662987
 21
109.00399999999999
 31
0.0
  0
LINE
  5
F6
330
17
100
AcDbEntity
  8
0
100
AcDbLine
 10
1.41292
 20
108.40000800000001
 30
0.0
 11
-0.66299
 21
109.00325699999999
 31
0.0
  0
LINE
  5
F7
330
17
100
AcDbEntity
  8
0
100
AcDbLine
 10
1.41292
 20
108.40003999999999
 30
0.0
 11
1.41292
 21
108.40000800000001
 31
0.0
  0
LINE
  5
F8
330
17
100
AcDbEntity
  8
0
100
AcDbLine
 10
1.996846
 20
108.37238400000001
 30
0.0
 11
1.41292
 21
108.40003999999999
 31
0.0
  0
LINE
  5
F9
330
17
100
AcDbEntity
  8
0
100
AcDbLine
 10
2.414264
 20
108.622951
 30
0.0
 11
1.996846
 21
108.37238400000001
 31
0.0
  0
LINE
  5
FA
330
17
100
AcDbEntity
  8
0
100
AcDbLine
 10
2.665011
 20
109.07374200000001
 30
0.0
 11
2.414264
 21
108.622951
 31
0.0
  0
LINE
  5
FB
330
17
100
AcDbEntity
  8
0
100
AcDbLine
 10
2.748921
 20
109.64675399999999
 30
0.0
 11
2.665011
 21
109.07374200000001
 31
0.0
  0
LINE
  5
FC
330
17
100
AcDbEntity
  8
0
100
AcDbLine
 10
2.665832
 20
110.26398699999999
 30
0.0
 11
2.748921
 21
109.64675399999999
 31
0.0
  0
LINE
  5
FD
330
17
100
AcDbEntity
  8
0
100
AcDbLine
 10
2.415578
 20
110.84744
 30
0.0
 11
2.665832
 21
110.26398699999999
 31
0.0
  0
LINE
  5
FE
330
17
100
AcDbEntity
  8
0
100
AcDbLine
 10
1.997995
 20
111.31911099999999
 30
0.0
 11
2.415578
 21
110.84744
 31
0.0
  0
LINE
  5
FF
330
17
100
AcDbEntity
  8
0
100
AcDbLine
 10
1.41292
 20
111.601
 30
0.0
 11
1.997995
 21
111.31911099999999
 31
0.0
  0
LINE
  5
100
330
17
100
AcDbEntity
  8
0
100
AcDbLine
 10
1.41292
 20
111.600934
 30
0.0
 11
1.41292
 21
111.601
 31
0.0
  0
LINE
  5
101
330
17
100
AcDbEntity
  8
0
100
AcDbLine
 10
-1.4309
 20
112.346
 30
0.0
 11
1.41292
 21
111.600934
 31
0.0
  0
LINE
  5
102
330
17
100
AcDbEntity
  8
0
100
AcDbLine
 10
-1.430903
 20
112.34624
 30
0.0
 11
-1.4309
 21
112.346
 31
0.0
  0
LINE
  5
103
330
17
100
AcDbEntity
  8
0
100
AcDbLine
 10
-2.31579
 20
116.15199999999999
 30
0.0
 11
-1.430903
 21
112.34624
 31
0.0
  0
LINE
  5
104
330
17
100
AcDbEntity
  8
0
100
AcDbLine
 10
-2.315786
 20
116.15190999999999
 30
0.0
 11
-2.31579
 21
116.15199999999999
 31
0.0
  0
LINE
  5
105
330
17
100
AcDbEntity
  8
0
100
AcDbLine
 10
-1.74675
 20
116.02199999999999
 30
0.0
 11
-2.315786
 21
116.15190999999999
 31
0.0
  0
LINE
  5
106
330
17
100
AcDbEntity
  8
0
100
AcDbLine
 10
-1.746737
 20
116.022559
 30
0.0
 11
-1.74675
 21
116.02199999999999
 31
0.0
  0
LINE
  5
107
330
17
100
AcDbEntity
  8
0
100
AcDbLine
 10
-1.74188
 20
116.01964899999999
 30
0.0
 11
-1.746737
 21
116.022559
 31
0.0
  0
LINE
  5
108
330
17
100
AcDbEntity
  8
0
100
AcDbLine
 10
1.45286
 20
115.28860599999999
 30
0.0
 11
-1.7418800000000003
 21
116.01964899999999
 31
0.0
  0
LINE
  5
109
330
17
100
AcDbEntity
  8
0
100
AcDbLine
 10
1.45286
 20
115.28863999999999
 30
0.0
 11
1.45286
 21
115.28860599999999
 31
0.0
  0
LINE
  5
10A
330
17
100
AcDbEntity
  8
0
100
AcDbLine
 10
2.350778
 20
114.99032199999999
 30
0.0
 11
1.45286
 21
115.28863999999999
 31
0.0
  0
LINE
  5
10B
330
17
100
AcDbEntity
  8
0
100
AcDbLine
 10
3.153761
 20
114.528402
 30
0.0
 11
2.350778
 21
114.99032199999999
 31
0.0
  0
LINE
  5
10C
330
17
100
AcDbEntity
  8
0
100
AcDbLine
 10
3.861525
 20
113.901442
 30
0.0
 11
3.153761
 21
114.528402
 31
0.0
  0
LINE
  5
10D
330
17
100
AcDbEntity
  8
0
100
AcDbLine
 10
4.47379
 20
113.108
 30
0.0
 11
3.861525
 21
113.901442
 31
0.0
  0
LINE
  5
10E
330
17
100
AcDbEntity
  8
0
100
AcDbLine
 10
4.47379
 20
113.10803999999999
 30
0.0
 11
4.47379
 21
113.108
 31
0.0
  0
LINE
  5
10F
330
17
100
AcDbEntity
  8
0
100
AcDbLine
 10
4.967718
 20
112.18213499999999
 30
0.0
 11
4.47379
 21
113.10803999999999
 31
0.0
  0
LINE
  5
110
330
17
100
AcDbEntity
  8
0
100
AcDbLine
 10
5.320755
 20
111.171527
 30
0.0
 11
4.967718
 21
112.18213499999999
 31
0.0
  0
LINE
  5
111
330
17
100
AcDbEntity
  8
0
100
AcDbLine
 10
5.532715
 20
110.07691600000001
 30
0.0
 11
5.320755
 21
111.171527
 31
0.0
  0
LINE
  5
112
330
17
100
AcDbEntity
  8
0
100
AcDbLine
 10
5.60341
 20
108.899
 30
0.0
 11
5.532715
 21
110.07691600000001
 31
0.0
  0
LINE
  5
113
330
17
100
AcDbEntity
  8
0
100
AcDbLine
 10
5.6034
 20
108.89863
 30
0.0
 11
5.60341
 21
108.899
 31
0.0
  0
LINE
  5
114
330
17
100
AcDbEntity
  8
0
100
AcDbLine
 10
5.521137
 20
107.644928
 30
0.0
 11
5.6034
 21
108.89863
 31
0.0
  0
LINE
  5
115
330
17
100
AcDbEntity
  8
0
100
AcDbLine
 10
5.274514
 20
106.59327400000001
 30
0.0
 11
5.521137
 21
107.644928
 31
0.0
  0
LINE
  5
116
330
17
100
AcDbEntity
  8
0
100
AcDbLine
 10
4.863782
 20
105.74439000000001
 30
0.0
 11
5.274514
 21
106.59327400000001
 31
0.0
  0
LINE
  5
117
330
17
100
AcDbEntity
  8
0
100
AcDbLine
 10
4.28919
 20
105.09899999999999
 30
0.0
 11
4.863782
 21
105.74439000000001
 31
0.0
  0
LINE
  5
118
330
17
100
AcDbEntity
  8
0
100
AcDbLine
 10
4.2892
 20
105.09877
 30
0.0
 11
4.28919
 21
105.09899999999999
 31
0.0
  0
LINE
  5
119
330
17
100
AcDbEntity
  8
0
100
AcDbLine
 10
4.863343
 20
104.017235
 30
0.0
 11
4.2892
 21
105.09877
 31
0.0
  0
LINE
  5
11A
330
17
100
AcDbEntity
  8
0
100
AcDbLine
 10
5.274125
 20
102.921704
 30
0.0
 11
4.863343
 21
104.017235
 31
0.0
  0
LINE
  5
11B
330
17
100
AcDbEntity
  8
0
100
AcDbLine
 10
5.520997
 20
101.81401299999999
 30
0.0
 11
5.274125
 21
102.921704
 31
0.0
  0
LINE
  5
11C
330
17
100
AcDbEntity
  8
0
100
AcDbLine
 10
5.60341
 20
100.696
 30
0.0
 11
5.520997
 21
101.81401299999999
 31
0.0
  0
LINE
  5
11D
330
17
100
AcDbEntity
  8
0
100
AcDbLine
 10
5.6034
 20
100.69605999999999
 30
0.0
 11
5.60341
 21
100.696
 31
0.0
  0
LINE
  5
11E
330
17
100
AcDbEntity
  8
0
100
AcDbLine
 10
5.534068
 20
99.505322
 30
0.0
 11
5.6034
 21
100.69605999999999
 31
0.0
  0
LINE
  5
11F
330
17
100
AcDbEntity
  8
0
100
AcDbLine
 10
5.326178
 20
98.50455600000001
 30
0.0
 11
5.534068
 21
99.505322
 31
0.0
  0
LINE
  5
120
330
17
100
AcDbEntity
  8
0
100
AcDbLine
 10
4.979886
 20
97.694277
 30
0.0
 11
5.326178
 21
98.50455600000001
 31
0.0
  0
LINE
  5
121
330
17
100
AcDbEntity
  8
0
100
AcDbLine
 10
4.49535
 20
97.07499999999999
 30
0.0
 11
4.979886
 21
97.694277
 31
0.0
  0
LINE
  5
122
330
17
100
AcDbEntity
  8
0
100
AcDbLine
 10
4.49536
 20
97.07534100000001
 30
0.0
 11
4.49535
 21
97.07499999999999
 31
0.0
  0
LINE
  5
123
330
17
100
AcDbEntity
  8
0
100
AcDbLine
 10
3.995387
 20
96.73134999999999
 30
0.0
 11
4.49536
 21
97.07534100000001
 31
0.0
  0
LINE
  5
124
330
17
100
AcDbEntity
  8
0
100
AcDbLine
 10
3.428317
 20
96.54306500000001
 30
0.0
 11
3.995387
 21
96.73134999999999
 31
0.0
  0
LINE
  5
125
330
17
100
AcDbEntity
  8
0
100
AcDbLine
 10
2.09466
 20
96.626
 30
0.0
 11
3.428317
 21
96.54306500000001
 31
0.0
  0
LINE
  5
126
330
17
100
AcDbEntity
  8
0
100
AcDbLine
 10
2.094656
 20
96.62597
 30
0.0
 11
2.09466
 21
96.626
 31
0.0
  0
LINE
  5
127
330
17
100
AcDbEntity
  8
0
100
AcDbLine
 10
29.0
 20
113.55
 30
0.0
 11
29.0
 21
121.45
 31
0.0
  0
ARC
  5
128
330
17
100
AcDbEntity
  8
0
100
AcDbCircle
 10
29.0
 20
113.0
 30
0.0
 40
0.55
100
AcDbArc
 50
90.0
 51
360.0
  0
ARC
  5
129
330
17
100
AcDbEntity
  8
0
100
AcDbCircle
 10
29.0
 20
122.0
 30
0.0
 40
0.55
100
AcDbArc
 50
0.0
 51
270.0
  0
LINE
  5
12A
330
17
100
AcDbEntity
  8
0
100
AcDbLine
 10
31.45
 20
113.0
 30
0.0
 11
29.55
 21
113.0
 31
0.0
  0
LINE
  5
12B
330
17
100
AcDbEntity
  8
0
100
AcDbLine
 10
29.55
 20
122.0
 30
0.0
 11
31.45
 21
122.0
 31
0.0
  0
ARC
  5
12C
330
17
100
AcDbEntity
  8
0
100
AcDbCircle
 10
32.0
 20
113.0
 30
0.0
 40
0.55
100
AcDbArc
 50
180.0
 51
360.0
  0
ARC
  5
12D
330
17
100
AcDbEntity
  8
0
100
AcDbCircle
 10
32.0
 20
122.0
 30
0.0
 40
0.55
100
AcDbArc
 50
0.0
 51
180.0
  0
ARC
  5
12E
330
17
100
AcDbEntity
  8
0
100
AcDbCircle
 10
32.0
 20
113.0
 30
0.0
 40
0.55
100
AcDbArc
 50
0.0
 51
90.0
  0
ARC
  5
12F
330
17
100
AcDbEntity
  8
0
100
AcDbCircle
 10
32.0
 20
122.0
 30
0.0
 40
0.55
100
AcDbArc
 50
270.0
 51
360.0
  0
LINE
  5
130
330
17
100
AcDbEntity
  8
0
100
AcDbLine
 10
32.0
 20
121.45
 30
0.0
 11
32.0
 21
113.55
 31
0.0
  0
LINE
  5
131
330
17
100
AcDbEntity
  8
0
100
AcDbLine
 10
23.362214
 20
106.06868800000001
 30
0.0
 11
25.496714
 21
107.583158
 31
0.0
  0
LINE
  5
132
330
17
100
AcDbEntity
  8
0
100
AcDbLine
 10
23.362207
 20
106.068678
 30
0.0
 11
23.362214
 21
106.06868800000001
 31
0.0
  0
LINE
  5
133
330
17
100
AcDbEntity
  8
0
100
AcDbLine
 10
23.322276
 20
106.13027299999999
 30
0.0
 11
23.362207
 21
106.068678
 31
0.0
  0
LINE
  5
134
330
17
100
AcDbEntity
  8
0
100
AcDbLine
 10
23.322289
 20
106.130336
 30
0.0
 11
23.322276
 21
106.13027299999999
 31
0.0
  0
LINE
  5
135
330
17
100
AcDbEntity
  8
0
100
AcDbLine
 10
18.454619
 20
119.30203599999999
 30
0.0
 11
23.322289
 21
106.130336
 31
0.0
  0
LINE
  5
136
330
17
100
AcDbEntity
  8
0
100
AcDbLine
 10
18.454618
 20
119.30201
 30
0.0
 11
18.454619
 21
119.30203599999999
 31
0.0
  0
LINE
  5
137
330
17
100
AcDbEntity
  8
0
100
AcDbLine
 10
18.508539
 20
119.497487
 30
0.0
 11
18.454618
 21
119.30201
 31
0.0
  0
LINE
  5
138
330
17
100
AcDbEntity
  8
0
100
AcDbLine
 10
18.508541
 20
119.49756300000001
 30
0.0
 11
18.508539
 21
119.497487
 31
0.0
  0
LINE
  5
139
330
17
100
AcDbEntity
  8
0
100
AcDbLine
 10
20.615341
 20
120.560923
 30
0.0
 11
18.508541
 21
119.49756300000001
 31
0.0
  0
LINE
  5
13A
330
17
100
AcDbEntity
  8
0
100
AcDbLine
 10
20.615348
 20
120.560847
 30
0.0
 11
20.615341
 21
120.560923
 31
0.0
  0
LINE
  5
13B
330
17
100
AcDbEntity
  8
0
100
AcDbLine
 10
20.695306
 20
120.50692699999999
 30
0.0
 11
20.615348
 21
120.560847
 31
0.0
  0
LINE
  5
13C
330
17
100
AcDbEntity
  8
0
100
AcDbLine
 10
20.695298
 20
120.50694899999999
 30
0.0
 11
20.695306
 21
120.50692699999999
 31
0.0
  0
LINE
  5
13D
330
17
100
AcDbEntity
  8
0
100
AcDbLine
 10
25.562858
 20
107.763049
 30
0.0
 11
20.695298
 21
120.50694899999999
 31
0.0
  0
LINE
  5
13E
330
17
100
AcDbEntity
  8
0
100
AcDbLine
 10
25.562863
 20
107.76302999999999
 30
0.0
 11
25.562858
 21
107.763049
 31
0.0
  0
LINE
  5
13F
330
17
100
AcDbEntity
  8
0
100
AcDbLine
 10
25.4967
 20
107.583
 30
0.0
 11
25.562863
 21
107.76302999999999
 31
0.0
  0
LINE
  5
140
330
17
100
AcDbEntity
  8
0
100
AcDbLine
 10
25.496714
 20
107.583158
 30
0.0
 11
25.4967
 21
107.583
 31
0.0
  0
LINE
  5
141
330
17
100
AcDbEntity
  8
0
100
AcDbLine
 10
23.442275
 20
121.986785
 30
0.0
 11
23.442196
 21
121.98704900000001
 31
0.0
  0
LINE
  5
142
330
17
100
AcDbEntity
  8
0
100
AcDbLine
 10
25.430565
 20
122.99034499999999
 30
0.0
 11
23.442275
 21
121.986785
 31
0.0
  0
LINE
  5
143
330
17
100
AcDbEntity
  8
0
100
AcDbLine
 10
25.430563
 20
122.99027899999999
 30
0.0
 11
25.430565
 21
122.99034499999999
 31
0.0
  0
LINE
  5
144
330
17
100
AcDbEntity
  8
0
100
AcDbLine
 10
25.510522
 20
122.876318
 30
0.0
 11
25.430563
 21
122.99027899999999
 31
0.0
  0
LINE
  5
145
330
17
100
AcDbEntity
  8
0
100
AcDbLine
 10
25.510522
 20
122.87630999999999
 30
0.0
 11
25.510522
 21
122.876318
 31
0.0
  0
LINE
  5
146
330
17
100
AcDbEntity
  8
0
100
AcDbLine
 10
23.491432
 20
115.33860000000001
 30
0.0
 11
25.510522
 21
122.87630999999999
 31
0.0
  0
LINE
  5
147
330
17
100
AcDbEntity
  8
0
100
AcDbLine
 10
23.491445
 20
115.33864700000001
 30
0.0
 11
23.491432
 21
115.33860000000001
 31
0.0
  0
LINE
  5
148
330
17
100
AcDbEntity
  8
0
100
AcDbLine
 10
23.418905
 20
115.131111
 30
0.0
 11
23.491445
 21
115.33864700000001
 31
0.0
  0
LINE
  5
149
330
17
100
AcDbEntity
  8
0
100
AcDbLine
 10
23.35912
 20
115.19252599999999
 30
0.0
 11
23.418905
 21
115.131111
 31
0.0
  0
LINE
  5
14A
330
17
100
AcDbEntity
  8
0
100
AcDbLine
 10
23.359114
 20
115.19255000000001
 30
0.0
 11
23.35912
 21
115.19252599999999
 31
0.0
  0
LINE
  5
14B
330
17
100
AcDbEntity
  8
0
100
AcDbLine
 10
22.3696
 20
117.89500000000001
 30
0.0
 11
23.359114
 21
115.19255000000001
 31
0.0
  0
LINE
  5
14C
330
17
100
AcDbEntity
  8
0
100
AcDbLine
 10
22.369613
 20
117.895074
 30
0.0
 11
22.3696
 21
117.89500000000001
 31
0.0
  0
LINE
  5
14D
330
17
100
AcDbEntity
  8
0
100
AcDbLine
 10
23.362249
 20
121.76539399999999
 30
0.0
 11
22.369613
 21
117.895074
 31
0.0
  0
LINE
  5
14E
330
17
100
AcDbEntity
  8
0
100
AcDbLine
 10
23.362241
 20
121.76541800000001
 30
0.0
 11
23.362249
 21
121.76539399999999
 31
0.0
  0
LINE
  5
14F
330
17
100
AcDbEntity
  8
0
100
AcDbLine
 10
23.4422
 20
121.98703
 30
0.0
 11
23.362241
 21
121.76541800000001
 31
0.0
  0
LINE
  5
150
330
17
100
AcDbEntity
  8
0
100
AcDbLine
 10
23.442196
 20
121.98704900000001
 30
0.0
 11
23.4422
 21
121.98703
 31
0.0
  0
LINE
  5
151
330
17
100
AcDbEntity
  8
0
100
AcDbLine
 10
29.0
 20
136.55
 30
0.0
 11
29.0
 21
144.45
 31
0.0
  0
ARC
  5
152
330
17
100
AcDbEntity
  8
0
100
AcDbCircle
 10
29.0
 20
136.0
 30
0.0
 40
0.55
100
AcDbArc
 50
90.0
 51
360.0
  0
ARC
  5
153
330
17
100
AcDbEntity
  8
0
100
AcDbCircle
 10
29.0
 20
145.0
 30
0.0
 40
0.55
100
AcDbArc
 50
0.0
 51
270.0
  0
LINE
  5
154
330
17
100
AcDbEntity
  8
0
100
AcDbLine
 10
31.45
 20
136.0
 30
0.0
 11
29.55
 21
136.0
 31
0.0
  0
LINE
  5
155
330
17
100
AcDbEntity
  8
0
100
AcDbLine
 10
29.55
 20
145.0
 30
0.0
 11
31.45
 21
145.0
 31
0.0
  0
ARC
  5
156
330
17
100
AcDbEntity
  8
0
100
AcDbCircle
 10
32.0
 20
136.0
 30
0.0
 40
0.55
100
AcDbArc
 50
180.0
 51
360.0
  0
ARC
  5
157
330
17
100
AcDbEntity
  8
0
100
AcDbCircle
 10
32.0
 20
145.0
 30
0.0
 40
0.55
100
AcDbArc
 50
0.0
 51
180.0
  0
ARC
  5
158
330
17
100
AcDbEntity
  8
0
100
AcDbCircle
 10
32.0
 20
136.0
 30
0.0
 40
0.55
100
AcDbArc
 50
0.0
 51
90.0
  0
ARC
  5
159
330
17
100
AcDbEntity
  8
0
100
AcDbCircle
 10
32.0
 20
145.0
 30
0.0
 40
0.55
100
AcDbArc
 50
270.0
 51
360.0
  0
LINE
  5
15A
330
17
100
AcDbEntity
  8
0
100
AcDbLine
 10
32.0
 20
144.45
 30
0.0
 11
32.0
 21
136.55
 31
0.0
  0
LINE
  5
15B
330
17
100
AcDbEntity
  8
0
100
AcDbLine
 10
17.7021
 20
119.089
 30
0.0
 11
17.754466
 21
118.97056699999999
 31
0.0
  0
LINE
  5
15C
330
17
100
AcDbEntity
  8
0
100
AcDbLine
 10
17.754466
 20
118.97056699999999
 30
0.0
 11
17.754469
 21
118.970607
 31
0.0
  0
LINE
  5
15D
330
17
100
AcDbEntity
  8
0
100
AcDbLine
 10
17.754469
 20
118.970607
 30
0.0
 11
17.743489
 21
118.91372100000001
 31
0.0
  0
LINE
  5
15E
330
17
100
AcDbEntity
  8
0
100
AcDbLine
 10
17.743489
 20
118.91372100000001
 30
0.0
 11
17.743486
 21
118.91373200000001
 31
0.0
  0
LINE
  5
15F
330
17
100
AcDbEntity
  8
0
100
AcDbLine
 10
17.743486
 20
118.91373200000001
 30
0.0
 11
17.754464
 21
118.813661
 31
0.0
  0
LINE
  5
160
330
17
100
AcDbEntity
  8
0
100
AcDbLine
 10
17.754464
 20
118.813661
 30
0.0
 11
17.754467
 21
118.81370899999999
 31
0.0
  0
LINE
  5
161
330
17
100
AcDbEntity
  8
0
100
AcDbLine
 10
17.754467
 20
118.81370899999999
 30
0.0
 11
17.706869
 21
102.199209
 31
0.0
  0
LINE
  5
162
330
17
100
AcDbEntity
  8
0
100
AcDbLine
 10
17.706869
 20
102.199209
 30
0.0
 11
17.706858
 21
102.19929300000001
 31
0.0
  0
LINE
  5
163
330
17
100
AcDbEntity
  8
0
100
AcDbLine
 10
17.706858
 20
102.19929300000001
 30
0.0
 11
17.611452
 21
101.985356
 31
0.0
  0
LINE
  5
164
330
17
100
AcDbEntity
  8
0
100
AcDbLine
 10
17.611452
 20
101.985356
 30
0.0
 11
17.61146
 21
101.98542499999999
 31
0.0
  0
LINE
  5
165
330
17
100
AcDbEntity
  8
0
100
AcDbLine
 10
17.61146
 20
101.98542499999999
 30
0.0
 11
15.65542
 21
100.59742499999999
 31
0.0
  0
LINE
  5
166
330
17
100
AcDbEntity
  8
0
100
AcDbLine
 10
15.65542
 20
100.59742499999999
 30
0.0
 11
15.655428
 21
100.597309
 31
0.0
  0
LINE
  5
167
330
17
100
AcDbEntity
  8
0
100
AcDbLine
 10
15.655428
 20
100.597309
 30
0.0
 11
15.561576
 21
100.70515
 31
0.0
  0
LINE
  5
168
330
17
100
AcDbEntity
  8
0
100
AcDbLine
 10
15.561576
 20
100.70515
 30
0.0
 11
15.561572
 21
100.70510999999999
 31
0.0
  0
LINE
  5
169
330
17
100
AcDbEntity
  8
0
100
AcDbLine
 10
15.561572
 20
100.70510999999999
 30
0.0
 11
15.589274
 21
108.26583
 31
0.0
  0
LINE
  5
16A
330
17
100
AcDbEntity
  8
0
100
AcDbLine
 10
15.589274
 20
108.26583
 30
0.0
 11
15.5893
 21
108.26599999999999
 31
0.0
  0
LINE
  5
16B
330
17
100
AcDbEntity
  8
0
100
AcDbLine
 10
15.5893
 20
108.26599999999999
 30
0.0
 11
14.819825001772248
 21
104.86801299959868
 31
0.0
  0
LINE
  5
16C
330
17
100
AcDbEntity
  8
0
100
AcDbLine
 10
14.819825
 20
104.86801299999999
 30
0.0
 11
14.779214
 21
104.740059
 31
0.0
  0
LINE
  5
16D
330
17
100
AcDbEntity
  8
0
100
AcDbLine
 10
14.779214
 20
104.740059
 30
0.0
 11
14.739769
 21
104.81409400000001
 31
0.0
  0
LINE
  5
16E
330
17
100
AcDbEntity
  8
0
100
AcDbLine
 10
14.739769
 20
104.81409400000001
 30
0.0
 11
14.739777
 21
104.813985
 31
0.0
  0
LINE
  5
16F
330
17
100
AcDbEntity
  8
0
100
AcDbLine
 10
14.739777
 20
104.813985
 30
0.0
 11
13.756375
 21
108.71526499999999
 31
0.0
  0
LINE
  5
170
330
17
100
AcDbEntity
  8
0
100
AcDbLine
 10
13.756375
 20
108.71526499999999
 30
0.0
 11
13.7564
 21
108.71600000000001
 31
0.0
  0
LINE
  5
171
330
17
100
AcDbEntity
  8
0
100
AcDbLine
 10
13.7564
 20
108.71600000000001
 30
0.0
 11
15.54152
 21
117.87585999999999
 31
0.0
  0
LINE
  5
172
330
17
100
AcDbEntity
  8
0
100
AcDbLine
 10
15.54152
 20
117.87585999999999
 30
0.0
 11
15.541524
 21
117.87574599999999
 31
0.0
  0
LINE
  5
173
330
17
100
AcDbEntity
  8
0
100
AcDbLine
 10
15.541524
 20
117.87574599999999
 30
0.0
 11
15.596903
 21
118.02818300000001
 31
0.0
  0
LINE
  5
174
330
17
100
AcDbEntity
  8
0
100
AcDbLine
 10
15.596903
 20
118.02818300000001
 30
0.0
 11
15.5969
 21
118.02825999999999
 31
0.0
  0
LINE
  5
175
330
17
100
AcDbEntity
  8
0
100
AcDbLine
 10
15.5969
 20
118.02825999999999
 30
0.0
 11
17.70216
 21
119.08976999999999
 31
0.0
  0
LINE
  5
176
330
17
100
AcDbEntity
  8
0
100
AcDbLine
 10
17.70216
 20
119.08976999999999
 30
0.0
 11
17.7021
 21
119.089
 31
0.0
  0
LINE
  5
177
330
17
100
AcDbEntity
  8
0
100
AcDbLine
 10
-5.1169
 20
126.7526
 30
0.0
 11
18.0168
 21
122.89409
 31
0.0
  0
LINE
  5
178
330
17
100
AcDbEntity
  8
0
100
AcDbLine
 10
18.0168
 20
122.89409
 30
0.0
 11
13.74383
 21
120.90659
 31
0.0
  0
LINE
  5
179
330
17
100
AcDbEntity
  8
0
100
AcDbLine
 10
13.74383
 20
120.90659
 30
0.0
 11
-5.214370000000001
 21
124.20994999999999
 31
0.0
  0
LINE
  5
17A
330
17
100
AcDbEntity
  8
0
100
AcDbLine
 10
-5.21437
 20
124.20994999999999
 30
0.0
 11
-12.04679
 21
121.79205999999999
 31
0.0
  0
LINE
  5
17B
330
17
100
AcDbEntity
  8
0
100
AcDbLine
 10
-12.04679
 20
121.79205999999999
 30
0.0
 11
-16.90638
 21
122.85425000000001
 31
0.0
  0
LINE
  5
17C
330
17
100
AcDbEntity
  8
0
100
AcDbLine
 10
-16.90638
 20
122.85425000000001
 30
0.0
 11
-5.116900000000001
 21
126.7526
 31
0.0
  0
LINE
  5
17D
330
17
100
AcDbEntity
  8
0
100
AcDbLine
 10
-4.0
 20
86.55
 30
0.0
 11
-4.0
 21
88.45
 31
0.0
  0
ARC
  5
17E
330
17
100
AcDbEntity
  8
0
100
AcDbCircle
 10
-4.0
 20
86.0
 30
0.0
 40
0.55
100
AcDbArc
 50
89.99999999999996
 51
360.0
  0
ARC
  5
17F
330
17
100
AcDbEntity
  8
0
100
AcDbCircle
 10
-4.0
 20
89.0
 30
0.0
 40
0.55
100
AcDbArc
 50
0.0
 51
270.0000000000001
  0
LINE
  5
180
330
17
100
AcDbEntity
  8
0
100
AcDbLine
 10
3.45
 20
86.0
 30
0.0
 11
-3.45
 21
86.0
 31
0.0
  0
LINE
  5
181
330
17
100
AcDbEntity
  8
0
100
AcDbLine
 10
-3.45
 20
89.0
 30
0.0
 11
3.45
 21
89.0
 31
0.0
  0
ARC
  5
182
330
17
100
AcDbEntity
  8
0
100
AcDbCircle
 10
4.0
 20
86.0
 30
0.0
 40
0.55
100
AcDbArc
 50
180.0
 51
360.0
  0
ARC
  5
183
330
17
100
AcDbEntity
  8
0
100
AcDbCircle
 10
4.0
 20
89.0
 30
0.0
 40
0.55
100
AcDbArc
 50
0.0
 51
180.0
  0
ARC
  5
184
330
17
100
AcDbEntity
  8
0
100
AcDbCircle
 10
4.0
 20
86.0
 30
0.0
 40
0.55
100
AcDbArc
 50
0.0
 51
90.0
  0
ARC
  5
185
330
17
100
AcDbEntity
  8
0
100
AcDbCircle
 10
4.0
 20
89.0
 30
0.0
 40
0.55
100
AcDbArc
 50
270.0000000000001
 51
360.0
  0
LINE
  5
186
330
17
100
AcDbEntity
  8
0
100
AcDbLine
 10
4.0
 20
88.45
 30
0.0
 11
4.0
 21
86.55
 31
0.0
  0
LINE
  5
187
330
17
100
AcDbEntity
  8
0
100
AcDbLine
 10
-4.92128
 20
116.5755
 30
0.0
 11
-4.798088
 21
116.721621
 31
0.0
  0
LINE
  5
188
330
17
100
AcDbEntity
  8
0
100
AcDbLine
 10
-4.798088
 20
116.721621
 30
0.0
 11
-4.798075
 21
116.7217
 31
0.0
  0
LINE
  5
189
330
17
100
AcDbEntity
  8
0
100
AcDbLine
 10
-4.798075
 20
116.7217
 30
0.0
 11
-3.283845
 21
116.373773
 31
0.0
  0
LINE
  5
18A
330
17
100
AcDbEntity
  8
0
100
AcDbLine
 10
-3.283845
 20
116.373773
 30
0.0
 11
-3.28385
 21
116.374
 31
0.0
  0
LINE
  5
18B
330
17
100
AcDbEntity
  8
0
100
AcDbLine
 10
-3.28385
 20
116.374
 30
0.0
 11
-0.51532
 21
104.3905
 31
0.0
  0
LINE
  5
18C
330
17
100
AcDbEntity
  8
0
100
AcDbLine
 10
-0.51532
 20
104.3905
 30
0.0
 11
-0.515312
 21
104.38999999999999
 31
0.0
  0
LINE
  5
18D
330
17
100
AcDbEntity
  8
0
100
AcDbLine
 10
-0.515312
 20
104.38999999999999
 30
0.0
 11
-1.620252
 21
104.75777
 31
0.0
  0
LINE
  5
18E
330
17
100
AcDbEntity
  8
0
100
AcDbLine
 10
-1.620252
 20
104.75777
 30
0.0
 11
-1.62025
 21
104.75800000000001
 31
0.0
  0
LINE
  5
18F
330
17
100
AcDbEntity
  8
0
100
AcDbLine
 10
-1.62025
 20
104.75800000000001
 30
0.0
 11
-1.62025
 21
101.643
 31
0.0
  0
LINE
  5
190
330
17
100
AcDbEntity
  8
0
100
AcDbLine
 10
-1.62025
 20
101.643
 30
0.0
 11
0.25105
 21
100.967255
 31
0.0
  0
LINE
  5
191
330
17
100
AcDbEntity
  8
0
100
AcDbLine
 10
0.25105
 20
100.967255
 30
0.0
 11
0.251046
 21
100.96700000000001
 31
0.0
  0
LINE
  5
192
330
17
100
AcDbEntity
  8
0
100
AcDbLine
 10
0.251046
 20
100.96700000000001
 30
0.0
 11
1.13739
 21
96.96121
 31
0.0
  0
LINE
  5
193
330
17
100
AcDbEntity
  8
0
100
AcDbLine
 10
1.13739
 20
96.96121
 30
0.0
 11
1.13739
 21
96.96199999999999
 31
0.0
  0
LINE
  5
194
330
17
100
AcDbEntity
  8
0
100
AcDbLine
 10
1.13739
 20
96.96199999999999
 30
0.0
 11
-1.76492
 21
98.10552999999999
 31
0.0
  0
LINE
  5
195
330
17
100
AcDbEntity
  8
0
100
AcDbLine
 10
-1.76492
 20
98.10552999999999
 30
0.0
 11
-1.76492
 21
98.10499999999999
 31
0.0
  0
LINE
  5
196
330
17
100
AcDbEntity
  8
0
100
AcDbLine
 10
-1.76492
 20
98.10499999999999
 30
0.0
 11
-2.89912
 21
98.54976400000001
 31
0.0
  0
LINE
  5
197
330
17
100
AcDbEntity
  8
0
100
AcDbLine
 10
-2.89912
 20
98.54976400000001
 30
0.0
 11
-2.89912
 21
98.55000000000001
 31
0.0
  0
LINE
  5
198
330
17
100
AcDbEntity
  8
0
100
AcDbLine
 10
-2.89912
 20
98.55000000000001
 30
0.0
 11
-4.77819
 21
99.29003900000001
 31
0.0
  0
LINE
  5
199
330
17
100
AcDbEntity
  8
0
100
AcDbLine
 10
-4.77819
 20
99.29003900000001
 30
0.0
 11
-4.778183
 21
99.29014699999999
 31
0.0
  0
LINE
  5
19A
330
17
100
AcDbEntity
  8
0
100
AcDbLine
 10
-4.778183
 20
99.29014699999999
 30
0.0
 11
-4.921292
 21
99.496408
 31
0.0
  0
LINE
  5
19B
330
17
100
AcDbEntity
  8
0
100
AcDbLine
 10
-4.921292
 20
99.496408
 30
0.0
 11
-4.921303
 21
99.49641399999999
 31
0.0
  0
LINE
  5
19C
330
17
100
AcDbEntity
  8
0
100
AcDbLine
 10
-4.921303
 20
99.49641399999999
 30
0.0
 11
-4.9213
 21
116.57499999999999
 31
0.0
  0
LINE
  5
19D
330
17
100
AcDbEntity
  8
0
100
AcDbLine
 10
-4.9213
 20
116.57499999999999
 30
0.0
 11
-4.92128
 21
116.5755
 31
0.0
  0
LINE
  5
19E
330
17
100
AcDbEntity
  8
0
100
AcDbLine
 10
-22.0
 20
86.55
 30
0.0
 11
-22.0
 21
88.45
 31
0.0
  0
ARC
  5
19F
330
17
100
AcDbEntity
  8
0
100
AcDbCircle
 10
-22.0
 20
86.0
 30
0.0
 40
0.55
100
AcDbArc
 50
90.0
 51
360.0
  0
ARC
  5
1A0
330
17
100
AcDbEntity
  8
0
100
AcDbCircle
 10
-22.0
 20
89.0
 30
0.0
 40
0.55
100
AcDbArc
 50
0.0
 51
270.0
  0
LINE
  5
1A1
330
17
100
AcDbEntity
  8
0
100
AcDbLine
 10
-14.55
 20
86.0
 30
0.0
 11
-21.45
 21
86.0
 31
0.0
  0
LINE
  5
1A2
330
17
100
AcDbEntity
  8
0
100
AcDbLine
 10
-21.45
 20
89.0
 30
0.0
 11
-14.55
 21
89.0
 31
0.0
  0
ARC
  5
1A3
330
17
100
AcDbEntity
  8
0
100
AcDbCircle
 10
-14.0
 20
86.0
 30
0.0
 40
0.55
100
AcDbArc
 50
180.0
 51
360.0
  0
ARC
  5
1A4
330
17
100
AcDbEntity
  8
0
100
AcDbCircle
 10
-14.0
 20
89.0
 30
0.0
 40
0.55
100
AcDbArc
 50
0.0
 51
180.0
  0
ARC
  5
1A5
330
17
100
AcDbEntity
  8
0
100
AcDbCircle
 10
-14.0
 20
86.0
 30
0.0
 40
0.55
100
AcDbArc
 50
0.0
 51
90.0
  0
ARC
  5
1A6
330
17
100
AcDbEntity
  8
0
100
AcDbCircle
 10
-14.0
 20
89.0
 30
0.0
 40
0.55
100
AcDbArc
 50
270.0
 51
360.0
  0
LINE
  5
1A7
330
17
100
AcDbEntity
  8
0
100
AcDbLine
 10
-14.0
 20
88.45
 30
0.0
 11
-14.0
 21
86.55
 31
0.0
  0
LINE
  5
1A8
330
17
100
AcDbEntity
  8
0
100
AcDbLine
 10
-32.0
 20
67.55
 30
0.0
 11
-32.0
 21
75.45
 31
0.0
  0
ARC
  5
1A9
330
17
100
AcDbEntity
  8
0
100
AcDbCircle
 10
-32.0
 20
67.0
 30
0.0
 40
0.55
100
AcDbArc
 50
90.0
 51
360.0
  0
ARC
  5
1AA
330
17
100
AcDbEntity
  8
0
100
AcDbCircle
 10
-32.0
 20
76.0
 30
0.0
 40
0.55
100
AcDbArc
 50
0.0
 51
270.0
  0
LINE
  5
1AB
330
17
100
AcDbEntity
  8
0
100
AcDbLine
 10
-29.55
 20
67.0
 30
0.0
 11
-31.45
 21
67.0
 31
0.0
  0
LINE
  5
1AC
330
17
100
AcDbEntity
  8
0
100
AcDbLine
 10
-31.45
 20
76.0
 30
0.0
 11
-29.55
 21
76.0
 31
0.0
  0
ARC
  5
1AD
330
17
100
AcDbEntity
  8
0
100
AcDbCircle
 10
-29.0
 20
67.0
 30
0.0
 40
0.55
100
AcDbArc
 50
180.0
 51
360.0
  0
ARC
  5
1AE
330
17
100
AcDbEntity
  8
0
100
AcDbCircle
 10
-29.0
 20
76.0
 30
0.0
 40
0.55
100
AcDbArc
 50
0.0
 51
180.0
  0
ARC
  5
1AF
330
17
100
AcDbEntity
  8
0
100
AcDbCircle
 10
-29.0
 20
67.0
 30
0.0
 40
0.55
100
AcDbArc
 50
0.0
 51
90.0
  0
ARC
  5
1B0
330
17
100
AcDbEntity
  8
0
100
AcDbCircle
 10
-29.0
 20
76.0
 30
0.0
 40
0.55
100
AcDbArc
 50
270.0
 51
360.0
  0
LINE
  5
1B1
330
17
100
AcDbEntity
  8
0
100
AcDbLine
 10
-29.0
 20
75.45
 30
0.0
 11
-29.0
 21
67.55
 31
0.0
  0
CIRCLE
  5
1B2
330
17
100
AcDbEntity
  8
0
100
AcDbCircle
 10
-26.0
 20
81.0
 30
0.0
 40
2.6
  0
LINE
  5
1B3
330
17
100
AcDbEntity
  8
0
100
AcDbLine
 10
-32.0
 20
90.55
 30
0.0
 11
-32.0
 21
98.45
 31
0.0
  0
ARC
  5
1B4
330
17
100
AcDbEntity
  8
0
100
AcDbCircle
 10
-32.0
 20
90.0
 30
0.0
 40
0.55
100
AcDbArc
 50
90.0
 51
360.0
  0
ARC
  5
1B5
330
17
100
AcDbEntity
  8
0
100
AcDbCircle
 10
-32.0
 20
99.0
 30
0.0
 40
0.55
100
AcDbArc
 50
0.0
 51
270.0
  0
LINE
  5
1B6
330
17
100
AcDbEntity
  8
0
100
AcDbLine
 10
-29.55
 20
90.0
 30
0.0
 11
-31.45
 21
90.0
 31
0.0
  0
LINE
  5
1B7
330
17
100
AcDbEntity
  8
0
100
AcDbLine
 10
-31.45
 20
99.0
 30
0.0
 11
-29.55
 21
99.0
 31
0.0
  0
ARC
  5
1B8
330
17
100
AcDbEntity
  8
0
100
AcDbCircle
 10
-29.0
 20
90.0
 30
0.0
 40
0.55
100
AcDbArc
 50
180.0
 51
360.0
  0
ARC
  5
1B9
330
17
100
AcDbEntity
  8
0
100
AcDbCircle
 10
-29.0
 20
99.0
 30
0.0
 40
0.55
100
AcDbArc
 50
0.0
 51
180.0
  0
ARC
  5
1BA
330
17
100
AcDbEntity
  8
0
100
AcDbCircle
 10
-29.0
 20
90.0
 30
0.0
 40
0.55
100
AcDbArc
 50
0.0
 51
90.0
  0
ARC
  5
1BB
330
17
100
AcDbEntity
  8
0
100
AcDbCircle
 10
-29.0
 20
99.0
 30
0.0
 40
0.55
100
AcDbArc
 50
270.0
 51
360.0
  0
LINE
  5
1BC
330
17
100
AcDbEntity
  8
0
100
AcDbLine
 10
-29.0
 20
98.45
 30
0.0
 11
-29.0
 21
90.55
 31
0.0
  0
LINE
  5
1BD
330
17
100
AcDbEntity
  8
0
100
AcDbLine
 10
-5.759728
 20
99.6762
 30
0.0
 11
-5.759913
 21
99.67646500000001
 31
0.0
  0
LINE
  5
1BE
330
17
100
AcDbEntity
  8
0
100
AcDbLine
 10
-5.759913
 20
99.67646500000001
 30
0.0
 11
-5.75992
 21
99.67599999999999
 31
0.0
  0
LINE
  5
1BF
330
17
100
AcDbEntity
  8
0
100
AcDbLine
 10
-5.75992
 20
99.67599999999999
 30
0.0
 11
-9.12245
 21
100.99943999999999
 31
0.0
  0
LINE
  5
1C0
330
17
100
AcDbEntity
  8
0
100
AcDbLine
 10
-9.12245
 20
100.99943999999999
 30
0.0
 11
-9.122456
 21
100.999448
 31
0.0
  0
LINE
  5
1C1
330
17
100
AcDbEntity
  8
0
100
AcDbLine
 10
-9.122456
 20
100.999448
 30
0.0
 11
-9.184052
 21
101.11953199999999
 31
0.0
  0
LINE
  5
1C2
330
17
100
AcDbEntity
  8
0
100
AcDbLine
 10
-9.184052
 20
101.11953199999999
 30
0.0
 11
-9.184045
 21
101.119561
 31
0.0
  0
LINE
  5
1C3
330
17
100
AcDbEntity
  8
0
100
AcDbLine
 10
-9.184045
 20
101.119561
 30
0.0
 11
-13.232985
 21
118.467761
 31
0.0
  0
LINE
  5
1C4
330
17
100
AcDbEntity
  8
0
100
AcDbLine
 10
-13.232985
 20
118.467761
 30
0.0
 11
-13.232981
 21
118.46781899999999
 31
0.0
  0
LINE
  5
1C5
330
17
100
AcDbEntity
  8
0
100
AcDbLine
 10
-13.232981
 20
118.46781899999999
 30
0.0
 11
-13.171385
 21
118.637065
 31
0.0
  0
LINE
  5
1C6
330
17
100
AcDbEntity
  8
0
100
AcDbLine
 10
-13.171385
 20
118.637065
 30
0.0
 11
-13.17139
 21
118.63709399999999
 31
0.0
  0
LINE
  5
1C7
330
17
100
AcDbEntity
  8
0
100
AcDbLine
 10
-13.17139
 20
118.63709399999999
 30
0.0
 11
-10.01502
 21
117.915312
 31
0.0
  0
LINE
  5
1C8
330
17
100
AcDbEntity
  8
0
100
AcDbLine
 10
-10.01502
 20
117.915312
 30
0.0
 11
-10.015017
 21
117.915302
 31
0.0
  0
LINE
  5
1C9
330
17
100
AcDbEntity
  8
0
100
AcDbLine
 10
-10.015017
 20
117.915302
 30
0.0
 11
-9.931852
 21
117.80133799999999
 31
0.0
  0
LINE
  5
1CA
330
17
100
AcDbEntity
  8
0
100
AcDbLine
 10
-9.931852
 20
117.80133799999999
 30
0.0
 11
-9.931862
 21
117.801277
 31
0.0
  0
LINE
  5
1CB
330
17
100
AcDbEntity
  8
0
100
AcDbLine
 10
-9.931862
 20
117.801277
 30
0.0
 11
-5.739812
 21
99.79137700000001
 31
0.0
  0
LINE
  5
1CC
330
17
100
AcDbEntity
  8
0
100
AcDbLine
 10
-5.739812
 20
99.79137700000001
 30
0.0
 11
-5.739815
 21
99.79135
 31
0.0
  0
LINE
  5
1CD
330
17
100
AcDbEntity
  8
0
100
AcDbLine
 10
-5.739815
 20
99.79135
 30
0.0
 11
-5.759733
 21
99.67583300000001
 31
0.0
  0
LINE
  5
1CE
330
17
100
AcDbEntity
  8
0
100
AcDbLine
 10
-5.759733
 20
99.67583300000001
 30
0.0
 11
-5.759728
 21
99.6762
 31
0.0
  0
LINE
  5
1CF
330
17
100
AcDbEntity
  8
0
100
AcDbLine
 10
-14.042378
 20
102.9821
 30
0.0
 11
-14.125542
 21
102.969559
 31
0.0
  0
LINE
  5
1D0
330
17
100
AcDbEntity
  8
0
100
AcDbLine
 10
-14.125542
 20
102.969559
 30
0.0
 11
-14.125555
 21
102.96948499999999
 31
0.0
  0
LINE
  5
1D1
330
17
100
AcDbEntity
  8
0
100
AcDbLine
 10
-14.125555
 20
102.96948499999999
 30
0.0
 11
-14.1256
 21
102.97
 31
0.0
  0
LINE
  5
1D2
330
17
100
AcDbEntity
  8
0
100
AcDbLine
 10
-14.1256
 20
102.97
 30
0.0
 11
-17.24038
 21
104.19502
 31
0.0
  0
LINE
  5
1D3
330
17
100
AcDbEntity
  8
0
100
AcDbLine
 10
-17.24038
 20
104.19502
 30
0.0
 11
-17.240376
 21
104.19493299999999
 31
0.0
  0
LINE
  5
1D4
330
17
100
AcDbEntity
  8
0
100
AcDbLine
 10
-17.240376
 20
104.19493299999999
 30
0.0
 11
-17.383485
 21
104.38418899999999
 31
0.0
  0
LINE
  5
1D5
330
17
100
AcDbEntity
  8
0
100
AcDbLine
 10
-17.383485
 20
104.38418899999999
 30
0.0
 11
-17.383493
 21
104.384197
 31
0.0
  0
LINE
  5
1D6
330
17
100
AcDbEntity
  8
0
100
AcDbLine
 10
-17.383493
 20
104.384197
 30
0.0
 11
-13.911663
 21
116.60029700000001
 31
0.0
  0
LINE
  5
1D7
330
17
100
AcDbEntity
  8
0
100
AcDbLine
 10
-13.911663
 20
116.60029700000001
 30
0.0
 11
-13.911657
 21
116.600289
 31
0.0
  0
LINE
  5
1D8
330
17
100
AcDbEntity
  8
0
100
AcDbLine
 10
-13.911657
 20
116.600289
 30
0.0
 11
-13.828492
 21
116.647895
 31
0.0
  0
LINE
  5
1D9
330
17
100
AcDbEntity
  8
0
100
AcDbLine
 10
-13.828492
 20
116.647895
 30
0.0
 11
-13.8284
 21
116.64699999999999
 31
0.0
  0
LINE
  5
1DA
330
17
100
AcDbEntity
  8
0
100
AcDbLine
 10
-13.8284
 20
116.64699999999999
 30
0.0
 11
-13.746887
 21
116.55936500000001
 31
0.0
  0
LINE
  5
1DB
330
17
100
AcDbEntity
  8
0
100
AcDbLine
 10
-13.746887
 20
116.55936500000001
 30
0.0
 11
-13.746894
 21
116.559449
 31
0.0
  0
LINE
  5
1DC
330
17
100
AcDbEntity
  8
0
100
AcDbLine
 10
-13.746894
 20
116.559449
 30
0.0
 11
-12.061734
 21
110.175859
 31
0.0
  0
LINE
  5
1DD
330
17
100
AcDbEntity
  8
0
100
AcDbLine
 10
-12.061734
 20
110.175859
 30
0.0
 11
-12.0618
 21
110.17599999999999
 31
0.0
  0
LINE
  5
1DE
330
17
100
AcDbEntity
  8
0
100
AcDbLine
 10
-12.0618
 20
110.17599999999999
 30
0.0
 11
-12.624991
 21
108.14003
 31
0.0
  0
LINE
  5
1DF
330
17
100
AcDbEntity
  8
0
100
AcDbLine
 10
-12.624991
 20
108.14003
 30
0.0
 11
-12.625
 21
108.13999999999999
 31
0.0
  0
LINE
  5
1E0
330
17
100
AcDbEntity
  8
0
100
AcDbLine
 10
-12.625
 20
108.13999999999999
 30
0.0
 11
-11.629374
 21
107.807684
 31
0.0
  0
LINE
  5
1E1
330
17
100
AcDbEntity
  8
0
100
AcDbLine
 10
-11.629374
 20
107.807684
 30
0.0
 11
-11.629369
 21
107.807668
 31
0.0
  0
LINE
  5
1E2
330
17
100
AcDbEntity
  8
0
100
AcDbLine
 10
-11.629369
 20
107.807668
 30
0.0
 11
-11.567773
 21
107.73995099999999
 31
0.0
  0
LINE
  5
1E3
330
17
100
AcDbEntity
  8
0
100
AcDbLine
 10
-11.567773
 20
107.73995099999999
 30
0.0
 11
-11.5678
 21
107.74000000000001
 31
0.0
  0
LINE
  5
1E4
330
17
100
AcDbEntity
  8
0
100
AcDbLine
 10
-11.5678
 20
107.74000000000001
 30
0.0
 11
-10.661339
 21
103.78951
 31
0.0
  0
LINE
  5
1E5
330
17
100
AcDbEntity
  8
0
100
AcDbLine
 10
-10.661339
 20
103.78951
 30
0.0
 11
-10.661339
 21
103.789592
 31
0.0
  0
LINE
  5
1E6
330
17
100
AcDbEntity
  8
0
100
AcDbLine
 10
-10.661339
 20
103.789592
 30
0.0
 11
-10.722935
 21
103.717308
 31
0.0
  0
LINE
  5
1E7
330
17
100
AcDbEntity
  8
0
100
AcDbLine
 10
-10.722935
 20
103.717308
 30
0.0
 11
-10.722934
 21
103.717287
 31
0.0
  0
LINE
  5
1E8
330
17
100
AcDbEntity
  8
0
100
AcDbLine
 10
-10.722934
 20
103.717287
 30
0.0
 11
-13.377604
 21
104.706827
 31
0.0
  0
LINE
  5
1E9
330
17
100
AcDbEntity
  8
0
100
AcDbLine
 10
-13.377604
 20
104.706827
 30
0.0
 11
-13.3776
 21
104.707
 31
0.0
  0
LINE
  5
1EA
330
17
100
AcDbEntity
  8
0
100
AcDbLine
 10
-13.3776
 20
104.707
 30
0.0
 11
-14.042418
 21
102.98192
 31
0.0
  0
LINE
  5
1EB
330
17
100
AcDbEntity
  8
0
100
AcDbLine
 10
-14.042418
 20
102.98192
 30
0.0
 11
-14.042378
 21
102.9821
 31
0.0
  0
LINE
  5
1EC
330
17
100
AcDbEntity
  8
0
100
AcDbLine
 10
-15.0
 20
137.55
 30
0.0
 11
-15.0
 21
139.45
 31
0.0
  0
ARC
  5
1ED
330
17
100
AcDbEntity
  8
0
100
AcDbCircle
 10
-15.0
 20
137.0
 30
0.0
 40
0.55
100
AcDbArc
 50
90.0
 51
360.0
  0
ARC
  5
1EE
330
17
100
AcDbEntity
  8
0
100
AcDbCircle
 10
-15.0
 20
140.0
 30
0.0
 40
0.55
100
AcDbArc
 50
0.0
 51
270.0
  0
LINE
  5
1EF
330
17
100
AcDbEntity
  8
0
100
AcDbLine
 10
14.45
 20
137.0
 30
0.0
 11
-14.45
 21
137.0
 31
0.0
  0
LINE
  5
1F0
330
17
100
AcDbEntity
  8
0
100
AcDbLine
 10
-14.45
 20
140.0
 30
0.0
 11
14.45
 21
140.0
 31
0.0
  0
ARC
  5
1F1
330
17
100
AcDbEntity
  8
0
100
AcDbCircle
 10
15.0
 20
137.0
 30
0.0
 40
0.55
100
AcDbArc
 50
180.0
 51
360.0
  0
ARC
  5
1F2
330
17
100
AcDbEntity
  8
0
100
AcDbCircle
 10
15.0
 20
140.0
 30
0.0
 40
0.55
100
AcDbArc
 50
0.0
 51
180.0
  0
ARC
  5
1F3
330
17
100
AcDbEntity
  8
0
100
AcDbCircle
 10
15.0
 20
137.0
 30
0.0
 40
0.55
100
AcDbArc
 50
0.0
 51
90.0
  0
ARC
  5
1F4
330
17
100
AcDbEntity
  8
0
100
AcDbCircle
 10
15.0
 20
140.0
 30
0.0
 40
0.55
100
AcDbArc
 50
270.0
 51
360.0
  0
LINE
  5
1F5
330
17
100
AcDbEntity
  8
0
100
AcDbLine
 10
15.0
 20
139.45
 30
0.0
 11
15.0
 21
137.55
 31
0.0
  0
LINE
  5
1F6
330
17
100
AcDbEntity
  8
0
100
AcDbLine
 10
-19.7188
 20
110.78399999999999
 30
0.0
 11
-17.30419
 21
109.983901
 31
0.0
  0
LINE
  5
1F7
330
17
100
AcDbEntity
  8
0
100
AcDbLine
 10
-19.718781
 20
110.78369
 30
0.0
 11
-19.7188
 21
110.78399999999999
 31
0.0
  0
LINE
  5
1F8
330
17
100
AcDbEntity
  8
0
100
AcDbLine
 10
-20.6975
 20
114.368
 30
0.0
 11
-19.718781
 21
110.78369
 31
0.0
  0
LINE
  5
1F9
330
17
100
AcDbEntity
  8
0
100
AcDbLine
 10
-20.697464
 20
114.367807
 30
0.0
 11
-20.6975
 21
114.368
 31
0.0
  0
LINE
  5
1FA
330
17
100
AcDbEntity
  8
0
100
AcDbLine
 10
-17.362524
 20
113.384352
 30
0.0
 11
-20.697464
 21
114.367807
 31
0.0
  0
LINE
  5
1FB
330
17
100
AcDbEntity
  8
0
100
AcDbLine
 10
-17.36253
 20
113.384312
 30
0.0
 11
-17.362524
 21
113.384352
 31
0.0
  0
LINE
  5
1FC
330
17
100
AcDbEntity
  8
0
100
AcDbLine
 10
-17.154813
 20
113.191947
 30
0.0
 11
-17.36253
 21
113.384312
 31
0.0
  0
LINE
  5
1FD
330
17
100
AcDbEntity
  8
0
100
AcDbLine
 10
-17.1548
 20
113.19200000000001
 30
0.0
 11
-17.154813
 21
113.191947
 31
0.0
  0
LINE
  5
1FE
330
17
100
AcDbEntity
  8
0
100
AcDbLine
 10
-17.15486
 20
110.065584
 30
0.0
 11
-17.1548
 21
113.19200000000001
 31
0.0
  0
LINE
  5
1FF
330
17
100
AcDbEntity
  8
0
100
AcDbLine
 10
-17.154873
 20
110.06551300000001
 30
0.0
 11
-17.15486
 21
110.065584
 31
0.0
  0
LINE
  5
200
330
17
100
AcDbEntity
  8
0
100
AcDbLine
 10
-17.3042
 20
109.98400000000001
 30
0.0
 11
-17.154873
 21
110.06551300000001
 31
0.0
  0
LINE
  5
201
330
17
100
AcDbEntity
  8
0
100
AcDbLine
 10
-17.30419
 20
109.983901
 30
0.0
 11
-17.3042
 21
109.98400000000001
 31
0.0
  0
LINE
  5
202
330
17
100
AcDbEntity
  8
0
100
AcDbLine
 10
-24.79115
 20
107.1463
 30
0.0
 11
-24.934259
 21
107.32176100000001
 31
0.0
  0
LINE
  5
203
330
17
100
AcDbEntity
  8
0
100
AcDbLine
 10
-24.934259
 20
107.32176100000001
 30
0.0
 11
-24.934263
 21
107.32185899999999
 31
0.0
  0
LINE
  5
204
330
17
100
AcDbEntity
  8
0
100
AcDbLine
 10
-24.934263
 20
107.32185899999999
 30
0.0
 11
-24.9342
 21
121.07
 31
0.0
  0
LINE
  5
205
330
17
100
AcDbEntity
  8
0
100
AcDbLine
 10
-24.9342
 20
121.07
 30
0.0
 11
-24.934196
 21
121.069886
 31
0.0
  0
LINE
  5
206
330
17
100
AcDbEntity
  8
0
100
AcDbLine
 10
-24.934196
 20
121.069886
 30
0.0
 11
-24.811004
 21
121.180643
 31
0.0
  0
LINE
  5
207
330
17
100
AcDbEntity
  8
0
100
AcDbLine
 10
-24.811004
 20
121.180643
 30
0.0
 11
-24.81101
 21
121.18059600000001
 31
0.0
  0
LINE
  5
208
330
17
100
AcDbEntity
  8
0
100
AcDbLine
 10
-24.81101
 20
121.18059600000001
 30
0.0
 11
-23.43227
 21
120.86521300000001
 31
0.0
  0
LINE
  5
209
330
17
100
AcDbEntity
  8
0
100
AcDbLine
 10
-23.43227
 20
120.86521300000001
 30
0.0
 11
-23.4323
 21
120.86500000000001
 31
0.0
  0
LINE
  5
20A
330
17
100
AcDbEntity
  8
0
100
AcDbLine
 10
-23.4323
 20
120.86500000000001
 30
0.0
 11
-20.6868
 21
111.10373999999999
 31
0.0
  0
LINE
  5
20B
330
17
100
AcDbEntity
  8
0
100
AcDbLine
 10
-20.6868
 20
111.10373999999999
 30
0.0
 11
-20.6868
 21
111.10400000000001
 31
0.0
  0
LINE
  5
20C
330
17
100
AcDbEntity
  8
0
100
AcDbLine
 10
-20.6868
 20
111.10400000000001
 30
0.0
 11
-21.634748
 21
111.41779500000001
 31
0.0
  0
LINE
  5
20D
330
17
100
AcDbEntity
  8
0
100
AcDbLine
 10
-21.634748
 20
111.41779500000001
 30
0.0
 11
-21.6347
 21
111.418
 31
0.0
  0
LINE
  5
20E
330
17
100
AcDbEntity
  8
0
100
AcDbLine
 10
-21.6347
 20
111.418
 30
0.0
 11
-21.6347
 21
106.049
 31
0.0
  0
LINE
  5
20F
330
17
100
AcDbEntity
  8
0
100
AcDbLine
 10
-21.6347
 20
106.049
 30
0.0
 11
-21.634702
 21
106.049082
 31
0.0
  0
LINE
  5
210
330
17
100
AcDbEntity
  8
0
100
AcDbLine
 10
-21.634702
 20
106.049082
 30
0.0
 11
-21.777811
 21
105.959799
 31
0.0
  0
LINE
  5
211
330
17
100
AcDbEntity
  8
0
100
AcDbLine
 10
-21.777811
 20
105.959799
 30
0.0
 11
-21.777813
 21
105.959836
 31
0.0
  0
LINE
  5
212
330
17
100
AcDbEntity
  8
0
100
AcDbLine
 10
-21.777813
 20
105.959836
 30
0.0
 11
-24.791073
 21
107.14622600000001
 31
0.0
  0
LINE
  5
213
330
17
100
AcDbEntity
  8
0
100
AcDbLine
 10
-24.791073
 20
107.14622600000001
 30
0.0
 11
-24.79115
 21
107.1463
 31
0.0
  0
LINE
  5
214
330
17
100
AcDbEntity
  8
0
100
AcDbLine
 10
-15.688178
 20
115.6517
 30
0.0
 11
-21.483838
 21
117.18893
 31
0.0
  0
LINE
  5
215
330
17
100
AcDbEntity
  8
0
100
AcDbLine
 10
-21.483838
 20
117.18893
 30
0.0
 11
-21.4838
 21
117.189
 31
0.0
  0
LINE
  5
216
330
17
100
AcDbEntity
  8
0
100
AcDbLine
 10
-21.4838
 20
117.189
 30
0.0
 11
-22.464106
 21
120.64392000000001
 31
0.0
  0
LINE
  5
217
330
17
100
AcDbEntity
  8
0
100
AcDbLine
 10
-22.464106
 20
120.64392000000001
 30
0.0
 11
-22.4642
 21
120.644
 31
0.0
  0
LINE
  5
218
330
17
100
AcDbEntity
  8
0
100
AcDbLine
 10
-22.4642
 20
120.644
 30
0.0
 11
-22.277854
 21
120.60113799999999
 31
0.0
  0
LINE
  5
219
330
17
100
AcDbEntity
  8
0
100
AcDbLine
 10
-22.277854
 20
120.60113799999999
 30
0.0
 11
-22.2778
 21
120.601
 31
0.0
  0
LINE
  5
21A
330
17
100
AcDbEntity
  8
0
100
AcDbLine
 10
-22.2778
 20
120.601
 30
0.0
 11
-21.75763
 21
120.48246700000001
 31
0.0
  0
LINE
  5
21B
330
17
100
AcDbEntity
  8
0
100
AcDbLine
 10
-21.75763
 20
120.48246700000001
 30
0.0
 11
-21.7576
 21
120.482
 31
0.0
  0
LINE
  5
21C
330
17
100
AcDbEntity
  8
0
100
AcDbLine
 10
-21.7576
 20
120.482
 30
0.0
 11
-15.74196
 21
119.10458
 31
0.0
  0
LINE
  5
21D
330
17
100
AcDbEntity
  8
0
100
AcDbLine
 10
-15.74196
 20
119.10458
 30
0.0
 11
-15.741967
 21
119.104638
 31
0.0
  0
LINE
  5
21E
330
17
100
AcDbEntity
  8
0
100
AcDbLine
 10
-15.741967
 20
119.104638
 30
0.0
 11
-15.551155
 21
118.92762099999999
 31
0.0
  0
LINE
  5
21F
330
17
100
AcDbEntity
  8
0
100
AcDbLine
 10
-15.551155
 20
118.92762099999999
 30
0.0
 11
-15.551143
 21
118.92757399999999
 31
0.0
  0
LINE
  5
220
330
17
100
AcDbEntity
  8
0
100
AcDbLine
 10
-15.551143
 20
118.92757399999999
 30
0.0
 11
-15.5512
 21
115.74799999999999
 31
0.0
  0
LINE
  5
221
330
17
100
AcDbEntity
  8
0
100
AcDbLine
 10
-15.5512
 20
115.74799999999999
 30
0.0
 11
-15.551212
 21
115.74805
 31
0.0
  0
LINE
  5
222
330
17
100
AcDbEntity
  8
0
100
AcDbLine
 10
-15.551212
 20
115.74805
 30
0.0
 11
-15.6882
 21
115.65109100000001
 31
0.0
  0
LINE
  5
223
330
17
100
AcDbEntity
  8
0
100
AcDbLine
 10
-15.6882
 20
115.65109100000001
 30
0.0
 11
-15.688178
 21
115.6517
 31
0.0
  0
LINE
  5
224
330
17
100
AcDbEntity
  8
0
100
AcDbLine
 10
-32.0
 20
113.55
 30
0.0
 11
-32.0
 21
121.45
 31
0.0
  0
ARC
  5
225
330
17
100
AcDbEntity
  8
0
100
AcDbCircle
 10
-32.0
 20
113.0
 30
0.0
 40
0.55
100
AcDbArc
 50
90.0
 51
360.0
  0
ARC
  5
226
330
17
100
AcDbEntity
  8
0
100
AcDbCircle
 10
-32.0
 20
122.0
 30
0.0
 40
0.55
100
AcDbArc
 50
0.0
 51
270.0
  0
LINE
  5
227
330
17
100
AcDbEntity
  8
0
100
AcDbLine
 10
-29.55
 20
113.0
 30
0.0
 11
-31.45
 21
113.0
 31
0.0
  0
LINE
  5
228
330
17
100
AcDbEntity
  8
0
100
AcDbLine
 10
-31.45
 20
122.0
 30
0.0
 11
-29.55
 21
122.0
 31
0.0
  0
ARC
  5
229
330
17
100
AcDbEntity
  8
0
100
AcDbCircle
 10
-29.0
 20
113.0
 30
0.0
 40
0.55
100
AcDbArc
 50
180.0
 51
360.0
  0
ARC
  5
22A
330
17
100
AcDbEntity
  8
0
100
AcDbCircle
 10
-29.0
 20
122.0
 30
0.0
 40
0.55
100
AcDbArc
 50
0.0
 51
180.0
  0
ARC
  5
22B
330
17
100
AcDbEntity
  8
0
100
AcDbCircle
 10
-29.0
 20
113.0
 30
0.0
 40
0.55
100
AcDbArc
 50
0.0
 51
90.0
  0
ARC
  5
22C
330
17
100
AcDbEntity
  8
0
100
AcDbCircle
 10
-29.0
 20
122.0
 30
0.0
 40
0.55
100
AcDbArc
 50
270.0
 51
360.0
  0
LINE
  5
22D
330
17
100
AcDbEntity
  8
0
100
AcDbLine
 10
-29.0
 20
121.45
 30
0.0
 11
-29.0
 21
113.55
 31
0.0
  0
LINE
  5
22E
330
17
100
AcDbEntity
  8
0
100
AcDbLine
 10
-32.0
 20
136.55
 30
0.0
 11
-32.0
 21
144.45
 31
0.0
  0
ARC
  5
22F
330
17
100
AcDbEntity
  8
0
100
AcDbCircle
 10
-32.0
 20
136.0
 30
0.0
 40
0.55
100
AcDbArc
 50
90.0
 51
360.0
  0
ARC
  5
230
330
17
100
AcDbEntity
  8
0
100
AcDbCircle
 10
-32.0
 20
145.0
 30
0.0
 40
0.55
100
AcDbArc
 50
0.0
 51
270.0
  0
LINE
  5
231
330
17
100
AcDbEntity
  8
0
100
AcDbLine
 10
-29.55
 20
136.0
 30
0.0
 11
-31.45
 21
136.0
 31
0.0
  0
LINE
  5
232
330
17
100
AcDbEntity
  8
0
100
AcDbLine
 10
-31.45
 20
145.0
 30
0.0
 11
-29.55
 21
145.0
 31
0.0
  0
ARC
  5
233
330
17
100
AcDbEntity
  8
0
100
AcDbCircle
 10
-29.0
 20
136.0
 30
0.0
 40
0.55
100
AcDbArc
 50
180.0
 51
360.0
  0
ARC
  5
234
330
17
100
AcDbEntity
  8
0
100
AcDbCircle
 10
-29.0
 20
145.0
 30
0.0
 40
0.55
100
AcDbArc
 50
0.0
 51
180.0
  0
ARC
  5
235
330
17
100
AcDbEntity
  8
0
100
AcDbCircle
 10
-29.0
 20
136.0
 30
0.0
 40
0.55
100
AcDbArc
 50
0.0
 51
90.0
  0
ARC
  5
236
330
17
100
AcDbEntity
  8
0
100
AcDbCircle
 10
-29.0
 20
145.0
 30
0.0
 40
0.55
100
AcDbArc
 50
270.0
 51
360.0
  0
LINE
  5
237
330
17
100
AcDbEntity
  8
0
100
AcDbLine
 10
-29.0
 20
144.45
 30
0.0
 11
-29.0
 21
136.55
 31
0.0
  0
ENDSEC
  0
SECTION
  2
OBJECTS
  0
DICTIONARY
  5
A
330
0
100
AcDbDictionary
281
1
  3
ACAD_COLOR
350
B
  3
ACAD_GROUP
350
C
  3
ACAD_LAYOUT
350
D
  3
ACAD_MATERIAL
350
E
  3
ACAD_MLEADERSTYLE
350
F
  3
ACAD_MLINESTYLE
350
10
  3
ACAD_PLOTSETTINGS
350
11
  3
ACAD_PLOTSTYLENAME
350
12
  3
ACAD_SCALELIST
350
14
  3
ACAD_TABLESTYLE
350
15
  3
ACAD_VISUALSTYLE
350
16
  3
EZDXF_META
350
2D
  0
DICTIONARY
  5
B
330
A
100
AcDbDictionary
281
1
  0
DICTIONARY
  5
C
330
A
100
AcDbDictionary
281
1
  0
DICTIONARY
  5
D
330
A
100
AcDbDictionary
281
1
  3
Model
350
1A
  3
Layout1
350
1E
  0
DICTIONARY
  5
E
330
A
100
AcDbDictionary
281
1
  3
ByBlock
350
1F
  3
ByLayer
350
20
  3
Global
350
21
  0
DICTIONARY
  5
F
330
A
100
AcDbDictionary
281
1
  3
Standard
350
2C
  0
DICTIONARY
  5
10
330
A
100
AcDbDictionary
281
1
  3
Standard
350
22
  0
DICTIONARY
  5
11
330
A
100
AcDbDictionary
281
1
  0
ACDBDICTIONARYWDFLT
  5
12
330
A
100
AcDbDictionary
281
1
  3
Normal
350
13
100
AcDbDictionaryWithDefault
340
13
  0
ACDBPLACEHOLDER
  5
13
330
12
  0
DICTIONARY
  5
14
330
A
100
AcDbDictionary
281
1
  0
DICTIONARY
  5
15
330
A
100
AcDbDictionary
281
1
  0
DICTIONARY
  5
16
330
A
100
AcDbDictionary
281
1
  0
LAYOUT
  5
1A
330
D
100
AcDbPlotSettings
  1

  2
Adobe PDF
  4
A3
  6

 40
7.5
 41
20.0
 42
7.5
 43
20.0
 44
420.0
 45
297.0
 46
0.0
 47
0.0
 48
0.0
 49
0.0
140
0.0
141
0.0
142
1.0
143
1.0
 70
1024
 72
1
 73
1
 74
5
  7

 75
16
 76
0
 77
2
 78
300
147
1.0
148
0.0
149
0.0
100
AcDbLayout
  1
Model
 70
1
 71
0
 10
0.0
 20
0.0
 11
420.0
 21
297.0
 12
0.0
 22
0.0
 32
0.0
 14
1e+20
 24
1e+20
 34
1e+20
 15
-1e+20
 25
-1e+20
 35
-1e+20
146
0.0
 13
0.0
 23
0.0
 33
0.0
 16
1.0
 26
0.0
 36
0.0
 17
0.0
 27
1.0
 37
0.0
 76
1
330
17
  0
LAYOUT
  5
1E
330
D
100
AcDbPlotSettings
  1

  2
Adobe PDF
  4
A3
  6

 40
7.5
 41
20.0
 42
7.5
 43
20.0
 44
420.0
 45
297.0
 46
0.0
 47
0.0
 48
0.0
 49
0.0
140
0.0
141
0.0
142
1.0
143
1.0
 70
0
 72
1
 73
1
 74
5
  7

 75
16
 76
0
 77
2
 78
300
147
1.0
148
0.0
149
0.0
100
AcDbLayout
  1
Layout1
 70
1
 71
1
 10
0.0
 20
0.0
 11
420.0
 21
297.0
 12
0.0
 22
0.0
 32
0.0
 14
1e+20
 24
1e+20
 34
1e+20
 15
-1e+20
 25
-1e+20
 35
-1e+20
146
0.0
 13
0.0
 23
0.0
 33
0.0
 16
1.0
 26
0.0
 36
0.0
 17
0.0
 27
1.0
 37
0.0
 76
1
330
1B
  0
MATERIAL
  5
1F
102
{ACAD_REACTORS
330
E
102
}
330
E
100
AcDbMaterial
  1
ByBlock
  2

 70
0
 40
1.0
 71
1
 41
1.0
 91
-1023410177
 42
1.0
 72
1
  3

 73
1
 74
1
 75
1
 44
0.5
 73
0
 45
1.0
 46
1.0
 77
1
  4

 78
1
 79
1
170
1
 48
1.0
171
1
  6

172
1
173
1
174
1
140
1.0
141
1.0
175
1
  7

176
1
177
1
178
1
143
1.0
179
1
  8

270
1
271
1
272
1
145
1.0
146
1.0
273
1
  9

274
1
275
1
276
1
 42
1.0
 72
1
  3

 73
1
 74
1
 75
1
 94
63
  0
MATERIAL
  5
20
102
{ACAD_REACTORS
330
E
102
}
330
E
100
AcDbMaterial
  1
ByLayer
  2

 70
0
 40
1.0
 71
1
 41
1.0
 91
-1023410177
 42
1.0
 72
1
  3

 73
1
 74
1
 75
1
 44
0.5
 73
0
 45
1.0
 46
1.0
 77
1
  4

 78
1
 79
1
170
1
 48
1.0
171
1
  6

172
1
173
1
174
1
140
1.0
141
1.0
175
1
  7

176
1
177
1
178
1
143
1.0
179
1
  8

270
1
271
1
272
1
145
1.0
146
1.0
273
1
  9

274
1
275
1
276
1
 42
1.0
 72
1
  3

 73
1
 74
1
 75
1
 94
63
  0
MATERIAL
  5
21
102
{ACAD_REACTORS
330
E
102
}
330
E
100
AcDbMaterial
  1
Global
  2

 70
0
 40
1.0
 71
1
 41
1.0
 91
-1023410177
 42
1.0
 72
1
  3

 73
1
 74
1
 75
1
 44
0.5
 73
0
 45
1.0
 46
1.0
 77
1
  4

 78
1
 79
1
170
1
 48
1.0
171
1
  6

172
1
173
1
174
1
140
1.0
141
1.0
175
1
  7

176
1
177
1
178
1
143
1.0
179
1
  8

270
1
271
1
272
1
145
1.0
146
1.0
273
1
  9

274
1
275
1
276
1
 42
1.0
 72
1
  3

 73
1
 74
1
 75
1
 94
63
  0
MLINESTYLE
  5
22
102
{ACAD_REACTORS
330
10
102
}
330
10
100
AcDbMlineStyle
  2
Standard
 70
0
  3

 62
256
 51
90.0
 52
90.0
 71
2
 49
0.5
 62
256
  6
BYLAYER
 49
-0.5
 62
256
  6
BYLAYER
  0
MLEADERSTYLE
  5
2C
102
{ACAD_REACTORS
330
F
102
}
330
F
100
AcDbMLeaderStyle
179
2
170
2
171
1
172
0
 90
2
 40
0.0
 41
0.0
173
1
 91
-1056964608
 92
-2
290
1
 42
2.0
291
1
 43
8.0
  3
Standard
 44
4.0
300

342
29
174
1
175
1
176
0
178
1
 93
-1056964608
 45
4.0
292
0
297
0
 46
4.0
 94
-1056964608
 47
1.0
 49
1.0
140
1.0
294
1
141
0.0
177
0
142
1.0
295
0
296
0
143
3.75
271
0
272
9
273
9
  0
DICTIONARY
  5
2D
330
A
100
AcDbDictionary
280
1
281
1
  3
CREATED_BY_EZDXF
350
2E
  3
WRITTEN_BY_EZDXF
350
23A
  0
DICTIONARYVAR
  5
2E
330
2D
100
DictionaryVariables
280
0
  1
0.17.2 @ 2023-12-21T14:15:26.725640+00:00
  0
DICTIONARYVAR
  5
23A
330
2D
100
DictionaryVariables
280
0
  1
0.17.2 @ 2023-12-21T14:15:26.855567+00:00
  0
ENDSEC
  0
EOF
