  0
SECTION
  2
HEADER
  9
$ACADVER
  1
AC1027
  9
$ACADMAINTVER
 70
105
  9
$DWGCODEPAGE
  3
ANSI_1252
  9
$LASTSAVEDBY
  1
ezdxf
  9
$REQUIREDVERSIONS
160
0
  9
$INSBASE
 10
0.0
 20
0.0
 30
0.0
  9
$EXTMIN
 10
1e+20
 20
1e+20
 30
1e+20
  9
$EXTMAX
 10
-1e+20
 20
-1e+20
 30
-1e+20
  9
$LIMMIN
 10
0.0
 20
0.0
  9
$LIMMAX
 10
420.0
 20
297.0
  9
$ORTHOMODE
 70
0
  9
$REGENMODE
 70
1
  9
$FILLMODE
 70
1
  9
$QTEXTMODE
 70
0
  9
$MIRRTEXT
 70
1
  9
$LTSCALE
 40
1.0
  9
$ATTMODE
 70
1
  9
$TEXTSIZE
 40
2.5
  9
$TRACEWID
 40
1.0
  9
$TEXTSTYLE
  7
Standard
  9
$CLAYER
  8
0
  9
$CELTYPE
  6
ByLayer
  9
$CECOLOR
 62
256
  9
$CELTSCALE
 40
1.0
  9
$DISPSILH
 70
0
  9
$DIMSCALE
 40
1.0
  9
$DIMASZ
 40
2.5
  9
$DIMEXO
 40
0.625
  9
$DIMDLI
 40
3.75
  9
$DIMRND
 40
0.0
  9
$DIMDLE
 40
0.0
  9
$DIMEXE
 40
1.25
  9
$DIMTP
 40
0.0
  9
$DIMTM
 40
0.0
  9
$DIMTXT
 40
2.5
  9
$DIMCEN
 40
2.5
  9
$DIMTSZ
 40
0.0
  9
$DIMTOL
 70
0
  9
$DIMLIM
 70
0
  9
$DIMTIH
 70
0
  9
$DIMTOH
 70
0
  9
$DIMSE1
 70
0
  9
$DIMSE2
 70
0
  9
$DIMTAD
 70
1
  9
$DIMZIN
 70
8
  9
$DIMBLK
  1

  9
$DIMASO
 70
1
  9
$DIMSHO
 70
1
  9
$DIMPOST
  1

  9
$DIMAPOST
  1

  9
$DIMALT
 70
0
  9
$DIMALTD
 70
3
  9
$DIMALTF
 40
0.03937007874
  9
$DIMLFAC
 40
1.0
  9
$DIMTOFL
 70
1
  9
$DIMTVP
 40
0.0
  9
$DIMTIX
 70
0
  9
$DIMSOXD
 70
0
  9
$DIMSAH
 70
0
  9
$DIMBLK1
  1

  9
$DIMBLK2
  1

  9
$DIMSTYLE
  2
ISO-25
  9
$DIMCLRD
 70
0
  9
$DIMCLRE
 70
0
  9
$DIMCLRT
 70
0
  9
$DIMTFAC
 40
1.0
  9
$DIMGAP
 40
0.625
  9
$DIMJUST
 70
0
  9
$DIMSD1
 70
0
  9
$DIMSD2
 70
0
  9
$DIMTOLJ
 70
0
  9
$DIMTZIN
 70
8
  9
$DIMALTZ
 70
0
  9
$DIMALTTZ
 70
0
  9
$DIMUPT
 70
0
  9
$DIMDEC
 70
2
  9
$DIMTDEC
 70
2
  9
$DIMALTU
 70
2
  9
$DIMALTTD
 70
3
  9
$DIMTXSTY
  7
Standard
  9
$DIMAUNIT
 70
0
  9
$DIMADEC
 70
0
  9
$DIMALTRND
 40
0.0
  9
$DIMAZIN
 70
0
  9
$DIMDSEP
 70
44
  9
$DIMATFIT
 70
3
  9
$DIMFRAC
 70
0
  9
$DIMLDRBLK
  1

  9
$DIMLUNIT
 70
2
  9
$DIMLWD
 70
-2
  9
$DIMLWE
 70
-2
  9
$DIMTMOVE
 70
0
  9
$DIMFXL
 40
1.0
  9
$DIMFXLON
 70
0
  9
$DIMJOGANG
 40
0.785398163397
  9
$DIMTFILL
 70
0
  9
$DIMTFILLCLR
 70
0
  9
$DIMARCSYM
 70
0
  9
$DIMLTYPE
  6

  9
$DIMLTEX1
  6

  9
$DIMLTEX2
  6

  9
$DIMTXTDIRECTION
 70
0
  9
$LUNITS
 70
2
  9
$LUPREC
 70
4
  9
$SKETCHINC
 40
1.0
  9
$FILLETRAD
 40
10.0
  9
$AUNITS
 70
0
  9
$AUPREC
 70
2
  9
$MENU
  1
.
  9
$ELEVATION
 40
0.0
  9
$PELEVATION
 40
0.0
  9
$THICKNESS
 40
0.0
  9
$LIMCHECK
 70
0
  9
$CHAMFERA
 40
0.0
  9
$CHAMFERB
 40
0.0
  9
$CHAMFERC
 40
0.0
  9
$CHAMFERD
 40
0.0
  9
$SKPOLY
 70
0
  9
$TDCREATE
 40
2460301.001388889
  9
$TDUCREATE
 40
2458532.153996898
  9
$TDUPDATE
 40
2460301.001388889
  9
$TDUUPDATE
 40
2458532.1544311
  9
$TDINDWG
 40
0.0
  9
$TDUSRTIMER
 40
0.0
  9
$USRTIMER
 70
1
  9
$ANGBASE
 50
0.0
  9
$ANGDIR
 70
0
  9
$PDMODE
 70
0
  9
$PDSIZE
 40
0.0
  9
$PLINEWID
 40
0.0
  9
$SPLFRAME
 70
0
  9
$SPLINETYPE
 70
6
  9
$SPLINESEGS
 70
8
  9
$HANDSEED
  5
1DA
  9
$SURFTAB1
 70
6
  9
$SURFTAB2
 70
6
  9
$SURFTYPE
 70
6
  9
$SURFU
 70
6
  9
$SURFV
 70
6
  9
$UCSBASE
  2

  9
$UCSNAME
  2

  9
$UCSORG
 10
0.0
 20
0.0
 30
0.0
  9
$UCSXDIR
 10
1.0
 20
0.0
 30
0.0
  9
$UCSYDIR
 10
0.0
 20
1.0
 30
0.0
  9
$UCSORTHOREF
  2

  9
$UCSORTHOVIEW
 70
0
  9
$UCSORGTOP
 10
0.0
 20
0.0
 30
0.0
  9
$UCSORGBOTTOM
 10
0.0
 20
0.0
 30
0.0
  9
$UCSORGLEFT
 10
0.0
 20
0.0
 30
0.0
  9
$UCSORGRIGHT
 10
0.0
 20
0.0
 30
0.0
  9
$UCSORGFRONT
 10
0.0
 20
0.0
 30
0.0
  9
$UCSORGBACK
 10
0.0
 20
0.0
 30
0.0
  9
$PUCSBASE
  2

  9
$PUCSNAME
  2

  9
$PUCSORG
 10
0.0
 20
0.0
 30
0.0
  9
$PUCSXDIR
 10
1.0
 20
0.0
 30
0.0
  9
$PUCSYDIR
 10
0.0
 20
1.0
 30
0.0
  9
$PUCSORTHOREF
  2

  9
$PUCSORTHOVIEW
 70
0
  9
$PUCSORGTOP
 10
0.0
 20
0.0
 30
0.0
  9
$PUCSORGBOTTOM
 10
0.0
 20
0.0
 30
0.0
  9
$PUCSORGLEFT
 10
0.0
 20
0.0
 30
0.0
  9
$PUCSORGRIGHT
 10
0.0
 20
0.0
 30
0.0
  9
$PUCSORGFRONT
 10
0.0
 20
0.0
 30
0.0
  9
$PUCSORGBACK
 10
0.0
 20
0.0
 30
0.0
  9
$USERI1
 70
0
  9
$USERI2
 70
0
  9
$USERI3
 70
0
  9
$USERI4
 70
0
  9
$USERI5
 70
0
  9
$USERR1
 40
0.0
  9
$USERR2
 40
0.0
  9
$USERR3
 40
0.0
  9
$USERR4
 40
0.0
  9
$USERR5
 40
0.0
  9
$WORLDVIEW
 70
1
  9
$SHADEDGE
 70
3
  9
$SHADEDIF
 70
70
  9
$TILEMODE
 70
1
  9
$MAXACTVP
 70
64
  9
$PINSBASE
 10
0.0
 20
0.0
 30
0.0
  9
$PLIMCHECK
 70
0
  9
$PEXTMIN
 10
1e+20
 20
1e+20
 30
1e+20
  9
$PEXTMAX
 10
-1e+20
 20
-1e+20
 30
-1e+20
  9
$PLIMMIN
 10
0.0
 20
0.0
  9
$PLIMMAX
 10
420.0
 20
297.0
  9
$UNITMODE
 70
0
  9
$VISRETAIN
 70
1
  9
$PLINEGEN
 70
0
  9
$PSLTSCALE
 70
1
  9
$TREEDEPTH
 70
3020
  9
$CMLSTYLE
  2
Standard
  9
$CMLJUST
 70
0
  9
$CMLSCALE
 40
20.0
  9
$PROXYGRAPHICS
 70
1
  9
$MEASUREMENT
 70
1
  9
$CELWEIGHT
370
-1
  9
$ENDCAPS
280
0
  9
$JOINSTYLE
280
0
  9
$LWDISPLAY
290
0
  9
$INSUNITS
 70
4
  9
$HYPERLINKBASE
  1

  9
$STYLESHEET
  1

  9
$XEDIT
290
1
  9
$CEPSNTYPE
380
0
  9
$PSTYLEMODE
290
1
  9
$FINGERPRINTGUID
  2
{6FEECA78-2DD4-47F2-8E94-D609EF00FD58}
  9
$VERSIONGUID
  2
{4AEB031B-17F6-4CB0-80A8-7A0A698D090A}
  9
$EXTNAMES
290
1
  9
$PSVPSCALE
 40
0.0
  9
$OLESTARTUP
290
0
  9
$SORTENTS
280
127
  9
$INDEXCTL
280
0
  9
$HIDETEXT
280
1
  9
$XCLIPFRAME
280
0
  9
$HALOGAP
280
0
  9
$OBSCOLOR
 70
257
  9
$OBSLTYPE
280
0
  9
$INTERSECTIONDISPLAY
280
0
  9
$INTERSECTIONCOLOR
 70
257
  9
$DIMASSOC
280
2
  9
$PROJECTNAME
  1

  9
$CAMERADISPLAY
290
0
  9
$LENSLENGTH
 40
50.0
  9
$CAMERAHEIGHT
 40
0.0
  9
$STEPSPERSEC
 40
24.0
  9
$STEPSIZE
 40
100.0
  9
$3DDWFPREC
 40
2.0
  9
$PSOLWIDTH
 40
0.005
  9
$PSOLHEIGHT
 40
0.08
  9
$LOFTANG1
 40
1.570796326795
  9
$LOFTANG2
 40
1.570796326795
  9
$LOFTMAG1
 40
0.0
  9
$LOFTMAG2
 40
0.0
  9
$LOFTPARAM
 70
7
  9
$LOFTNORMALS
280
1
  9
$LATITUDE
 40
37.795
  9
$LONGITUDE
 40
-122.394
  9
$NORTHDIRECTION
 40
0.0
  9
$TIMEZONE
 70
-8000
  9
$LIGHTGLYPHDISPLAY
280
1
  9
$TILEMODELIGHTSYNCH
280
1
  9
$CMATERIAL
347
20
  9
$SOLIDHIST
280
0
  9
$SHOWHIST
280
1
  9
$DWFFRAME
280
2
  9
$DGNFRAME
280
2
  9
$REALWORLDSCALE
290
1
  9
$INTERFERECOLOR
 62
256
  9
$CSHADOW
280
0
  9
$SHADOWPLANELOCATION
 40
0.0
  0
ENDSEC
  0
SECTION
  2
CLASSES
  0
CLASS
  1
ACDBDICTIONARYWDFLT
  2
AcDbDictionaryWithDefault
  3
ObjectDBX Classes
 90
0
 91
0
280
0
281
0
  0
CLASS
  1
SUN
  2
AcDbSun
  3
SCENEOE
 90
1153
 91
0
280
0
281
0
  0
CLASS
  1
VISUALSTYLE
  2
AcDbVisualStyle
  3
ObjectDBX Classes
 90
4095
 91
0
280
0
281
0
  0
CLASS
  1
MATERIAL
  2
AcDbMaterial
  3
ObjectDBX Classes
 90
1153
 91
0
280
0
281
0
  0
CLASS
  1
SCALE
  2
AcDbScale
  3
ObjectDBX Classes
 90
1153
 91
0
280
0
281
0
  0
CLASS
  1
TABLESTYLE
  2
AcDbTableStyle
  3
ObjectDBX Classes
 90
4095
 91
0
280
0
281
0
  0
CLASS
  1
MLEADERSTYLE
  2
AcDbMLeaderStyle
  3
ACDB_MLEADERSTYLE_CLASS
 90
4095
 91
0
280
0
281
0
  0
CLASS
  1
DICTIONARYVAR
  2
AcDbDictionaryVar
  3
ObjectDBX Classes
 90
0
 91
0
280
0
281
0
  0
CLASS
  1
CELLSTYLEMAP
  2
AcDbCellStyleMap
  3
ObjectDBX Classes
 90
1152
 91
0
280
0
281
0
  0
CLASS
  1
MENTALRAYRENDERSETTINGS
  2
AcDbMentalRayRenderSettings
  3
SCENEOE
 90
1024
 91
0
280
0
281
0
  0
CLASS
  1
ACDBDETAILVIEWSTYLE
  2
AcDbDetailViewStyle
  3
ObjectDBX Classes
 90
1025
 91
0
280
0
281
0
  0
CLASS
  1
ACDBSECTIONVIEWSTYLE
  2
AcDbSectionViewStyle
  3
ObjectDBX Classes
 90
1025
 91
0
280
0
281
0
  0
CLASS
  1
RASTERVARIABLES
  2
AcDbRasterVariables
  3
ISM
 90
0
 91
0
280
0
281
0
  0
CLASS
  1
ACDBPLACEHOLDER
  2
AcDbPlaceHolder
  3
ObjectDBX Classes
 90
0
 91
0
280
0
281
0
  0
CLASS
  1
LAYOUT
  2
AcDbLayout
  3
ObjectDBX Classes
 90
0
 91
0
280
0
281
0
  0
ENDSEC
  0
SECTION
  2
TABLES
  0
TABLE
  2
VPORT
  5
8
330
0
100
AcDbSymbolTable
 70
1
  0
VPORT
  5
23
330
8
100
AcDbSymbolTableRecord
100
AcDbViewportTableRecord
  2
*Active
 70
0
 10
0.0
 20
0.0
 11
1.0
 21
1.0
 12
0.0
 22
0.0
 13
0.0
 23
0.0
 14
0.5
 24
0.5
 15
0.5
 25
0.5
 16
0.0
 26
0.0
 36
1.0
 17
0.0
 27
0.0
 37
0.0
 40
1000.0
 41
1.34
 42
50.0
 43
0.0
 44
0.0
 50
0.0
 51
0.0
 71
0
 72
1000
 73
1
 74
3
 75
0
 76
0
 77
0
 78
0
281
0
 65
0
146
0.0
  0
ENDTAB
  0
TABLE
  2
LTYPE
  5
2
330
0
100
AcDbSymbolTable
 70
3
  0
LTYPE
  5
24
330
2
100
AcDbSymbolTableRecord
100
AcDbLinetypeTableRecord
  2
ByBlock
 70
0
  3

 72
65
 73
0
 40
0.0
  0
LTYPE
  5
25
330
2
100
AcDbSymbolTableRecord
100
AcDbLinetypeTableRecord
  2
ByLayer
 70
0
  3

 72
65
 73
0
 40
0.0
  0
LTYPE
  5
26
330
2
100
AcDbSymbolTableRecord
100
AcDbLinetypeTableRecord
  2
Continuous
 70
0
  3

 72
65
 73
0
 40
0.0
  0
ENDTAB
  0
TABLE
  2
LAYER
  5
1
330
0
100
AcDbSymbolTable
 70
2
  0
LAYER
  5
27
330
1
100
AcDbSymbolTableRecord
100
AcDbLayerTableRecord
  2
0
 70
0
 62
7
  6
Continuous
370
-3
390
13
347
21
  0
LAYER
  5
28
330
1
100
AcDbSymbolTableRecord
100
AcDbLayerTableRecord
  2
Defpoints
 70
0
 62
7
  6
Continuous
290
0
370
-3
390
13
347
21
  0
ENDTAB
  0
TABLE
  2
STYLE
  5
5
330
0
100
AcDbSymbolTable
 70
1
  0
STYLE
  5
29
330
5
100
AcDbSymbolTableRecord
100
AcDbTextStyleTableRecord
  2
Standard
 70
0
 40
0.0
 41
1.0
 50
0.0
 71
0
 42
2.5
  3
txt
  4

  0
ENDTAB
  0
TABLE
  2
VIEW
  5
7
330
0
100
AcDbSymbolTable
 70
0
  0
ENDTAB
  0
TABLE
  2
UCS
  5
6
330
0
100
AcDbSymbolTable
 70
0
  0
ENDTAB
  0
TABLE
  2
APPID
  5
3
330
0
100
AcDbSymbolTable
 70
3
  0
APPID
  5
2A
330
3
100
AcDbSymbolTableRecord
100
AcDbRegAppTableRecord
  2
ACAD
 70
0
  0
APPID
  5
1D7
330
3
100
AcDbSymbolTableRecord
100
AcDbRegAppTableRecord
  2
HATCHBACKGROUNDCOLOR
 70
0
  0
APPID
  5
1D8
330
3
100
AcDbSymbolTableRecord
100
AcDbRegAppTableRecord
  2
EZDXF
 70
0
  0
ENDTAB
  0
TABLE
  2
DIMSTYLE
  5
4
330
0
100
AcDbSymbolTable
 70
1
100
AcDbDimStyleTable
  0
DIMSTYLE
105
2B
330
4
100
AcDbSymbolTableRecord
100
AcDbDimStyleTableRecord
  2
Standard
 70
0
 40
1.0
 41
2.5
 42
0.625
 43
3.75
 44
1.25
 45
0.0
 46
0.0
 47
0.0
 48
0.0
 49
2.5
140
2.5
141
2.5
142
0.0
143
0.03937007874
144
1.0
145
0.0
146
1.0
147
0.625
148
0.0
 69
0
 70
0
 71
0
 72
0
 73
0
 74
0
 75
0
 76
0
 77
1
 78
8
 79
3
170
0
171
3
172
1
173
0
174
0
175
0
176
0
177
0
178
0
179
2
271
2
272
2
273
2
274
3
275
0
276
0
277
2
278
44
279
0
280
0
281
0
282
0
283
0
284
8
285
0
286
0
288
0
289
3
290
0
371
-2
372
-2
  0
ENDTAB
  0
TABLE
  2
BLOCK_RECORD
  5
9
330
0
100
AcDbSymbolTable
 70
2
  0
BLOCK_RECORD
  5
17
330
9
100
AcDbSymbolTableRecord
100
AcDbBlockTableRecord
  2
*Model_Space
340
1A
 70
0
280
1
281
0
  0
BLOCK_RECORD
  5
1B
330
9
100
AcDbSymbolTableRecord
100
AcDbBlockTableRecord
  2
*Paper_Space
340
1E
 70
0
280
1
281
0
  0
ENDTAB
  0
ENDSEC
  0
SECTION
  2
BLOCKS
  0
BLOCK
  5
18
330
17
100
AcDbEntity
  8
0
100
AcDbBlockBegin
  2
*Model_Space
 70
0
 10
0.0
 20
0.0
 30
0.0
  3
*Model_Space
  1

  0
ENDBLK
  5
19
330
17
100
AcDbEntity
  8
0
100
AcDbBlockEnd
  0
BLOCK
  5
1C
330
1B
100
AcDbEntity
  8
0
100
AcDbBlockBegin
  2
*Paper_Space
 70
0
 10
0.0
 20
0.0
 30
0.0
  3
*Paper_Space
  1

  0
ENDBLK
  5
1D
330
1B
100
AcDbEntity
  8
0
100
AcDbBlockEnd
  0
ENDSEC
  0
SECTION
  2
ENTITIES
  0
LINE
  5
2F
330
17
100
AcDbEntity
  8
0
100
AcDbLine
 10
-35.0
 20
-4.0
 30
0.0
 11
-35.0
 21
152.0
 31
0.0
  0
ARC
  5
30
330
17
100
AcDbEntity
  8
0
100
AcDbCircle
 10
-31.0
 20
-4.0
 30
0.0
 40
4.0
100
AcDbArc
 50
-180.0
 51
-90.0
  0
ARC
  5
31
330
17
100
AcDbEntity
  8
0
100
AcDbCircle
 10
-31.0
 20
152.0
 30
0.0
 40
4.0
100
AcDbArc
 50
90.0
 51
180.0
  0
LINE
  5
32
330
17
100
AcDbEntity
  8
0
100
AcDbLine
 10
31.0
 20
-8.0
 30
0.0
 11
-31.0
 21
-8.0
 31
0.0
  0
LINE
  5
33
330
17
100
AcDbEntity
  8
0
100
AcDbLine
 10
-31.0
 20
156.0
 30
0.0
 11
31.0
 21
156.0
 31
0.0
  0
ARC
  5
34
330
17
100
AcDbEntity
  8
0
100
AcDbCircle
 10
31.0
 20
-4.0
 30
0.0
 40
4.0
100
AcDbArc
 50
-90.0
 51
0.0
  0
ARC
  5
35
330
17
100
AcDbEntity
  8
0
100
AcDbCircle
 10
31.0
 20
152.0
 30
0.0
 40
4.0
100
AcDbArc
 50
0.0
 51
90.0
  0
LINE
  5
36
330
17
100
AcDbEntity
  8
0
100
AcDbLine
 10
35.0
 20
152.0
 30
0.0
 11
35.0
 21
-4.0
 31
0.0
  0
LINE
  5
37
330
17
100
AcDbEntity
  8
0
100
AcDbLine
 10
29.0
 20
-1.45
 30
0.0
 11
29.0
 21
6.449999999999999
 31
0.0
  0
ARC
  5
38
330
17
100
AcDbEntity
  8
0
100
AcDbCircle
 10
29.0
 20
-2.0
 30
0.0
 40
0.55
100
AcDbArc
 50
90.0
 51
360.0
  0
ARC
  5
39
330
17
100
AcDbEntity
  8
0
100
AcDbCircle
 10
29.0
 20
7.0
 30
0.0
 40
0.55
100
AcDbArc
 50
0.0
 51
270.0
  0
LINE
  5
3A
330
17
100
AcDbEntity
  8
0
100
AcDbLine
 10
31.45
 20
-2.0
 30
0.0
 11
29.55
 21
-2.0
 31
0.0
  0
LINE
  5
3B
330
17
100
AcDbEntity
  8
0
100
AcDbLine
 10
29.55
 20
7.0
 30
0.0
 11
31.45
 21
7.0
 31
0.0
  0
ARC
  5
3C
330
17
100
AcDbEntity
  8
0
100
AcDbCircle
 10
32.0
 20
-2.0
 30
0.0
 40
0.55
100
AcDbArc
 50
180.0
 51
360.0
  0
ARC
  5
3D
330
17
100
AcDbEntity
  8
0
100
AcDbCircle
 10
32.0
 20
7.0
 30
0.0
 40
0.55
100
AcDbArc
 50
0.0
 51
180.0
  0
ARC
  5
3E
330
17
100
AcDbEntity
  8
0
100
AcDbCircle
 10
32.0
 20
-2.0
 30
0.0
 40
0.55
100
AcDbArc
 50
0.0
 51
90.0
  0
ARC
  5
3F
330
17
100
AcDbEntity
  8
0
100
AcDbCircle
 10
32.0
 20
7.0
 30
0.0
 40
0.55
100
AcDbArc
 50
270.0
 51
360.0
  0
LINE
  5
40
330
17
100
AcDbEntity
  8
0
100
AcDbLine
 10
32.0
 20
6.45
 30
0.0
 11
32.0
 21
-1.4499999999999993
 31
0.0
  0
CIRCLE
  5
41
330
17
100
AcDbEntity
  8
0
100
AcDbCircle
 10
26.0
 20
14.0
 30
0.0
 40
2.6
  0
LINE
  5
42
330
17
100
AcDbEntity
  8
0
100
AcDbLine
 10
14.0
 20
0.55
 30
0.0
 11
14.0
 21
2.45
 31
0.0
  0
ARC
  5
43
330
17
100
AcDbEntity
  8
0
100
AcDbCircle
 10
14.0
 20
0.0
 30
0.0
 40
0.55
100
AcDbArc
 50
90.0
 51
360.0
  0
ARC
  5
44
330
17
100
AcDbEntity
  8
0
100
AcDbCircle
 10
14.0
 20
3.0
 30
0.0
 40
0.55
100
AcDbArc
 50
0.0
 51
270.0
  0
LINE
  5
45
330
17
100
AcDbEntity
  8
0
100
AcDbLine
 10
21.45
 20
0.0
 30
0.0
 11
14.55
 21
0.0
 31
0.0
  0
LINE
  5
46
330
17
100
AcDbEntity
  8
0
100
AcDbLine
 10
14.55
 20
3.0
 30
0.0
 11
21.45
 21
3.0
 31
0.0
  0
ARC
  5
47
330
17
100
AcDbEntity
  8
0
100
AcDbCircle
 10
22.0
 20
0.0
 30
0.0
 40
0.55
100
AcDbArc
 50
180.0
 51
360.0
  0
ARC
  5
48
330
17
100
AcDbEntity
  8
0
100
AcDbCircle
 10
22.0
 20
3.0
 30
0.0
 40
0.55
100
AcDbArc
 50
0.0
 51
180.0
  0
ARC
  5
49
330
17
100
AcDbEntity
  8
0
100
AcDbCircle
 10
22.0
 20
0.0
 30
0.0
 40
0.55
100
AcDbArc
 50
0.0
 51
90.0
  0
ARC
  5
4A
330
17
100
AcDbEntity
  8
0
100
AcDbCircle
 10
22.0
 20
3.0
 30
0.0
 40
0.55
100
AcDbArc
 50
270.0
 51
360.0
  0
LINE
  5
4B
330
17
100
AcDbEntity
  8
0
100
AcDbLine
 10
22.0
 20
2.45
 30
0.0
 11
22.0
 21
0.5499999999999998
 31
0.0
  0
LINE
  5
4C
330
17
100
AcDbEntity
  8
0
100
AcDbLine
 10
29.0
 20
21.55
 30
0.0
 11
29.0
 21
29.45
 31
0.0
  0
ARC
  5
4D
330
17
100
AcDbEntity
  8
0
100
AcDbCircle
 10
29.0
 20
21.0
 30
0.0
 40
0.55
100
AcDbArc
 50
90.0
 51
360.0
  0
ARC
  5
4E
330
17
100
AcDbEntity
  8
0
100
AcDbCircle
 10
29.0
 20
30.0
 30
0.0
 40
0.55
100
AcDbArc
 50
0.0
 51
270.0
  0
LINE
  5
4F
330
17
100
AcDbEntity
  8
0
100
AcDbLine
 10
31.45
 20
21.0
 30
0.0
 11
29.55
 21
21.0
 31
0.0
  0
LINE
  5
50
330
17
100
AcDbEntity
  8
0
100
AcDbLine
 10
29.55
 20
30.0
 30
0.0
 11
31.45
 21
30.0
 31
0.0
  0
ARC
  5
51
330
17
100
AcDbEntity
  8
0
100
AcDbCircle
 10
32.0
 20
21.0
 30
0.0
 40
0.55
100
AcDbArc
 50
180.0
 51
360.0
  0
ARC
  5
52
330
17
100
AcDbEntity
  8
0
100
AcDbCircle
 10
32.0
 20
30.0
 30
0.0
 40
0.55
100
AcDbArc
 50
0.0
 51
180.0
  0
ARC
  5
53
330
17
100
AcDbEntity
  8
0
100
AcDbCircle
 10
32.0
 20
21.0
 30
0.0
 40
0.55
100
AcDbArc
 50
0.0
 51
90.0
  0
ARC
  5
54
330
17
100
AcDbEntity
  8
0
100
AcDbCircle
 10
32.0
 20
30.0
 30
0.0
 40
0.55
100
AcDbArc
 50
270.0
 51
360.0
  0
LINE
  5
55
330
17
100
AcDbEntity
  8
0
100
AcDbLine
 10
32.0
 20
29.45
 30
0.0
 11
32.0
 21
21.55
 31
0.0
  0
LINE
  5
56
330
17
100
AcDbEntity
  8
0
100
AcDbLine
 10
29.0
 20
44.55
 30
0.0
 11
29.0
 21
52.45
 31
0.0
  0
ARC
  5
57
330
17
100
AcDbEntity
  8
0
100
AcDbCircle
 10
29.0
 20
44.0
 30
0.0
 40
0.55
100
AcDbArc
 50
90.0
 51
360.0
  0
ARC
  5
58
330
17
100
AcDbEntity
  8
0
100
AcDbCircle
 10
29.0
 20
53.0
 30
0.0
 40
0.55
100
AcDbArc
 50
0.0
 51
270.0
  0
LINE
  5
59
330
17
100
AcDbEntity
  8
0
100
AcDbLine
 10
31.45
 20
44.0
 30
0.0
 11
29.55
 21
44.0
 31
0.0
  0
LINE
  5
5A
330
17
100
AcDbEntity
  8
0
100
AcDbLine
 10
29.55
 20
53.0
 30
0.0
 11
31.45
 21
53.0
 31
0.0
  0
ARC
  5
5B
330
17
100
AcDbEntity
  8
0
100
AcDbCircle
 10
32.0
 20
44.0
 30
0.0
 40
0.55
100
AcDbArc
 50
180.0
 51
360.0
  0
ARC
  5
5C
330
17
100
AcDbEntity
  8
0
100
AcDbCircle
 10
32.0
 20
53.0
 30
0.0
 40
0.55
100
AcDbArc
 50
0.0
 51
180.0
  0
ARC
  5
5D
330
17
100
AcDbEntity
  8
0
100
AcDbCircle
 10
32.0
 20
44.0
 30
0.0
 40
0.55
100
AcDbArc
 50
0.0
 51
90.0
  0
ARC
  5
5E
330
17
100
AcDbEntity
  8
0
100
AcDbCircle
 10
32.0
 20
53.0
 30
0.0
 40
0.55
100
AcDbArc
 50
270.0
 51
360.0
  0
LINE
  5
5F
330
17
100
AcDbEntity
  8
0
100
AcDbLine
 10
32.0
 20
52.45
 30
0.0
 11
32.0
 21
44.55
 31
0.0
  0
LINE
  5
60
330
17
100
AcDbEntity
  8
0
100
AcDbLine
 10
-4.0
 20
0.55
 30
0.0
 11
-4.0
 21
2.45
 31
0.0
  0
ARC
  5
61
330
17
100
AcDbEntity
  8
0
100
AcDbCircle
 10
-4.0
 20
0.0
 30
0.0
 40
0.55
100
AcDbArc
 50
89.99999999999996
 51
360.0
  0
ARC
  5
62
330
17
100
AcDbEntity
  8
0
100
AcDbCircle
 10
-4.0
 20
3.0
 30
0.0
 40
0.55
100
AcDbArc
 50
0.0
 51
270.0000000000001
  0
LINE
  5
63
330
17
100
AcDbEntity
  8
0
100
AcDbLine
 10
3.45
 20
0.0
 30
0.0
 11
-3.45
 21
0.0
 31
0.0
  0
LINE
  5
64
330
17
100
AcDbEntity
  8
0
100
AcDbLine
 10
-3.45
 20
3.0
 30
0.0
 11
3.45
 21
3.0
 31
0.0
  0
ARC
  5
65
330
17
100
AcDbEntity
  8
0
100
AcDbCircle
 10
4.0
 20
0.0
 30
0.0
 40
0.55
100
AcDbArc
 50
180.0
 51
360.0
  0
ARC
  5
66
330
17
100
AcDbEntity
  8
0
100
AcDbCircle
 10
4.0
 20
3.0
 30
0.0
 40
0.55
100
AcDbArc
 50
0.0
 51
180.0
  0
ARC
  5
67
330
17
100
AcDbEntity
  8
0
100
AcDbCircle
 10
4.0
 20
0.0
 30
0.0
 40
0.55
100
AcDbArc
 50
0.0
 51
90.0
  0
ARC
  5
68
330
17
100
AcDbEntity
  8
0
100
AcDbCircle
 10
4.0
 20
3.0
 30
0.0
 40
0.55
100
AcDbArc
 50
270.0000000000001
 51
360.0
  0
LINE
  5
69
330
17
100
AcDbEntity
  8
0
100
AcDbLine
 10
4.0
 20
2.45
 30
0.0
 11
4.0
 21
0.5499999999999998
 31
0.0
  0
LINE
  5
6A
330
17
100
AcDbEntity
  8
0
100
AcDbLine
 10
-22.0
 20
0.55
 30
0.0
 11
-22.0
 21
2.45
 31
0.0
  0
ARC
  5
6B
330
17
100
AcDbEntity
  8
0
100
AcDbCircle
 10
-22.0
 20
0.0
 30
0.0
 40
0.55
100
AcDbArc
 50
90.0
 51
360.0
  0
ARC
  5
6C
330
17
100
AcDbEntity
  8
0
100
AcDbCircle
 10
-22.0
 20
3.0
 30
0.0
 40
0.55
100
AcDbArc
 50
0.0
 51
270.0
  0
LINE
  5
6D
330
17
100
AcDbEntity
  8
0
100
AcDbLine
 10
-14.55
 20
0.0
 30
0.0
 11
-21.45
 21
0.0
 31
0.0
  0
LINE
  5
6E
330
17
100
AcDbEntity
  8
0
100
AcDbLine
 10
-21.45
 20
3.0
 30
0.0
 11
-14.55
 21
3.0
 31
0.0
  0
ARC
  5
6F
330
17
100
AcDbEntity
  8
0
100
AcDbCircle
 10
-14.0
 20
0.0
 30
0.0
 40
0.55
100
AcDbArc
 50
180.0
 51
360.0
  0
ARC
  5
70
330
17
100
AcDbEntity
  8
0
100
AcDbCircle
 10
-14.0
 20
3.0
 30
0.0
 40
0.55
100
AcDbArc
 50
0.0
 51
180.0
  0
ARC
  5
71
330
17
100
AcDbEntity
  8
0
100
AcDbCircle
 10
-14.0
 20
0.0
 30
0.0
 40
0.55
100
AcDbArc
 50
0.0
 51
90.0
  0
ARC
  5
72
330
17
100
AcDbEntity
  8
0
100
AcDbCircle
 10
-14.0
 20
3.0
 30
0.0
 40
0.55
100
AcDbArc
 50
270.0
 51
360.0
  0
LINE
  5
73
330
17
100
AcDbEntity
  8
0
100
AcDbLine
 10
-14.0
 20
2.45
 30
0.0
 11
-14.0
 21
0.5499999999999998
 31
0.0
  0
LINE
  5
74
330
17
100
AcDbEntity
  8
0
100
AcDbLine
 10
-32.0
 20
-1.45
 30
0.0
 11
-32.0
 21
6.449999999999999
 31
0.0
  0
ARC
  5
75
330
17
100
AcDbEntity
  8
0
100
AcDbCircle
 10
-32.0
 20
-2.0
 30
0.0
 40
0.55
100
AcDbArc
 50
90.0
 51
360.0
  0
ARC
  5
76
330
17
100
AcDbEntity
  8
0
100
AcDbCircle
 10
-32.0
 20
7.0
 30
0.0
 40
0.55
100
AcDbArc
 50
0.0
 51
270.0
  0
LINE
  5
77
330
17
100
AcDbEntity
  8
0
100
AcDbLine
 10
-29.55
 20
-2.0
 30
0.0
 11
-31.45
 21
-2.0
 31
0.0
  0
LINE
  5
78
330
17
100
AcDbEntity
  8
0
100
AcDbLine
 10
-31.45
 20
7.0
 30
0.0
 11
-29.55
 21
7.0
 31
0.0
  0
ARC
  5
79
330
17
100
AcDbEntity
  8
0
100
AcDbCircle
 10
-29.0
 20
-2.0
 30
0.0
 40
0.55
100
AcDbArc
 50
180.0
 51
360.0
  0
ARC
  5
7A
330
17
100
AcDbEntity
  8
0
100
AcDbCircle
 10
-29.0
 20
7.0
 30
0.0
 40
0.55
100
AcDbArc
 50
0.0
 51
180.0
  0
ARC
  5
7B
330
17
100
AcDbEntity
  8
0
100
AcDbCircle
 10
-29.0
 20
-2.0
 30
0.0
 40
0.55
100
AcDbArc
 50
0.0
 51
90.0
  0
ARC
  5
7C
330
17
100
AcDbEntity
  8
0
100
AcDbCircle
 10
-29.0
 20
7.0
 30
0.0
 40
0.55
100
AcDbArc
 50
270.0
 51
360.0
  0
LINE
  5
7D
330
17
100
AcDbEntity
  8
0
100
AcDbLine
 10
-29.0
 20
6.45
 30
0.0
 11
-29.0
 21
-1.4499999999999993
 31
0.0
  0
CIRCLE
  5
7E
330
17
100
AcDbEntity
  8
0
100
AcDbCircle
 10
-26.0
 20
14.0
 30
0.0
 40
2.6
  0
LINE
  5
7F
330
17
100
AcDbEntity
  8
0
100
AcDbLine
 10
-32.0
 20
21.55
 30
0.0
 11
-32.0
 21
29.45
 31
0.0
  0
ARC
  5
80
330
17
100
AcDbEntity
  8
0
100
AcDbCircle
 10
-32.0
 20
21.0
 30
0.0
 40
0.55
100
AcDbArc
 50
90.0
 51
360.0
  0
ARC
  5
81
330
17
100
AcDbEntity
  8
0
100
AcDbCircle
 10
-32.0
 20
30.0
 30
0.0
 40
0.55
100
AcDbArc
 50
0.0
 51
270.0
  0
LINE
  5
82
330
17
100
AcDbEntity
  8
0
100
AcDbLine
 10
-29.55
 20
21.0
 30
0.0
 11
-31.45
 21
21.0
 31
0.0
  0
LINE
  5
83
330
17
100
AcDbEntity
  8
0
100
AcDbLine
 10
-31.45
 20
30.0
 30
0.0
 11
-29.55
 21
30.0
 31
0.0
  0
ARC
  5
84
330
17
100
AcDbEntity
  8
0
100
AcDbCircle
 10
-29.0
 20
21.0
 30
0.0
 40
0.55
100
AcDbArc
 50
180.0
 51
360.0
  0
ARC
  5
85
330
17
100
AcDbEntity
  8
0
100
AcDbCircle
 10
-29.0
 20
30.0
 30
0.0
 40
0.55
100
AcDbArc
 50
0.0
 51
180.0
  0
ARC
  5
86
330
17
100
AcDbEntity
  8
0
100
AcDbCircle
 10
-29.0
 20
21.0
 30
0.0
 40
0.55
100
AcDbArc
 50
0.0
 51
90.0
  0
ARC
  5
87
330
17
100
AcDbEntity
  8
0
100
AcDbCircle
 10
-29.0
 20
30.0
 30
0.0
 40
0.55
100
AcDbArc
 50
270.0
 51
360.0
  0
LINE
  5
88
330
17
100
AcDbEntity
  8
0
100
AcDbLine
 10
-29.0
 20
29.45
 30
0.0
 11
-29.0
 21
21.55
 31
0.0
  0
LINE
  5
89
330
17
100
AcDbEntity
  8
0
100
AcDbLine
 10
-21.0
 20
28.0
 30
0.0
 11
-21.0
 21
76.0
 31
0.0
  0
LINE
  5
8A
330
17
100
AcDbEntity
  8
0
100
AcDbLine
 10
21.0
 20
28.0
 30
0.0
 11
-21.0
 21
28.0
 31
0.0
  0
LINE
  5
8B
330
17
100
AcDbEntity
  8
0
100
AcDbLine
 10
-21.0
 20
76.0
 30
0.0
 11
21.0
 21
76.0
 31
0.0
  0
LINE
  5
8C
330
17
100
AcDbEntity
  8
0
100
AcDbLine
 10
21.0
 20
76.0
 30
0.0
 11
21.0
 21
28.0
 31
0.0
  0
LINE
  5
8D
330
17
100
AcDbEntity
  8
0
100
AcDbLine
 10
-32.0
 20
44.55
 30
0.0
 11
-32.0
 21
52.45
 31
0.0
  0
ARC
  5
8E
330
17
100
AcDbEntity
  8
0
100
AcDbCircle
 10
-32.0
 20
44.0
 30
0.0
 40
0.55
100
AcDbArc
 50
90.0
 51
360.0
  0
ARC
  5
8F
330
17
100
AcDbEntity
  8
0
100
AcDbCircle
 10
-32.0
 20
53.0
 30
0.0
 40
0.55
100
AcDbArc
 50
0.0
 51
270.0
  0
LINE
  5
90
330
17
100
AcDbEntity
  8
0
100
AcDbLine
 10
-29.55
 20
44.0
 30
0.0
 11
-31.45
 21
44.0
 31
0.0
  0
LINE
  5
91
330
17
100
AcDbEntity
  8
0
100
AcDbLine
 10
-31.45
 20
53.0
 30
0.0
 11
-29.55
 21
53.0
 31
0.0
  0
ARC
  5
92
330
17
100
AcDbEntity
  8
0
100
AcDbCircle
 10
-29.0
 20
44.0
 30
0.0
 40
0.55
100
AcDbArc
 50
180.0
 51
360.0
  0
ARC
  5
93
330
17
100
AcDbEntity
  8
0
100
AcDbCircle
 10
-29.0
 20
53.0
 30
0.0
 40
0.55
100
AcDbArc
 50
0.0
 51
180.0
  0
ARC
  5
94
330
17
100
AcDbEntity
  8
0
100
AcDbCircle
 10
-29.0
 20
44.0
 30
0.0
 40
0.55
100
AcDbArc
 50
0.0
 51
90.0
  0
ARC
  5
95
330
17
100
AcDbEntity
  8
0
100
AcDbCircle
 10
-29.0
 20
53.0
 30
0.0
 40
0.55
100
AcDbArc
 50
270.0
 51
360.0
  0
LINE
  5
96
330
17
100
AcDbEntity
  8
0
100
AcDbLine
 10
-29.0
 20
52.45
 30
0.0
 11
-29.0
 21
44.55
 31
0.0
  0
LINE
  5
97
330
17
100
AcDbEntity
  8
0
100
AcDbLine
 10
29.0
 20
67.55
 30
0.0
 11
29.0
 21
75.45
 31
0.0
  0
ARC
  5
98
330
17
100
AcDbEntity
  8
0
100
AcDbCircle
 10
29.0
 20
67.0
 30
0.0
 40
0.55
100
AcDbArc
 50
90.0
 51
360.0
  0
ARC
  5
99
330
17
100
AcDbEntity
  8
0
100
AcDbCircle
 10
29.0
 20
76.0
 30
0.0
 40
0.55
100
AcDbArc
 50
0.0
 51
270.0
  0
LINE
  5
9A
330
17
100
AcDbEntity
  8
0
100
AcDbLine
 10
31.45
 20
67.0
 30
0.0
 11
29.55
 21
67.0
 31
0.0
  0
LINE
  5
9B
330
17
100
AcDbEntity
  8
0
100
AcDbLine
 10
29.55
 20
76.0
 30
0.0
 11
31.45
 21
76.0
 31
0.0
  0
ARC
  5
9C
330
17
100
AcDbEntity
  8
0
100
AcDbCircle
 10
32.0
 20
67.0
 30
0.0
 40
0.55
100
AcDbArc
 50
180.0
 51
360.0
  0
ARC
  5
9D
330
17
100
AcDbEntity
  8
0
100
AcDbCircle
 10
32.0
 20
76.0
 30
0.0
 40
0.55
100
AcDbArc
 50
0.0
 51
180.0
  0
ARC
  5
9E
330
17
100
AcDbEntity
  8
0
100
AcDbCircle
 10
32.0
 20
67.0
 30
0.0
 40
0.55
100
AcDbArc
 50
0.0
 51
90.0
  0
ARC
  5
9F
330
17
100
AcDbEntity
  8
0
100
AcDbCircle
 10
32.0
 20
76.0
 30
0.0
 40
0.55
100
AcDbArc
 50
270.0
 51
360.0
  0
LINE
  5
A0
330
17
100
AcDbEntity
  8
0
100
AcDbLine
 10
32.0
 20
75.45
 30
0.0
 11
32.0
 21
67.55
 31
0.0
  0
CIRCLE
  5
A1
330
17
100
AcDbEntity
  8
0
100
AcDbCircle
 10
26.0
 20
81.0
 30
0.0
 40
2.6
  0
LINE
  5
A2
330
17
100
AcDbEntity
  8
0
100
AcDbLine
 10
14.0
 20
86.55
 30
0.0
 11
14.0
 21
88.45
 31
0.0
  0
ARC
  5
A3
330
17
100
AcDbEntity
  8
0
100
AcDbCircle
 10
14.0
 20
86.0
 30
0.0
 40
0.55
100
AcDbArc
 50
90.0
 51
360.0
  0
ARC
  5
A4
330
17
100
AcDbEntity
  8
0
100
AcDbCircle
 10
14.0
 20
89.0
 30
0.0
 40
0.55
100
AcDbArc
 50
0.0
 51
270.0
  0
LINE
  5
A5
330
17
100
AcDbEntity
  8
0
100
AcDbLine
 10
21.45
 20
86.0
 30
0.0
 11
14.55
 21
86.0
 31
0.0
  0
LINE
  5
A6
330
17
100
AcDbEntity
  8
0
100
AcDbLine
 10
14.55
 20
89.0
 30
0.0
 11
21.45
 21
89.0
 31
0.0
  0
ARC
  5
A7
330
17
100
AcDbEntity
  8
0
100
AcDbCircle
 10
22.0
 20
86.0
 30
0.0
 40
0.55
100
AcDbArc
 50
180.0
 51
360.0
  0
ARC
  5
A8
330
17
100
AcDbEntity
  8
0
100
AcDbCircle
 10
22.0
 20
89.0
 30
0.0
 40
0.55
100
AcDbArc
 50
0.0
 51
180.0
  0
ARC
  5
A9
330
17
100
AcDbEntity
  8
0
100
AcDbCircle
 10
22.0
 20
86.0
 30
0.0
 40
0.55
100
AcDbArc
 50
0.0
 51
90.0
  0
ARC
  5
AA
330
17
100
AcDbEntity
  8
0
100
AcDbCircle
 10
22.0
 20
89.0
 30
0.0
 40
0.55
100
AcDbArc
 50
270.0
 51
360.0
  0
LINE
  5
AB
330
17
100
AcDbEntity
  8
0
100
AcDbLine
 10
22.0
 20
88.45
 30
0.0
 11
22.0
 21
86.55
 31
0.0
  0
LINE
  5
AC
330
17
100
AcDbEntity
  8
0
100
AcDbLine
 10
29.0
 20
90.55
 30
0.0
 11
29.0
 21
98.45
 31
0.0
  0
ARC
  5
AD
330
17
100
AcDbEntity
  8
0
100
AcDbCircle
 10
29.0
 20
90.0
 30
0.0
 40
0.55
100
AcDbArc
 50
90.0
 51
360.0
  0
ARC
  5
AE
330
17
100
AcDbEntity
  8
0
100
AcDbCircle
 10
29.0
 20
99.0
 30
0.0
 40
0.55
100
AcDbArc
 50
0.0
 51
270.0
  0
LINE
  5
AF
330
17
100
AcDbEntity
  8
0
100
AcDbLine
 10
31.45
 20
90.0
 30
0.0
 11
29.55
 21
90.0
 31
0.0
  0
LINE
  5
B0
330
17
100
AcDbEntity
  8
0
100
AcDbLine
 10
29.55
 20
99.0
 30
0.0
 11
31.45
 21
99.0
 31
0.0
  0
ARC
  5
B1
330
17
100
AcDbEntity
  8
0
100
AcDbCircle
 10
32.0
 20
90.0
 30
0.0
 40
0.55
100
AcDbArc
 50
180.0
 51
360.0
  0
ARC
  5
B2
330
17
100
AcDbEntity
  8
0
100
AcDbCircle
 10
32.0
 20
99.0
 30
0.0
 40
0.55
100
AcDbArc
 50
0.0
 51
180.0
  0
ARC
  5
B3
330
17
100
AcDbEntity
  8
0
100
AcDbCircle
 10
32.0
 20
90.0
 30
0.0
 40
0.55
100
AcDbArc
 50
0.0
 51
90.0
  0
ARC
  5
B4
330
17
100
AcDbEntity
  8
0
100
AcDbCircle
 10
32.0
 20
99.0
 30
0.0
 40
0.55
100
AcDbArc
 50
270.0
 51
360.0
  0
LINE
  5
B5
330
17
100
AcDbEntity
  8
0
100
AcDbLine
 10
32.0
 20
98.45
 30
0.0
 11
32.0
 21
90.55
 31
0.0
  0
LINE
  5
B6
330
17
100
AcDbEntity
  8
0
100
AcDbLine
 10
18.121351
 20
102.80875
 30
0.0
 11
20.183566
 21
110.92194
 31
0.0
  0
LINE
  5
B7
330
17
100
AcDbEntity
  8
0
100
AcDbLine
 10
20.183566
 20
110.92194
 30
0.0
 11
20.257466
 21
111.1381
 31
0.0
  0
LINE
  5
B8
330
17
100
AcDbEntity
  8
0
100
AcDbLine
 10
20.257466
 20
111.1381
 30
0.0
 11
20.317446
 21
111.0757
 31
0.0
  0
LINE
  5
B9
330
17
100
AcDbEntity
  8
0
100
AcDbLine
 10
20.317446
 20
111.0757
 30
0.0
 11
21.319291
 21
108.59973
 31
0.0
  0
LINE
  5
BA
330
17
100
AcDbEntity
  8
0
100
AcDbLine
 10
21.319291
 20
108.59973
 30
0.0
 11
20.269742
 21
104.35211
 31
0.0
  0
LINE
  5
BB
330
17
100
AcDbEntity
  8
0
100
AcDbLine
 10
20.269742
 20
104.35211
 30
0.0
 11
20.189782
 21
104.10737
 31
0.0
  0
LINE
  5
BC
330
17
100
AcDbEntity
  8
0
100
AcDbLine
 10
20.189782
 20
104.10737
 30
0.0
 11
20.187982
 21
104.10763
 31
0.0
  0
LINE
  5
BD
330
17
100
AcDbEntity
  8
0
100
AcDbLine
 10
20.187982
 20
104.10763
 30
0.0
 11
18.201279
 21
102.69634
 31
0.0
  0
LINE
  5
BE
330
17
100
AcDbEntity
  8
0
100
AcDbLine
 10
18.201279
 20
102.69634
 30
0.0
 11
18.201296
 21
102.69659
 31
0.0
  0
LINE
  5
BF
330
17
100
AcDbEntity
  8
0
100
AcDbLine
 10
18.201296
 20
102.69659
 30
0.0
 11
18.121351
 21
102.80875
 31
0.0
  0
LINE
  5
C0
330
17
100
AcDbEntity
  8
0
100
AcDbLine
 10
12.030009
 20
101.51446
 30
0.0
 11
12.007069
 21
101.56206
 31
0.0
  0
LINE
  5
C1
330
17
100
AcDbEntity
  8
0
100
AcDbLine
 10
12.007069
 20
101.56206
 30
0.0
 11
10.943602
 21
105.91286
 31
0.0
  0
LINE
  5
C2
330
17
100
AcDbEntity
  8
0
100
AcDbLine
 10
10.943602
 20
105.91286
 30
0.0
 11
10.902112
 21
97.69967
 31
0.0
  0
LINE
  5
C3
330
17
100
AcDbEntity
  8
0
100
AcDbLine
 10
10.902112
 20
97.69967
 30
0.0
 11
10.806702
 21
97.44884
 31
0.0
  0
LINE
  5
C4
330
17
100
AcDbEntity
  8
0
100
AcDbLine
 10
10.806702
 20
97.44884
 30
0.0
 11
10.806698
 21
97.44882
 31
0.0
  0
LINE
  5
C5
330
17
100
AcDbEntity
  8
0
100
AcDbLine
 10
10.806698
 20
97.44882
 30
0.0
 11
8.850681
 21
96.05896
 31
0.0
  0
LINE
  5
C6
330
17
100
AcDbEntity
  8
0
100
AcDbLine
 10
8.850681
 20
96.05896
 30
0.0
 11
8.850681
 21
96.05924
 31
0.0
  0
LINE
  5
C7
330
17
100
AcDbEntity
  8
0
100
AcDbLine
 10
8.850681
 20
96.05924
 30
0.0
 11
8.758391
 21
96.15294
 31
0.0
  0
LINE
  5
C8
330
17
100
AcDbEntity
  8
0
100
AcDbLine
 10
8.758391
 20
96.15294
 30
0.0
 11
8.758368
 21
96.15294
 31
0.0
  0
LINE
  5
C9
330
17
100
AcDbEntity
  8
0
100
AcDbLine
 10
8.758368
 20
96.15294
 30
0.0
 11
8.859995
 21
114.52164
 31
0.0
  0
LINE
  5
CA
330
17
100
AcDbEntity
  8
0
100
AcDbLine
 10
8.859995
 20
114.52164
 30
0.0
 11
8.872245
 21
114.6587
 31
0.0
  0
LINE
  5
CB
330
17
100
AcDbEntity
  8
0
100
AcDbLine
 10
8.872245
 20
114.6587
 30
0.0
 11
8.927625
 21
114.86163
 31
0.0
  0
LINE
  5
CC
330
17
100
AcDbEntity
  8
0
100
AcDbLine
 10
8.927625
 20
114.86163
 30
0.0
 11
11.018973
 21
115.91891
 31
0.0
  0
LINE
  5
CD
330
17
100
AcDbEntity
  8
0
100
AcDbLine
 10
11.018973
 20
115.91891
 30
0.0
 11
11.019001
 21
115.91891
 31
0.0
  0
LINE
  5
CE
330
17
100
AcDbEntity
  8
0
100
AcDbLine
 10
11.019001
 20
115.91891
 30
0.0
 11
11.099041
 21
115.85431
 31
0.0
  0
LINE
  5
CF
330
17
100
AcDbEntity
  8
0
100
AcDbLine
 10
11.099041
 20
115.85431
 30
0.0
 11
14.206149
 21
103.36888
 31
0.0
  0
LINE
  5
D0
330
17
100
AcDbEntity
  8
0
100
AcDbLine
 10
14.206149
 20
103.36888
 30
0.0
 11
14.164659
 21
103.06435
 31
0.0
  0
LINE
  5
D1
330
17
100
AcDbEntity
  8
0
100
AcDbLine
 10
14.164659
 20
103.06435
 30
0.0
 11
14.164689
 21
103.06435
 31
0.0
  0
LINE
  5
D2
330
17
100
AcDbEntity
  8
0
100
AcDbLine
 10
14.164689
 20
103.06435
 30
0.0
 11
14.095419
 21
102.86723
 31
0.0
  0
LINE
  5
D3
330
17
100
AcDbEntity
  8
0
100
AcDbLine
 10
14.095419
 20
102.86723
 30
0.0
 11
14.095391
 21
102.86723
 31
0.0
  0
LINE
  5
D4
330
17
100
AcDbEntity
  8
0
100
AcDbLine
 10
14.095391
 20
102.86723
 30
0.0
 11
12.047093
 21
101.48664
 31
0.0
  0
LINE
  5
D5
330
17
100
AcDbEntity
  8
0
100
AcDbLine
 10
12.047093
 20
101.48664
 30
0.0
 11
12.047093
 21
101.48692
 31
0.0
  0
LINE
  5
D6
330
17
100
AcDbEntity
  8
0
100
AcDbLine
 10
12.047093
 20
101.48692
 30
0.0
 11
12.030009
 21
101.51446
 31
0.0
  0
LINE
  5
D7
330
17
100
AcDbEntity
  8
0
100
AcDbLine
 10
0.916334
 20
100.69449
 30
0.0
 11
1.792009
 21
96.7025
 31
0.0
  0
LINE
  5
D8
330
17
100
AcDbEntity
  8
0
100
AcDbLine
 10
1.088686
 20
100.63289
 30
0.0
 11
0.916334
 21
100.69449
 31
0.0
  0
LINE
  5
D9
330
17
100
AcDbEntity
  8
0
100
AcDbLine
 10
1.686425
 20
100.55109
 30
0.0
 11
1.088686
 21
100.63289
 31
0.0
  0
LINE
  5
DA
330
17
100
AcDbEntity
  8
0
100
AcDbLine
 10
2.117494
 20
100.76223
 30
0.0
 11
1.686425
 21
100.55109
 31
0.0
  0
LINE
  5
DB
330
17
100
AcDbEntity
  8
0
100
AcDbLine
 10
2.379837
 20
101.18847
 30
0.0
 11
2.117494
 21
100.76223
 31
0.0
  0
LINE
  5
DC
330
17
100
AcDbEntity
  8
0
100
AcDbLine
 10
2.471397
 20
101.7523
 30
0.0
 11
2.379837
 21
101.18847
 31
0.0
  0
LINE
  5
DD
330
17
100
AcDbEntity
  8
0
100
AcDbLine
 10
2.390117
 20
102.37619
 30
0.0
 11
2.471397
 21
101.7523
 31
0.0
  0
LINE
  5
DE
330
17
100
AcDbEntity
  8
0
100
AcDbLine
 10
2.133942
 20
102.98261
 30
0.0
 11
2.390117
 21
102.37619
 31
0.0
  0
LINE
  5
DF
330
17
100
AcDbEntity
  8
0
100
AcDbLine
 10
1.700817
 20
103.49379
 30
0.0
 11
2.133942
 21
102.98261
 31
0.0
  0
LINE
  5
E0
330
17
100
AcDbEntity
  8
0
100
AcDbLine
 10
1.088685
 20
103.83219
 30
0.0
 11
1.700817
 21
103.49379
 31
0.0
  0
LINE
  5
E1
330
17
100
AcDbEntity
  8
0
100
AcDbLine
 10
1.088685
 20
103.83419
 30
0.0
 11
1.088685
 21
103.83219
 31
0.0
  0
LINE
  5
E2
330
17
100
AcDbEntity
  8
0
100
AcDbLine
 10
0.150069
 20
104.14508000000001
 30
0.0
 11
1.088685
 21
103.83419
 31
0.0
  0
LINE
  5
E3
330
17
100
AcDbEntity
  8
0
100
AcDbLine
 10
-0.965657
 20
109.08035
 30
0.0
 11
0.150069
 21
104.14508000000001
 31
0.0
  0
LINE
  5
E4
330
17
100
AcDbEntity
  8
0
100
AcDbLine
 10
1.110254
 20
108.47710000000001
 30
0.0
 11
-0.965657
 21
109.08035
 31
0.0
  0
LINE
  5
E5
330
17
100
AcDbEntity
  8
0
100
AcDbLine
 10
1.694181
 20
108.4496
 30
0.0
 11
1.110254
 21
108.47710000000001
 31
0.0
  0
LINE
  5
E6
330
17
100
AcDbEntity
  8
0
100
AcDbLine
 10
2.111598
 20
108.70016
 30
0.0
 11
1.694181
 21
108.4496
 31
0.0
  0
LINE
  5
E7
330
17
100
AcDbEntity
  8
0
100
AcDbLine
 10
2.362347
 20
109.15075
 30
0.0
 11
2.111598
 21
108.70016
 31
0.0
  0
LINE
  5
E8
330
17
100
AcDbEntity
  8
0
100
AcDbLine
 10
2.446257
 20
109.72384
 30
0.0
 11
2.362347
 21
109.15075
 31
0.0
  0
LINE
  5
E9
330
17
100
AcDbEntity
  8
0
100
AcDbLine
 10
2.363167
 20
110.34111
 30
0.0
 11
2.446257
 21
109.72384
 31
0.0
  0
LINE
  5
EA
330
17
100
AcDbEntity
  8
0
100
AcDbLine
 10
2.112914
 20
110.92452
 30
0.0
 11
2.363167
 21
110.34111
 31
0.0
  0
LINE
  5
EB
330
17
100
AcDbEntity
  8
0
100
AcDbLine
 10
1.69533
 20
111.39627
 30
0.0
 11
2.112914
 21
110.92452
 31
0.0
  0
LINE
  5
EC
330
17
100
AcDbEntity
  8
0
100
AcDbLine
 10
1.110257
 20
111.67805
 30
0.0
 11
1.69533
 21
111.39627
 31
0.0
  0
LINE
  5
ED
330
17
100
AcDbEntity
  8
0
100
AcDbLine
 10
-1.733567
 20
112.42312
 30
0.0
 11
1.110257
 21
111.67805
 31
0.0
  0
LINE
  5
EE
330
17
100
AcDbEntity
  8
0
100
AcDbLine
 10
-2.618455
 20
116.22888
 30
0.0
 11
-1.733567
 21
112.42312
 31
0.0
  0
LINE
  5
EF
330
17
100
AcDbEntity
  8
0
100
AcDbLine
 10
-2.049419
 20
116.09897000000001
 30
0.0
 11
-2.618455
 21
116.22888
 31
0.0
  0
LINE
  5
F0
330
17
100
AcDbEntity
  8
0
100
AcDbLine
 10
-2.044519
 20
116.09597
 30
0.0
 11
-2.049419
 21
116.09897000000001
 31
0.0
  0
LINE
  5
F1
330
17
100
AcDbEntity
  8
0
100
AcDbLine
 10
1.150226
 20
115.36493
 30
0.0
 11
-2.044519
 21
116.09597
 31
0.0
  0
LINE
  5
F2
330
17
100
AcDbEntity
  8
0
100
AcDbLine
 10
2.048145
 20
115.06674
 30
0.0
 11
1.150226
 21
115.36493
 31
0.0
  0
LINE
  5
F3
330
17
100
AcDbEntity
  8
0
100
AcDbLine
 10
2.851118
 20
114.60478
 30
0.0
 11
2.048145
 21
115.06674
 31
0.0
  0
LINE
  5
F4
330
17
100
AcDbEntity
  8
0
100
AcDbLine
 10
3.558905
 20
113.97772
 30
0.0
 11
2.851118
 21
114.60478
 31
0.0
  0
LINE
  5
F5
330
17
100
AcDbEntity
  8
0
100
AcDbLine
 10
4.171151
 20
113.18423
 30
0.0
 11
3.558905
 21
113.97772
 31
0.0
  0
LINE
  5
F6
330
17
100
AcDbEntity
  8
0
100
AcDbLine
 10
4.665101
 20
112.25846
 30
0.0
 11
4.171151
 21
113.18423
 31
0.0
  0
LINE
  5
F7
330
17
100
AcDbEntity
  8
0
100
AcDbLine
 10
5.018135
 20
111.24775
 30
0.0
 11
4.665101
 21
112.25846
 31
0.0
  0
LINE
  5
F8
330
17
100
AcDbEntity
  8
0
100
AcDbLine
 10
5.230091
 20
110.15317
 30
0.0
 11
5.018135
 21
111.24775
 31
0.0
  0
LINE
  5
F9
330
17
100
AcDbEntity
  8
0
100
AcDbLine
 10
5.300791
 20
108.97524
 30
0.0
 11
5.230091
 21
110.15317
 31
0.0
  0
LINE
  5
FA
330
17
100
AcDbEntity
  8
0
100
AcDbLine
 10
5.218531
 20
107.72165
 30
0.0
 11
5.300791
 21
108.97524
 31
0.0
  0
LINE
  5
FB
330
17
100
AcDbEntity
  8
0
100
AcDbLine
 10
4.971887
 20
106.66993
 30
0.0
 11
5.218531
 21
107.72165
 31
0.0
  0
LINE
  5
FC
330
17
100
AcDbEntity
  8
0
100
AcDbLine
 10
4.561174
 20
105.82114
 30
0.0
 11
4.971887
 21
106.66993
 31
0.0
  0
LINE
  5
FD
330
17
100
AcDbEntity
  8
0
100
AcDbLine
 10
3.986578
 20
105.17556
 30
0.0
 11
4.561174
 21
105.82114
 31
0.0
  0
LINE
  5
FE
330
17
100
AcDbEntity
  8
0
100
AcDbLine
 10
4.560724
 20
104.09421
 30
0.0
 11
3.986578
 21
105.17556
 31
0.0
  0
LINE
  5
FF
330
17
100
AcDbEntity
  8
0
100
AcDbLine
 10
4.97149
 20
102.99857
 30
0.0
 11
4.560724
 21
104.09421
 31
0.0
  0
LINE
  5
100
330
17
100
AcDbEntity
  8
0
100
AcDbLine
 10
5.218372
 20
101.89102
 30
0.0
 11
4.97149
 21
102.99857
 31
0.0
  0
LINE
  5
101
330
17
100
AcDbEntity
  8
0
100
AcDbLine
 10
5.300792
 20
100.77289
 30
0.0
 11
5.218372
 21
101.89102
 31
0.0
  0
LINE
  5
102
330
17
100
AcDbEntity
  8
0
100
AcDbLine
 10
5.231442
 20
99.58227
 30
0.0
 11
5.300792
 21
100.77289
 31
0.0
  0
LINE
  5
103
330
17
100
AcDbEntity
  8
0
100
AcDbLine
 10
5.023559
 20
98.58135
 30
0.0
 11
5.231442
 21
99.58227
 31
0.0
  0
LINE
  5
104
330
17
100
AcDbEntity
  8
0
100
AcDbLine
 10
4.677272
 20
97.7712
 30
0.0
 11
5.023559
 21
98.58135
 31
0.0
  0
LINE
  5
105
330
17
100
AcDbEntity
  8
0
100
AcDbLine
 10
4.192741
 20
97.15181
 30
0.0
 11
4.677272
 21
97.7712
 31
0.0
  0
LINE
  5
106
330
17
100
AcDbEntity
  8
0
100
AcDbLine
 10
3.692758
 20
96.80785
 30
0.0
 11
4.192741
 21
97.15181
 31
0.0
  0
LINE
  5
107
330
17
100
AcDbEntity
  8
0
100
AcDbLine
 10
3.125703
 20
96.61945
 30
0.0
 11
3.692758
 21
96.80785
 31
0.0
  0
LINE
  5
108
330
17
100
AcDbEntity
  8
0
100
AcDbLine
 10
1.792009
 20
96.7025
 30
0.0
 11
3.125703
 21
96.61945
 31
0.0
  0
LINE
  5
109
330
17
100
AcDbEntity
  8
0
100
AcDbLine
 10
29.0
 20
113.55
 30
0.0
 11
29.0
 21
121.45
 31
0.0
  0
ARC
  5
10A
330
17
100
AcDbEntity
  8
0
100
AcDbCircle
 10
29.0
 20
113.0
 30
0.0
 40
0.55
100
AcDbArc
 50
90.0
 51
360.0
  0
ARC
  5
10B
330
17
100
AcDbEntity
  8
0
100
AcDbCircle
 10
29.0
 20
122.0
 30
0.0
 40
0.55
100
AcDbArc
 50
0.0
 51
270.0
  0
LINE
  5
10C
330
17
100
AcDbEntity
  8
0
100
AcDbLine
 10
31.45
 20
113.0
 30
0.0
 11
29.55
 21
113.0
 31
0.0
  0
LINE
  5
10D
330
17
100
AcDbEntity
  8
0
100
AcDbLine
 10
29.55
 20
122.0
 30
0.0
 11
31.45
 21
122.0
 31
0.0
  0
ARC
  5
10E
330
17
100
AcDbEntity
  8
0
100
AcDbCircle
 10
32.0
 20
113.0
 30
0.0
 40
0.55
100
AcDbArc
 50
180.0
 51
360.0
  0
ARC
  5
10F
330
17
100
AcDbEntity
  8
0
100
AcDbCircle
 10
32.0
 20
122.0
 30
0.0
 40
0.55
100
AcDbArc
 50
0.0
 51
180.0
  0
ARC
  5
110
330
17
100
AcDbEntity
  8
0
100
AcDbCircle
 10
32.0
 20
113.0
 30
0.0
 40
0.55
100
AcDbArc
 50
0.0
 51
90.0
  0
ARC
  5
111
330
17
100
AcDbEntity
  8
0
100
AcDbCircle
 10
32.0
 20
122.0
 30
0.0
 40
0.55
100
AcDbArc
 50
270.0
 51
360.0
  0
LINE
  5
112
330
17
100
AcDbEntity
  8
0
100
AcDbLine
 10
32.0
 20
121.45
 30
0.0
 11
32.0
 21
113.55
 31
0.0
  0
LINE
  5
113
330
17
100
AcDbEntity
  8
0
100
AcDbLine
 10
18.152019
 20
119.37857
 30
0.0
 11
18.152014
 21
119.37853
 31
0.0
  0
LINE
  5
114
330
17
100
AcDbEntity
  8
0
100
AcDbLine
 10
18.205939
 20
119.57409
 30
0.0
 11
18.152019
 21
119.37857
 31
0.0
  0
LINE
  5
115
330
17
100
AcDbEntity
  8
0
100
AcDbLine
 10
20.312737
 20
120.63746
 30
0.0
 11
18.205939
 21
119.57409
 31
0.0
  0
LINE
  5
116
330
17
100
AcDbEntity
  8
0
100
AcDbLine
 10
20.312761
 20
120.63746
 30
0.0
 11
20.312737
 21
120.63746
 31
0.0
  0
LINE
  5
117
330
17
100
AcDbEntity
  8
0
100
AcDbLine
 10
20.392711
 20
120.58346
 30
0.0
 11
20.312761
 21
120.63746
 31
0.0
  0
LINE
  5
118
330
17
100
AcDbEntity
  8
0
100
AcDbLine
 10
20.392682
 20
120.58346
 30
0.0
 11
20.392711
 21
120.58346
 31
0.0
  0
LINE
  5
119
330
17
100
AcDbEntity
  8
0
100
AcDbLine
 10
25.260248
 20
107.83954
 30
0.0
 11
20.392682
 21
120.58346
 31
0.0
  0
LINE
  5
11A
330
17
100
AcDbEntity
  8
0
100
AcDbLine
 10
25.194098
 20
107.65962
 30
0.0
 11
25.260248
 21
107.83954
 31
0.0
  0
LINE
  5
11B
330
17
100
AcDbEntity
  8
0
100
AcDbLine
 10
23.059602
 20
106.14514
 30
0.0
 11
25.194098
 21
107.65962
 31
0.0
  0
LINE
  5
11C
330
17
100
AcDbEntity
  8
0
100
AcDbLine
 10
23.019672
 20
106.20674
 30
0.0
 11
23.059602
 21
106.14514
 31
0.0
  0
LINE
  5
11D
330
17
100
AcDbEntity
  8
0
100
AcDbLine
 10
18.152014
 20
119.37853
 30
0.0
 11
23.019672
 21
106.20674
 31
0.0
  0
LINE
  5
11E
330
17
100
AcDbEntity
  8
0
100
AcDbLine
 10
23.056522
 20
115.26957
 30
0.0
 11
23.116322
 21
115.20817
 31
0.0
  0
LINE
  5
11F
330
17
100
AcDbEntity
  8
0
100
AcDbLine
 10
22.067007
 20
117.97202
 30
0.0
 11
23.056522
 21
115.26957
 31
0.0
  0
LINE
  5
120
330
17
100
AcDbEntity
  8
0
100
AcDbLine
 10
23.059644
 20
121.84235
 30
0.0
 11
22.067007
 21
117.97202
 31
0.0
  0
LINE
  5
121
330
17
100
AcDbEntity
  8
0
100
AcDbLine
 10
23.139604
 20
122.06407
 30
0.0
 11
23.059644
 21
121.84235
 31
0.0
  0
LINE
  5
122
330
17
100
AcDbEntity
  8
0
100
AcDbLine
 10
23.1396
 20
122.06407
 30
0.0
 11
23.139604
 21
122.06407
 31
0.0
  0
LINE
  5
123
330
17
100
AcDbEntity
  8
0
100
AcDbLine
 10
23.139679
 20
122.0638
 30
0.0
 11
23.1396
 21
122.06407
 31
0.0
  0
LINE
  5
124
330
17
100
AcDbEntity
  8
0
100
AcDbLine
 10
25.12797
 20
123.06737
 30
0.0
 11
23.139679
 21
122.0638
 31
0.0
  0
LINE
  5
125
330
17
100
AcDbEntity
  8
0
100
AcDbLine
 10
25.20793
 20
122.95333
 30
0.0
 11
25.12797
 21
123.06737
 31
0.0
  0
LINE
  5
126
330
17
100
AcDbEntity
  8
0
100
AcDbLine
 10
23.188842
 20
115.41562
 30
0.0
 11
25.20793
 21
122.95333
 31
0.0
  0
LINE
  5
127
330
17
100
AcDbEntity
  8
0
100
AcDbLine
 10
23.18887
 20
115.41562
 30
0.0
 11
23.188842
 21
115.41562
 31
0.0
  0
LINE
  5
128
330
17
100
AcDbEntity
  8
0
100
AcDbLine
 10
23.116322
 20
115.20817
 30
0.0
 11
23.18887
 21
115.41562
 31
0.0
  0
LINE
  5
129
330
17
100
AcDbEntity
  8
0
100
AcDbLine
 10
29.0
 20
136.55
 30
0.0
 11
29.0
 21
144.45
 31
0.0
  0
ARC
  5
12A
330
17
100
AcDbEntity
  8
0
100
AcDbCircle
 10
29.0
 20
136.0
 30
0.0
 40
0.55
100
AcDbArc
 50
90.0
 51
360.0
  0
ARC
  5
12B
330
17
100
AcDbEntity
  8
0
100
AcDbCircle
 10
29.0
 20
145.0
 30
0.0
 40
0.55
100
AcDbArc
 50
0.0
 51
270.0
  0
LINE
  5
12C
330
17
100
AcDbEntity
  8
0
100
AcDbLine
 10
31.45
 20
136.0
 30
0.0
 11
29.55
 21
136.0
 31
0.0
  0
LINE
  5
12D
330
17
100
AcDbEntity
  8
0
100
AcDbLine
 10
29.55
 20
145.0
 30
0.0
 11
31.45
 21
145.0
 31
0.0
  0
ARC
  5
12E
330
17
100
AcDbEntity
  8
0
100
AcDbCircle
 10
32.0
 20
136.0
 30
0.0
 40
0.55
100
AcDbArc
 50
180.0
 51
360.0
  0
ARC
  5
12F
330
17
100
AcDbEntity
  8
0
100
AcDbCircle
 10
32.0
 20
145.0
 30
0.0
 40
0.55
100
AcDbArc
 50
0.0
 51
180.0
  0
ARC
  5
130
330
17
100
AcDbEntity
  8
0
100
AcDbCircle
 10
32.0
 20
136.0
 30
0.0
 40
0.55
100
AcDbArc
 50
0.0
 51
90.0
  0
ARC
  5
131
330
17
100
AcDbEntity
  8
0
100
AcDbCircle
 10
32.0
 20
145.0
 30
0.0
 40
0.55
100
AcDbArc
 50
270.0
 51
360.0
  0
LINE
  5
132
330
17
100
AcDbEntity
  8
0
100
AcDbLine
 10
32.0
 20
144.45
 30
0.0
 11
32.0
 21
136.55
 31
0.0
  0
LINE
  5
133
330
17
100
AcDbEntity
  8
0
100
AcDbLine
 10
17.451848
 20
119.0476
 30
0.0
 11
17.440868
 21
118.9907
 31
0.0
  0
LINE
  5
134
330
17
100
AcDbEntity
  8
0
100
AcDbLine
 10
17.440868
 20
118.9907
 30
0.0
 11
17.451848
 21
118.89069
 31
0.0
  0
LINE
  5
135
330
17
100
AcDbEntity
  8
0
100
AcDbLine
 10
17.451848
 20
118.89069
 30
0.0
 11
17.404248
 21
102.27618
 31
0.0
  0
LINE
  5
136
330
17
100
AcDbEntity
  8
0
100
AcDbLine
 10
17.404248
 20
102.27618
 30
0.0
 11
17.308838
 21
102.06239
 31
0.0
  0
LINE
  5
137
330
17
100
AcDbEntity
  8
0
100
AcDbLine
 10
17.308838
 20
102.06239
 30
0.0
 11
15.3528
 21
100.67439
 31
0.0
  0
LINE
  5
138
330
17
100
AcDbEntity
  8
0
100
AcDbLine
 10
15.3528
 20
100.67439
 30
0.0
 11
15.352828
 21
100.67439
 31
0.0
  0
LINE
  5
139
330
17
100
AcDbEntity
  8
0
100
AcDbLine
 10
15.352828
 20
100.67439
 30
0.0
 11
15.258958
 21
100.78207
 31
0.0
  0
LINE
  5
13A
330
17
100
AcDbEntity
  8
0
100
AcDbLine
 10
15.258958
 20
100.78207
 30
0.0
 11
15.286658
 21
108.34281
 31
0.0
  0
LINE
  5
13B
330
17
100
AcDbEntity
  8
0
100
AcDbLine
 10
15.286658
 20
108.34281
 30
0.0
 11
14.51717
 21
104.94476
 31
0.0
  0
LINE
  5
13C
330
17
100
AcDbEntity
  8
0
100
AcDbLine
 10
14.51717
 20
104.94476
 30
0.0
 11
14.517199
 21
104.94476
 31
0.0
  0
LINE
  5
13D
330
17
100
AcDbEntity
  8
0
100
AcDbLine
 10
14.517199
 20
104.94476
 30
0.0
 11
14.476589
 21
104.81696
 31
0.0
  0
LINE
  5
13E
330
17
100
AcDbEntity
  8
0
100
AcDbLine
 10
14.476589
 20
104.81696
 30
0.0
 11
14.437139
 21
104.89076
 31
0.0
  0
LINE
  5
13F
330
17
100
AcDbEntity
  8
0
100
AcDbLine
 10
14.437139
 20
104.89076
 30
0.0
 11
13.453735
 21
108.79204
 31
0.0
  0
LINE
  5
140
330
17
100
AcDbEntity
  8
0
100
AcDbLine
 10
13.453735
 20
108.79204
 30
0.0
 11
15.238853
 21
117.95191
 31
0.0
  0
LINE
  5
141
330
17
100
AcDbEntity
  8
0
100
AcDbLine
 10
15.238853
 20
117.95191
 30
0.0
 11
15.294233
 21
118.10431
 31
0.0
  0
LINE
  5
142
330
17
100
AcDbEntity
  8
0
100
AcDbLine
 10
15.294233
 20
118.10431
 30
0.0
 11
17.399496
 21
119.16582
 31
0.0
  0
LINE
  5
143
330
17
100
AcDbEntity
  8
0
100
AcDbLine
 10
17.399496
 20
119.16582
 30
0.0
 11
17.399491
 21
119.16611
 31
0.0
  0
LINE
  5
144
330
17
100
AcDbEntity
  8
0
100
AcDbLine
 10
17.399491
 20
119.16611
 30
0.0
 11
17.451848
 21
119.0476
 31
0.0
  0
LINE
  5
145
330
17
100
AcDbEntity
  8
0
100
AcDbLine
 10
17.714152
 20
122.97108
 30
0.0
 11
13.441158
 21
120.98353
 31
0.0
  0
LINE
  5
146
330
17
100
AcDbEntity
  8
0
100
AcDbLine
 10
13.441158
 20
120.98353
 30
0.0
 11
-5.517085
 21
124.28685
 31
0.0
  0
LINE
  5
147
330
17
100
AcDbEntity
  8
0
100
AcDbLine
 10
-5.517085
 20
124.28685
 30
0.0
 11
-12.349499
 21
121.86883
 31
0.0
  0
LINE
  5
148
330
17
100
AcDbEntity
  8
0
100
AcDbLine
 10
-12.349499
 20
121.86883
 30
0.0
 11
-17.209101
 21
122.93113
 31
0.0
  0
LINE
  5
149
330
17
100
AcDbEntity
  8
0
100
AcDbLine
 10
-17.209101
 20
122.93113
 30
0.0
 11
-5.419639
 21
126.8295
 31
0.0
  0
LINE
  5
14A
330
17
100
AcDbEntity
  8
0
100
AcDbLine
 10
-5.419639
 20
126.8295
 30
0.0
 11
17.714152
 21
122.97108
 31
0.0
  0
LINE
  5
14B
330
17
100
AcDbEntity
  8
0
100
AcDbLine
 10
-4.0
 20
86.55
 30
0.0
 11
-4.0
 21
88.45
 31
0.0
  0
ARC
  5
14C
330
17
100
AcDbEntity
  8
0
100
AcDbCircle
 10
-4.0
 20
86.0
 30
0.0
 40
0.55
100
AcDbArc
 50
89.99999999999996
 51
360.0
  0
ARC
  5
14D
330
17
100
AcDbEntity
  8
0
100
AcDbCircle
 10
-4.0
 20
89.0
 30
0.0
 40
0.55
100
AcDbArc
 50
0.0
 51
270.0000000000001
  0
LINE
  5
14E
330
17
100
AcDbEntity
  8
0
100
AcDbLine
 10
3.45
 20
86.0
 30
0.0
 11
-3.45
 21
86.0
 31
0.0
  0
LINE
  5
14F
330
17
100
AcDbEntity
  8
0
100
AcDbLine
 10
-3.45
 20
89.0
 30
0.0
 11
3.45
 21
89.0
 31
0.0
  0
ARC
  5
150
330
17
100
AcDbEntity
  8
0
100
AcDbCircle
 10
4.0
 20
86.0
 30
0.0
 40
0.55
100
AcDbArc
 50
180.0
 51
360.0
  0
ARC
  5
151
330
17
100
AcDbEntity
  8
0
100
AcDbCircle
 10
4.0
 20
89.0
 30
0.0
 40
0.55
100
AcDbArc
 50
0.0
 51
180.0
  0
ARC
  5
152
330
17
100
AcDbEntity
  8
0
100
AcDbCircle
 10
4.0
 20
86.0
 30
0.0
 40
0.55
100
AcDbArc
 50
0.0
 51
90.0
  0
ARC
  5
153
330
17
100
AcDbEntity
  8
0
100
AcDbCircle
 10
4.0
 20
89.0
 30
0.0
 40
0.55
100
AcDbArc
 50
270.0000000000001
 51
360.0
  0
LINE
  5
154
330
17
100
AcDbEntity
  8
0
100
AcDbLine
 10
4.0
 20
88.45
 30
0.0
 11
4.0
 21
86.55
 31
0.0
  0
LINE
  5
155
330
17
100
AcDbEntity
  8
0
100
AcDbLine
 10
-5.223961
 20
116.65177
 30
0.0
 11
-5.100758
 21
116.79809
 31
0.0
  0
LINE
  5
156
330
17
100
AcDbEntity
  8
0
100
AcDbLine
 10
-5.100758
 20
116.79809
 30
0.0
 11
-3.586521
 21
116.45016
 31
0.0
  0
LINE
  5
157
330
17
100
AcDbEntity
  8
0
100
AcDbLine
 10
-3.586521
 20
116.45016
 30
0.0
 11
-0.817977
 21
104.46665
 31
0.0
  0
LINE
  5
158
330
17
100
AcDbEntity
  8
0
100
AcDbLine
 10
-0.817977
 20
104.46665
 30
0.0
 11
-1.922919
 21
104.83442
 31
0.0
  0
LINE
  5
159
330
17
100
AcDbEntity
  8
0
100
AcDbLine
 10
-1.922919
 20
104.83442
 30
0.0
 11
-1.922919
 21
101.71975
 31
0.0
  0
LINE
  5
15A
330
17
100
AcDbEntity
  8
0
100
AcDbLine
 10
-1.922919
 20
101.71975
 30
0.0
 11
-0.05161900000000008
 21
101.044
 31
0.0
  0
LINE
  5
15B
330
17
100
AcDbEntity
  8
0
100
AcDbLine
 10
-0.051619
 20
101.044
 30
0.0
 11
0.834727
 21
97.03821
 31
0.0
  0
LINE
  5
15C
330
17
100
AcDbEntity
  8
0
100
AcDbLine
 10
0.834727
 20
97.03821
 30
0.0
 11
-2.067583
 21
98.18174
 31
0.0
  0
LINE
  5
15D
330
17
100
AcDbEntity
  8
0
100
AcDbLine
 10
-2.067583
 20
98.18174
 30
0.0
 11
-3.201791
 21
98.6265
 31
0.0
  0
LINE
  5
15E
330
17
100
AcDbEntity
  8
0
100
AcDbLine
 10
-3.201791
 20
98.6265
 30
0.0
 11
-5.080862
 21
99.36654
 31
0.0
  0
LINE
  5
15F
330
17
100
AcDbEntity
  8
0
100
AcDbLine
 10
-5.080862
 20
99.36654
 30
0.0
 11
-5.080835
 21
99.36654
 31
0.0
  0
LINE
  5
160
330
17
100
AcDbEntity
  8
0
100
AcDbLine
 10
-5.080835
 20
99.36654
 30
0.0
 11
-5.223948
 21
99.57292
 31
0.0
  0
LINE
  5
161
330
17
100
AcDbEntity
  8
0
100
AcDbLine
 10
-5.223948
 20
99.57292
 30
0.0
 11
-5.223975
 21
99.57291
 31
0.0
  0
LINE
  5
162
330
17
100
AcDbEntity
  8
0
100
AcDbLine
 10
-5.223975
 20
99.57291
 30
0.0
 11
-5.223961
 21
116.65177
 31
0.0
  0
LINE
  5
163
330
17
100
AcDbEntity
  8
0
100
AcDbLine
 10
-22.0
 20
86.55
 30
0.0
 11
-22.0
 21
88.45
 31
0.0
  0
ARC
  5
164
330
17
100
AcDbEntity
  8
0
100
AcDbCircle
 10
-22.0
 20
86.0
 30
0.0
 40
0.55
100
AcDbArc
 50
90.0
 51
360.0
  0
ARC
  5
165
330
17
100
AcDbEntity
  8
0
100
AcDbCircle
 10
-22.0
 20
89.0
 30
0.0
 40
0.55
100
AcDbArc
 50
0.0
 51
270.0
  0
LINE
  5
166
330
17
100
AcDbEntity
  8
0
100
AcDbLine
 10
-14.55
 20
86.0
 30
0.0
 11
-21.45
 21
86.0
 31
0.0
  0
LINE
  5
167
330
17
100
AcDbEntity
  8
0
100
AcDbLine
 10
-21.45
 20
89.0
 30
0.0
 11
-14.55
 21
89.0
 31
0.0
  0
ARC
  5
168
330
17
100
AcDbEntity
  8
0
100
AcDbCircle
 10
-14.0
 20
86.0
 30
0.0
 40
0.55
100
AcDbArc
 50
180.0
 51
360.0
  0
ARC
  5
169
330
17
100
AcDbEntity
  8
0
100
AcDbCircle
 10
-14.0
 20
89.0
 30
0.0
 40
0.55
100
AcDbArc
 50
0.0
 51
180.0
  0
ARC
  5
16A
330
17
100
AcDbEntity
  8
0
100
AcDbCircle
 10
-14.0
 20
86.0
 30
0.0
 40
0.55
100
AcDbArc
 50
0.0
 51
90.0
  0
ARC
  5
16B
330
17
100
AcDbEntity
  8
0
100
AcDbCircle
 10
-14.0
 20
89.0
 30
0.0
 40
0.55
100
AcDbArc
 50
270.0
 51
360.0
  0
LINE
  5
16C
330
17
100
AcDbEntity
  8
0
100
AcDbLine
 10
-14.0
 20
88.45
 30
0.0
 11
-14.0
 21
86.55
 31
0.0
  0
LINE
  5
16D
330
17
100
AcDbEntity
  8
0
100
AcDbLine
 10
-32.0
 20
67.55
 30
0.0
 11
-32.0
 21
75.45
 31
0.0
  0
ARC
  5
16E
330
17
100
AcDbEntity
  8
0
100
AcDbCircle
 10
-32.0
 20
67.0
 30
0.0
 40
0.55
100
AcDbArc
 50
90.0
 51
360.0
  0
ARC
  5
16F
330
17
100
AcDbEntity
  8
0
100
AcDbCircle
 10
-32.0
 20
76.0
 30
0.0
 40
0.55
100
AcDbArc
 50
0.0
 51
270.0
  0
LINE
  5
170
330
17
100
AcDbEntity
  8
0
100
AcDbLine
 10
-29.55
 20
67.0
 30
0.0
 11
-31.45
 21
67.0
 31
0.0
  0
LINE
  5
171
330
17
100
AcDbEntity
  8
0
100
AcDbLine
 10
-31.45
 20
76.0
 30
0.0
 11
-29.55
 21
76.0
 31
0.0
  0
ARC
  5
172
330
17
100
AcDbEntity
  8
0
100
AcDbCircle
 10
-29.0
 20
67.0
 30
0.0
 40
0.55
100
AcDbArc
 50
180.0
 51
360.0
  0
ARC
  5
173
330
17
100
AcDbEntity
  8
0
100
AcDbCircle
 10
-29.0
 20
76.0
 30
0.0
 40
0.55
100
AcDbArc
 50
0.0
 51
180.0
  0
ARC
  5
174
330
17
100
AcDbEntity
  8
0
100
AcDbCircle
 10
-29.0
 20
67.0
 30
0.0
 40
0.55
100
AcDbArc
 50
0.0
 51
90.0
  0
ARC
  5
175
330
17
100
AcDbEntity
  8
0
100
AcDbCircle
 10
-29.0
 20
76.0
 30
0.0
 40
0.55
100
AcDbArc
 50
270.0
 51
360.0
  0
LINE
  5
176
330
17
100
AcDbEntity
  8
0
100
AcDbLine
 10
-29.0
 20
75.45
 30
0.0
 11
-29.0
 21
67.55
 31
0.0
  0
CIRCLE
  5
177
330
17
100
AcDbEntity
  8
0
100
AcDbCircle
 10
-26.0
 20
81.0
 30
0.0
 40
2.6
  0
LINE
  5
178
330
17
100
AcDbEntity
  8
0
100
AcDbLine
 10
-32.0
 20
90.55
 30
0.0
 11
-32.0
 21
98.45
 31
0.0
  0
ARC
  5
179
330
17
100
AcDbEntity
  8
0
100
AcDbCircle
 10
-32.0
 20
90.0
 30
0.0
 40
0.55
100
AcDbArc
 50
90.0
 51
360.0
  0
ARC
  5
17A
330
17
100
AcDbEntity
  8
0
100
AcDbCircle
 10
-32.0
 20
99.0
 30
0.0
 40
0.55
100
AcDbArc
 50
0.0
 51
270.0
  0
LINE
  5
17B
330
17
100
AcDbEntity
  8
0
100
AcDbLine
 10
-29.55
 20
90.0
 30
0.0
 11
-31.45
 21
90.0
 31
0.0
  0
LINE
  5
17C
330
17
100
AcDbEntity
  8
0
100
AcDbLine
 10
-31.45
 20
99.0
 30
0.0
 11
-29.55
 21
99.0
 31
0.0
  0
ARC
  5
17D
330
17
100
AcDbEntity
  8
0
100
AcDbCircle
 10
-29.0
 20
90.0
 30
0.0
 40
0.55
100
AcDbArc
 50
180.0
 51
360.0
  0
ARC
  5
17E
330
17
100
AcDbEntity
  8
0
100
AcDbCircle
 10
-29.0
 20
99.0
 30
0.0
 40
0.55
100
AcDbArc
 50
0.0
 51
180.0
  0
ARC
  5
17F
330
17
100
AcDbEntity
  8
0
100
AcDbCircle
 10
-29.0
 20
90.0
 30
0.0
 40
0.55
100
AcDbArc
 50
0.0
 51
90.0
  0
ARC
  5
180
330
17
100
AcDbEntity
  8
0
100
AcDbCircle
 10
-29.0
 20
99.0
 30
0.0
 40
0.55
100
AcDbArc
 50
270.0
 51
360.0
  0
LINE
  5
181
330
17
100
AcDbEntity
  8
0
100
AcDbLine
 10
-29.0
 20
98.45
 30
0.0
 11
-29.0
 21
90.55
 31
0.0
  0
LINE
  5
182
330
17
100
AcDbEntity
  8
0
100
AcDbLine
 10
-6.062598
 20
99.7528
 30
0.0
 11
-9.425135
 21
101.07625
 31
0.0
  0
LINE
  5
183
330
17
100
AcDbEntity
  8
0
100
AcDbLine
 10
-9.425135
 20
101.07625
 30
0.0
 11
-9.486735
 21
101.19637
 31
0.0
  0
LINE
  5
184
330
17
100
AcDbEntity
  8
0
100
AcDbLine
 10
-9.486735
 20
101.19637
 30
0.0
 11
-13.535679
 21
118.54457
 31
0.0
  0
LINE
  5
185
330
17
100
AcDbEntity
  8
0
100
AcDbLine
 10
-13.535679
 20
118.54457
 30
0.0
 11
-13.474089
 21
118.7139
 31
0.0
  0
LINE
  5
186
330
17
100
AcDbEntity
  8
0
100
AcDbLine
 10
-13.474089
 20
118.7139
 30
0.0
 11
-10.317716
 21
117.99212
 31
0.0
  0
LINE
  5
187
330
17
100
AcDbEntity
  8
0
100
AcDbLine
 10
-10.317716
 20
117.99212
 30
0.0
 11
-10.234526
 21
117.87809
 31
0.0
  0
LINE
  5
188
330
17
100
AcDbEntity
  8
0
100
AcDbLine
 10
-10.234526
 20
117.87809
 30
0.0
 11
-10.234554
 21
117.87809
 31
0.0
  0
LINE
  5
189
330
17
100
AcDbEntity
  8
0
100
AcDbLine
 10
-10.234554
 20
117.87809
 30
0.0
 11
-6.042497
 21
99.86816
 31
0.0
  0
LINE
  5
18A
330
17
100
AcDbEntity
  8
0
100
AcDbLine
 10
-6.042497
 20
99.86816
 30
0.0
 11
-6.062417
 21
99.75254
 31
0.0
  0
LINE
  5
18B
330
17
100
AcDbEntity
  8
0
100
AcDbLine
 10
-6.062417
 20
99.75254
 30
0.0
 11
-6.062598
 21
99.7528
 31
0.0
  0
LINE
  5
18C
330
17
100
AcDbEntity
  8
0
100
AcDbLine
 10
-14.428228
 20
103.04581
 30
0.0
 11
-14.428257
 21
103.04581
 31
0.0
  0
LINE
  5
18D
330
17
100
AcDbEntity
  8
0
100
AcDbLine
 10
-14.428257
 20
103.04581
 30
0.0
 11
-14.428257
 21
103.04607
 31
0.0
  0
LINE
  5
18E
330
17
100
AcDbEntity
  8
0
100
AcDbLine
 10
-14.428257
 20
103.04607
 30
0.0
 11
-17.543037
 21
104.27109
 31
0.0
  0
LINE
  5
18F
330
17
100
AcDbEntity
  8
0
100
AcDbLine
 10
-17.543037
 20
104.27109
 30
0.0
 11
-17.686124
 21
104.46027
 31
0.0
  0
LINE
  5
190
330
17
100
AcDbEntity
  8
0
100
AcDbLine
 10
-17.686124
 20
104.46027
 30
0.0
 11
-17.686151
 21
104.46027
 31
0.0
  0
LINE
  5
191
330
17
100
AcDbEntity
  8
0
100
AcDbLine
 10
-17.686151
 20
104.46027
 30
0.0
 11
-14.214315
 21
116.67635
 31
0.0
  0
LINE
  5
192
330
17
100
AcDbEntity
  8
0
100
AcDbLine
 10
-14.214315
 20
116.67635
 30
0.0
 11
-14.214286
 21
116.67635
 31
0.0
  0
LINE
  5
193
330
17
100
AcDbEntity
  8
0
100
AcDbLine
 10
-14.214286
 20
116.67635
 30
0.0
 11
-14.131126
 21
116.72395
 31
0.0
  0
LINE
  5
194
330
17
100
AcDbEntity
  8
0
100
AcDbLine
 10
-14.131126
 20
116.72395
 30
0.0
 11
-14.049606
 21
116.63635
 31
0.0
  0
LINE
  5
195
330
17
100
AcDbEntity
  8
0
100
AcDbLine
 10
-14.049606
 20
116.63635
 30
0.0
 11
-14.049635
 21
116.63635
 31
0.0
  0
LINE
  5
196
330
17
100
AcDbEntity
  8
0
100
AcDbLine
 10
-14.049635
 20
116.63635
 30
0.0
 11
-12.364477
 21
110.25274
 31
0.0
  0
LINE
  5
197
330
17
100
AcDbEntity
  8
0
100
AcDbLine
 10
-12.364477
 20
110.25274
 30
0.0
 11
-12.927669
 21
108.21678
 31
0.0
  0
LINE
  5
198
330
17
100
AcDbEntity
  8
0
100
AcDbLine
 10
-12.927669
 20
108.21678
 30
0.0
 11
-11.932042
 21
107.88446
 31
0.0
  0
LINE
  5
199
330
17
100
AcDbEntity
  8
0
100
AcDbLine
 10
-11.932042
 20
107.88446
 30
0.0
 11
-11.870422
 21
107.81676
 31
0.0
  0
LINE
  5
19A
330
17
100
AcDbEntity
  8
0
100
AcDbLine
 10
-11.870422
 20
107.81676
 30
0.0
 11
-11.87045
 21
107.81676
 31
0.0
  0
LINE
  5
19B
330
17
100
AcDbEntity
  8
0
100
AcDbLine
 10
-11.87045
 20
107.81676
 30
0.0
 11
-10.963988
 21
103.86626
 31
0.0
  0
LINE
  5
19C
330
17
100
AcDbEntity
  8
0
100
AcDbLine
 10
-10.963988
 20
103.86626
 30
0.0
 11
-11.025588
 21
103.79406
 31
0.0
  0
LINE
  5
19D
330
17
100
AcDbEntity
  8
0
100
AcDbLine
 10
-11.025588
 20
103.79406
 30
0.0
 11
-13.680258
 21
104.7836
 31
0.0
  0
LINE
  5
19E
330
17
100
AcDbEntity
  8
0
100
AcDbLine
 10
-13.680258
 20
104.7836
 30
0.0
 11
-14.345071
 21
103.05852
 31
0.0
  0
LINE
  5
19F
330
17
100
AcDbEntity
  8
0
100
AcDbLine
 10
-14.345071
 20
103.05852
 30
0.0
 11
-14.428228
 21
103.04581
 31
0.0
  0
LINE
  5
1A0
330
17
100
AcDbEntity
  8
0
100
AcDbLine
 10
-15.0
 20
137.55
 30
0.0
 11
-15.0
 21
139.45
 31
0.0
  0
ARC
  5
1A1
330
17
100
AcDbEntity
  8
0
100
AcDbCircle
 10
-15.0
 20
137.0
 30
0.0
 40
0.55
100
AcDbArc
 50
90.0
 51
360.0
  0
ARC
  5
1A2
330
17
100
AcDbEntity
  8
0
100
AcDbCircle
 10
-15.0
 20
140.0
 30
0.0
 40
0.55
100
AcDbArc
 50
0.0
 51
270.0
  0
LINE
  5
1A3
330
17
100
AcDbEntity
  8
0
100
AcDbLine
 10
14.45
 20
137.0
 30
0.0
 11
-14.45
 21
137.0
 31
0.0
  0
LINE
  5
1A4
330
17
100
AcDbEntity
  8
0
100
AcDbLine
 10
-14.45
 20
140.0
 30
0.0
 11
14.45
 21
140.0
 31
0.0
  0
ARC
  5
1A5
330
17
100
AcDbEntity
  8
0
100
AcDbCircle
 10
15.0
 20
137.0
 30
0.0
 40
0.55
100
AcDbArc
 50
180.0
 51
360.0
  0
ARC
  5
1A6
330
17
100
AcDbEntity
  8
0
100
AcDbCircle
 10
15.0
 20
140.0
 30
0.0
 40
0.55
100
AcDbArc
 50
0.0
 51
180.0
  0
ARC
  5
1A7
330
17
100
AcDbEntity
  8
0
100
AcDbCircle
 10
15.0
 20
137.0
 30
0.0
 40
0.55
100
AcDbArc
 50
0.0
 51
90.0
  0
ARC
  5
1A8
330
17
100
AcDbEntity
  8
0
100
AcDbCircle
 10
15.0
 20
140.0
 30
0.0
 40
0.55
100
AcDbArc
 50
270.0
 51
360.0
  0
LINE
  5
1A9
330
17
100
AcDbEntity
  8
0
100
AcDbLine
 10
15.0
 20
139.45
 30
0.0
 11
15.0
 21
137.55
 31
0.0
  0
LINE
  5
1AA
330
17
100
AcDbEntity
  8
0
100
AcDbLine
 10
-20.021463
 20
110.86034000000001
 30
0.0
 11
-17.606849
 21
110.06024
 31
0.0
  0
LINE
  5
1AB
330
17
100
AcDbEntity
  8
0
100
AcDbLine
 10
-21.000183
 20
114.44465
 30
0.0
 11
-20.021463
 21
110.86034000000001
 31
0.0
  0
LINE
  5
1AC
330
17
100
AcDbEntity
  8
0
100
AcDbLine
 10
-17.665243
 20
113.46119
 30
0.0
 11
-21.000183
 21
114.44465
 31
0.0
  0
LINE
  5
1AD
330
17
100
AcDbEntity
  8
0
100
AcDbLine
 10
-17.457518
 20
113.26884
 30
0.0
 11
-17.665243
 21
113.46119
 31
0.0
  0
LINE
  5
1AE
330
17
100
AcDbEntity
  8
0
100
AcDbLine
 10
-17.457518
 20
110.14173
 30
0.0
 11
-17.457518
 21
113.26884
 31
0.0
  0
LINE
  5
1AF
330
17
100
AcDbEntity
  8
0
100
AcDbLine
 10
-17.606849
 20
110.06024
 30
0.0
 11
-17.457518
 21
110.14173
 31
0.0
  0
LINE
  5
1B0
330
17
100
AcDbEntity
  8
0
100
AcDbLine
 10
-25.23693
 20
107.398
 30
0.0
 11
-25.093816
 21
107.22257
 31
0.0
  0
LINE
  5
1B1
330
17
100
AcDbEntity
  8
0
100
AcDbLine
 10
-25.23693
 20
121.14681
 30
0.0
 11
-25.23693
 21
107.398
 31
0.0
  0
LINE
  5
1B2
330
17
100
AcDbEntity
  8
0
100
AcDbLine
 10
-25.113713
 20
121.2574
 30
0.0
 11
-25.23693
 21
121.14681
 31
0.0
  0
LINE
  5
1B3
330
17
100
AcDbEntity
  8
0
100
AcDbLine
 10
-25.11374
 20
121.2574
 30
0.0
 11
-25.113713
 21
121.2574
 31
0.0
  0
LINE
  5
1B4
330
17
100
AcDbEntity
  8
0
100
AcDbLine
 10
-23.734996
 20
120.94202
 30
0.0
 11
-25.11374
 21
121.2574
 31
0.0
  0
LINE
  5
1B5
330
17
100
AcDbEntity
  8
0
100
AcDbLine
 10
-20.989494
 20
111.18075
 30
0.0
 11
-23.734996
 21
120.94202
 31
0.0
  0
LINE
  5
1B6
330
17
100
AcDbEntity
  8
0
100
AcDbLine
 10
-21.937443
 20
111.49454
 30
0.0
 11
-20.989494
 21
111.18075
 31
0.0
  0
LINE
  5
1B7
330
17
100
AcDbEntity
  8
0
100
AcDbLine
 10
-21.937443
 20
106.12509
 30
0.0
 11
-21.937443
 21
111.49454
 31
0.0
  0
LINE
  5
1B8
330
17
100
AcDbEntity
  8
0
100
AcDbLine
 10
-22.080556
 20
106.03589
 30
0.0
 11
-21.937443
 21
106.12509
 31
0.0
  0
LINE
  5
1B9
330
17
100
AcDbEntity
  8
0
100
AcDbLine
 10
-25.093816
 20
107.22229
 30
0.0
 11
-22.080556
 21
106.03589
 31
0.0
  0
LINE
  5
1BA
330
17
100
AcDbEntity
  8
0
100
AcDbLine
 10
-25.093816
 20
107.22257
 30
0.0
 11
-25.093816
 21
107.22229
 31
0.0
  0
LINE
  5
1BB
330
17
100
AcDbEntity
  8
0
100
AcDbLine
 10
-21.786552
 20
117.26531
 30
0.0
 11
-22.76686
 21
120.72024
 31
0.0
  0
LINE
  5
1BC
330
17
100
AcDbEntity
  8
0
100
AcDbLine
 10
-22.76686
 20
120.72024
 30
0.0
 11
-22.580514
 21
120.67734
 31
0.0
  0
LINE
  5
1BD
330
17
100
AcDbEntity
  8
0
100
AcDbLine
 10
-22.580514
 20
120.67734
 30
0.0
 11
-22.060343
 21
120.5588
 31
0.0
  0
LINE
  5
1BE
330
17
100
AcDbEntity
  8
0
100
AcDbLine
 10
-22.060343
 20
120.5588
 30
0.0
 11
-16.044697
 21
119.18138
 31
0.0
  0
LINE
  5
1BF
330
17
100
AcDbEntity
  8
0
100
AcDbLine
 10
-16.044697
 20
119.18138
 30
0.0
 11
-15.85388
 21
119.00438
 31
0.0
  0
LINE
  5
1C0
330
17
100
AcDbEntity
  8
0
100
AcDbLine
 10
-15.85388
 20
119.00438
 30
0.0
 11
-15.85388
 21
115.82488000000001
 31
0.0
  0
LINE
  5
1C1
330
17
100
AcDbEntity
  8
0
100
AcDbLine
 10
-15.85388
 20
115.82488000000001
 30
0.0
 11
-15.990881
 21
115.72808
 31
0.0
  0
LINE
  5
1C2
330
17
100
AcDbEntity
  8
0
100
AcDbLine
 10
-15.990881
 20
115.72808
 30
0.0
 11
-21.786552
 21
117.26531
 31
0.0
  0
LINE
  5
1C3
330
17
100
AcDbEntity
  8
0
100
AcDbLine
 10
-32.0
 20
113.55
 30
0.0
 11
-32.0
 21
121.45
 31
0.0
  0
ARC
  5
1C4
330
17
100
AcDbEntity
  8
0
100
AcDbCircle
 10
-32.0
 20
113.0
 30
0.0
 40
0.55
100
AcDbArc
 50
90.0
 51
360.0
  0
ARC
  5
1C5
330
17
100
AcDbEntity
  8
0
100
AcDbCircle
 10
-32.0
 20
122.0
 30
0.0
 40
0.55
100
AcDbArc
 50
0.0
 51
270.0
  0
LINE
  5
1C6
330
17
100
AcDbEntity
  8
0
100
AcDbLine
 10
-29.55
 20
113.0
 30
0.0
 11
-31.45
 21
113.0
 31
0.0
  0
LINE
  5
1C7
330
17
100
AcDbEntity
  8
0
100
AcDbLine
 10
-31.45
 20
122.0
 30
0.0
 11
-29.55
 21
122.0
 31
0.0
  0
ARC
  5
1C8
330
17
100
AcDbEntity
  8
0
100
AcDbCircle
 10
-29.0
 20
113.0
 30
0.0
 40
0.55
100
AcDbArc
 50
180.0
 51
360.0
  0
ARC
  5
1C9
330
17
100
AcDbEntity
  8
0
100
AcDbCircle
 10
-29.0
 20
122.0
 30
0.0
 40
0.55
100
AcDbArc
 50
0.0
 51
180.0
  0
ARC
  5
1CA
330
17
100
AcDbEntity
  8
0
100
AcDbCircle
 10
-29.0
 20
113.0
 30
0.0
 40
0.55
100
AcDbArc
 50
0.0
 51
90.0
  0
ARC
  5
1CB
330
17
100
AcDbEntity
  8
0
100
AcDbCircle
 10
-29.0
 20
122.0
 30
0.0
 40
0.55
100
AcDbArc
 50
270.0
 51
360.0
  0
LINE
  5
1CC
330
17
100
AcDbEntity
  8
0
100
AcDbLine
 10
-29.0
 20
121.45
 30
0.0
 11
-29.0
 21
113.55
 31
0.0
  0
LINE
  5
1CD
330
17
100
AcDbEntity
  8
0
100
AcDbLine
 10
-32.0
 20
136.55
 30
0.0
 11
-32.0
 21
144.45
 31
0.0
  0
ARC
  5
1CE
330
17
100
AcDbEntity
  8
0
100
AcDbCircle
 10
-32.0
 20
136.0
 30
0.0
 40
0.55
100
AcDbArc
 50
90.0
 51
360.0
  0
ARC
  5
1CF
330
17
100
AcDbEntity
  8
0
100
AcDbCircle
 10
-32.0
 20
145.0
 30
0.0
 40
0.55
100
AcDbArc
 50
0.0
 51
270.0
  0
LINE
  5
1D0
330
17
100
AcDbEntity
  8
0
100
AcDbLine
 10
-29.55
 20
136.0
 30
0.0
 11
-31.45
 21
136.0
 31
0.0
  0
LINE
  5
1D1
330
17
100
AcDbEntity
  8
0
100
AcDbLine
 10
-31.45
 20
145.0
 30
0.0
 11
-29.55
 21
145.0
 31
0.0
  0
ARC
  5
1D2
330
17
100
AcDbEntity
  8
0
100
AcDbCircle
 10
-29.0
 20
136.0
 30
0.0
 40
0.55
100
AcDbArc
 50
180.0
 51
360.0
  0
ARC
  5
1D3
330
17
100
AcDbEntity
  8
0
100
AcDbCircle
 10
-29.0
 20
145.0
 30
0.0
 40
0.55
100
AcDbArc
 50
0.0
 51
180.0
  0
ARC
  5
1D4
330
17
100
AcDbEntity
  8
0
100
AcDbCircle
 10
-29.0
 20
136.0
 30
0.0
 40
0.55
100
AcDbArc
 50
0.0
 51
90.0
  0
ARC
  5
1D5
330
17
100
AcDbEntity
  8
0
100
AcDbCircle
 10
-29.0
 20
145.0
 30
0.0
 40
0.55
100
AcDbArc
 50
270.0
 51
360.0
  0
LINE
  5
1D6
330
17
100
AcDbEntity
  8
0
100
AcDbLine
 10
-29.0
 20
144.45
 30
0.0
 11
-29.0
 21
136.55
 31
0.0
  0
ENDSEC
  0
SECTION
  2
OBJECTS
  0
DICTIONARY
  5
A
330
0
100
AcDbDictionary
281
1
  3
ACAD_COLOR
350
B
  3
ACAD_GROUP
350
C
  3
ACAD_LAYOUT
350
D
  3
ACAD_MATERIAL
350
E
  3
ACAD_MLEADERSTYLE
350
F
  3
ACAD_MLINESTYLE
350
10
  3
ACAD_PLOTSETTINGS
350
11
  3
ACAD_PLOTSTYLENAME
350
12
  3
ACAD_SCALELIST
350
14
  3
ACAD_TABLESTYLE
350
15
  3
ACAD_VISUALSTYLE
350
16
  3
EZDXF_META
350
2D
  0
DICTIONARY
  5
B
330
A
100
AcDbDictionary
281
1
  0
DICTIONARY
  5
C
330
A
100
AcDbDictionary
281
1
  0
DICTIONARY
  5
D
330
A
100
AcDbDictionary
281
1
  3
Model
350
1A
  3
Layout1
350
1E
  0
DICTIONARY
  5
E
330
A
100
AcDbDictionary
281
1
  3
ByBlock
350
1F
  3
ByLayer
350
20
  3
Global
350
21
  0
DICTIONARY
  5
F
330
A
100
AcDbDictionary
281
1
  3
Standard
350
2C
  0
DICTIONARY
  5
10
330
A
100
AcDbDictionary
281
1
  3
Standard
350
22
  0
DICTIONARY
  5
11
330
A
100
AcDbDictionary
281
1
  0
ACDBDICTIONARYWDFLT
  5
12
330
A
100
AcDbDictionary
281
1
  3
Normal
350
13
100
AcDbDictionaryWithDefault
340
13
  0
ACDBPLACEHOLDER
  5
13
330
12
  0
DICTIONARY
  5
14
330
A
100
AcDbDictionary
281
1
  0
DICTIONARY
  5
15
330
A
100
AcDbDictionary
281
1
  0
DICTIONARY
  5
16
330
A
100
AcDbDictionary
281
1
  0
LAYOUT
  5
1A
330
D
100
AcDbPlotSettings
  1

  2
Adobe PDF
  4
A3
  6

 40
7.5
 41
20.0
 42
7.5
 43
20.0
 44
420.0
 45
297.0
 46
0.0
 47
0.0
 48
0.0
 49
0.0
140
0.0
141
0.0
142
1.0
143
1.0
 70
1024
 72
1
 73
1
 74
5
  7

 75
16
 76
0
 77
2
 78
300
147
1.0
148
0.0
149
0.0
100
AcDbLayout
  1
Model
 70
1
 71
0
 10
0.0
 20
0.0
 11
420.0
 21
297.0
 12
0.0
 22
0.0
 32
0.0
 14
1e+20
 24
1e+20
 34
1e+20
 15
-1e+20
 25
-1e+20
 35
-1e+20
146
0.0
 13
0.0
 23
0.0
 33
0.0
 16
1.0
 26
0.0
 36
0.0
 17
0.0
 27
1.0
 37
0.0
 76
1
330
17
  0
LAYOUT
  5
1E
330
D
100
AcDbPlotSettings
  1

  2
Adobe PDF
  4
A3
  6

 40
7.5
 41
20.0
 42
7.5
 43
20.0
 44
420.0
 45
297.0
 46
0.0
 47
0.0
 48
0.0
 49
0.0
140
0.0
141
0.0
142
1.0
143
1.0
 70
0
 72
1
 73
1
 74
5
  7

 75
16
 76
0
 77
2
 78
300
147
1.0
148
0.0
149
0.0
100
AcDbLayout
  1
Layout1
 70
1
 71
1
 10
0.0
 20
0.0
 11
420.0
 21
297.0
 12
0.0
 22
0.0
 32
0.0
 14
1e+20
 24
1e+20
 34
1e+20
 15
-1e+20
 25
-1e+20
 35
-1e+20
146
0.0
 13
0.0
 23
0.0
 33
0.0
 16
1.0
 26
0.0
 36
0.0
 17
0.0
 27
1.0
 37
0.0
 76
1
330
1B
  0
MATERIAL
  5
1F
102
{ACAD_REACTORS
330
E
102
}
330
E
100
AcDbMaterial
  1
ByBlock
  2

 70
0
 40
1.0
 71
1
 41
1.0
 91
-1023410177
 42
1.0
 72
1
  3

 73
1
 74
1
 75
1
 44
0.5
 73
0
 45
1.0
 46
1.0
 77
1
  4

 78
1
 79
1
170
1
 48
1.0
171
1
  6

172
1
173
1
174
1
140
1.0
141
1.0
175
1
  7

176
1
177
1
178
1
143
1.0
179
1
  8

270
1
271
1
272
1
145
1.0
146
1.0
273
1
  9

274
1
275
1
276
1
 42
1.0
 72
1
  3

 73
1
 74
1
 75
1
 94
63
  0
MATERIAL
  5
20
102
{ACAD_REACTORS
330
E
102
}
330
E
100
AcDbMaterial
  1
ByLayer
  2

 70
0
 40
1.0
 71
1
 41
1.0
 91
-1023410177
 42
1.0
 72
1
  3

 73
1
 74
1
 75
1
 44
0.5
 73
0
 45
1.0
 46
1.0
 77
1
  4

 78
1
 79
1
170
1
 48
1.0
171
1
  6

172
1
173
1
174
1
140
1.0
141
1.0
175
1
  7

176
1
177
1
178
1
143
1.0
179
1
  8

270
1
271
1
272
1
145
1.0
146
1.0
273
1
  9

274
1
275
1
276
1
 42
1.0
 72
1
  3

 73
1
 74
1
 75
1
 94
63
  0
MATERIAL
  5
21
102
{ACAD_REACTORS
330
E
102
}
330
E
100
AcDbMaterial
  1
Global
  2

 70
0
 40
1.0
 71
1
 41
1.0
 91
-1023410177
 42
1.0
 72
1
  3

 73
1
 74
1
 75
1
 44
0.5
 73
0
 45
1.0
 46
1.0
 77
1
  4

 78
1
 79
1
170
1
 48
1.0
171
1
  6

172
1
173
1
174
1
140
1.0
141
1.0
175
1
  7

176
1
177
1
178
1
143
1.0
179
1
  8

270
1
271
1
272
1
145
1.0
146
1.0
273
1
  9

274
1
275
1
276
1
 42
1.0
 72
1
  3

 73
1
 74
1
 75
1
 94
63
  0
MLINESTYLE
  5
22
102
{ACAD_REACTORS
330
10
102
}
330
10
100
AcDbMlineStyle
  2
Standard
 70
0
  3

 62
256
 51
90.0
 52
90.0
 71
2
 49
0.5
 62
256
  6
BYLAYER
 49
-0.5
 62
256
  6
BYLAYER
  0
MLEADERSTYLE
  5
2C
102
{ACAD_REACTORS
330
F
102
}
330
F
100
AcDbMLeaderStyle
179
2
170
2
171
1
172
0
 90
2
 40
0.0
 41
0.0
173
1
 91
-1056964608
 92
-2
290
1
 42
2.0
291
1
 43
8.0
  3
Standard
 44
4.0
300

342
29
174
1
175
1
176
0
178
1
 93
-1056964608
 45
4.0
292
0
297
0
 46
4.0
 94
-1056964608
 47
1.0
 49
1.0
140
1.0
294
1
141
0.0
177
0
142
1.0
295
0
296
0
143
3.75
271
0
272
9
273
9
  0
DICTIONARY
  5
2D
330
A
100
AcDbDictionary
280
1
281
1
  3
CREATED_BY_EZDXF
350
2E
  3
WRITTEN_BY_EZDXF
350
1D9
  0
DICTIONARYVAR
  5
2E
330
2D
100
DictionaryVariables
280
0
  1
0.17.2 @ 2023-12-21T23:02:00.580522+00:00
  0
DICTIONARYVAR
  5
1D9
330
2D
100
DictionaryVariables
280
0
  1
0.17.2 @ 2023-12-21T23:02:00.674267+00:00
  0
ENDSEC
  0
EOF
