  0
SECTION
  2
HEADER
  9
$ACADVER
  1
AC1014
  9
$HANDSEED
  5
FFFF
  9
$MEASUREMENT
 70
     1
  0
ENDSEC
  0
SECTION
  2
TABLES
  0
TABLE
  2
VPORT
  5
8
330
0
100
AcDbSymbolTable
 70
     4
  0
VPORT
  5
2E
330
8
100
AcDbSymbolTableRecord
100
AcDbViewportTableRecord
  2
*ACTIVE
 70
     0
 10
0.0
 20
0.0
 11
1.0
 21
1.0
 12
210.0
 22
148.5
 13
0.0
 23
0.0
 14
10.0
 24
10.0
 15
10.0
 25
10.0
 16
0.0
 26
0.0
 36
1.0
 17
0.0
 27
0.0
 37
0.0
 40
341.0
 41
1.24
 42
50.0
 43
0.0
 44
0.0
 50
0.0
 51
0.0
 71
     0
 72
   100
 73
     1
 74
     3
 75
     0
 76
     0
 77
     0
 78
     0
  0
ENDTAB
  0
TABLE
  2
LTYPE
  5
5
330
0
100
AcDbSymbolTable
 70
     1
  0
LTYPE
  5
14
330
5
100
AcDbSymbolTableRecord
100
AcDbLinetypeTableRecord
  2
BYBLOCK
 70
     0
  3

 72
    65
 73
     0
 40
0.0
  0
LTYPE
  5
15
330
5
100
AcDbSymbolTableRecord
100
AcDbLinetypeTableRecord
  2
BYLAYER
 70
     0
  3

 72
    65
 73
     0
 40
0.0
  0
LTYPE
  5
16
330
5
100
AcDbSymbolTableRecord
100
AcDbLinetypeTableRecord
  2
CONTINUOUS
 70
     0
  3
Solid line
 72
    65
 73
     0
 40
0.0
  0
ENDTAB
  0
TABLE
  2
LAYER
  5
2
100
AcDbSymbolTable
 70
2
  0
LAYER
  5
50
100
AcDbSymbolTableRecord
100
AcDbLayerTableRecord
  2
0
 70
0
  6
CONTINUOUS
  0
LAYER
  5
51
100
AcDbSymbolTableRecord
100
AcDbLayerTableRecord
  2
Layer_1
 70
0
  6
CONTINUOUS
  0
ENDTAB
  0
TABLE
  2
STYLE
  5
3
330
0
100
AcDbSymbolTable
 70
     1
  0
STYLE
  5
11
330
3
100
AcDbSymbolTableRecord
100
AcDbTextStyleTableRecord
  2
STANDARD
 70
     0
 40
0.0
 41
1.0
 50
0.0
 71
     0
 42
2.5
  3
txt
  4

  0
ENDTAB
  0
TABLE
  2
VIEW
  5
6
330
0
100
AcDbSymbolTable
 70
     0
  0
ENDTAB
  0
TABLE
  2
UCS
  5
7
330
0
100
AcDbSymbolTable
 70
     0
  0
ENDTAB
  0
TABLE
  2
APPID
  5
9
330
0
100
AcDbSymbolTable
 70
     2
  0
APPID
  5
12
330
9
100
AcDbSymbolTableRecord
100
AcDbRegAppTableRecord
  2
ACAD
 70
     0
  0
ENDTAB
  0
TABLE
  2
DIMSTYLE
  5
A
330
0
100
AcDbSymbolTable
 70
     1
  0
DIMSTYLE
105
27
330
A
100
AcDbSymbolTableRecord
100
AcDbDimStyleTableRecord
  2
ISO-25
 70
     0
  3

  4

  5

  6

  7

 40
1.0
 41
2.5
 42
0.625
 43
3.75
 44
1.25
 45
0.0
 46
0.0
 47
0.0
 48
0.0
140
2.5
141
2.5
142
0.0
143
0.03937007874016
144
1.0
145
0.0
146
1.0
147
0.625
 71
     0
 72
     0
 73
     0
 74
     0
 75
     0
 76
     0
 77
     1
 78
     8
170
     0
171
     3
172
     1
173
     0
174
     0
175
     0
176
     0
177
     0
178
     0
270
     2
271
     2
272
     2
273
     2
274
     3
340
11
275
     0
280
     0
281
     0
282
     0
283
     0
284
     8
285
     0
286
     0
287
     3
288
     0
  0
ENDTAB
  0
TABLE
  2
BLOCK_RECORD
  5
1
330
0
100
AcDbSymbolTable
 70
     1
  0
BLOCK_RECORD
  5
1F
330
1
100
AcDbSymbolTableRecord
100
AcDbBlockTableRecord
  2
*MODEL_SPACE
  0
BLOCK_RECORD
  5
1B
330
1
100
AcDbSymbolTableRecord
100
AcDbBlockTableRecord
  2
*PAPER_SPACE
  0
ENDTAB
  0
ENDSEC
  0
SECTION
  2
BLOCKS
  0
BLOCK
  5
20
330
1F
100
AcDbEntity
  8
0
100
AcDbBlockBegin
  2
*MODEL_SPACE
 70
     0
 10
0.0
 20
0.0
 30
0.0
  3
*MODEL_SPACE
  1

  0
ENDBLK
  5
21
330
1F
100
AcDbEntity
  8
0
100
AcDbBlockEnd
  0
BLOCK
  5
1C
330
1B
100
AcDbEntity
 67
     1
  8
0
100
AcDbBlockBegin
  2
*PAPER_SPACE
  1

  0
ENDBLK
  5
1D
330
1B
100
AcDbEntity
 67
     1
  8
0
100
AcDbBlockEnd
  0
ENDSEC
  0
SECTION
  2
ENTITIES
  0
LINE
  5
100
100
AcDbEntity
  8
Layer_1
 62
4
100
AcDbLine
 10
17.714152
 20
26.971080
 30
0.0
 11
13.441158
 21
24.983530
 31
0.0
  0
LINE
  5
101
100
AcDbEntity
  8
Layer_1
 62
4
100
AcDbLine
 10
13.441158
 20
24.983530
 30
0.0
 11
-5.517085
 21
28.286850
 31
0.0
  0
LINE
  5
102
100
AcDbEntity
  8
Layer_1
 62
4
100
AcDbLine
 10
-5.517085
 20
28.286850
 30
0.0
 11
-12.349499
 21
25.868830
 31
0.0
  0
LINE
  5
103
100
AcDbEntity
  8
Layer_1
 62
4
100
AcDbLine
 10
-12.349499
 20
25.868830
 30
0.0
 11
-17.209101
 21
26.931130
 31
0.0
  0
LINE
  5
104
100
AcDbEntity
  8
Layer_1
 62
4
100
AcDbLine
 10
-17.209101
 20
26.931130
 30
0.0
 11
-5.419639
 21
30.829500
 31
0.0
  0
LINE
  5
105
100
AcDbEntity
  8
Layer_1
 62
4
100
AcDbLine
 10
-5.419639
 20
30.829500
 30
0.0
 11
17.714152
 21
26.971080
 31
0.0
  0
LINE
  5
106
100
AcDbEntity
  8
Layer_1
 62
4
100
AcDbLine
 10
12.030009
 20
5.514460
 30
0.0
 11
12.007069
 21
5.562060
 31
0.0
  0
LINE
  5
107
100
AcDbEntity
  8
Layer_1
 62
4
100
AcDbLine
 10
12.007069
 20
5.562060
 30
0.0
 11
12.007069
 21
5.562060
 31
0.0
  0
LINE
  5
108
100
AcDbEntity
  8
Layer_1
 62
4
100
AcDbLine
 10
12.007069
 20
5.562060
 30
0.0
 11
10.943602
 21
9.912860
 31
0.0
  0
LINE
  5
109
100
AcDbEntity
  8
Layer_1
 62
4
100
AcDbLine
 10
10.943602
 20
9.912860
 30
0.0
 11
10.943602
 21
9.912860
 31
0.0
  0
LINE
  5
10a
100
AcDbEntity
  8
Layer_1
 62
4
100
AcDbLine
 10
10.943602
 20
9.912860
 30
0.0
 11
10.902112
 21
1.699670
 31
0.0
  0
LINE
  5
10b
100
AcDbEntity
  8
Layer_1
 62
4
100
AcDbLine
 10
10.902112
 20
1.699670
 30
0.0
 11
10.902112
 21
1.699670
 31
0.0
  0
LINE
  5
10c
100
AcDbEntity
  8
Layer_1
 62
4
100
AcDbLine
 10
10.902112
 20
1.699670
 30
0.0
 11
10.806702
 21
1.448840
 31
0.0
  0
LINE
  5
10d
100
AcDbEntity
  8
Layer_1
 62
4
100
AcDbLine
 10
10.806702
 20
1.448840
 30
0.0
 11
10.806698
 21
1.448820
 31
0.0
  0
LINE
  5
10e
100
AcDbEntity
  8
Layer_1
 62
4
100
AcDbLine
 10
10.806698
 20
1.448820
 30
0.0
 11
8.850681
 21
0.058960
 31
0.0
  0
LINE
  5
10f
100
AcDbEntity
  8
Layer_1
 62
4
100
AcDbLine
 10
8.850681
 20
0.058960
 30
0.0
 11
8.850681
 21
0.059240
 31
0.0
  0
LINE
  5
110
100
AcDbEntity
  8
Layer_1
 62
4
100
AcDbLine
 10
8.850681
 20
0.059240
 30
0.0
 11
8.758391
 21
0.152940
 31
0.0
  0
LINE
  5
111
100
AcDbEntity
  8
Layer_1
 62
4
100
AcDbLine
 10
8.758391
 20
0.152940
 30
0.0
 11
8.758368
 21
0.152940
 31
0.0
  0
LINE
  5
112
100
AcDbEntity
  8
Layer_1
 62
4
100
AcDbLine
 10
8.758368
 20
0.152940
 30
0.0
 11
8.859995
 21
18.521640
 31
0.0
  0
LINE
  5
113
100
AcDbEntity
  8
Layer_1
 62
4
100
AcDbLine
 10
8.859995
 20
18.521640
 30
0.0
 11
8.872245
 21
18.658700
 31
0.0
  0
LINE
  5
114
100
AcDbEntity
  8
Layer_1
 62
4
100
AcDbLine
 10
8.872245
 20
18.658700
 30
0.0
 11
8.872245
 21
18.658700
 31
0.0
  0
LINE
  5
115
100
AcDbEntity
  8
Layer_1
 62
4
100
AcDbLine
 10
8.872245
 20
18.658700
 30
0.0
 11
8.927625
 21
18.861630
 31
0.0
  0
LINE
  5
116
100
AcDbEntity
  8
Layer_1
 62
4
100
AcDbLine
 10
8.927625
 20
18.861630
 30
0.0
 11
8.927625
 21
18.861630
 31
0.0
  0
LINE
  5
117
100
AcDbEntity
  8
Layer_1
 62
4
100
AcDbLine
 10
8.927625
 20
18.861630
 30
0.0
 11
11.018973
 21
19.918910
 31
0.0
  0
LINE
  5
118
100
AcDbEntity
  8
Layer_1
 62
4
100
AcDbLine
 10
11.018973
 20
19.918910
 30
0.0
 11
11.019001
 21
19.918910
 31
0.0
  0
LINE
  5
119
100
AcDbEntity
  8
Layer_1
 62
4
100
AcDbLine
 10
11.019001
 20
19.918910
 30
0.0
 11
11.099041
 21
19.854310
 31
0.0
  0
LINE
  5
11a
100
AcDbEntity
  8
Layer_1
 62
4
100
AcDbLine
 10
11.099041
 20
19.854310
 30
0.0
 11
14.206149
 21
7.368880
 31
0.0
  0
LINE
  5
11b
100
AcDbEntity
  8
Layer_1
 62
4
100
AcDbLine
 10
14.206149
 20
7.368880
 30
0.0
 11
14.206149
 21
7.368880
 31
0.0
  0
LINE
  5
11c
100
AcDbEntity
  8
Layer_1
 62
4
100
AcDbLine
 10
14.206149
 20
7.368880
 30
0.0
 11
14.164659
 21
7.064350
 31
0.0
  0
LINE
  5
11d
100
AcDbEntity
  8
Layer_1
 62
4
100
AcDbLine
 10
14.164659
 20
7.064350
 30
0.0
 11
14.164689
 21
7.064350
 31
0.0
  0
LINE
  5
11e
100
AcDbEntity
  8
Layer_1
 62
4
100
AcDbLine
 10
14.164689
 20
7.064350
 30
0.0
 11
14.095419
 21
6.867230
 31
0.0
  0
LINE
  5
11f
100
AcDbEntity
  8
Layer_1
 62
4
100
AcDbLine
 10
14.095419
 20
6.867230
 30
0.0
 11
14.095391
 21
6.867230
 31
0.0
  0
LINE
  5
120
100
AcDbEntity
  8
Layer_1
 62
4
100
AcDbLine
 10
14.095391
 20
6.867230
 30
0.0
 11
12.047093
 21
5.486640
 31
0.0
  0
LINE
  5
121
100
AcDbEntity
  8
Layer_1
 62
4
100
AcDbLine
 10
12.047093
 20
5.486640
 30
0.0
 11
12.047093
 21
5.486920
 31
0.0
  0
LINE
  5
122
100
AcDbEntity
  8
Layer_1
 62
4
100
AcDbLine
 10
12.047093
 20
5.486920
 30
0.0
 11
12.030009
 21
5.514460
 31
0.0
  0
LINE
  5
123
100
AcDbEntity
  8
Layer_1
 62
4
100
AcDbLine
 10
23.019672
 20
10.206740
 30
0.0
 11
23.019672
 21
10.206740
 31
0.0
  0
LINE
  5
124
100
AcDbEntity
  8
Layer_1
 62
4
100
AcDbLine
 10
23.019672
 20
10.206740
 30
0.0
 11
23.059602
 21
10.145140
 31
0.0
  0
LINE
  5
125
100
AcDbEntity
  8
Layer_1
 62
4
100
AcDbLine
 10
23.059602
 20
10.145140
 30
0.0
 11
25.194098
 21
11.659620
 31
0.0
  0
LINE
  5
126
100
AcDbEntity
  8
Layer_1
 62
4
100
AcDbLine
 10
25.194098
 20
11.659620
 30
0.0
 11
25.260248
 21
11.839540
 31
0.0
  0
LINE
  5
127
100
AcDbEntity
  8
Layer_1
 62
4
100
AcDbLine
 10
25.260248
 20
11.839540
 30
0.0
 11
20.392682
 21
24.583460
 31
0.0
  0
LINE
  5
128
100
AcDbEntity
  8
Layer_1
 62
4
100
AcDbLine
 10
20.392682
 20
24.583460
 30
0.0
 11
20.392711
 21
24.583460
 31
0.0
  0
LINE
  5
129
100
AcDbEntity
  8
Layer_1
 62
4
100
AcDbLine
 10
20.392711
 20
24.583460
 30
0.0
 11
20.312761
 21
24.637460
 31
0.0
  0
LINE
  5
12a
100
AcDbEntity
  8
Layer_1
 62
4
100
AcDbLine
 10
20.312761
 20
24.637460
 30
0.0
 11
20.312737
 21
24.637460
 31
0.0
  0
LINE
  5
12b
100
AcDbEntity
  8
Layer_1
 62
4
100
AcDbLine
 10
20.312737
 20
24.637460
 30
0.0
 11
18.205939
 21
23.574090
 31
0.0
  0
LINE
  5
12c
100
AcDbEntity
  8
Layer_1
 62
4
100
AcDbLine
 10
18.205939
 20
23.574090
 30
0.0
 11
18.152019
 21
23.378570
 31
0.0
  0
LINE
  5
12d
100
AcDbEntity
  8
Layer_1
 62
4
100
AcDbLine
 10
18.152019
 20
23.378570
 30
0.0
 11
18.152014
 21
23.378530
 31
0.0
  0
LINE
  5
12e
100
AcDbEntity
  8
Layer_1
 62
4
100
AcDbLine
 10
18.152014
 20
23.378530
 30
0.0
 11
23.019672
 21
10.206740
 31
0.0
  0
LINE
  5
12f
100
AcDbEntity
  8
Layer_1
 62
4
100
AcDbLine
 10
-14.428228
 20
7.045810
 30
0.0
 11
-14.428257
 21
7.045810
 31
0.0
  0
LINE
  5
130
100
AcDbEntity
  8
Layer_1
 62
4
100
AcDbLine
 10
-14.428257
 20
7.045810
 30
0.0
 11
-14.428257
 21
7.046070
 31
0.0
  0
LINE
  5
131
100
AcDbEntity
  8
Layer_1
 62
4
100
AcDbLine
 10
-14.428257
 20
7.046070
 30
0.0
 11
-17.543037
 21
8.271090
 31
0.0
  0
LINE
  5
132
100
AcDbEntity
  8
Layer_1
 62
4
100
AcDbLine
 10
-17.543037
 20
8.271090
 30
0.0
 11
-17.686124
 21
8.460270
 31
0.0
  0
LINE
  5
133
100
AcDbEntity
  8
Layer_1
 62
4
100
AcDbLine
 10
-17.686124
 20
8.460270
 30
0.0
 11
-17.686151
 21
8.460270
 31
0.0
  0
LINE
  5
134
100
AcDbEntity
  8
Layer_1
 62
4
100
AcDbLine
 10
-17.686151
 20
8.460270
 30
0.0
 11
-14.214315
 21
20.676350
 31
0.0
  0
LINE
  5
135
100
AcDbEntity
  8
Layer_1
 62
4
100
AcDbLine
 10
-14.214315
 20
20.676350
 30
0.0
 11
-14.214286
 21
20.676350
 31
0.0
  0
LINE
  5
136
100
AcDbEntity
  8
Layer_1
 62
4
100
AcDbLine
 10
-14.214286
 20
20.676350
 30
0.0
 11
-14.131126
 21
20.723950
 31
0.0
  0
LINE
  5
137
100
AcDbEntity
  8
Layer_1
 62
4
100
AcDbLine
 10
-14.131126
 20
20.723950
 30
0.0
 11
-14.049606
 21
20.636350
 31
0.0
  0
LINE
  5
138
100
AcDbEntity
  8
Layer_1
 62
4
100
AcDbLine
 10
-14.049606
 20
20.636350
 30
0.0
 11
-14.049635
 21
20.636350
 31
0.0
  0
LINE
  5
139
100
AcDbEntity
  8
Layer_1
 62
4
100
AcDbLine
 10
-14.049635
 20
20.636350
 30
0.0
 11
-12.364477
 21
14.252740
 31
0.0
  0
LINE
  5
13a
100
AcDbEntity
  8
Layer_1
 62
4
100
AcDbLine
 10
-12.364477
 20
14.252740
 30
0.0
 11
-12.364477
 21
14.252740
 31
0.0
  0
LINE
  5
13b
100
AcDbEntity
  8
Layer_1
 62
4
100
AcDbLine
 10
-12.364477
 20
14.252740
 30
0.0
 11
-12.927669
 21
12.216780
 31
0.0
  0
LINE
  5
13c
100
AcDbEntity
  8
Layer_1
 62
4
100
AcDbLine
 10
-12.927669
 20
12.216780
 30
0.0
 11
-12.927669
 21
12.216780
 31
0.0
  0
LINE
  5
13d
100
AcDbEntity
  8
Layer_1
 62
4
100
AcDbLine
 10
-12.927669
 20
12.216780
 30
0.0
 11
-11.932042
 21
11.884460
 31
0.0
  0
LINE
  5
13e
100
AcDbEntity
  8
Layer_1
 62
4
100
AcDbLine
 10
-11.932042
 20
11.884460
 30
0.0
 11
-11.932042
 21
11.884460
 31
0.0
  0
LINE
  5
13f
100
AcDbEntity
  8
Layer_1
 62
4
100
AcDbLine
 10
-11.932042
 20
11.884460
 30
0.0
 11
-11.870422
 21
11.816760
 31
0.0
  0
LINE
  5
140
100
AcDbEntity
  8
Layer_1
 62
4
100
AcDbLine
 10
-11.870422
 20
11.816760
 30
0.0
 11
-11.870450
 21
11.816760
 31
0.0
  0
LINE
  5
141
100
AcDbEntity
  8
Layer_1
 62
4
100
AcDbLine
 10
-11.870450
 20
11.816760
 30
0.0
 11
-10.963988
 21
7.866260
 31
0.0
  0
LINE
  5
142
100
AcDbEntity
  8
Layer_1
 62
4
100
AcDbLine
 10
-10.963988
 20
7.866260
 30
0.0
 11
-10.963988
 21
7.866260
 31
0.0
  0
LINE
  5
143
100
AcDbEntity
  8
Layer_1
 62
4
100
AcDbLine
 10
-10.963988
 20
7.866260
 30
0.0
 11
-11.025588
 21
7.794060
 31
0.0
  0
LINE
  5
144
100
AcDbEntity
  8
Layer_1
 62
4
100
AcDbLine
 10
-11.025588
 20
7.794060
 30
0.0
 11
-11.025588
 21
7.794060
 31
0.0
  0
LINE
  5
145
100
AcDbEntity
  8
Layer_1
 62
4
100
AcDbLine
 10
-11.025588
 20
7.794060
 30
0.0
 11
-13.680258
 21
8.783600
 31
0.0
  0
LINE
  5
146
100
AcDbEntity
  8
Layer_1
 62
4
100
AcDbLine
 10
-13.680258
 20
8.783600
 30
0.0
 11
-13.680258
 21
8.783600
 31
0.0
  0
LINE
  5
147
100
AcDbEntity
  8
Layer_1
 62
4
100
AcDbLine
 10
-13.680258
 20
8.783600
 30
0.0
 11
-14.345071
 21
7.058520
 31
0.0
  0
LINE
  5
148
100
AcDbEntity
  8
Layer_1
 62
4
100
AcDbLine
 10
-14.345071
 20
7.058520
 30
0.0
 11
-14.428228
 21
7.045810
 31
0.0
  0
LINE
  5
149
100
AcDbEntity
  8
Layer_1
 62
4
100
AcDbLine
 10
-21.786552
 20
21.265310
 30
0.0
 11
-21.786552
 21
21.265310
 31
0.0
  0
LINE
  5
14a
100
AcDbEntity
  8
Layer_1
 62
4
100
AcDbLine
 10
-21.786552
 20
21.265310
 30
0.0
 11
-22.766860
 21
24.720240
 31
0.0
  0
LINE
  5
14b
100
AcDbEntity
  8
Layer_1
 62
4
100
AcDbLine
 10
-22.766860
 20
24.720240
 30
0.0
 11
-22.580514
 21
24.677340
 31
0.0
  0
LINE
  5
14c
100
AcDbEntity
  8
Layer_1
 62
4
100
AcDbLine
 10
-22.580514
 20
24.677340
 30
0.0
 11
-22.060343
 21
24.558800
 31
0.0
  0
LINE
  5
14d
100
AcDbEntity
  8
Layer_1
 62
4
100
AcDbLine
 10
-22.060343
 20
24.558800
 30
0.0
 11
-22.060343
 21
24.558800
 31
0.0
  0
LINE
  5
14e
100
AcDbEntity
  8
Layer_1
 62
4
100
AcDbLine
 10
-22.060343
 20
24.558800
 30
0.0
 11
-16.044697
 21
23.181380
 31
0.0
  0
LINE
  5
14f
100
AcDbEntity
  8
Layer_1
 62
4
100
AcDbLine
 10
-16.044697
 20
23.181380
 30
0.0
 11
-15.853880
 21
23.004380
 31
0.0
  0
LINE
  5
150
100
AcDbEntity
  8
Layer_1
 62
4
100
AcDbLine
 10
-15.853880
 20
23.004380
 30
0.0
 11
-15.853880
 21
23.004380
 31
0.0
  0
LINE
  5
151
100
AcDbEntity
  8
Layer_1
 62
4
100
AcDbLine
 10
-15.853880
 20
23.004380
 30
0.0
 11
-15.853880
 21
19.824880
 31
0.0
  0
LINE
  5
152
100
AcDbEntity
  8
Layer_1
 62
4
100
AcDbLine
 10
-15.853880
 20
19.824880
 30
0.0
 11
-15.853880
 21
19.824880
 31
0.0
  0
LINE
  5
153
100
AcDbEntity
  8
Layer_1
 62
4
100
AcDbLine
 10
-15.853880
 20
19.824880
 30
0.0
 11
-15.990881
 21
19.728080
 31
0.0
  0
LINE
  5
154
100
AcDbEntity
  8
Layer_1
 62
4
100
AcDbLine
 10
-15.990881
 20
19.728080
 30
0.0
 11
-15.990881
 21
19.728080
 31
0.0
  0
LINE
  5
155
100
AcDbEntity
  8
Layer_1
 62
4
100
AcDbLine
 10
-15.990881
 20
19.728080
 30
0.0
 11
-21.786552
 21
21.265310
 31
0.0
  0
LINE
  5
156
100
AcDbEntity
  8
Layer_1
 62
4
100
AcDbLine
 10
-6.062598
 20
3.752800
 30
0.0
 11
-6.062598
 21
3.752800
 31
0.0
  0
LINE
  5
157
100
AcDbEntity
  8
Layer_1
 62
4
100
AcDbLine
 10
-6.062598
 20
3.752800
 30
0.0
 11
-9.425135
 21
5.076250
 31
0.0
  0
LINE
  5
158
100
AcDbEntity
  8
Layer_1
 62
4
100
AcDbLine
 10
-9.425135
 20
5.076250
 30
0.0
 11
-9.486735
 21
5.196370
 31
0.0
  0
LINE
  5
159
100
AcDbEntity
  8
Layer_1
 62
4
100
AcDbLine
 10
-9.486735
 20
5.196370
 30
0.0
 11
-9.486735
 21
5.196370
 31
0.0
  0
LINE
  5
15a
100
AcDbEntity
  8
Layer_1
 62
4
100
AcDbLine
 10
-9.486735
 20
5.196370
 30
0.0
 11
-13.535679
 21
22.544570
 31
0.0
  0
LINE
  5
15b
100
AcDbEntity
  8
Layer_1
 62
4
100
AcDbLine
 10
-13.535679
 20
22.544570
 30
0.0
 11
-13.535679
 21
22.544570
 31
0.0
  0
LINE
  5
15c
100
AcDbEntity
  8
Layer_1
 62
4
100
AcDbLine
 10
-13.535679
 20
22.544570
 30
0.0
 11
-13.474089
 21
22.713900
 31
0.0
  0
LINE
  5
15d
100
AcDbEntity
  8
Layer_1
 62
4
100
AcDbLine
 10
-13.474089
 20
22.713900
 30
0.0
 11
-13.474089
 21
22.713900
 31
0.0
  0
LINE
  5
15e
100
AcDbEntity
  8
Layer_1
 62
4
100
AcDbLine
 10
-13.474089
 20
22.713900
 30
0.0
 11
-10.317716
 21
21.992120
 31
0.0
  0
LINE
  5
15f
100
AcDbEntity
  8
Layer_1
 62
4
100
AcDbLine
 10
-10.317716
 20
21.992120
 30
0.0
 11
-10.317716
 21
21.992120
 31
0.0
  0
LINE
  5
160
100
AcDbEntity
  8
Layer_1
 62
4
100
AcDbLine
 10
-10.317716
 20
21.992120
 30
0.0
 11
-10.234526
 21
21.878090
 31
0.0
  0
LINE
  5
161
100
AcDbEntity
  8
Layer_1
 62
4
100
AcDbLine
 10
-10.234526
 20
21.878090
 30
0.0
 11
-10.234554
 21
21.878090
 31
0.0
  0
LINE
  5
162
100
AcDbEntity
  8
Layer_1
 62
4
100
AcDbLine
 10
-10.234554
 20
21.878090
 30
0.0
 11
-6.042497
 21
3.868160
 31
0.0
  0
LINE
  5
163
100
AcDbEntity
  8
Layer_1
 62
4
100
AcDbLine
 10
-6.042497
 20
3.868160
 30
0.0
 11
-6.062417
 21
3.752540
 31
0.0
  0
LINE
  5
164
100
AcDbEntity
  8
Layer_1
 62
4
100
AcDbLine
 10
-6.062417
 20
3.752540
 30
0.0
 11
-6.062598
 21
3.752800
 31
0.0
  0
LINE
  5
165
100
AcDbEntity
  8
Layer_1
 62
4
100
AcDbLine
 10
-5.223961
 20
20.651770
 30
0.0
 11
-5.100758
 21
20.798090
 31
0.0
  0
LINE
  5
166
100
AcDbEntity
  8
Layer_1
 62
4
100
AcDbLine
 10
-5.100758
 20
20.798090
 30
0.0
 11
-5.100758
 21
20.798090
 31
0.0
  0
LINE
  5
167
100
AcDbEntity
  8
Layer_1
 62
4
100
AcDbLine
 10
-5.100758
 20
20.798090
 30
0.0
 11
-3.586521
 21
20.450160
 31
0.0
  0
LINE
  5
168
100
AcDbEntity
  8
Layer_1
 62
4
100
AcDbLine
 10
-3.586521
 20
20.450160
 30
0.0
 11
-3.586521
 21
20.450160
 31
0.0
  0
LINE
  5
169
100
AcDbEntity
  8
Layer_1
 62
4
100
AcDbLine
 10
-3.586521
 20
20.450160
 30
0.0
 11
-0.817977
 21
8.466650
 31
0.0
  0
LINE
  5
16a
100
AcDbEntity
  8
Layer_1
 62
4
100
AcDbLine
 10
-0.817977
 20
8.466650
 30
0.0
 11
-0.817977
 21
8.466650
 31
0.0
  0
LINE
  5
16b
100
AcDbEntity
  8
Layer_1
 62
4
100
AcDbLine
 10
-0.817977
 20
8.466650
 30
0.0
 11
-1.922919
 21
8.834420
 31
0.0
  0
LINE
  5
16c
100
AcDbEntity
  8
Layer_1
 62
4
100
AcDbLine
 10
-1.922919
 20
8.834420
 30
0.0
 11
-1.922919
 21
8.834420
 31
0.0
  0
LINE
  5
16d
100
AcDbEntity
  8
Layer_1
 62
4
100
AcDbLine
 10
-1.922919
 20
8.834420
 30
0.0
 11
-1.922919
 21
5.719750
 31
0.0
  0
LINE
  5
16e
100
AcDbEntity
  8
Layer_1
 62
4
100
AcDbLine
 10
-1.922919
 20
5.719750
 30
0.0
 11
-1.922919
 21
5.719750
 31
0.0
  0
LINE
  5
16f
100
AcDbEntity
  8
Layer_1
 62
4
100
AcDbLine
 10
-1.922919
 20
5.719750
 30
0.0
 11
-0.051619
 21
5.044000
 31
0.0
  0
LINE
  5
170
100
AcDbEntity
  8
Layer_1
 62
4
100
AcDbLine
 10
-0.051619
 20
5.044000
 30
0.0
 11
-0.051619
 21
5.044000
 31
0.0
  0
LINE
  5
171
100
AcDbEntity
  8
Layer_1
 62
4
100
AcDbLine
 10
-0.051619
 20
5.044000
 30
0.0
 11
0.834727
 21
1.038210
 31
0.0
  0
LINE
  5
172
100
AcDbEntity
  8
Layer_1
 62
4
100
AcDbLine
 10
0.834727
 20
1.038210
 30
0.0
 11
0.834727
 21
1.038210
 31
0.0
  0
LINE
  5
173
100
AcDbEntity
  8
Layer_1
 62
4
100
AcDbLine
 10
0.834727
 20
1.038210
 30
0.0
 11
-2.067583
 21
2.181740
 31
0.0
  0
LINE
  5
174
100
AcDbEntity
  8
Layer_1
 62
4
100
AcDbLine
 10
-2.067583
 20
2.181740
 30
0.0
 11
-3.201791
 21
2.626500
 31
0.0
  0
LINE
  5
175
100
AcDbEntity
  8
Layer_1
 62
4
100
AcDbLine
 10
-3.201791
 20
2.626500
 30
0.0
 11
-3.201791
 21
2.626500
 31
0.0
  0
LINE
  5
176
100
AcDbEntity
  8
Layer_1
 62
4
100
AcDbLine
 10
-3.201791
 20
2.626500
 30
0.0
 11
-5.080862
 21
3.366540
 31
0.0
  0
LINE
  5
177
100
AcDbEntity
  8
Layer_1
 62
4
100
AcDbLine
 10
-5.080862
 20
3.366540
 30
0.0
 11
-5.080835
 21
3.366540
 31
0.0
  0
LINE
  5
178
100
AcDbEntity
  8
Layer_1
 62
4
100
AcDbLine
 10
-5.080835
 20
3.366540
 30
0.0
 11
-5.223948
 21
3.572920
 31
0.0
  0
LINE
  5
179
100
AcDbEntity
  8
Layer_1
 62
4
100
AcDbLine
 10
-5.223948
 20
3.572920
 30
0.0
 11
-5.223975
 21
3.572910
 31
0.0
  0
LINE
  5
17a
100
AcDbEntity
  8
Layer_1
 62
4
100
AcDbLine
 10
-5.223975
 20
3.572910
 30
0.0
 11
-5.223961
 21
20.651770
 31
0.0
  0
LINE
  5
17b
100
AcDbEntity
  8
Layer_1
 62
4
100
AcDbLine
 10
3.125703
 20
0.619450
 30
0.0
 11
3.692758
 21
0.807850
 31
0.0
  0
LINE
  5
17c
100
AcDbEntity
  8
Layer_1
 62
4
100
AcDbLine
 10
3.692758
 20
0.807850
 30
0.0
 11
4.192741
 21
1.151810
 31
0.0
  0
LINE
  5
17d
100
AcDbEntity
  8
Layer_1
 62
4
100
AcDbLine
 10
4.192741
 20
1.151810
 30
0.0
 11
4.192741
 21
1.151810
 31
0.0
  0
LINE
  5
17e
100
AcDbEntity
  8
Layer_1
 62
4
100
AcDbLine
 10
4.192741
 20
1.151810
 30
0.0
 11
4.677272
 21
1.771200
 31
0.0
  0
LINE
  5
17f
100
AcDbEntity
  8
Layer_1
 62
4
100
AcDbLine
 10
4.677272
 20
1.771200
 30
0.0
 11
5.023559
 21
2.581350
 31
0.0
  0
LINE
  5
180
100
AcDbEntity
  8
Layer_1
 62
4
100
AcDbLine
 10
5.023559
 20
2.581350
 30
0.0
 11
5.231442
 21
3.582270
 31
0.0
  0
LINE
  5
181
100
AcDbEntity
  8
Layer_1
 62
4
100
AcDbLine
 10
5.231442
 20
3.582270
 30
0.0
 11
5.300792
 21
4.772890
 31
0.0
  0
LINE
  5
182
100
AcDbEntity
  8
Layer_1
 62
4
100
AcDbLine
 10
5.300792
 20
4.772890
 30
0.0
 11
5.300792
 21
4.772890
 31
0.0
  0
LINE
  5
183
100
AcDbEntity
  8
Layer_1
 62
4
100
AcDbLine
 10
5.300792
 20
4.772890
 30
0.0
 11
5.218372
 21
5.891020
 31
0.0
  0
LINE
  5
184
100
AcDbEntity
  8
Layer_1
 62
4
100
AcDbLine
 10
5.218372
 20
5.891020
 30
0.0
 11
4.971490
 21
6.998570
 31
0.0
  0
LINE
  5
185
100
AcDbEntity
  8
Layer_1
 62
4
100
AcDbLine
 10
4.971490
 20
6.998570
 30
0.0
 11
4.560724
 21
8.094210
 31
0.0
  0
LINE
  5
186
100
AcDbEntity
  8
Layer_1
 62
4
100
AcDbLine
 10
4.560724
 20
8.094210
 30
0.0
 11
3.986578
 21
9.175560
 31
0.0
  0
LINE
  5
187
100
AcDbEntity
  8
Layer_1
 62
4
100
AcDbLine
 10
3.986578
 20
9.175560
 30
0.0
 11
3.986578
 21
9.175560
 31
0.0
  0
LINE
  5
188
100
AcDbEntity
  8
Layer_1
 62
4
100
AcDbLine
 10
3.986578
 20
9.175560
 30
0.0
 11
4.561174
 21
9.821140
 31
0.0
  0
LINE
  5
189
100
AcDbEntity
  8
Layer_1
 62
4
100
AcDbLine
 10
4.561174
 20
9.821140
 30
0.0
 11
4.971887
 21
10.669930
 31
0.0
  0
LINE
  5
18a
100
AcDbEntity
  8
Layer_1
 62
4
100
AcDbLine
 10
4.971887
 20
10.669930
 30
0.0
 11
5.218531
 21
11.721650
 31
0.0
  0
LINE
  5
18b
100
AcDbEntity
  8
Layer_1
 62
4
100
AcDbLine
 10
5.218531
 20
11.721650
 30
0.0
 11
5.300791
 21
12.975240
 31
0.0
  0
LINE
  5
18c
100
AcDbEntity
  8
Layer_1
 62
4
100
AcDbLine
 10
5.300791
 20
12.975240
 30
0.0
 11
5.230091
 21
14.153170
 31
0.0
  0
LINE
  5
18d
100
AcDbEntity
  8
Layer_1
 62
4
100
AcDbLine
 10
5.230091
 20
14.153170
 30
0.0
 11
5.018135
 21
15.247750
 31
0.0
  0
LINE
  5
18e
100
AcDbEntity
  8
Layer_1
 62
4
100
AcDbLine
 10
5.018135
 20
15.247750
 30
0.0
 11
4.665101
 21
16.258460
 31
0.0
  0
LINE
  5
18f
100
AcDbEntity
  8
Layer_1
 62
4
100
AcDbLine
 10
4.665101
 20
16.258460
 30
0.0
 11
4.171151
 21
17.184230
 31
0.0
  0
LINE
  5
190
100
AcDbEntity
  8
Layer_1
 62
4
100
AcDbLine
 10
4.171151
 20
17.184230
 30
0.0
 11
3.558905
 21
17.977720
 31
0.0
  0
LINE
  5
191
100
AcDbEntity
  8
Layer_1
 62
4
100
AcDbLine
 10
3.558905
 20
17.977720
 30
0.0
 11
2.851118
 21
18.604780
 31
0.0
  0
LINE
  5
192
100
AcDbEntity
  8
Layer_1
 62
4
100
AcDbLine
 10
2.851118
 20
18.604780
 30
0.0
 11
2.048145
 21
19.066740
 31
0.0
  0
LINE
  5
193
100
AcDbEntity
  8
Layer_1
 62
4
100
AcDbLine
 10
2.048145
 20
19.066740
 30
0.0
 11
1.150226
 21
19.364930
 31
0.0
  0
LINE
  5
194
100
AcDbEntity
  8
Layer_1
 62
4
100
AcDbLine
 10
1.150226
 20
19.364930
 30
0.0
 11
1.150226
 21
19.364930
 31
0.0
  0
LINE
  5
195
100
AcDbEntity
  8
Layer_1
 62
4
100
AcDbLine
 10
1.150226
 20
19.364930
 30
0.0
 11
-2.044519
 21
20.095970
 31
0.0
  0
LINE
  5
196
100
AcDbEntity
  8
Layer_1
 62
4
100
AcDbLine
 10
-2.044519
 20
20.095970
 30
0.0
 11
-2.044519
 21
20.095970
 31
0.0
  0
LINE
  5
197
100
AcDbEntity
  8
Layer_1
 62
4
100
AcDbLine
 10
-2.044519
 20
20.095970
 30
0.0
 11
-2.049419
 21
20.098970
 31
0.0
  0
LINE
  5
198
100
AcDbEntity
  8
Layer_1
 62
4
100
AcDbLine
 10
-2.049419
 20
20.098970
 30
0.0
 11
-2.049419
 21
20.098970
 31
0.0
  0
LINE
  5
199
100
AcDbEntity
  8
Layer_1
 62
4
100
AcDbLine
 10
-2.049419
 20
20.098970
 30
0.0
 11
-2.618455
 21
20.228880
 31
0.0
  0
LINE
  5
19a
100
AcDbEntity
  8
Layer_1
 62
4
100
AcDbLine
 10
-2.618455
 20
20.228880
 30
0.0
 11
-2.618455
 21
20.228880
 31
0.0
  0
LINE
  5
19b
100
AcDbEntity
  8
Layer_1
 62
4
100
AcDbLine
 10
-2.618455
 20
20.228880
 30
0.0
 11
-1.733567
 21
16.423120
 31
0.0
  0
LINE
  5
19c
100
AcDbEntity
  8
Layer_1
 62
4
100
AcDbLine
 10
-1.733567
 20
16.423120
 30
0.0
 11
-1.733567
 21
16.423120
 31
0.0
  0
LINE
  5
19d
100
AcDbEntity
  8
Layer_1
 62
4
100
AcDbLine
 10
-1.733567
 20
16.423120
 30
0.0
 11
1.110257
 21
15.678050
 31
0.0
  0
LINE
  5
19e
100
AcDbEntity
  8
Layer_1
 62
4
100
AcDbLine
 10
1.110257
 20
15.678050
 30
0.0
 11
1.695330
 21
15.396270
 31
0.0
  0
LINE
  5
19f
100
AcDbEntity
  8
Layer_1
 62
4
100
AcDbLine
 10
1.695330
 20
15.396270
 30
0.0
 11
2.112914
 21
14.924520
 31
0.0
  0
LINE
  5
1a0
100
AcDbEntity
  8
Layer_1
 62
4
100
AcDbLine
 10
2.112914
 20
14.924520
 30
0.0
 11
2.363167
 21
14.341110
 31
0.0
  0
LINE
  5
1a1
100
AcDbEntity
  8
Layer_1
 62
4
100
AcDbLine
 10
2.363167
 20
14.341110
 30
0.0
 11
2.446257
 21
13.723840
 31
0.0
  0
LINE
  5
1a2
100
AcDbEntity
  8
Layer_1
 62
4
100
AcDbLine
 10
2.446257
 20
13.723840
 30
0.0
 11
2.362347
 21
13.150750
 31
0.0
  0
LINE
  5
1a3
100
AcDbEntity
  8
Layer_1
 62
4
100
AcDbLine
 10
2.362347
 20
13.150750
 30
0.0
 11
2.111598
 21
12.700160
 31
0.0
  0
LINE
  5
1a4
100
AcDbEntity
  8
Layer_1
 62
4
100
AcDbLine
 10
2.111598
 20
12.700160
 30
0.0
 11
1.694181
 21
12.449600
 31
0.0
  0
LINE
  5
1a5
100
AcDbEntity
  8
Layer_1
 62
4
100
AcDbLine
 10
1.694181
 20
12.449600
 30
0.0
 11
1.110254
 21
12.477100
 31
0.0
  0
LINE
  5
1a6
100
AcDbEntity
  8
Layer_1
 62
4
100
AcDbLine
 10
1.110254
 20
12.477100
 30
0.0
 11
1.110254
 21
12.477100
 31
0.0
  0
LINE
  5
1a7
100
AcDbEntity
  8
Layer_1
 62
4
100
AcDbLine
 10
1.110254
 20
12.477100
 30
0.0
 11
-0.965657
 21
13.080350
 31
0.0
  0
LINE
  5
1a8
100
AcDbEntity
  8
Layer_1
 62
4
100
AcDbLine
 10
-0.965657
 20
13.080350
 30
0.0
 11
-0.965657
 21
13.080350
 31
0.0
  0
LINE
  5
1a9
100
AcDbEntity
  8
Layer_1
 62
4
100
AcDbLine
 10
-0.965657
 20
13.080350
 30
0.0
 11
0.150069
 21
8.145080
 31
0.0
  0
LINE
  5
1aa
100
AcDbEntity
  8
Layer_1
 62
4
100
AcDbLine
 10
0.150069
 20
8.145080
 30
0.0
 11
0.150069
 21
8.145080
 31
0.0
  0
LINE
  5
1ab
100
AcDbEntity
  8
Layer_1
 62
4
100
AcDbLine
 10
0.150069
 20
8.145080
 30
0.0
 11
1.088685
 21
7.834190
 31
0.0
  0
LINE
  5
1ac
100
AcDbEntity
  8
Layer_1
 62
4
100
AcDbLine
 10
1.088685
 20
7.834190
 30
0.0
 11
1.088685
 21
7.834190
 31
0.0
  0
LINE
  5
1ad
100
AcDbEntity
  8
Layer_1
 62
4
100
AcDbLine
 10
1.088685
 20
7.834190
 30
0.0
 11
1.088685
 21
7.832190
 31
0.0
  0
LINE
  5
1ae
100
AcDbEntity
  8
Layer_1
 62
4
100
AcDbLine
 10
1.088685
 20
7.832190
 30
0.0
 11
1.088685
 21
7.832190
 31
0.0
  0
LINE
  5
1af
100
AcDbEntity
  8
Layer_1
 62
4
100
AcDbLine
 10
1.088685
 20
7.832190
 30
0.0
 11
1.700817
 21
7.493790
 31
0.0
  0
LINE
  5
1b0
100
AcDbEntity
  8
Layer_1
 62
4
100
AcDbLine
 10
1.700817
 20
7.493790
 30
0.0
 11
2.133942
 21
6.982610
 31
0.0
  0
LINE
  5
1b1
100
AcDbEntity
  8
Layer_1
 62
4
100
AcDbLine
 10
2.133942
 20
6.982610
 30
0.0
 11
2.390117
 21
6.376190
 31
0.0
  0
LINE
  5
1b2
100
AcDbEntity
  8
Layer_1
 62
4
100
AcDbLine
 10
2.390117
 20
6.376190
 30
0.0
 11
2.471397
 21
5.752300
 31
0.0
  0
LINE
  5
1b3
100
AcDbEntity
  8
Layer_1
 62
4
100
AcDbLine
 10
2.471397
 20
5.752300
 30
0.0
 11
2.379837
 21
5.188470
 31
0.0
  0
LINE
  5
1b4
100
AcDbEntity
  8
Layer_1
 62
4
100
AcDbLine
 10
2.379837
 20
5.188470
 30
0.0
 11
2.117494
 21
4.762230
 31
0.0
  0
LINE
  5
1b5
100
AcDbEntity
  8
Layer_1
 62
4
100
AcDbLine
 10
2.117494
 20
4.762230
 30
0.0
 11
1.686425
 21
4.551090
 31
0.0
  0
LINE
  5
1b6
100
AcDbEntity
  8
Layer_1
 62
4
100
AcDbLine
 10
1.686425
 20
4.551090
 30
0.0
 11
1.088686
 21
4.632890
 31
0.0
  0
LINE
  5
1b7
100
AcDbEntity
  8
Layer_1
 62
4
100
AcDbLine
 10
1.088686
 20
4.632890
 30
0.0
 11
1.088686
 21
4.632890
 31
0.0
  0
LINE
  5
1b8
100
AcDbEntity
  8
Layer_1
 62
4
100
AcDbLine
 10
1.088686
 20
4.632890
 30
0.0
 11
0.916334
 21
4.694490
 31
0.0
  0
LINE
  5
1b9
100
AcDbEntity
  8
Layer_1
 62
4
100
AcDbLine
 10
0.916334
 20
4.694490
 30
0.0
 11
0.916334
 21
4.694490
 31
0.0
  0
LINE
  5
1ba
100
AcDbEntity
  8
Layer_1
 62
4
100
AcDbLine
 10
0.916334
 20
4.694490
 30
0.0
 11
1.792009
 21
0.702500
 31
0.0
  0
LINE
  5
1bb
100
AcDbEntity
  8
Layer_1
 62
4
100
AcDbLine
 10
1.792009
 20
0.702500
 30
0.0
 11
3.125703
 21
0.619450
 31
0.0
  0
LINE
  5
1bc
100
AcDbEntity
  8
Layer_1
 62
4
100
AcDbLine
 10
-25.093816
 20
11.222290
 30
0.0
 11
-22.080556
 21
10.035890
 31
0.0
  0
LINE
  5
1bd
100
AcDbEntity
  8
Layer_1
 62
4
100
AcDbLine
 10
-22.080556
 20
10.035890
 30
0.0
 11
-22.080556
 21
10.035890
 31
0.0
  0
LINE
  5
1be
100
AcDbEntity
  8
Layer_1
 62
4
100
AcDbLine
 10
-22.080556
 20
10.035890
 30
0.0
 11
-21.937443
 21
10.125090
 31
0.0
  0
LINE
  5
1bf
100
AcDbEntity
  8
Layer_1
 62
4
100
AcDbLine
 10
-21.937443
 20
10.125090
 30
0.0
 11
-21.937443
 21
10.125090
 31
0.0
  0
LINE
  5
1c0
100
AcDbEntity
  8
Layer_1
 62
4
100
AcDbLine
 10
-21.937443
 20
10.125090
 30
0.0
 11
-21.937443
 21
15.494540
 31
0.0
  0
LINE
  5
1c1
100
AcDbEntity
  8
Layer_1
 62
4
100
AcDbLine
 10
-21.937443
 20
15.494540
 30
0.0
 11
-20.989494
 21
15.180750
 31
0.0
  0
LINE
  5
1c2
100
AcDbEntity
  8
Layer_1
 62
4
100
AcDbLine
 10
-20.989494
 20
15.180750
 30
0.0
 11
-23.734996
 21
24.942020
 31
0.0
  0
LINE
  5
1c3
100
AcDbEntity
  8
Layer_1
 62
4
100
AcDbLine
 10
-23.734996
 20
24.942020
 30
0.0
 11
-23.734996
 21
24.942020
 31
0.0
  0
LINE
  5
1c4
100
AcDbEntity
  8
Layer_1
 62
4
100
AcDbLine
 10
-23.734996
 20
24.942020
 30
0.0
 11
-25.113740
 21
25.257400
 31
0.0
  0
LINE
  5
1c5
100
AcDbEntity
  8
Layer_1
 62
4
100
AcDbLine
 10
-25.113740
 20
25.257400
 30
0.0
 11
-25.113713
 21
25.257400
 31
0.0
  0
LINE
  5
1c6
100
AcDbEntity
  8
Layer_1
 62
4
100
AcDbLine
 10
-25.113713
 20
25.257400
 30
0.0
 11
-25.236930
 21
25.146810
 31
0.0
  0
LINE
  5
1c7
100
AcDbEntity
  8
Layer_1
 62
4
100
AcDbLine
 10
-25.236930
 20
25.146810
 30
0.0
 11
-25.236930
 21
11.398000
 31
0.0
  0
LINE
  5
1c8
100
AcDbEntity
  8
Layer_1
 62
4
100
AcDbLine
 10
-25.236930
 20
11.398000
 30
0.0
 11
-25.093816
 21
11.222570
 31
0.0
  0
LINE
  5
1c9
100
AcDbEntity
  8
Layer_1
 62
4
100
AcDbLine
 10
-25.093816
 20
11.222570
 30
0.0
 11
-25.093816
 21
11.222290
 31
0.0
  0
LINE
  5
1ca
100
AcDbEntity
  8
Layer_1
 62
4
100
AcDbLine
 10
-17.457518
 20
14.141730
 30
0.0
 11
-17.457518
 21
14.141730
 31
0.0
  0
LINE
  5
1cb
100
AcDbEntity
  8
Layer_1
 62
4
100
AcDbLine
 10
-17.457518
 20
14.141730
 30
0.0
 11
-17.457518
 21
17.268840
 31
0.0
  0
LINE
  5
1cc
100
AcDbEntity
  8
Layer_1
 62
4
100
AcDbLine
 10
-17.457518
 20
17.268840
 30
0.0
 11
-17.457518
 21
17.268840
 31
0.0
  0
LINE
  5
1cd
100
AcDbEntity
  8
Layer_1
 62
4
100
AcDbLine
 10
-17.457518
 20
17.268840
 30
0.0
 11
-17.665243
 21
17.461190
 31
0.0
  0
LINE
  5
1ce
100
AcDbEntity
  8
Layer_1
 62
4
100
AcDbLine
 10
-17.665243
 20
17.461190
 30
0.0
 11
-21.000183
 21
18.444650
 31
0.0
  0
LINE
  5
1cf
100
AcDbEntity
  8
Layer_1
 62
4
100
AcDbLine
 10
-21.000183
 20
18.444650
 30
0.0
 11
-21.000183
 21
18.444650
 31
0.0
  0
LINE
  5
1d0
100
AcDbEntity
  8
Layer_1
 62
4
100
AcDbLine
 10
-21.000183
 20
18.444650
 30
0.0
 11
-20.021463
 21
14.860340
 31
0.0
  0
LINE
  5
1d1
100
AcDbEntity
  8
Layer_1
 62
4
100
AcDbLine
 10
-20.021463
 20
14.860340
 30
0.0
 11
-20.021463
 21
14.860340
 31
0.0
  0
LINE
  5
1d2
100
AcDbEntity
  8
Layer_1
 62
4
100
AcDbLine
 10
-20.021463
 20
14.860340
 30
0.0
 11
-17.606849
 21
14.060240
 31
0.0
  0
LINE
  5
1d3
100
AcDbEntity
  8
Layer_1
 62
4
100
AcDbLine
 10
-17.606849
 20
14.060240
 30
0.0
 11
-17.606849
 21
14.060240
 31
0.0
  0
LINE
  5
1d4
100
AcDbEntity
  8
Layer_1
 62
4
100
AcDbLine
 10
-17.606849
 20
14.060240
 30
0.0
 11
-17.457518
 21
14.141730
 31
0.0
  0
LINE
  5
1d5
100
AcDbEntity
  8
Layer_1
 62
4
100
AcDbLine
 10
18.121351
 20
6.808750
 30
0.0
 11
20.183566
 21
14.921940
 31
0.0
  0
LINE
  5
1d6
100
AcDbEntity
  8
Layer_1
 62
4
100
AcDbLine
 10
20.183566
 20
14.921940
 30
0.0
 11
20.183566
 21
14.921940
 31
0.0
  0
LINE
  5
1d7
100
AcDbEntity
  8
Layer_1
 62
4
100
AcDbLine
 10
20.183566
 20
14.921940
 30
0.0
 11
20.257466
 21
15.138100
 31
0.0
  0
LINE
  5
1d8
100
AcDbEntity
  8
Layer_1
 62
4
100
AcDbLine
 10
20.257466
 20
15.138100
 30
0.0
 11
20.317446
 21
15.075700
 31
0.0
  0
LINE
  5
1d9
100
AcDbEntity
  8
Layer_1
 62
4
100
AcDbLine
 10
20.317446
 20
15.075700
 30
0.0
 11
21.319291
 21
12.599730
 31
0.0
  0
LINE
  5
1da
100
AcDbEntity
  8
Layer_1
 62
4
100
AcDbLine
 10
21.319291
 20
12.599730
 30
0.0
 11
21.319291
 21
12.599730
 31
0.0
  0
LINE
  5
1db
100
AcDbEntity
  8
Layer_1
 62
4
100
AcDbLine
 10
21.319291
 20
12.599730
 30
0.0
 11
20.269742
 21
8.352110
 31
0.0
  0
LINE
  5
1dc
100
AcDbEntity
  8
Layer_1
 62
4
100
AcDbLine
 10
20.269742
 20
8.352110
 30
0.0
 11
20.189782
 21
8.107370
 31
0.0
  0
LINE
  5
1dd
100
AcDbEntity
  8
Layer_1
 62
4
100
AcDbLine
 10
20.189782
 20
8.107370
 30
0.0
 11
20.189782
 21
8.107370
 31
0.0
  0
LINE
  5
1de
100
AcDbEntity
  8
Layer_1
 62
4
100
AcDbLine
 10
20.189782
 20
8.107370
 30
0.0
 11
20.187982
 21
8.107630
 31
0.0
  0
LINE
  5
1df
100
AcDbEntity
  8
Layer_1
 62
4
100
AcDbLine
 10
20.187982
 20
8.107630
 30
0.0
 11
20.187982
 21
8.107630
 31
0.0
  0
LINE
  5
1e0
100
AcDbEntity
  8
Layer_1
 62
4
100
AcDbLine
 10
20.187982
 20
8.107630
 30
0.0
 11
18.201279
 21
6.696340
 31
0.0
  0
LINE
  5
1e1
100
AcDbEntity
  8
Layer_1
 62
4
100
AcDbLine
 10
18.201279
 20
6.696340
 30
0.0
 11
18.201296
 21
6.696590
 31
0.0
  0
LINE
  5
1e2
100
AcDbEntity
  8
Layer_1
 62
4
100
AcDbLine
 10
18.201296
 20
6.696590
 30
0.0
 11
18.121351
 21
6.808750
 31
0.0
  0
LINE
  5
1e3
100
AcDbEntity
  8
Layer_1
 62
4
100
AcDbLine
 10
23.188870
 20
19.415620
 30
0.0
 11
23.188842
 21
19.415620
 31
0.0
  0
LINE
  5
1e4
100
AcDbEntity
  8
Layer_1
 62
4
100
AcDbLine
 10
23.188842
 20
19.415620
 30
0.0
 11
25.207930
 21
26.953330
 31
0.0
  0
LINE
  5
1e5
100
AcDbEntity
  8
Layer_1
 62
4
100
AcDbLine
 10
25.207930
 20
26.953330
 30
0.0
 11
25.207930
 21
26.953330
 31
0.0
  0
LINE
  5
1e6
100
AcDbEntity
  8
Layer_1
 62
4
100
AcDbLine
 10
25.207930
 20
26.953330
 30
0.0
 11
25.127970
 21
27.067370
 31
0.0
  0
LINE
  5
1e7
100
AcDbEntity
  8
Layer_1
 62
4
100
AcDbLine
 10
25.127970
 20
27.067370
 30
0.0
 11
25.127970
 21
27.067370
 31
0.0
  0
LINE
  5
1e8
100
AcDbEntity
  8
Layer_1
 62
4
100
AcDbLine
 10
25.127970
 20
27.067370
 30
0.0
 11
23.139679
 21
26.063800
 31
0.0
  0
LINE
  5
1e9
100
AcDbEntity
  8
Layer_1
 62
4
100
AcDbLine
 10
23.139679
 20
26.063800
 30
0.0
 11
23.139679
 21
26.063800
 31
0.0
  0
LINE
  5
1ea
100
AcDbEntity
  8
Layer_1
 62
4
100
AcDbLine
 10
23.139679
 20
26.063800
 30
0.0
 11
23.139600
 21
26.064070
 31
0.0
  0
LINE
  5
1eb
100
AcDbEntity
  8
Layer_1
 62
4
100
AcDbLine
 10
23.139600
 20
26.064070
 30
0.0
 11
23.139604
 21
26.064070
 31
0.0
  0
LINE
  5
1ec
100
AcDbEntity
  8
Layer_1
 62
4
100
AcDbLine
 10
23.139604
 20
26.064070
 30
0.0
 11
23.059644
 21
25.842350
 31
0.0
  0
LINE
  5
1ed
100
AcDbEntity
  8
Layer_1
 62
4
100
AcDbLine
 10
23.059644
 20
25.842350
 30
0.0
 11
22.067007
 21
21.972020
 31
0.0
  0
LINE
  5
1ee
100
AcDbEntity
  8
Layer_1
 62
4
100
AcDbLine
 10
22.067007
 20
21.972020
 30
0.0
 11
22.067007
 21
21.972020
 31
0.0
  0
LINE
  5
1ef
100
AcDbEntity
  8
Layer_1
 62
4
100
AcDbLine
 10
22.067007
 20
21.972020
 30
0.0
 11
23.056522
 21
19.269570
 31
0.0
  0
LINE
  5
1f0
100
AcDbEntity
  8
Layer_1
 62
4
100
AcDbLine
 10
23.056522
 20
19.269570
 30
0.0
 11
23.056522
 21
19.269570
 31
0.0
  0
LINE
  5
1f1
100
AcDbEntity
  8
Layer_1
 62
4
100
AcDbLine
 10
23.056522
 20
19.269570
 30
0.0
 11
23.116322
 21
19.208170
 31
0.0
  0
LINE
  5
1f2
100
AcDbEntity
  8
Layer_1
 62
4
100
AcDbLine
 10
23.116322
 20
19.208170
 30
0.0
 11
23.188870
 21
19.415620
 31
0.0
  0
LINE
  5
1f3
100
AcDbEntity
  8
Layer_1
 62
4
100
AcDbLine
 10
17.451848
 20
23.047600
 30
0.0
 11
17.440868
 21
22.990700
 31
0.0
  0
LINE
  5
1f4
100
AcDbEntity
  8
Layer_1
 62
4
100
AcDbLine
 10
17.440868
 20
22.990700
 30
0.0
 11
17.440868
 21
22.990700
 31
0.0
  0
LINE
  5
1f5
100
AcDbEntity
  8
Layer_1
 62
4
100
AcDbLine
 10
17.440868
 20
22.990700
 30
0.0
 11
17.451848
 21
22.890690
 31
0.0
  0
LINE
  5
1f6
100
AcDbEntity
  8
Layer_1
 62
4
100
AcDbLine
 10
17.451848
 20
22.890690
 30
0.0
 11
17.451848
 21
22.890690
 31
0.0
  0
LINE
  5
1f7
100
AcDbEntity
  8
Layer_1
 62
4
100
AcDbLine
 10
17.451848
 20
22.890690
 30
0.0
 11
17.404248
 21
6.276180
 31
0.0
  0
LINE
  5
1f8
100
AcDbEntity
  8
Layer_1
 62
4
100
AcDbLine
 10
17.404248
 20
6.276180
 30
0.0
 11
17.308838
 21
6.062390
 31
0.0
  0
LINE
  5
1f9
100
AcDbEntity
  8
Layer_1
 62
4
100
AcDbLine
 10
17.308838
 20
6.062390
 30
0.0
 11
17.308838
 21
6.062390
 31
0.0
  0
LINE
  5
1fa
100
AcDbEntity
  8
Layer_1
 62
4
100
AcDbLine
 10
17.308838
 20
6.062390
 30
0.0
 11
15.352800
 21
4.674390
 31
0.0
  0
LINE
  5
1fb
100
AcDbEntity
  8
Layer_1
 62
4
100
AcDbLine
 10
15.352800
 20
4.674390
 30
0.0
 11
15.352828
 21
4.674390
 31
0.0
  0
LINE
  5
1fc
100
AcDbEntity
  8
Layer_1
 62
4
100
AcDbLine
 10
15.352828
 20
4.674390
 30
0.0
 11
15.258958
 21
4.782070
 31
0.0
  0
LINE
  5
1fd
100
AcDbEntity
  8
Layer_1
 62
4
100
AcDbLine
 10
15.258958
 20
4.782070
 30
0.0
 11
15.286658
 21
12.342810
 31
0.0
  0
LINE
  5
1fe
100
AcDbEntity
  8
Layer_1
 62
4
100
AcDbLine
 10
15.286658
 20
12.342810
 30
0.0
 11
14.517170
 21
8.944760
 31
0.0
  0
LINE
  5
1ff
100
AcDbEntity
  8
Layer_1
 62
4
100
AcDbLine
 10
14.517170
 20
8.944760
 30
0.0
 11
14.517199
 21
8.944760
 31
0.0
  0
LINE
  5
200
100
AcDbEntity
  8
Layer_1
 62
4
100
AcDbLine
 10
14.517199
 20
8.944760
 30
0.0
 11
14.476589
 21
8.816960
 31
0.0
  0
LINE
  5
201
100
AcDbEntity
  8
Layer_1
 62
4
100
AcDbLine
 10
14.476589
 20
8.816960
 30
0.0
 11
14.437139
 21
8.890760
 31
0.0
  0
LINE
  5
202
100
AcDbEntity
  8
Layer_1
 62
4
100
AcDbLine
 10
14.437139
 20
8.890760
 30
0.0
 11
14.437139
 21
8.890760
 31
0.0
  0
LINE
  5
203
100
AcDbEntity
  8
Layer_1
 62
4
100
AcDbLine
 10
14.437139
 20
8.890760
 30
0.0
 11
13.453735
 21
12.792040
 31
0.0
  0
LINE
  5
204
100
AcDbEntity
  8
Layer_1
 62
4
100
AcDbLine
 10
13.453735
 20
12.792040
 30
0.0
 11
15.238853
 21
21.951910
 31
0.0
  0
LINE
  5
205
100
AcDbEntity
  8
Layer_1
 62
4
100
AcDbLine
 10
15.238853
 20
21.951910
 30
0.0
 11
15.238853
 21
21.951910
 31
0.0
  0
LINE
  5
206
100
AcDbEntity
  8
Layer_1
 62
4
100
AcDbLine
 10
15.238853
 20
21.951910
 30
0.0
 11
15.294233
 21
22.104310
 31
0.0
  0
LINE
  5
207
100
AcDbEntity
  8
Layer_1
 62
4
100
AcDbLine
 10
15.294233
 20
22.104310
 30
0.0
 11
15.294233
 21
22.104310
 31
0.0
  0
LINE
  5
208
100
AcDbEntity
  8
Layer_1
 62
4
100
AcDbLine
 10
15.294233
 20
22.104310
 30
0.0
 11
17.399496
 21
23.165820
 31
0.0
  0
LINE
  5
209
100
AcDbEntity
  8
Layer_1
 62
4
100
AcDbLine
 10
17.399496
 20
23.165820
 30
0.0
 11
17.399491
 21
23.166110
 31
0.0
  0
LINE
  5
20a
100
AcDbEntity
  8
Layer_1
 62
4
100
AcDbLine
 10
17.399491
 20
23.166110
 30
0.0
 11
17.451848
 21
23.047600
 31
0.0
  0
ENDSEC
  0
SECTION
  2
OBJECTS
  0
DICTIONARY
  5
C
330
0
100
AcDbDictionary
  3
ACAD_GROUP
350
D
  3
ACAD_MLINESTYLE
350
17
  0
DICTIONARY
  5
D
330
C
100
AcDbDictionary
  0
DICTIONARY
  5
1A
330
C
100
AcDbDictionary
  0
DICTIONARY
  5
17
330
C
100
AcDbDictionary
  3
STANDARD
350
18
  0
DICTIONARY
  5
19
330
C
100
AcDbDictionary
  0
ENDSEC
  0
EOF
