<?xml version="1.0" encoding="UTF-8" standalone="no"?>
<svg
   viewBox="0 0 793.7007874015749 1122.5196850393702"
   width="793.7007874015749"
   height="1122.5196850393702"
   version="1.1"
   id="svg284"
   sodipodi:docname="fabmax_logo.svg"
   inkscape:version="1.2.1 (9c6d41e410, 2022-07-14)"
   xmlns:inkscape="http://www.inkscape.org/namespaces/inkscape"
   xmlns:sodipodi="http://sodipodi.sourceforge.net/DTD/sodipodi-0.dtd"
   xmlns="http://www.w3.org/2000/svg"
   xmlns:svg="http://www.w3.org/2000/svg">
  <sodipodi:namedview
     id="namedview286"
     pagecolor="#ffffff"
     bordercolor="#666666"
     borderopacity="1.0"
     inkscape:showpageshadow="2"
     inkscape:pageopacity="0.0"
     inkscape:pagecheckerboard="0"
     inkscape:deskcolor="#d1d1d1"
     showgrid="false"
     inkscape:zoom="6.65551"
     inkscape:cx="1.1268858"
     inkscape:cy="437.08145"
     inkscape:window-width="1858"
     inkscape:window-height="1057"
     inkscape:window-x="54"
     inkscape:window-y="-8"
     inkscape:window-maximized="1"
     inkscape:current-layer="g282" />
  <desc
     id="desc2">fabmax_logo.dxf - scale = 1.000000, origin = (0.000000, 0.000000), method = manual</desc>
  <defs
     id="defs16">
    <marker
       id="DistanceX"
       orient="auto"
       refX="0.0"
       refY="0.0"
       style="overflow:visible">
      <path
         d="M 3,-3 L -3,3 M 0,-5 L  0,5"
         style="stroke:#000000; stroke-width:0.5"
         id="path4" />
    </marker>
    <pattern
       id="Hatch"
       patternUnits="userSpaceOnUse"
       width="8"
       height="8"
       x="0"
       y="0">
      <path
         d="M8 4 l-4,4"
         stroke="#000000"
         stroke-width="0.25"
         linecap="square"
         id="path7" />
      <path
         d="M6 2 l-4,4"
         stroke="#000000"
         stroke-width="0.25"
         linecap="square"
         id="path9" />
      <path
         d="M4 0 l-4,4"
         stroke="#000000"
         stroke-width="0.25"
         linecap="square"
         id="path11" />
    </pattern>
    <symbol
       id="*MODEL_SPACE" />
    <symbol
       id="*PAPER_SPACE" />
  </defs>
  <g
     inkscape:groupmode="layer"
     inkscape:label="0"
     id="g282">
    <path
       id="path280"
       style="fill:#ff0000;stroke:#000000"
       d="m 66.905677,407.85153 c 0.20522,-0.10465 0.26732,0.0463 0.19792,0.44762 l 1e-5,-1.5e-4 -0.0415,0.215 -1e-5,-4e-5 c 0.02313,0.10502 0.04149,0.20967 0.04149,0.37822 l 1.3e-5,-1.8e-4 -0.1799,62.795 -4.1e-5,-3.2e-4 c -0.0056,0.37274 -0.125962,0.64264 -0.36059,0.80858 l 3.1e-5,-2.6e-4 -7.3929,5.246 3.1e-5,4.4e-4 c -0.23868,0.16855 -0.354715,0.029 -0.354715,-0.40759 l -1.6e-5,1.5e-4 0.1047,-28.576 v 0 l -2.9083,12.843 4.4e-5,-2e-4 c -0.104652,0.57614 -0.203793,0.64554 -0.302573,0.20379 l 2.9e-5,4.1e-4 -3.7168,-14.745 h 0 l 6.7469,-34.62 1.6e-5,4.3e-4 c 0.03488,-0.33195 0.104652,-0.52254 0.209304,-0.57614 l -10e-6,-2.9e-4 7.9569,-4.012 z m 21.6949,-10.95321 c -0.0694,0.0349 -0.168545,0.31433 -0.302206,0.83759 l 2.9e-5,9e-5 -3.7517,14.628 v 0 l 3.7399,10.214 2.1e-5,9e-5 c 0.133654,0.4946 0.302198,0.30848 0.500126,-0.55227 l -4.7e-5,1.8e-4 7.6312,-28.489 -2e-6,-3e-5 c 0.09914,-0.43807 0,-0.58164 -0.302206,-0.43072 l 8e-6,-2.5e-4 -7.5148,3.793 0,0 -3e-4,-10e-4 z m -18.664409,73.20022 c -0.300924,0.2139 -0.401771,0.0722 -0.302205,-0.42448 l 3.7e-5,-6e-5 7.7942,-30.664 -5e-5,-8e-5 c 0.203796,-0.8956 0.372341,-1.08764 0.506001,-0.58128 l 4.9e-5,3.6e-4 3.7865,9.358 0,0 -3.9668,16.054 5e-6,-2.8e-4 c -0.133661,0.57026 -0.238685,0.86658 -0.302205,0.92498 v 3e-4 l -0.0067,-0.001 h 0 l -7.5088,5.334 z M -65.401634,442.26735 c 0.378216,0.12191 0.564386,0.0184 0.564386,-0.30808 l 4.8e-5,-2.7e-4 V 430.14 l -4.8e-5,2e-4 c 0,-0.33121 -0.261813,-0.57026 -0.785073,-0.72705 l 2.1e-5,-1.5e-4 -12.6045,-3.717 v 0 l 3.6991,13.547 v 0 l 9.1261,3.024 z m -28.297167,10.72518 c -0.36049,-0.14001 -0.540884,-0.36118 -0.540885,-0.66316 l -1.4e-5,-3.7e-4 v -51.964 l 1.4e-5,4.3e-4 c 0,-0.34921 0.151286,-0.49391 0.465609,-0.41861 l -2.3e-5,1.8e-4 5.211,1.192 v 0 l 10.3767,36.893 v 0 l -3.5828,-1.186 v 0 20.294 l -7e-6,-3.1e-4 c 0,0.36685 -0.180295,0.47699 -0.540886,0.33745 l -7e-6,-1.4e-4 -11.3887,-4.484 z M 7.916823,492.75331 c 3.693297,0.97125 6.723799,0.43073 9.073512,-1.6983 v 0 c 2.789825,-2.63864 4.187915,-7.20754 4.187916,-13.68591 v 0 c -6e-6,-5.65703 -1.663079,-11.22851 -4.967115,-16.6404 v 0 c 3.308041,-2.73841 4.967114,-7.53508 4.967115,-14.36082 v 0 c -2e-6,-6.1447 -1.425663,-11.45681 -4.269435,-15.90821 v 0 c -2.844331,-4.42036 -6.654031,-7.14828 -11.417717,-8.2418 l 1e-6,1.3e-4 -12.07464,-2.763 0,0 -0.01836,-0.011 v 0 l -2.15069,-0.491 v 0 l 3.34446,14.384 v 0 l 10.74831,2.816 v -2.6e-4 c 6.741425,1.62265 6.723799,14.04099 0,12.09814 l 0,1.2e-4 -7.84596,-2.28 v 0 l 4.21692,18.653 0,0 3.54752,1.175 v 0 0.007 h 2e-6 c 7.078514,2.27995 6.85746,14.65128 0,12.0919 l -2e-6,1e-4 -0.65141,-0.233 v 0 l 3.30957,15.088 z m -26.516981,-75.39974 c -2e-6,-0.43571 0.15742,-0.62243 0.465609,-0.55227 l 4.9e-5,-3e-4 5.7231,1.315 v 0 l 10.46376,45.292 v 0 l -4.17616,-1.39 v 0 11.772 0 l 7.072635,2.554 v 0 l 3.349965,15.14 v 0 l -10.96936,-4.322 v 0 l -4.28674,-1.681 v 0 l -7.102,-2.797 2.7e-5,-4.1e-4 c -0.360223,-0.14541 -0.540885,-0.40135 -0.540885,-0.77957 l -4.2e-5,-2e-5 v -64.55 z m -3.168942,63.87143 -7e-4,-0.001 v 0 l -12.7088,-5.002 -2.1e-5,-3e-5 c -0.0552,-0.0879 -0.140055,-0.25333 -0.232804,-0.45386 l 2.5e-5,-1.1e-4 -15.3031,-65.568 1.5e-5,-2.2e-4 c -0.104652,-0.48875 -0.02938,-0.69807 0.232804,-0.63967 l -1.9e-5,-1.1e-4 11.9296,2.728 1.3e-5,4e-5 c 0.10684,0.03 0.211751,0.17376 0.314323,0.43073 l -3.6e-5,2.3e-4 15.844,68.069 -1.4e-5,10e-5 c 0.04736,0.32607 0.02937,0.477 -0.07528,0.4366 z m -37.5249,-60.38 -21.9049,-5.81 v 0 l -3.7051,-13.058 v 0 l 0.7043,0.162 v 0 l 1.966,0.448 h 0 l 22.7363,5.206 -2.5e-5,-2.2e-4 c 0.4825,0.1109 0.72118,0.33158 0.72118,0.66904 l 4.5e-5,1.8e-4 v 12.017 l -4.5e-5,-1.9e-4 c 0,0.33668 -0.174008,0.45984 -0.517752,0.36646 z m 6.220371,47.88532 c -0.04757,0.0937 -0.157506,0.11028 -0.314323,0.0474 l -4.8e-5,2.8e-4 v -0.001 h 0 l -11.7724,-4.63 1.6e-5,3.3e-4 c -0.36059,-0.14541 -0.540885,-0.38372 -0.540885,-0.7153 l -3.1e-5,-3e-5 13.1219,-46.171 2.3e-5,3e-5 c 0.05361,-0.16263 0.156794,-0.22103 0.314323,-0.17993 v 0 c 0.156794,0.0367 0.255941,0.14541 0.308081,0.33122 l -2.7e-5,-3.2e-4 6.3691,24.127 h 0 l -2.1286,7.695 v 0 l 3.763,1.256 1.8e-5,6e-5 c 0.04737,0.0184 0.127785,0.11053 0.232805,0.25594 h -2.3e-5 l 3.426,14.931 -1e-6,-3.1e-4 c 0.04761,0.25726 -0.03041,0.34883 -0.232805,0.2732 l 6e-6,8e-5 -10.0334,-3.74 h 0 l -2.5127,6.52 z M 96.365755,451.3405 c 0.233199,-0.16373 0.319042,-0.39731 0.250064,-0.68043 l -1.9e-5,-7e-5 -18.3971,-48.166 3.1e-5,8e-5 c -0.0638,-0.20351 -0.168366,-0.27402 -0.302205,-0.20379 l -2.6e-5,-2.9e-4 -7.9627,4.019 -6e-6,2.9e-4 c -0.240516,0.12228 -0.302206,0.36647 -0.203796,0.73881 l 2e-6,-10e-5 18.3975,49.783 -4.8e-5,2.4e-4 c 0.03452,0.14541 0.08152,0.2328 0.150919,0.2328 l 2.9e-5,-4e-5 8.0674,-5.724 z M 41.9882,489.932 l -7.3928,5.253 -2.9e-5,-4.6e-4 c -0.239314,0.16999 -0.356154,0.0512 -0.34884,-0.35471 l -3.1e-5,1.7e-4 0.3841,-69.425 2e-5,1.6e-4 c 0,-0.20967 0.01689,-0.37234 0.04627,-0.51775 v 0 c -0.08315,-0.3974 -0.0133,-0.65364 0.209304,-0.76782 l 6e-6,4.1e-4 7.9043,-3.996 4.1e-5,-2.8e-4 c 0.139536,-0.0639 0.238683,0.0114 0.302573,0.24419 l -2e-5,9e-5 11.7434,47.189 h 0 l -0.1568,1.151 4.3e-5,3.2e-4 c -0.07,0.42661 -0.157503,0.67551 -0.261814,0.74468 h -2.9e-5 l -7.7416,5.218 -4.9e-5,-4.5e-4 c -0.02261,-0.0268 -0.05144,-0.0797 -0.06455,-0.10435 -0.03,-0.0565 -0.06044,-0.1215 -0.08673,-0.1806 l 3.5e-5,4e-4 -4.0194,-16.444 v 0 l -0.1568,31.042 -10e-7,3.7e-4 c 10e-7,0.46165 -0.120404,0.77824 -0.36059,0.94811 z m -61.327899,-111.04484 87.434726,14.58335 -16.149823,7.51181 -71.653205,-12.48516 -25.82334,9.1385 -18.366976,-4.0146 z"
       sodipodi:nodetypes="ccccccccccccccccccccccccccccccccccccccccccccccccccccccccccccccccccccccccccccccccccccccccccccccccccccccccccccccccccccccccccccccccccccccccccccccccccccccccccccccccccccccccccccccccccccccccccccccccccccccccccccccccccccccccccccccccccccccccccccccccccccccccccccccccccccccccccsccccccccccccccc" />
  </g>
</svg>
