999
dxfrw 0.6.3
  0
SECTION
  2
HEADER
  9
$ACADVER
  1
AC1021
  9
$DWGCODEPAGE
  3
ANSI_1252
  9
$INSBASE
 10
0
 20
0
 30
0
  9
$EXTMIN
 10
-25.23693
 20
0.05896
 30
0
  9
$EXTMAX
 10
25.260248
 20
30.8295
 30
0
  9
$LIMMIN
 10
0
 20
0
  9
$LIMMAX
 10
420
 20
297
  9
$ORTHOMODE
 70
    0
  9
$REGENMODE
 70
    1
  9
$FILLMODE
 70
    1
  9
$QTEXTMODE
 70
    0
  9
$MIRRTEXT
 70
    0
  9
$LTSCALE
 40
1
  9
$ATTMODE
 70
    0
  9
$TEXTSIZE
 40
2.5
  9
$TRACEWID
 40
15.68
  9
$TEXTSTYLE
  7
STANDARD
  9
$CLAYER
  8
0
  9
$CELTYPE
  6
BYLAYER
  9
$CECOLOR
 62
  256
  9
$CELTSCALE
 40
1
  9
$DISPSILH
 70
    0
  9
$DIMSCALE
 40
2.5
  9
$DIMASZ
 40
2.5
  9
$DIMEXO
 40
0.625
  9
$DIMDLI
 40
3.75
  9
$DIMRND
 40
0
  9
$DIMDLE
 40
0
  9
$DIMEXE
 40
1.25
  9
$DIMTP
 40
0
  9
$DIMTM
 40
0
  9
$DIMTXT
 40
2.5
  9
$DIMCEN
 40
2.5
  9
$DIMTSZ
 40
0
  9
$DIMTOL
 70
    0
  9
$DIMLIM
 70
    0
  9
$DIMTIH
 70
    0
  9
$DIMTOH
 70
    0
  9
$DIMSE1
 70
    0
  9
$DIMSE2
 70
    0
  9
$DIMTAD
 70
    1
  9
$DIMZIN
 70
    8
  9
$DIMBLK
  1

  9
$DIMASO
 70
    1
  9
$DIMSHO
 70
    1
  9
$DIMPOST
  1

  9
$DIMAPOST
  1

  9
$DIMALT
 70
    0
  9
$DIMALTD
 70
    3
  9
$DIMALTF
 40
0.03937
  9
$DIMLFAC
 40
1
  9
$DIMTOFL
 70
    1
  9
$DIMTVP
 40
0
  9
$DIMTIX
 70
    0
  9
$DIMSOXD
 70
    0
  9
$DIMSAH
 70
    0
  9
$DIMBLK1
  1

  9
$DIMBLK2
  1

  9
$DIMSTYLE
  2
Standard
  9
$DIMCLRD
 70
    0
  9
$DIMCLRE
 70
    0
  9
$DIMCLRT
 70
    0
  9
$DIMTFAC
 40
1
  9
$DIMGAP
 40
0.625
  9
$DIMJUST
 70
    0
  9
$DIMSD1
 70
    0
  9
$DIMSD2
 70
    0
  9
$DIMTOLJ
 70
    0
  9
$DIMTZIN
 70
    8
  9
$DIMALTZ
 70
    0
  9
$DIMALTTZ
 70
    0
  9
$DIMUPT
 70
    0
  9
$DIMDEC
 70
    2
  9
$DIMTDEC
 70
    2
  9
$DIMALTU
 70
    2
  9
$DIMALTTD
 70
    3
  9
$DIMTXSTY
  7
STANDARD
  9
$DIMAUNIT
 70
    0
  9
$DIMADEC
 70
    0
  9
$DIMALTRND
 40
0
  9
$DIMAZIN
 70
    0
  9
$DIMDSEP
 70
   44
  9
$DIMATFIT
 70
    3
  9
$DIMFRAC
 70
    0
  9
$DIMLDRBLK
  1
STANDARD
  9
$DIMLUNIT
 70
    2
  9
$DIMLWD
 70
   -2
  9
$DIMLWE
 70
   -2
  9
$DIMTMOVE
 70
    0
  9
$DIMFXL
 40
1
  9
$DIMFXLON
 70
    0
  9
$DIMJOGANG
 40
0.7854
  9
$DIMTFILL
 70
    0
  9
$DIMTFILLCLR
 70
    0
  9
$DIMARCSYM
 70
    0
  9
$DIMLTYPE
  6

  9
$DIMLTEX1
  6

  9
$DIMLTEX2
  6

  9
$LUNITS
 70
    2
  9
$LUPREC
 70
    4
  9
$SKETCHINC
 40
1
  9
$FILLETRAD
 40
0
  9
$AUNITS
 70
    0
  9
$AUPREC
 70
    2
  9
$MENU
  1
.
  9
$ELEVATION
 40
0
  9
$PELEVATION
 40
0
  9
$THICKNESS
 40
0
  9
$LIMCHECK
 70
    0
  9
$CHAMFERA
 40
0
  9
$CHAMFERB
 40
0
  9
$CHAMFERC
 40
0
  9
$CHAMFERD
 40
0
  9
$SKPOLY
 70
    0
  9
$USRTIMER
 70
    1
  9
$ANGBASE
 50
0
  9
$ANGDIR
 70
    0
  9
$PDMODE
 70
   34
  9
$PDSIZE
 40
0
  9
$PLINEWID
 40
0
  9
$SPLFRAME
 70
    0
  9
$SPLINETYPE
 70
    2
  9
$SPLINESEGS
 70
    8
  9
$HANDSEED
  5
20000
  9
$SURFTAB1
 70
    6
  9
$SURFTAB2
 70
    6
  9
$SURFTYPE
 70
    6
  9
$SURFU
 70
    6
  9
$SURFV
 70
    6
  9
$UCSBASE
  2

  9
$UCSNAME
  2

  9
$UCSORG
 10
0
 20
0
 30
0
  9
$UCSXDIR
 10
1
 20
0
 30
0
  9
$UCSYDIR
 10
0
 20
1
 30
0
  9
$UCSORTHOREF
  2

  9
$UCSORTHOVIEW
 70
    0
  9
$UCSORGTOP
 10
0
 20
0
 30
0
  9
$UCSORGBOTTOM
 10
0
 20
0
 30
0
  9
$UCSORGLEFT
 10
0
 20
0
 30
0
  9
$UCSORGRIGHT
 10
0
 20
0
 30
0
  9
$UCSORGFRONT
 10
0
 20
0
 30
0
  9
$UCSORGBACK
 10
0
 20
0
 30
0
  9
$PUCSBASE
  2

  9
$PUCSNAME
  2

  9
$PUCSORG
 10
0
 20
0
 30
0
  9
$PUCSXDIR
 10
1
 20
0
 30
0
  9
$PUCSYDIR
 10
0
 20
1
 30
0
  9
$PUCSORTHOREF
  2

  9
$PUCSORTHOVIEW
 70
    0
  9
$PUCSORGTOP
 10
0
 20
0
 30
0
  9
$PUCSORGBOTTOM
 10
0
 20
0
 30
0
  9
$PUCSORGLEFT
 10
0
 20
0
 30
0
  9
$PUCSORGRIGHT
 10
0
 20
0
 30
0
  9
$PUCSORGFRONT
 10
0
 20
0
 30
0
  9
$PUCSORGBACK
 10
0
 20
0
 30
0
  9
$USERI1
 70
    0
  9
$USERI2
 70
    0
  9
$USERI3
 70
    0
  9
$USERI4
 70
    0
  9
$USERI5
 70
    0
  9
$USERR1
 40
0
  9
$USERR2
 40
0
  9
$USERR3
 40
0
  9
$USERR4
 40
0
  9
$USERR5
 40
0
  9
$WORLDVIEW
 70
    1
  9
$SHADEDGE
 70
    3
  9
$SHADEDIF
 70
   70
  9
$TILEMODE
 70
    1
  9
$MAXACTVP
 70
   64
  9
$PINSBASE
 10
0
 20
0
 30
0
  9
$PLIMCHECK
 70
    0
  9
$PEXTMIN
 10
0
 20
0
 30
0
  9
$PEXTMAX
 10
0
 20
0
 30
0
  9
$GRIDMODE
 70
    0
  9
$SNAPSTYLE
 70
    0
  9
$PLIMMIN
 10
0
 20
0
  9
$PLIMMAX
 10
420
 20
297
  9
$UNITMODE
 70
    0
  9
$VISRETAIN
 70
    1
  9
$PLINEGEN
 70
    0
  9
$PSLTSCALE
 70
    1
  9
$TREEDEPTH
 70
 3020
  9
$CMLSTYLE
  2
Standard
  9
$CMLJUST
 70
    0
  9
$CMLSCALE
 40
20
  9
$PROXYGRAPHICS
 70
    1
  9
$MEASUREMENT
 70
    1
  9
$CELWEIGHT
370
   -1
  9
$ENDCAPS
280
    0
  9
$JOINSTYLE
280
    0
  9
$LWDISPLAY
290
    0
  9
$INSUNITS
 70
    4
  9
$HYPERLINKBASE
  1

  9
$STYLESHEET
  1

  9
$XEDIT
290
    1
  9
$CEPSNTYPE
380
    0
  9
$PSTYLEMODE
290
    1
  9
$EXTNAMES
290
    1
  9
$PSVPSCALE
 40
1
  9
$OLESTARTUP
290
    0
  9
$SORTENTS
280
  127
  9
$INDEXCTL
280
    0
  9
$HIDETEXT
280
    1
  9
$XCLIPFRAME
290
    0
  9
$HALOGAP
280
    0
  9
$OBSCOLOR
 70
  257
  9
$OBSLTYPE
280
    0
  9
$INTERSECTIONDISPLAY
280
    0
  9
$INTERSECTIONCOLOR
 70
  257
  9
$DIMASSOC
280
    1
  9
$PROJECTNAME
  1

  9
$CAMERADISPLAY
290
    0
  9
$LENSLENGTH
 40
50
  9
$CAMERAHEIGHT
 40
0
  9
$STEPSPERSEC
 40
2
  9
$STEPSIZE
 40
50
  9
$3DDWFPREC
 40
2
  9
$PSOLWIDTH
 40
5
  9
$PSOLHEIGHT
 40
80
  9
$LOFTANG1
 40
1.570796326794897
  9
$LOFTANG2
 40
1.570796326794897
  9
$LOFTMAG1
 40
0
  9
$LOFTMAG2
 40
0
  9
$LOFTPARAM
 70
    7
  9
$LOFTNORMALS
280
    1
  9
$LATITUDE
 40
1
  9
$LONGITUDE
 40
1
  9
$NORTHDIRECTION
 40
0
  9
$TIMEZONE
 70
-8000
  9
$LIGHTGLYPHDISPLAY
280
    1
  9
$TILEMODELIGHTSYNCH
280
    1
  9
$SOLIDHIST
280
    1
  9
$SHOWHIST
280
    1
  9
$DWFFRAME
280
    2
  9
$DGNFRAME
280
    0
  9
$REALWORLDSCALE
290
    1
  9
$INTERFERECOLOR
 62
    1
  9
$CSHADOW
280
    0
  9
$SHADOWPLANELOCATION
 40
0
  0
ENDSEC
  0
SECTION
  2
CLASSES
  0
ENDSEC
  0
SECTION
  2
TABLES
  0
TABLE
  2
VPORT
  5
8
330
0
100
AcDbSymbolTable
 70
    1
  0
VPORT
  5
31
330
2
100
AcDbSymbolTableRecord
100
AcDbViewportTableRecord
  2
*ACTIVE
 70
    0
 10
0
 20
0
 11
1
 21
1
 12
6.026896451049945
 22
2.745952662214009
 13
0
 23
0
 14
10
 24
10
 15
10
 25
10
 16
0
 26
0
 36
1
 17
0
 27
0
 37
0
 40
0.007999665251197996
 41
1.521396396396396
 42
50
 43
0
 44
0
 50
0
 51
0
 71
    0
 72
  100
 73
    1
 74
    3
 75
    0
 76
    0
 77
    0
 78
    0
281
    0
 65
    1
110
0
120
0
130
0
111
1
121
0
131
0
112
0
122
1
132
0
 79
    0
146
0
348
10020
 60
    7
 61
    5
292
1
282
    1
141
0
142
0
 63
  250
421
3358443
  0
ENDTAB
  0
TABLE
  2
LTYPE
  5
5
330
0
100
AcDbSymbolTable
 70
    4
  0
LTYPE
  5
14
330
5
100
AcDbSymbolTableRecord
100
AcDbLinetypeTableRecord
  2
ByBlock
 70
    0
  3

 72
   65
 73
    0
 40
0
  0
LTYPE
  5
15
330
5
100
AcDbSymbolTableRecord
100
AcDbLinetypeTableRecord
  2
ByLayer
 70
    0
  3

 72
   65
 73
    0
 40
0
  0
LTYPE
  5
16
330
5
100
AcDbSymbolTableRecord
100
AcDbLinetypeTableRecord
  2
Continuous
 70
    0
  3
Solid line
 72
   65
 73
    0
 40
0
  0
LTYPE
  5
32
330
5
100
AcDbSymbolTableRecord
100
AcDbLinetypeTableRecord
  2
DOT
 70
    0
  3
Dot . . . . . . . . . . . . . . . . . . . . . .
 72
   65
 73
    2
 40
6.35
 49
0
 74
    0
 49
-6.35
 74
    0
  0
LTYPE
  5
33
330
5
100
AcDbSymbolTableRecord
100
AcDbLinetypeTableRecord
  2
DOTTINY
 70
    0
  3
Dot (.15x) .....................................
 72
   65
 73
    2
 40
0.9525
 49
0
 74
    0
 49
-0.9525
 74
    0
  0
LTYPE
  5
34
330
5
100
AcDbSymbolTableRecord
100
AcDbLinetypeTableRecord
  2
DOT2
 70
    0
  3
Dot (.5x) .....................................
 72
   65
 73
    2
 40
3.175
 49
0
 74
    0
 49
-3.175
 74
    0
  0
LTYPE
  5
35
330
5
100
AcDbSymbolTableRecord
100
AcDbLinetypeTableRecord
  2
DOTX2
 70
    0
  3
Dot (2x) .  .  .  .  .  .  .  .  .  .  .  .  .
 72
   65
 73
    2
 40
12.7
 49
0
 74
    0
 49
-12.7
 74
    0
  0
LTYPE
  5
36
330
5
100
AcDbSymbolTableRecord
100
AcDbLinetypeTableRecord
  2
DASHED
 70
    0
  3
Dashed _ _ _ _ _ _ _ _ _ _ _ _ _ _ _ _ _
 72
   65
 73
    2
 40
19.05
 49
12.7
 74
    0
 49
-6.35
 74
    0
  0
LTYPE
  5
37
330
5
100
AcDbSymbolTableRecord
100
AcDbLinetypeTableRecord
  2
DASHEDTINY
 70
    0
  3
Dashed (.15x) _ _ _ _ _ _ _ _ _ _ _ _ _ _ _ _ _
 72
   65
 73
    2
 40
2.8575
 49
1.905
 74
    0
 49
-0.9525
 74
    0
  0
LTYPE
  5
38
330
5
100
AcDbSymbolTableRecord
100
AcDbLinetypeTableRecord
  2
DASHED2
 70
    0
  3
Dashed (.5x) _ _ _ _ _ _ _ _ _ _ _ _ _ _ _ _ _
 72
   65
 73
    2
 40
9.524999999999999
 49
6.35
 74
    0
 49
-3.175
 74
    0
  0
LTYPE
  5
39
330
5
100
AcDbSymbolTableRecord
100
AcDbLinetypeTableRecord
  2
DASHEDX2
 70
    0
  3
Dashed (2x) ____  ____  ____  ____  ____  ___
 72
   65
 73
    2
 40
38.09999999999999
 49
25.4
 74
    0
 49
-12.7
 74
    0
  0
LTYPE
  5
3A
330
5
100
AcDbSymbolTableRecord
100
AcDbLinetypeTableRecord
  2
DASHDOT
 70
    0
  3
Dash dot __ . __ . __ . __ . __ . __ . __ . __
 72
   65
 73
    4
 40
25.4
 49
12.7
 74
    0
 49
-6.35
 74
    0
 49
0
 74
    0
 49
-6.35
 74
    0
  0
LTYPE
  5
3B
330
5
100
AcDbSymbolTableRecord
100
AcDbLinetypeTableRecord
  2
DASHDOTTINY
 70
    0
  3
Dash dot (.15x) _._._._._._._._._._._._._._._.
 72
   65
 73
    4
 40
3.81
 49
1.905
 74
    0
 49
-0.9525
 74
    0
 49
0
 74
    0
 49
-0.9525
 74
    0
  0
LTYPE
  5
3C
330
5
100
AcDbSymbolTableRecord
100
AcDbLinetypeTableRecord
  2
DASHDOT2
 70
    0
  3
Dash dot (.5x) _._._._._._._._._._._._._._._.
 72
   65
 73
    4
 40
12.7
 49
6.35
 74
    0
 49
-3.175
 74
    0
 49
0
 74
    0
 49
-3.175
 74
    0
  0
LTYPE
  5
3D
330
5
100
AcDbSymbolTableRecord
100
AcDbLinetypeTableRecord
  2
DASHDOTX2
 70
    0
  3
Dash dot (2x) ____  .  ____  .  ____  .  ___
 72
   65
 73
    4
 40
50.8
 49
25.4
 74
    0
 49
-12.7
 74
    0
 49
0
 74
    0
 49
-12.7
 74
    0
  0
LTYPE
  5
3E
330
5
100
AcDbSymbolTableRecord
100
AcDbLinetypeTableRecord
  2
DIVIDE
 70
    0
  3
Divide ____ . . ____ . . ____ . . ____ . . ____
 72
   65
 73
    6
 40
31.75
 49
12.7
 74
    0
 49
-6.35
 74
    0
 49
0
 74
    0
 49
-6.35
 74
    0
 49
0
 74
    0
 49
-6.35
 74
    0
  0
LTYPE
  5
3F
330
5
100
AcDbSymbolTableRecord
100
AcDbLinetypeTableRecord
  2
DIVIDETINY
 70
    0
  3
Divide (.15x) __..__..__..__..__..__..__..__.._
 72
   65
 73
    6
 40
4.7625
 49
1.905
 74
    0
 49
-0.9525
 74
    0
 49
0
 74
    0
 49
-0.9525
 74
    0
 49
0
 74
    0
 49
-0.9525
 74
    0
  0
LTYPE
  5
40
330
5
100
AcDbSymbolTableRecord
100
AcDbLinetypeTableRecord
  2
DIVIDE2
 70
    0
  3
Divide (.5x) __..__..__..__..__..__..__..__.._
 72
   65
 73
    6
 40
15.875
 49
6.35
 74
    0
 49
-3.175
 74
    0
 49
0
 74
    0
 49
-3.175
 74
    0
 49
0
 74
    0
 49
-3.175
 74
    0
  0
LTYPE
  5
41
330
5
100
AcDbSymbolTableRecord
100
AcDbLinetypeTableRecord
  2
DIVIDEX2
 70
    0
  3
Divide (2x) ________  .  .  ________  .  .  _
 72
   65
 73
    6
 40
63.5
 49
25.4
 74
    0
 49
-12.7
 74
    0
 49
0
 74
    0
 49
-12.7
 74
    0
 49
0
 74
    0
 49
-12.7
 74
    0
  0
LTYPE
  5
42
330
5
100
AcDbSymbolTableRecord
100
AcDbLinetypeTableRecord
  2
BORDER
 70
    0
  3
Border __ __ . __ __ . __ __ . __ __ . __ __ .
 72
   65
 73
    6
 40
44.45
 49
12.7
 74
    0
 49
-6.35
 74
    0
 49
12.7
 74
    0
 49
-6.35
 74
    0
 49
0
 74
    0
 49
-6.35
 74
    0
  0
LTYPE
  5
43
330
5
100
AcDbSymbolTableRecord
100
AcDbLinetypeTableRecord
  2
BORDERTINY
 70
    0
  3
Border (.15x) __.__.__.__.__.__.__.__.__.__.__.
 72
   65
 73
    6
 40
6.6675
 49
1.905
 74
    0
 49
-0.9525
 74
    0
 49
1.905
 74
    0
 49
-0.9525
 74
    0
 49
0
 74
    0
 49
-0.9525
 74
    0
  0
LTYPE
  5
44
330
5
100
AcDbSymbolTableRecord
100
AcDbLinetypeTableRecord
  2
BORDER2
 70
    0
  3
Border (.5x) __.__.__.__.__.__.__.__.__.__.__.
 72
   65
 73
    6
 40
22.225
 49
6.35
 74
    0
 49
-3.175
 74
    0
 49
6.35
 74
    0
 49
-3.175
 74
    0
 49
0
 74
    0
 49
-3.175
 74
    0
  0
LTYPE
  5
45
330
5
100
AcDbSymbolTableRecord
100
AcDbLinetypeTableRecord
  2
BORDERX2
 70
    0
  3
Border (2x) ____  ____  .  ____  ____  .  ___
 72
   65
 73
    6
 40
88.89999999999999
 49
25.4
 74
    0
 49
-12.7
 74
    0
 49
25.4
 74
    0
 49
-12.7
 74
    0
 49
0
 74
    0
 49
-12.7
 74
    0
  0
LTYPE
  5
46
330
5
100
AcDbSymbolTableRecord
100
AcDbLinetypeTableRecord
  2
CENTER
 70
    0
  3
Center ____ _ ____ _ ____ _ ____ _ ____ _ ____
 72
   65
 73
    4
 40
50.8
 49
31.75
 74
    0
 49
-6.35
 74
    0
 49
6.35
 74
    0
 49
-6.35
 74
    0
  0
LTYPE
  5
47
330
5
100
AcDbSymbolTableRecord
100
AcDbLinetypeTableRecord
  2
CENTERTINY
 70
    0
  3
Center (.15x) ___ _ ___ _ ___ _ ___ _ ___ _ ___
 72
   65
 73
    4
 40
7.62
 49
4.7625
 74
    0
 49
-0.9525
 74
    0
 49
0.9525
 74
    0
 49
-0.9525
 74
    0
  0
LTYPE
  5
48
330
5
100
AcDbSymbolTableRecord
100
AcDbLinetypeTableRecord
  2
CENTER2
 70
    0
  3
Center (.5x) ___ _ ___ _ ___ _ ___ _ ___ _ ___
 72
   65
 73
    4
 40
28.575
 49
19.05
 74
    0
 49
-3.175
 74
    0
 49
3.175
 74
    0
 49
-3.175
 74
    0
  0
LTYPE
  5
49
330
5
100
AcDbSymbolTableRecord
100
AcDbLinetypeTableRecord
  2
CENTERX2
 70
    0
  3
Center (2x) ________  __  ________  __  _____
 72
   65
 73
    4
 40
101.6
 49
63.5
 74
    0
 49
-12.7
 74
    0
 49
12.7
 74
    0
 49
-12.7
 74
    0
  0
ENDTAB
  0
TABLE
  2
LAYER
  5
2
330
0
100
AcDbSymbolTable
 70
    1
  0
LAYER
  5
10
330
2
100
AcDbSymbolTableRecord
100
AcDbLayerTableRecord
  2
0
 70
    0
 62
    7
  6
CONTINUOUS
370
   -3
390
F
  0
LAYER
  5
4A
330
2
100
AcDbSymbolTableRecord
100
AcDbLayerTableRecord
  2
Layer_1
 70
    0
 62
    7
  6
CONTINUOUS
370
   -3
390
F
  0
ENDTAB
  0
TABLE
  2
STYLE
  5
3
330
0
100
AcDbSymbolTable
 70
    3
  0
STYLE
  5
4B
330
2
100
AcDbSymbolTableRecord
100
AcDbTextStyleTableRecord
  2
Standard
 70
    0
 40
0
 41
1
 50
0
 71
    0
 42
1
  3
txt
  4

  0
ENDTAB
  0
TABLE
  2
VIEW
  5
6
330
0
100
AcDbSymbolTable
 70
    0
  0
ENDTAB
  0
TABLE
  2
UCS
  5
7
330
0
100
AcDbSymbolTable
 70
    0
  0
ENDTAB
  0
TABLE
  2
APPID
  5
9
330
0
100
AcDbSymbolTable
 70
    1
  0
APPID
  5
12
330
9
100
AcDbSymbolTableRecord
100
AcDbRegAppTableRecord
  2
ACAD
 70
    0
  0
APPID
  5
4C
330
9
100
AcDbSymbolTableRecord
100
AcDbRegAppTableRecord
  2
LibreCad
 70
    0
  0
ENDTAB
  0
TABLE
  2
DIMSTYLE
  5
A
330
0
100
AcDbSymbolTable
 70
    1
100
AcDbDimStyleTable
 71
    1
  0
DIMSTYLE
105
4D
330
A
100
AcDbSymbolTableRecord
100
AcDbDimStyleTableRecord
  2
Standard
 70
    0
 40
2.5
 41
2.5
 42
0.625
 43
0.38
 44
1.25
 45
0
 46
0
 47
0
 48
0
 49
1
140
2.5
141
0.09
142
0
143
25.4
144
1
145
0
146
1
147
0.625
148
0
 71
    0
 72
    0
 73
    0
 74
    1
 75
    0
 76
    0
 77
    0
 78
    8
 79
    0
170
    0
171
    2
172
    0
173
    0
174
    0
175
    0
176
    0
177
    0
178
    0
179
    0
271
    2
272
    4
273
    2
274
    2
275
    0
276
    0
277
    2
278
   44
279
    0
280
    0
281
    0
282
    0
283
    1
284
    0
285
    0
286
    0
288
    0
289
    3
340
STANDARD
341

371
   -2
372
   -2
  0
ENDTAB
  0
TABLE
  2
BLOCK_RECORD
  5
1
330
0
100
AcDbSymbolTable
 70
    2
  0
BLOCK_RECORD
  5
1F
330
1
100
AcDbSymbolTableRecord
100
AcDbBlockTableRecord
  2
*Model_Space
 70
    0
280
    1
281
    0
  0
BLOCK_RECORD
  5
1E
330
1
100
AcDbSymbolTableRecord
100
AcDbBlockTableRecord
  2
*Paper_Space
 70
    0
280
    1
281
    0
  0
ENDTAB
  0
ENDSEC
  0
SECTION
  2
BLOCKS
  0
BLOCK
  5
20
330
1F
100
AcDbEntity
  8
0
100
AcDbBlockBegin
  2
*Model_Space
 70
    0
 10
0
 20
0
 30
0
  3
*Model_Space
  1

  0
ENDBLK
  5
21
330
1F
100
AcDbEntity
  8
0
100
AcDbBlockEnd
  0
BLOCK
  5
1C
330
1B
100
AcDbEntity
  8
0
100
AcDbBlockBegin
  2
*Paper_Space
 70
    0
 10
0
 20
0
 30
0
  3
*Paper_Space
  1

  0
ENDBLK
  5
1D
330
1F
100
AcDbEntity
  8
0
100
AcDbBlockEnd
  0
ENDSEC
  0
SECTION
  2
ENTITIES
  0
LINE
  5
4E
100
AcDbEntity
  8
Layer_1
  6
ByLayer
 62
    4
370
   -1
100
AcDbLine
 10
17.714152
 20
26.97108
 11
13.441158
 21
24.98353
  0
LINE
  5
4F
100
AcDbEntity
  8
Layer_1
  6
ByLayer
 62
    4
370
   -1
100
AcDbLine
 10
13.441158
 20
24.98353
 11
-5.517085
 21
28.28685
  0
LINE
  5
50
100
AcDbEntity
  8
Layer_1
  6
ByLayer
 62
    4
370
   -1
100
AcDbLine
 10
-5.517085
 20
28.28685
 11
-12.349499
 21
25.86883
  0
LINE
  5
51
100
AcDbEntity
  8
Layer_1
  6
ByLayer
 62
    4
370
   -1
100
AcDbLine
 10
-12.349499
 20
25.86883
 11
-17.209101
 21
26.93113
  0
LINE
  5
52
100
AcDbEntity
  8
Layer_1
  6
ByLayer
 62
    4
370
   -1
100
AcDbLine
 10
-17.209101
 20
26.93113
 11
-5.419639
 21
30.8295
  0
LINE
  5
53
100
AcDbEntity
  8
Layer_1
  6
ByLayer
 62
    4
370
   -1
100
AcDbLine
 10
-5.419639
 20
30.8295
 11
17.714152
 21
26.97108
  0
LINE
  5
54
100
AcDbEntity
  8
Layer_1
  6
ByLayer
 62
    4
370
   -1
100
AcDbLine
 10
12.030009
 20
5.51446
 11
12.007069
 21
5.56206
  0
LINE
  5
55
100
AcDbEntity
  8
Layer_1
  6
ByLayer
 62
    4
370
   -1
100
AcDbLine
 10
12.007069
 20
5.56206
 11
12.007069
 21
5.56206
  0
LINE
  5
56
100
AcDbEntity
  8
Layer_1
  6
ByLayer
 62
    4
370
   -1
100
AcDbLine
 10
12.007069
 20
5.56206
 11
10.943602
 21
9.91286
  0
LINE
  5
57
100
AcDbEntity
  8
Layer_1
  6
ByLayer
 62
    4
370
   -1
100
AcDbLine
 10
10.943602
 20
9.91286
 11
10.943602
 21
9.91286
  0
LINE
  5
58
100
AcDbEntity
  8
Layer_1
  6
ByLayer
 62
    4
370
   -1
100
AcDbLine
 10
10.943602
 20
9.91286
 11
10.902112
 21
1.69967
  0
LINE
  5
59
100
AcDbEntity
  8
Layer_1
  6
ByLayer
 62
    4
370
   -1
100
AcDbLine
 10
10.902112
 20
1.69967
 11
10.902112
 21
1.69967
  0
LINE
  5
5A
100
AcDbEntity
  8
Layer_1
  6
ByLayer
 62
    4
370
   -1
100
AcDbLine
 10
10.902112
 20
1.69967
 11
10.806702
 21
1.44884
  0
LINE
  5
5B
100
AcDbEntity
  8
Layer_1
  6
ByLayer
 62
    4
370
   -1
100
AcDbLine
 10
10.806702
 20
1.44884
 11
10.806698
 21
1.44882
  0
LINE
  5
5C
100
AcDbEntity
  8
Layer_1
  6
ByLayer
 62
    4
370
   -1
100
AcDbLine
 10
10.806698
 20
1.44882
 11
8.850681
 21
0.05896
  0
LINE
  5
5D
100
AcDbEntity
  8
Layer_1
  6
ByLayer
 62
    4
370
   -1
100
AcDbLine
 10
8.758368000000001
 20
0.15294
 11
8.859995
 21
18.52164
  0
LINE
  5
5E
100
AcDbEntity
  8
Layer_1
  6
ByLayer
 62
    4
370
   -1
100
AcDbLine
 10
8.859995
 20
18.52164
 11
8.872244999999999
 21
18.6587
  0
LINE
  5
5F
100
AcDbEntity
  8
Layer_1
  6
ByLayer
 62
    4
370
   -1
100
AcDbLine
 10
8.872244999999999
 20
18.6587
 11
8.872244999999999
 21
18.6587
  0
LINE
  5
60
100
AcDbEntity
  8
Layer_1
  6
ByLayer
 62
    4
370
   -1
100
AcDbLine
 10
8.872244999999999
 20
18.6587
 11
8.927625000000001
 21
18.86163
  0
LINE
  5
61
100
AcDbEntity
  8
Layer_1
  6
ByLayer
 62
    4
370
   -1
100
AcDbLine
 10
8.927625000000001
 20
18.86163
 11
8.927625000000001
 21
18.86163
  0
LINE
  5
62
100
AcDbEntity
  8
Layer_1
  6
ByLayer
 62
    4
370
   -1
100
AcDbLine
 10
8.927625000000001
 20
18.86163
 11
11.018973
 21
19.91891
  0
LINE
  5
63
100
AcDbEntity
  8
Layer_1
  6
ByLayer
 62
    4
370
   -1
100
AcDbLine
 10
11.018973
 20
19.91891
 11
11.019001
 21
19.91891
  0
LINE
  5
64
100
AcDbEntity
  8
Layer_1
  6
ByLayer
 62
    4
370
   -1
100
AcDbLine
 10
11.019001
 20
19.91891
 11
11.099041
 21
19.85431
  0
LINE
  5
65
100
AcDbEntity
  8
Layer_1
  6
ByLayer
 62
    4
370
   -1
100
AcDbLine
 10
11.099041
 20
19.85431
 11
14.206149
 21
7.36888
  0
LINE
  5
66
100
AcDbEntity
  8
Layer_1
  6
ByLayer
 62
    4
370
   -1
100
AcDbLine
 10
14.206149
 20
7.36888
 11
14.206149
 21
7.36888
  0
LINE
  5
67
100
AcDbEntity
  8
Layer_1
  6
ByLayer
 62
    4
370
   -1
100
AcDbLine
 10
14.206149
 20
7.36888
 11
14.164659
 21
7.06435
  0
LINE
  5
68
100
AcDbEntity
  8
Layer_1
  6
ByLayer
 62
    4
370
   -1
100
AcDbLine
 10
14.164659
 20
7.06435
 11
14.164689
 21
7.06435
  0
LINE
  5
69
100
AcDbEntity
  8
Layer_1
  6
ByLayer
 62
    4
370
   -1
100
AcDbLine
 10
14.164689
 20
7.06435
 11
14.095419
 21
6.86723
  0
LINE
  5
6A
100
AcDbEntity
  8
Layer_1
  6
ByLayer
 62
    4
370
   -1
100
AcDbLine
 10
14.095419
 20
6.86723
 11
14.095391
 21
6.86723
  0
LINE
  5
6B
100
AcDbEntity
  8
Layer_1
  6
ByLayer
 62
    4
370
   -1
100
AcDbLine
 10
14.095391
 20
6.86723
 11
12.047093
 21
5.48664
  0
LINE
  5
6C
100
AcDbEntity
  8
Layer_1
  6
ByLayer
 62
    4
370
   -1
100
AcDbLine
 10
23.019672
 20
10.20674
 11
23.019672
 21
10.20674
  0
LINE
  5
6D
100
AcDbEntity
  8
Layer_1
  6
ByLayer
 62
    4
370
   -1
100
AcDbLine
 10
23.019672
 20
10.20674
 11
23.059602
 21
10.14514
  0
LINE
  5
6E
100
AcDbEntity
  8
Layer_1
  6
ByLayer
 62
    4
370
   -1
100
AcDbLine
 10
23.059602
 20
10.14514
 11
25.194098
 21
11.65962
  0
LINE
  5
6F
100
AcDbEntity
  8
Layer_1
  6
ByLayer
 62
    4
370
   -1
100
AcDbLine
 10
25.194098
 20
11.65962
 11
25.260248
 21
11.83954
  0
LINE
  5
70
100
AcDbEntity
  8
Layer_1
  6
ByLayer
 62
    4
370
   -1
100
AcDbLine
 10
25.260248
 20
11.83954
 11
20.392682
 21
24.58346
  0
LINE
  5
71
100
AcDbEntity
  8
Layer_1
  6
ByLayer
 62
    4
370
   -1
100
AcDbLine
 10
20.392682
 20
24.58346
 11
20.392711
 21
24.58346
  0
LINE
  5
72
100
AcDbEntity
  8
Layer_1
  6
ByLayer
 62
    4
370
   -1
100
AcDbLine
 10
20.392711
 20
24.58346
 11
20.312761
 21
24.63746
  0
LINE
  5
73
100
AcDbEntity
  8
Layer_1
  6
ByLayer
 62
    4
370
   -1
100
AcDbLine
 10
20.312761
 20
24.63746
 11
20.312737
 21
24.63746
  0
LINE
  5
74
100
AcDbEntity
  8
Layer_1
  6
ByLayer
 62
    4
370
   -1
100
AcDbLine
 10
20.312737
 20
24.63746
 11
18.205939
 21
23.57409
  0
LINE
  5
75
100
AcDbEntity
  8
Layer_1
  6
ByLayer
 62
    4
370
   -1
100
AcDbLine
 10
18.205939
 20
23.57409
 11
18.152019
 21
23.37857
  0
LINE
  5
76
100
AcDbEntity
  8
Layer_1
  6
ByLayer
 62
    4
370
   -1
100
AcDbLine
 10
18.152019
 20
23.37857
 11
18.152014
 21
23.37853
  0
LINE
  5
77
100
AcDbEntity
  8
Layer_1
  6
ByLayer
 62
    4
370
   -1
100
AcDbLine
 10
18.152014
 20
23.37853
 11
23.019672
 21
10.20674
  0
LINE
  5
78
100
AcDbEntity
  8
Layer_1
  6
ByLayer
 62
    4
370
   -1
100
AcDbLine
 10
-14.428228
 20
7.04581
 11
-14.428257
 21
7.04581
  0
LINE
  5
79
100
AcDbEntity
  8
Layer_1
  6
ByLayer
 62
    4
370
   -1
100
AcDbLine
 10
-14.428257
 20
7.04581
 11
-14.428257
 21
7.04607
  0
LINE
  5
7A
100
AcDbEntity
  8
Layer_1
  6
ByLayer
 62
    4
370
   -1
100
AcDbLine
 10
-14.428257
 20
7.04607
 11
-17.543037
 21
8.271089999999999
  0
LINE
  5
7B
100
AcDbEntity
  8
Layer_1
  6
ByLayer
 62
    4
370
   -1
100
AcDbLine
 10
-17.543037
 20
8.271089999999999
 11
-17.686124
 21
8.46027
  0
LINE
  5
7C
100
AcDbEntity
  8
Layer_1
  6
ByLayer
 62
    4
370
   -1
100
AcDbLine
 10
-17.686124
 20
8.46027
 11
-17.686151
 21
8.46027
  0
LINE
  5
7D
100
AcDbEntity
  8
Layer_1
  6
ByLayer
 62
    4
370
   -1
100
AcDbLine
 10
-17.686151
 20
8.46027
 11
-14.214315
 21
20.67635
  0
LINE
  5
7E
100
AcDbEntity
  8
Layer_1
  6
ByLayer
 62
    4
370
   -1
100
AcDbLine
 10
-14.214315
 20
20.67635
 11
-14.214286
 21
20.67635
  0
LINE
  5
7F
100
AcDbEntity
  8
Layer_1
  6
ByLayer
 62
    4
370
   -1
100
AcDbLine
 10
-14.214286
 20
20.67635
 11
-14.131126
 21
20.72395
  0
LINE
  5
80
100
AcDbEntity
  8
Layer_1
  6
ByLayer
 62
    4
370
   -1
100
AcDbLine
 10
-14.131126
 20
20.72395
 11
-14.049606
 21
20.63635
  0
LINE
  5
81
100
AcDbEntity
  8
Layer_1
  6
ByLayer
 62
    4
370
   -1
100
AcDbLine
 10
-14.049606
 20
20.63635
 11
-14.049635
 21
20.63635
  0
LINE
  5
82
100
AcDbEntity
  8
Layer_1
  6
ByLayer
 62
    4
370
   -1
100
AcDbLine
 10
-14.049635
 20
20.63635
 11
-12.364477
 21
14.25274
  0
LINE
  5
83
100
AcDbEntity
  8
Layer_1
  6
ByLayer
 62
    4
370
   -1
100
AcDbLine
 10
-12.364477
 20
14.25274
 11
-12.364477
 21
14.25274
  0
LINE
  5
84
100
AcDbEntity
  8
Layer_1
  6
ByLayer
 62
    4
370
   -1
100
AcDbLine
 10
-12.364477
 20
14.25274
 11
-12.927669
 21
12.21678
  0
LINE
  5
85
100
AcDbEntity
  8
Layer_1
  6
ByLayer
 62
    4
370
   -1
100
AcDbLine
 10
-12.927669
 20
12.21678
 11
-12.927669
 21
12.21678
  0
LINE
  5
86
100
AcDbEntity
  8
Layer_1
  6
ByLayer
 62
    4
370
   -1
100
AcDbLine
 10
-12.927669
 20
12.21678
 11
-11.932042
 21
11.88446
  0
LINE
  5
87
100
AcDbEntity
  8
Layer_1
  6
ByLayer
 62
    4
370
   -1
100
AcDbLine
 10
-11.932042
 20
11.88446
 11
-11.932042
 21
11.88446
  0
LINE
  5
88
100
AcDbEntity
  8
Layer_1
  6
ByLayer
 62
    4
370
   -1
100
AcDbLine
 10
-11.932042
 20
11.88446
 11
-11.870422
 21
11.81676
  0
LINE
  5
89
100
AcDbEntity
  8
Layer_1
  6
ByLayer
 62
    4
370
   -1
100
AcDbLine
 10
-11.870422
 20
11.81676
 11
-11.87045
 21
11.81676
  0
LINE
  5
8A
100
AcDbEntity
  8
Layer_1
  6
ByLayer
 62
    4
370
   -1
100
AcDbLine
 10
-11.87045
 20
11.81676
 11
-10.963988
 21
7.86626
  0
LINE
  5
8B
100
AcDbEntity
  8
Layer_1
  6
ByLayer
 62
    4
370
   -1
100
AcDbLine
 10
-10.963988
 20
7.86626
 11
-10.963988
 21
7.86626
  0
LINE
  5
8C
100
AcDbEntity
  8
Layer_1
  6
ByLayer
 62
    4
370
   -1
100
AcDbLine
 10
-10.963988
 20
7.86626
 11
-11.025588
 21
7.79406
  0
LINE
  5
8D
100
AcDbEntity
  8
Layer_1
  6
ByLayer
 62
    4
370
   -1
100
AcDbLine
 10
-11.025588
 20
7.79406
 11
-11.025588
 21
7.79406
  0
LINE
  5
8E
100
AcDbEntity
  8
Layer_1
  6
ByLayer
 62
    4
370
   -1
100
AcDbLine
 10
-11.025588
 20
7.79406
 11
-13.680258
 21
8.7836
  0
LINE
  5
8F
100
AcDbEntity
  8
Layer_1
  6
ByLayer
 62
    4
370
   -1
100
AcDbLine
 10
-13.680258
 20
8.7836
 11
-13.680258
 21
8.7836
  0
LINE
  5
90
100
AcDbEntity
  8
Layer_1
  6
ByLayer
 62
    4
370
   -1
100
AcDbLine
 10
-13.680258
 20
8.7836
 11
-14.345071
 21
7.05852
  0
LINE
  5
91
100
AcDbEntity
  8
Layer_1
  6
ByLayer
 62
    4
370
   -1
100
AcDbLine
 10
-14.345071
 20
7.05852
 11
-14.428228
 21
7.04581
  0
LINE
  5
92
100
AcDbEntity
  8
Layer_1
  6
ByLayer
 62
    4
370
   -1
100
AcDbLine
 10
-21.786552
 20
21.26531
 11
-21.786552
 21
21.26531
  0
LINE
  5
93
100
AcDbEntity
  8
Layer_1
  6
ByLayer
 62
    4
370
   -1
100
AcDbLine
 10
-21.786552
 20
21.26531
 11
-22.76686
 21
24.72024
  0
LINE
  5
94
100
AcDbEntity
  8
Layer_1
  6
ByLayer
 62
    4
370
   -1
100
AcDbLine
 10
-22.76686
 20
24.72024
 11
-22.580514
 21
24.67734
  0
LINE
  5
95
100
AcDbEntity
  8
Layer_1
  6
ByLayer
 62
    4
370
   -1
100
AcDbLine
 10
-22.580514
 20
24.67734
 11
-22.060343
 21
24.5588
  0
LINE
  5
96
100
AcDbEntity
  8
Layer_1
  6
ByLayer
 62
    4
370
   -1
100
AcDbLine
 10
-22.060343
 20
24.5588
 11
-22.060343
 21
24.5588
  0
LINE
  5
97
100
AcDbEntity
  8
Layer_1
  6
ByLayer
 62
    4
370
   -1
100
AcDbLine
 10
-22.060343
 20
24.5588
 11
-16.044697
 21
23.18138
  0
LINE
  5
98
100
AcDbEntity
  8
Layer_1
  6
ByLayer
 62
    4
370
   -1
100
AcDbLine
 10
-16.044697
 20
23.18138
 11
-15.85388
 21
23.00438
  0
LINE
  5
99
100
AcDbEntity
  8
Layer_1
  6
ByLayer
 62
    4
370
   -1
100
AcDbLine
 10
-15.85388
 20
23.00438
 11
-15.85388
 21
23.00438
  0
LINE
  5
9A
100
AcDbEntity
  8
Layer_1
  6
ByLayer
 62
    4
370
   -1
100
AcDbLine
 10
-15.85388
 20
23.00438
 11
-15.85388
 21
19.82488
  0
LINE
  5
9B
100
AcDbEntity
  8
Layer_1
  6
ByLayer
 62
    4
370
   -1
100
AcDbLine
 10
-15.85388
 20
19.82488
 11
-15.85388
 21
19.82488
  0
LINE
  5
9C
100
AcDbEntity
  8
Layer_1
  6
ByLayer
 62
    4
370
   -1
100
AcDbLine
 10
-15.85388
 20
19.82488
 11
-15.990881
 21
19.72808
  0
LINE
  5
9D
100
AcDbEntity
  8
Layer_1
  6
ByLayer
 62
    4
370
   -1
100
AcDbLine
 10
-15.990881
 20
19.72808
 11
-15.990881
 21
19.72808
  0
LINE
  5
9E
100
AcDbEntity
  8
Layer_1
  6
ByLayer
 62
    4
370
   -1
100
AcDbLine
 10
-15.990881
 20
19.72808
 11
-21.786552
 21
21.26531
  0
LINE
  5
9F
100
AcDbEntity
  8
Layer_1
  6
ByLayer
 62
    4
370
   -1
100
AcDbLine
 10
-6.062598
 20
3.7528
 11
-6.062598
 21
3.7528
  0
LINE
  5
A0
100
AcDbEntity
  8
Layer_1
  6
ByLayer
 62
    4
370
   -1
100
AcDbLine
 10
-6.062598
 20
3.7528
 11
-9.425134999999999
 21
5.07625
  0
LINE
  5
A1
100
AcDbEntity
  8
Layer_1
  6
ByLayer
 62
    4
370
   -1
100
AcDbLine
 10
-9.425134999999999
 20
5.07625
 11
-9.486734999999999
 21
5.19637
  0
LINE
  5
A2
100
AcDbEntity
  8
Layer_1
  6
ByLayer
 62
    4
370
   -1
100
AcDbLine
 10
-9.486734999999999
 20
5.19637
 11
-9.486734999999999
 21
5.19637
  0
LINE
  5
A3
100
AcDbEntity
  8
Layer_1
  6
ByLayer
 62
    4
370
   -1
100
AcDbLine
 10
-9.486734999999999
 20
5.19637
 11
-13.535679
 21
22.54457
  0
LINE
  5
A4
100
AcDbEntity
  8
Layer_1
  6
ByLayer
 62
    4
370
   -1
100
AcDbLine
 10
-13.535679
 20
22.54457
 11
-13.535679
 21
22.54457
  0
LINE
  5
A5
100
AcDbEntity
  8
Layer_1
  6
ByLayer
 62
    4
370
   -1
100
AcDbLine
 10
-13.535679
 20
22.54457
 11
-13.474089
 21
22.7139
  0
LINE
  5
A6
100
AcDbEntity
  8
Layer_1
  6
ByLayer
 62
    4
370
   -1
100
AcDbLine
 10
-13.474089
 20
22.7139
 11
-13.474089
 21
22.7139
  0
LINE
  5
A7
100
AcDbEntity
  8
Layer_1
  6
ByLayer
 62
    4
370
   -1
100
AcDbLine
 10
-13.474089
 20
22.7139
 11
-10.317716
 21
21.99212
  0
LINE
  5
A8
100
AcDbEntity
  8
Layer_1
  6
ByLayer
 62
    4
370
   -1
100
AcDbLine
 10
-10.317716
 20
21.99212
 11
-10.317716
 21
21.99212
  0
LINE
  5
A9
100
AcDbEntity
  8
Layer_1
  6
ByLayer
 62
    4
370
   -1
100
AcDbLine
 10
-10.317716
 20
21.99212
 11
-10.234526
 21
21.87809
  0
LINE
  5
AA
100
AcDbEntity
  8
Layer_1
  6
ByLayer
 62
    4
370
   -1
100
AcDbLine
 10
-10.234526
 20
21.87809
 11
-10.234554
 21
21.87809
  0
LINE
  5
AB
100
AcDbEntity
  8
Layer_1
  6
ByLayer
 62
    4
370
   -1
100
AcDbLine
 10
-10.234554
 20
21.87809
 11
-6.042497
 21
3.86816
  0
LINE
  5
AC
100
AcDbEntity
  8
Layer_1
  6
ByLayer
 62
    4
370
   -1
100
AcDbLine
 10
-5.223961
 20
20.65177
 11
-5.100758
 21
20.79809
  0
LINE
  5
AD
100
AcDbEntity
  8
Layer_1
  6
ByLayer
 62
    4
370
   -1
100
AcDbLine
 10
-5.100758
 20
20.79809
 11
-5.100758
 21
20.79809
  0
LINE
  5
AE
100
AcDbEntity
  8
Layer_1
  6
ByLayer
 62
    4
370
   -1
100
AcDbLine
 10
-5.100758
 20
20.79809
 11
-3.586521
 21
20.45016
  0
LINE
  5
AF
100
AcDbEntity
  8
Layer_1
  6
ByLayer
 62
    4
370
   -1
100
AcDbLine
 10
-3.586521
 20
20.45016
 11
-3.586521
 21
20.45016
  0
LINE
  5
B0
100
AcDbEntity
  8
Layer_1
  6
ByLayer
 62
    4
370
   -1
100
AcDbLine
 10
-3.586521
 20
20.45016
 11
-0.817977
 21
8.46665
  0
LINE
  5
B1
100
AcDbEntity
  8
Layer_1
  6
ByLayer
 62
    4
370
   -1
100
AcDbLine
 10
-0.817977
 20
8.46665
 11
-0.817977
 21
8.46665
  0
LINE
  5
B2
100
AcDbEntity
  8
Layer_1
  6
ByLayer
 62
    4
370
   -1
100
AcDbLine
 10
-0.817977
 20
8.46665
 11
-1.922919
 21
8.83442
  0
LINE
  5
B3
100
AcDbEntity
  8
Layer_1
  6
ByLayer
 62
    4
370
   -1
100
AcDbLine
 10
-1.922919
 20
8.83442
 11
-1.922919
 21
8.83442
  0
LINE
  5
B4
100
AcDbEntity
  8
Layer_1
  6
ByLayer
 62
    4
370
   -1
100
AcDbLine
 10
-1.922919
 20
8.83442
 11
-1.922919
 21
5.71975
  0
LINE
  5
B5
100
AcDbEntity
  8
Layer_1
  6
ByLayer
 62
    4
370
   -1
100
AcDbLine
 10
-1.922919
 20
5.71975
 11
-1.922919
 21
5.71975
  0
LINE
  5
B6
100
AcDbEntity
  8
Layer_1
  6
ByLayer
 62
    4
370
   -1
100
AcDbLine
 10
-1.922919
 20
5.71975
 11
-0.051619
 21
5.044
  0
LINE
  5
B7
100
AcDbEntity
  8
Layer_1
  6
ByLayer
 62
    4
370
   -1
100
AcDbLine
 10
-0.051619
 20
5.044
 11
-0.051619
 21
5.044
  0
LINE
  5
B8
100
AcDbEntity
  8
Layer_1
  6
ByLayer
 62
    4
370
   -1
100
AcDbLine
 10
-0.051619
 20
5.044
 11
0.834727
 21
1.03821
  0
LINE
  5
B9
100
AcDbEntity
  8
Layer_1
  6
ByLayer
 62
    4
370
   -1
100
AcDbLine
 10
0.834727
 20
1.03821
 11
0.834727
 21
1.03821
  0
LINE
  5
BA
100
AcDbEntity
  8
Layer_1
  6
ByLayer
 62
    4
370
   -1
100
AcDbLine
 10
0.834727
 20
1.03821
 11
-2.067583
 21
2.18174
  0
LINE
  5
BB
100
AcDbEntity
  8
Layer_1
  6
ByLayer
 62
    4
370
   -1
100
AcDbLine
 10
-2.067583
 20
2.18174
 11
-3.201791
 21
2.6265
  0
LINE
  5
BC
100
AcDbEntity
  8
Layer_1
  6
ByLayer
 62
    4
370
   -1
100
AcDbLine
 10
-3.201791
 20
2.6265
 11
-3.201791
 21
2.6265
  0
LINE
  5
BD
100
AcDbEntity
  8
Layer_1
  6
ByLayer
 62
    4
370
   -1
100
AcDbLine
 10
-3.201791
 20
2.6265
 11
-5.080862
 21
3.36654
  0
LINE
  5
BE
100
AcDbEntity
  8
Layer_1
  6
ByLayer
 62
    4
370
   -1
100
AcDbLine
 10
-5.080862
 20
3.36654
 11
-5.080835
 21
3.36654
  0
LINE
  5
BF
100
AcDbEntity
  8
Layer_1
  6
ByLayer
 62
    4
370
   -1
100
AcDbLine
 10
-5.080835
 20
3.36654
 11
-5.223948
 21
3.57292
  0
LINE
  5
C0
100
AcDbEntity
  8
Layer_1
  6
ByLayer
 62
    4
370
   -1
100
AcDbLine
 10
-5.223948
 20
3.57292
 11
-5.223975
 21
3.57291
  0
LINE
  5
C1
100
AcDbEntity
  8
Layer_1
  6
ByLayer
 62
    4
370
   -1
100
AcDbLine
 10
-5.223975
 20
3.57291
 11
-5.223961
 21
20.65177
  0
LINE
  5
C2
100
AcDbEntity
  8
Layer_1
  6
ByLayer
 62
    4
370
   -1
100
AcDbLine
 10
3.125703
 20
0.6194499999999999
 11
3.692758
 21
0.80785
  0
LINE
  5
C3
100
AcDbEntity
  8
Layer_1
  6
ByLayer
 62
    4
370
   -1
100
AcDbLine
 10
3.692758
 20
0.80785
 11
4.192741
 21
1.15181
  0
LINE
  5
C4
100
AcDbEntity
  8
Layer_1
  6
ByLayer
 62
    4
370
   -1
100
AcDbLine
 10
4.192741
 20
1.15181
 11
4.192741
 21
1.15181
  0
LINE
  5
C5
100
AcDbEntity
  8
Layer_1
  6
ByLayer
 62
    4
370
   -1
100
AcDbLine
 10
4.192741
 20
1.15181
 11
4.677272
 21
1.7712
  0
LINE
  5
C6
100
AcDbEntity
  8
Layer_1
  6
ByLayer
 62
    4
370
   -1
100
AcDbLine
 10
4.677272
 20
1.7712
 11
5.023559
 21
2.58135
  0
LINE
  5
C7
100
AcDbEntity
  8
Layer_1
  6
ByLayer
 62
    4
370
   -1
100
AcDbLine
 10
5.023559
 20
2.58135
 11
5.231442
 21
3.58227
  0
LINE
  5
C8
100
AcDbEntity
  8
Layer_1
  6
ByLayer
 62
    4
370
   -1
100
AcDbLine
 10
5.231442
 20
3.58227
 11
5.300792
 21
4.77289
  0
LINE
  5
C9
100
AcDbEntity
  8
Layer_1
  6
ByLayer
 62
    4
370
   -1
100
AcDbLine
 10
5.300792
 20
4.77289
 11
5.300792
 21
4.77289
  0
LINE
  5
CA
100
AcDbEntity
  8
Layer_1
  6
ByLayer
 62
    4
370
   -1
100
AcDbLine
 10
5.300792
 20
4.77289
 11
5.218372
 21
5.89102
  0
LINE
  5
CB
100
AcDbEntity
  8
Layer_1
  6
ByLayer
 62
    4
370
   -1
100
AcDbLine
 10
5.218372
 20
5.89102
 11
4.97149
 21
6.99857
  0
LINE
  5
CC
100
AcDbEntity
  8
Layer_1
  6
ByLayer
 62
    4
370
   -1
100
AcDbLine
 10
4.97149
 20
6.99857
 11
4.560724
 21
8.09421
  0
LINE
  5
CD
100
AcDbEntity
  8
Layer_1
  6
ByLayer
 62
    4
370
   -1
100
AcDbLine
 10
4.560724
 20
8.09421
 11
3.986578
 21
9.175560000000001
  0
LINE
  5
CE
100
AcDbEntity
  8
Layer_1
  6
ByLayer
 62
    4
370
   -1
100
AcDbLine
 10
3.986578
 20
9.175560000000001
 11
3.986578
 21
9.175560000000001
  0
LINE
  5
CF
100
AcDbEntity
  8
Layer_1
  6
ByLayer
 62
    4
370
   -1
100
AcDbLine
 10
3.986578
 20
9.175560000000001
 11
4.561174
 21
9.82114
  0
LINE
  5
D0
100
AcDbEntity
  8
Layer_1
  6
ByLayer
 62
    4
370
   -1
100
AcDbLine
 10
4.561174
 20
9.82114
 11
4.971887
 21
10.66993
  0
LINE
  5
D1
100
AcDbEntity
  8
Layer_1
  6
ByLayer
 62
    4
370
   -1
100
AcDbLine
 10
4.971887
 20
10.66993
 11
5.218531
 21
11.72165
  0
LINE
  5
D2
100
AcDbEntity
  8
Layer_1
  6
ByLayer
 62
    4
370
   -1
100
AcDbLine
 10
5.218531
 20
11.72165
 11
5.300791
 21
12.97524
  0
LINE
  5
D3
100
AcDbEntity
  8
Layer_1
  6
ByLayer
 62
    4
370
   -1
100
AcDbLine
 10
5.300791
 20
12.97524
 11
5.230091
 21
14.15317
  0
LINE
  5
D4
100
AcDbEntity
  8
Layer_1
  6
ByLayer
 62
    4
370
   -1
100
AcDbLine
 10
5.230091
 20
14.15317
 11
5.018135
 21
15.24775
  0
LINE
  5
D5
100
AcDbEntity
  8
Layer_1
  6
ByLayer
 62
    4
370
   -1
100
AcDbLine
 10
5.018135
 20
15.24775
 11
4.665101
 21
16.25846
  0
LINE
  5
D6
100
AcDbEntity
  8
Layer_1
  6
ByLayer
 62
    4
370
   -1
100
AcDbLine
 10
4.665101
 20
16.25846
 11
4.171151
 21
17.18423
  0
LINE
  5
D7
100
AcDbEntity
  8
Layer_1
  6
ByLayer
 62
    4
370
   -1
100
AcDbLine
 10
4.171151
 20
17.18423
 11
3.558905
 21
17.97772
  0
LINE
  5
D8
100
AcDbEntity
  8
Layer_1
  6
ByLayer
 62
    4
370
   -1
100
AcDbLine
 10
3.558905
 20
17.97772
 11
2.851118
 21
18.60478
  0
LINE
  5
D9
100
AcDbEntity
  8
Layer_1
  6
ByLayer
 62
    4
370
   -1
100
AcDbLine
 10
2.851118
 20
18.60478
 11
2.048145
 21
19.06674
  0
LINE
  5
DA
100
AcDbEntity
  8
Layer_1
  6
ByLayer
 62
    4
370
   -1
100
AcDbLine
 10
2.048145
 20
19.06674
 11
1.150226
 21
19.36493
  0
LINE
  5
DB
100
AcDbEntity
  8
Layer_1
  6
ByLayer
 62
    4
370
   -1
100
AcDbLine
 10
1.150226
 20
19.36493
 11
1.150226
 21
19.36493
  0
LINE
  5
DC
100
AcDbEntity
  8
Layer_1
  6
ByLayer
 62
    4
370
   -1
100
AcDbLine
 10
1.150226
 20
19.36493
 11
-2.044519
 21
20.09597
  0
LINE
  5
DD
100
AcDbEntity
  8
Layer_1
  6
ByLayer
 62
    4
370
   -1
100
AcDbLine
 10
-2.044519
 20
20.09597
 11
-2.044519
 21
20.09597
  0
LINE
  5
DE
100
AcDbEntity
  8
Layer_1
  6
ByLayer
 62
    4
370
   -1
100
AcDbLine
 10
-2.044519
 20
20.09597
 11
-2.049419
 21
20.09897
  0
LINE
  5
DF
100
AcDbEntity
  8
Layer_1
  6
ByLayer
 62
    4
370
   -1
100
AcDbLine
 10
-2.049419
 20
20.09897
 11
-2.049419
 21
20.09897
  0
LINE
  5
E0
100
AcDbEntity
  8
Layer_1
  6
ByLayer
 62
    4
370
   -1
100
AcDbLine
 10
-2.049419
 20
20.09897
 11
-2.618455
 21
20.22888
  0
LINE
  5
E1
100
AcDbEntity
  8
Layer_1
  6
ByLayer
 62
    4
370
   -1
100
AcDbLine
 10
-2.618455
 20
20.22888
 11
-2.618455
 21
20.22888
  0
LINE
  5
E2
100
AcDbEntity
  8
Layer_1
  6
ByLayer
 62
    4
370
   -1
100
AcDbLine
 10
-2.618455
 20
20.22888
 11
-1.733567
 21
16.42312
  0
LINE
  5
E3
100
AcDbEntity
  8
Layer_1
  6
ByLayer
 62
    4
370
   -1
100
AcDbLine
 10
-1.733567
 20
16.42312
 11
-1.733567
 21
16.42312
  0
LINE
  5
E4
100
AcDbEntity
  8
Layer_1
  6
ByLayer
 62
    4
370
   -1
100
AcDbLine
 10
-1.733567
 20
16.42312
 11
1.110257
 21
15.67805
  0
LINE
  5
E5
100
AcDbEntity
  8
Layer_1
  6
ByLayer
 62
    4
370
   -1
100
AcDbLine
 10
1.110257
 20
15.67805
 11
1.69533
 21
15.39627
  0
LINE
  5
E6
100
AcDbEntity
  8
Layer_1
  6
ByLayer
 62
    4
370
   -1
100
AcDbLine
 10
1.69533
 20
15.39627
 11
2.112914
 21
14.92452
  0
LINE
  5
E7
100
AcDbEntity
  8
Layer_1
  6
ByLayer
 62
    4
370
   -1
100
AcDbLine
 10
2.112914
 20
14.92452
 11
2.363167
 21
14.34111
  0
LINE
  5
E8
100
AcDbEntity
  8
Layer_1
  6
ByLayer
 62
    4
370
   -1
100
AcDbLine
 10
2.363167
 20
14.34111
 11
2.446257
 21
13.72384
  0
LINE
  5
E9
100
AcDbEntity
  8
Layer_1
  6
ByLayer
 62
    4
370
   -1
100
AcDbLine
 10
2.446257
 20
13.72384
 11
2.362347
 21
13.15075
  0
LINE
  5
EA
100
AcDbEntity
  8
Layer_1
  6
ByLayer
 62
    4
370
   -1
100
AcDbLine
 10
2.362347
 20
13.15075
 11
2.111598
 21
12.70016
  0
LINE
  5
EB
100
AcDbEntity
  8
Layer_1
  6
ByLayer
 62
    4
370
   -1
100
AcDbLine
 10
2.111598
 20
12.70016
 11
1.694181
 21
12.4496
  0
LINE
  5
EC
100
AcDbEntity
  8
Layer_1
  6
ByLayer
 62
    4
370
   -1
100
AcDbLine
 10
1.694181
 20
12.4496
 11
1.110254
 21
12.4771
  0
LINE
  5
ED
100
AcDbEntity
  8
Layer_1
  6
ByLayer
 62
    4
370
   -1
100
AcDbLine
 10
1.110254
 20
12.4771
 11
1.110254
 21
12.4771
  0
LINE
  5
EE
100
AcDbEntity
  8
Layer_1
  6
ByLayer
 62
    4
370
   -1
100
AcDbLine
 10
1.110254
 20
12.4771
 11
-0.965657
 21
13.08035
  0
LINE
  5
EF
100
AcDbEntity
  8
Layer_1
  6
ByLayer
 62
    4
370
   -1
100
AcDbLine
 10
-0.965657
 20
13.08035
 11
-0.965657
 21
13.08035
  0
LINE
  5
F0
100
AcDbEntity
  8
Layer_1
  6
ByLayer
 62
    4
370
   -1
100
AcDbLine
 10
-0.965657
 20
13.08035
 11
0.150069
 21
8.14508
  0
LINE
  5
F1
100
AcDbEntity
  8
Layer_1
  6
ByLayer
 62
    4
370
   -1
100
AcDbLine
 10
0.150069
 20
8.14508
 11
0.150069
 21
8.14508
  0
LINE
  5
F2
100
AcDbEntity
  8
Layer_1
  6
ByLayer
 62
    4
370
   -1
100
AcDbLine
 10
0.150069
 20
8.14508
 11
1.088685
 21
7.83419
  0
LINE
  5
F3
100
AcDbEntity
  8
Layer_1
  6
ByLayer
 62
    4
370
   -1
100
AcDbLine
 10
1.088685
 20
7.83419
 11
1.088685
 21
7.83419
  0
LINE
  5
F4
100
AcDbEntity
  8
Layer_1
  6
ByLayer
 62
    4
370
   -1
100
AcDbLine
 10
1.700817
 20
7.49379
 11
2.133942
 21
6.98261
  0
LINE
  5
F5
100
AcDbEntity
  8
Layer_1
  6
ByLayer
 62
    4
370
   -1
100
AcDbLine
 10
2.133942
 20
6.98261
 11
2.390117
 21
6.37619
  0
LINE
  5
F6
100
AcDbEntity
  8
Layer_1
  6
ByLayer
 62
    4
370
   -1
100
AcDbLine
 10
2.390117
 20
6.37619
 11
2.471397
 21
5.7523
  0
LINE
  5
F7
100
AcDbEntity
  8
Layer_1
  6
ByLayer
 62
    4
370
   -1
100
AcDbLine
 10
2.471397
 20
5.7523
 11
2.379837
 21
5.18847
  0
LINE
  5
F8
100
AcDbEntity
  8
Layer_1
  6
ByLayer
 62
    4
370
   -1
100
AcDbLine
 10
2.379837
 20
5.18847
 11
2.117494
 21
4.76223
  0
LINE
  5
F9
100
AcDbEntity
  8
Layer_1
  6
ByLayer
 62
    4
370
   -1
100
AcDbLine
 10
2.117494
 20
4.76223
 11
1.686425
 21
4.55109
  0
LINE
  5
FA
100
AcDbEntity
  8
Layer_1
  6
ByLayer
 62
    4
370
   -1
100
AcDbLine
 10
1.686425
 20
4.55109
 11
1.088686
 21
4.63289
  0
LINE
  5
FB
100
AcDbEntity
  8
Layer_1
  6
ByLayer
 62
    4
370
   -1
100
AcDbLine
 10
1.088686
 20
4.63289
 11
1.088686
 21
4.63289
  0
LINE
  5
FC
100
AcDbEntity
  8
Layer_1
  6
ByLayer
 62
    4
370
   -1
100
AcDbLine
 10
1.088686
 20
4.63289
 11
0.916334
 21
4.69449
  0
LINE
  5
FD
100
AcDbEntity
  8
Layer_1
  6
ByLayer
 62
    4
370
   -1
100
AcDbLine
 10
0.916334
 20
4.69449
 11
0.916334
 21
4.69449
  0
LINE
  5
FE
100
AcDbEntity
  8
Layer_1
  6
ByLayer
 62
    4
370
   -1
100
AcDbLine
 10
0.916334
 20
4.69449
 11
1.792009
 21
0.7025
  0
LINE
  5
FF
100
AcDbEntity
  8
Layer_1
  6
ByLayer
 62
    4
370
   -1
100
AcDbLine
 10
1.792009
 20
0.7025
 11
3.125703
 21
0.6194499999999999
  0
LINE
  5
100
100
AcDbEntity
  8
Layer_1
  6
ByLayer
 62
    4
370
   -1
100
AcDbLine
 10
-25.093816
 20
11.22229
 11
-22.080556
 21
10.03589
  0
LINE
  5
101
100
AcDbEntity
  8
Layer_1
  6
ByLayer
 62
    4
370
   -1
100
AcDbLine
 10
-22.080556
 20
10.03589
 11
-22.080556
 21
10.03589
  0
LINE
  5
102
100
AcDbEntity
  8
Layer_1
  6
ByLayer
 62
    4
370
   -1
100
AcDbLine
 10
-22.080556
 20
10.03589
 11
-21.937443
 21
10.12509
  0
LINE
  5
103
100
AcDbEntity
  8
Layer_1
  6
ByLayer
 62
    4
370
   -1
100
AcDbLine
 10
-21.937443
 20
10.12509
 11
-21.937443
 21
10.12509
  0
LINE
  5
104
100
AcDbEntity
  8
Layer_1
  6
ByLayer
 62
    4
370
   -1
100
AcDbLine
 10
-21.937443
 20
10.12509
 11
-21.937443
 21
15.49454
  0
LINE
  5
105
100
AcDbEntity
  8
Layer_1
  6
ByLayer
 62
    4
370
   -1
100
AcDbLine
 10
-21.937443
 20
15.49454
 11
-20.989494
 21
15.18075
  0
LINE
  5
106
100
AcDbEntity
  8
Layer_1
  6
ByLayer
 62
    4
370
   -1
100
AcDbLine
 10
-20.989494
 20
15.18075
 11
-23.734996
 21
24.94202
  0
LINE
  5
107
100
AcDbEntity
  8
Layer_1
  6
ByLayer
 62
    4
370
   -1
100
AcDbLine
 10
-23.734996
 20
24.94202
 11
-23.734996
 21
24.94202
  0
LINE
  5
108
100
AcDbEntity
  8
Layer_1
  6
ByLayer
 62
    4
370
   -1
100
AcDbLine
 10
-23.734996
 20
24.94202
 11
-25.11374
 21
25.2574
  0
LINE
  5
109
100
AcDbEntity
  8
Layer_1
  6
ByLayer
 62
    4
370
   -1
100
AcDbLine
 10
-25.11374
 20
25.2574
 11
-25.113713
 21
25.2574
  0
LINE
  5
10A
100
AcDbEntity
  8
Layer_1
  6
ByLayer
 62
    4
370
   -1
100
AcDbLine
 10
-25.113713
 20
25.2574
 11
-25.23693
 21
25.14681
  0
LINE
  5
10B
100
AcDbEntity
  8
Layer_1
  6
ByLayer
 62
    4
370
   -1
100
AcDbLine
 10
-25.23693
 20
25.14681
 11
-25.23693
 21
11.398
  0
LINE
  5
10C
100
AcDbEntity
  8
Layer_1
  6
ByLayer
 62
    4
370
   -1
100
AcDbLine
 10
-17.457518
 20
14.14173
 11
-17.457518
 21
14.14173
  0
LINE
  5
10D
100
AcDbEntity
  8
Layer_1
  6
ByLayer
 62
    4
370
   -1
100
AcDbLine
 10
-17.457518
 20
14.14173
 11
-17.457518
 21
17.26884
  0
LINE
  5
10E
100
AcDbEntity
  8
Layer_1
  6
ByLayer
 62
    4
370
   -1
100
AcDbLine
 10
-17.457518
 20
17.26884
 11
-17.457518
 21
17.26884
  0
LINE
  5
10F
100
AcDbEntity
  8
Layer_1
  6
ByLayer
 62
    4
370
   -1
100
AcDbLine
 10
-17.457518
 20
17.26884
 11
-17.665243
 21
17.46119
  0
LINE
  5
110
100
AcDbEntity
  8
Layer_1
  6
ByLayer
 62
    4
370
   -1
100
AcDbLine
 10
-17.665243
 20
17.46119
 11
-21.000183
 21
18.44465
  0
LINE
  5
111
100
AcDbEntity
  8
Layer_1
  6
ByLayer
 62
    4
370
   -1
100
AcDbLine
 10
-21.000183
 20
18.44465
 11
-21.000183
 21
18.44465
  0
LINE
  5
112
100
AcDbEntity
  8
Layer_1
  6
ByLayer
 62
    4
370
   -1
100
AcDbLine
 10
-21.000183
 20
18.44465
 11
-20.021463
 21
14.86034
  0
LINE
  5
113
100
AcDbEntity
  8
Layer_1
  6
ByLayer
 62
    4
370
   -1
100
AcDbLine
 10
-20.021463
 20
14.86034
 11
-20.021463
 21
14.86034
  0
LINE
  5
114
100
AcDbEntity
  8
Layer_1
  6
ByLayer
 62
    4
370
   -1
100
AcDbLine
 10
-20.021463
 20
14.86034
 11
-17.606849
 21
14.06024
  0
LINE
  5
115
100
AcDbEntity
  8
Layer_1
  6
ByLayer
 62
    4
370
   -1
100
AcDbLine
 10
-17.606849
 20
14.06024
 11
-17.606849
 21
14.06024
  0
LINE
  5
116
100
AcDbEntity
  8
Layer_1
  6
ByLayer
 62
    4
370
   -1
100
AcDbLine
 10
-17.606849
 20
14.06024
 11
-17.457518
 21
14.14173
  0
LINE
  5
117
100
AcDbEntity
  8
Layer_1
  6
ByLayer
 62
    4
370
   -1
100
AcDbLine
 10
18.121351
 20
6.80875
 11
20.183566
 21
14.92194
  0
LINE
  5
118
100
AcDbEntity
  8
Layer_1
  6
ByLayer
 62
    4
370
   -1
100
AcDbLine
 10
20.183566
 20
14.92194
 11
20.183566
 21
14.92194
  0
LINE
  5
119
100
AcDbEntity
  8
Layer_1
  6
ByLayer
 62
    4
370
   -1
100
AcDbLine
 10
20.183566
 20
14.92194
 11
20.257466
 21
15.1381
  0
LINE
  5
11A
100
AcDbEntity
  8
Layer_1
  6
ByLayer
 62
    4
370
   -1
100
AcDbLine
 10
20.257466
 20
15.1381
 11
20.317446
 21
15.0757
  0
LINE
  5
11B
100
AcDbEntity
  8
Layer_1
  6
ByLayer
 62
    4
370
   -1
100
AcDbLine
 10
20.317446
 20
15.0757
 11
21.319291
 21
12.59973
  0
LINE
  5
11C
100
AcDbEntity
  8
Layer_1
  6
ByLayer
 62
    4
370
   -1
100
AcDbLine
 10
21.319291
 20
12.59973
 11
21.319291
 21
12.59973
  0
LINE
  5
11D
100
AcDbEntity
  8
Layer_1
  6
ByLayer
 62
    4
370
   -1
100
AcDbLine
 10
21.319291
 20
12.59973
 11
20.269742
 21
8.35211
  0
LINE
  5
11E
100
AcDbEntity
  8
Layer_1
  6
ByLayer
 62
    4
370
   -1
100
AcDbLine
 10
20.187982
 20
8.10763
 11
20.187982
 21
8.10763
  0
LINE
  5
11F
100
AcDbEntity
  8
Layer_1
  6
ByLayer
 62
    4
370
   -1
100
AcDbLine
 10
20.187982
 20
8.10763
 11
18.201279
 21
6.69634
  0
LINE
  5
120
100
AcDbEntity
  8
Layer_1
  6
ByLayer
 62
    4
370
   -1
100
AcDbLine
 10
23.18887
 20
19.41562
 11
23.188842
 21
19.41562
  0
LINE
  5
121
100
AcDbEntity
  8
Layer_1
  6
ByLayer
 62
    4
370
   -1
100
AcDbLine
 10
23.188842
 20
19.41562
 11
25.20793
 21
26.95333
  0
LINE
  5
122
100
AcDbEntity
  8
Layer_1
  6
ByLayer
 62
    4
370
   -1
100
AcDbLine
 10
25.20793
 20
26.95333
 11
25.20793
 21
26.95333
  0
LINE
  5
123
100
AcDbEntity
  8
Layer_1
  6
ByLayer
 62
    4
370
   -1
100
AcDbLine
 10
25.20793
 20
26.95333
 11
25.12797
 21
27.06737
  0
LINE
  5
124
100
AcDbEntity
  8
Layer_1
  6
ByLayer
 62
    4
370
   -1
100
AcDbLine
 10
25.12797
 20
27.06737
 11
25.12797
 21
27.06737
  0
LINE
  5
125
100
AcDbEntity
  8
Layer_1
  6
ByLayer
 62
    4
370
   -1
100
AcDbLine
 10
25.12797
 20
27.06737
 11
23.139679
 21
26.0638
  0
LINE
  5
126
100
AcDbEntity
  8
Layer_1
  6
ByLayer
 62
    4
370
   -1
100
AcDbLine
 10
23.139679
 20
26.0638
 11
23.139679
 21
26.0638
  0
LINE
  5
127
100
AcDbEntity
  8
Layer_1
  6
ByLayer
 62
    4
370
   -1
100
AcDbLine
 10
23.139679
 20
26.0638
 11
23.1396
 21
26.06407
  0
LINE
  5
128
100
AcDbEntity
  8
Layer_1
  6
ByLayer
 62
    4
370
   -1
100
AcDbLine
 10
23.1396
 20
26.06407
 11
23.139604
 21
26.06407
  0
LINE
  5
129
100
AcDbEntity
  8
Layer_1
  6
ByLayer
 62
    4
370
   -1
100
AcDbLine
 10
23.139604
 20
26.06407
 11
23.059644
 21
25.84235
  0
LINE
  5
12A
100
AcDbEntity
  8
Layer_1
  6
ByLayer
 62
    4
370
   -1
100
AcDbLine
 10
23.059644
 20
25.84235
 11
22.067007
 21
21.97202
  0
LINE
  5
12B
100
AcDbEntity
  8
Layer_1
  6
ByLayer
 62
    4
370
   -1
100
AcDbLine
 10
22.067007
 20
21.97202
 11
22.067007
 21
21.97202
  0
LINE
  5
12C
100
AcDbEntity
  8
Layer_1
  6
ByLayer
 62
    4
370
   -1
100
AcDbLine
 10
22.067007
 20
21.97202
 11
23.056522
 21
19.26957
  0
LINE
  5
12D
100
AcDbEntity
  8
Layer_1
  6
ByLayer
 62
    4
370
   -1
100
AcDbLine
 10
23.056522
 20
19.26957
 11
23.056522
 21
19.26957
  0
LINE
  5
12E
100
AcDbEntity
  8
Layer_1
  6
ByLayer
 62
    4
370
   -1
100
AcDbLine
 10
23.056522
 20
19.26957
 11
23.116322
 21
19.20817
  0
LINE
  5
12F
100
AcDbEntity
  8
Layer_1
  6
ByLayer
 62
    4
370
   -1
100
AcDbLine
 10
23.116322
 20
19.20817
 11
23.18887
 21
19.41562
  0
LINE
  5
130
100
AcDbEntity
  8
Layer_1
  6
ByLayer
 62
    4
370
   -1
100
AcDbLine
 10
17.451848
 20
22.89069
 11
17.451848
 21
22.89069
  0
LINE
  5
131
100
AcDbEntity
  8
Layer_1
  6
ByLayer
 62
    4
370
   -1
100
AcDbLine
 10
17.404248
 20
6.27618
 11
17.308838
 21
6.06239
  0
LINE
  5
132
100
AcDbEntity
  8
Layer_1
  6
ByLayer
 62
    4
370
   -1
100
AcDbLine
 10
17.308838
 20
6.06239
 11
17.308838
 21
6.06239
  0
LINE
  5
133
100
AcDbEntity
  8
Layer_1
  6
ByLayer
 62
    4
370
   -1
100
AcDbLine
 10
17.308838
 20
6.06239
 11
15.3528
 21
4.67439
  0
LINE
  5
134
100
AcDbEntity
  8
Layer_1
  6
ByLayer
 62
    4
370
   -1
100
AcDbLine
 10
15.3528
 20
4.67439
 11
15.352828
 21
4.67439
  0
LINE
  5
135
100
AcDbEntity
  8
Layer_1
  6
ByLayer
 62
    4
370
   -1
100
AcDbLine
 10
15.352828
 20
4.67439
 11
15.258958
 21
4.78207
  0
LINE
  5
136
100
AcDbEntity
  8
Layer_1
  6
ByLayer
 62
    4
370
   -1
100
AcDbLine
 10
15.258958
 20
4.78207
 11
15.286658
 21
12.34281
  0
LINE
  5
137
100
AcDbEntity
  8
Layer_1
  6
ByLayer
 62
    4
370
   -1
100
AcDbLine
 10
15.286658
 20
12.34281
 11
14.51717
 21
8.94476
  0
LINE
  5
138
100
AcDbEntity
  8
Layer_1
  6
ByLayer
 62
    4
370
   -1
100
AcDbLine
 10
14.51717
 20
8.94476
 11
14.517199
 21
8.94476
  0
LINE
  5
139
100
AcDbEntity
  8
Layer_1
  6
ByLayer
 62
    4
370
   -1
100
AcDbLine
 10
14.517199
 20
8.94476
 11
14.476589
 21
8.81696
  0
LINE
  5
13A
100
AcDbEntity
  8
Layer_1
  6
ByLayer
 62
    4
370
   -1
100
AcDbLine
 10
14.476589
 20
8.81696
 11
14.437139
 21
8.89076
  0
LINE
  5
13B
100
AcDbEntity
  8
Layer_1
  6
ByLayer
 62
    4
370
   -1
100
AcDbLine
 10
14.437139
 20
8.89076
 11
14.437139
 21
8.89076
  0
LINE
  5
13C
100
AcDbEntity
  8
Layer_1
  6
ByLayer
 62
    4
370
   -1
100
AcDbLine
 10
14.437139
 20
8.89076
 11
13.453735
 21
12.79204
  0
LINE
  5
13D
100
AcDbEntity
  8
Layer_1
  6
ByLayer
 62
    4
370
   -1
100
AcDbLine
 10
13.453735
 20
12.79204
 11
15.238853
 21
21.95191
  0
LINE
  5
13E
100
AcDbEntity
  8
Layer_1
  6
ByLayer
 62
    4
370
   -1
100
AcDbLine
 10
15.238853
 20
21.95191
 11
15.238853
 21
21.95191
  0
LINE
  5
13F
100
AcDbEntity
  8
Layer_1
  6
ByLayer
 62
    4
370
   -1
100
AcDbLine
 10
15.238853
 20
21.95191
 11
15.294233
 21
22.10431
  0
LINE
  5
140
100
AcDbEntity
  8
Layer_1
  6
ByLayer
 62
    4
370
   -1
100
AcDbLine
 10
15.294233
 20
22.10431
 11
15.294233
 21
22.10431
  0
LINE
  5
141
100
AcDbEntity
  8
Layer_1
  6
ByLayer
 62
    4
370
   -1
100
AcDbLine
 10
15.294233
 20
22.10431
 11
17.399496
 21
23.16582
  0
LINE
  5
142
100
AcDbEntity
  8
Layer_1
  6
ByLayer
 62
    4
370
   -1
100
AcDbLine
 10
-6.042497
 20
3.86816
 11
-6.062598
 21
3.7528
  0
LINE
  5
143
100
AcDbEntity
  8
Layer_1
  6
ByLayer
 62
    4
370
   -1
100
AcDbLine
 10
-25.23693
 20
11.398
 11
-25.093816
 21
11.22229
  0
LINE
  5
144
100
AcDbEntity
  8
Layer_1
  6
ByLayer
 62
    4
370
   -1
100
AcDbLine
 10
1.088685
 20
7.83419
 11
1.700817
 21
7.49379
  0
LINE
  5
145
100
AcDbEntity
  8
Layer_1
  6
ByLayer
 62
    4
370
   -1
100
AcDbLine
 10
17.451848
 20
23.0476
 11
17.404248
 21
6.27618
  0
LINE
  5
146
100
AcDbEntity
  8
Layer_1
  6
ByLayer
 62
    4
370
   -1
100
AcDbLine
 10
17.399496
 20
23.16582
 11
17.451848
 21
23.0476
  0
LINE
  5
147
100
AcDbEntity
  8
Layer_1
  6
ByLayer
 62
    4
370
   -1
100
AcDbLine
 10
8.850681
 20
0.05896
 11
8.758368000000001
 21
0.15294
  0
LINE
  5
148
100
AcDbEntity
  8
Layer_1
  6
ByLayer
 62
    4
370
   -1
100
AcDbLine
 10
20.269742
 20
8.35211
 11
20.187982
 21
8.10763
  0
LINE
  5
149
100
AcDbEntity
  8
Layer_1
  6
ByLayer
 62
    4
370
   -1
100
AcDbLine
 10
18.201279
 20
6.69634
 11
18.121351
 21
6.80875
  0
LINE
  5
14A
100
AcDbEntity
  8
Layer_1
  6
ByLayer
 62
    4
370
   -1
100
AcDbLine
 10
12.047093
 20
5.48664
 11
12.030009
 21
5.51446
  0
ENDSEC
  0
SECTION
  2
OBJECTS
  0
DICTIONARY
  5
C
330
0
100
AcDbDictionary
281
    1
  3
ACAD_GROUP
350
D
  0
DICTIONARY
  5
D
330
C
100
AcDbDictionary
281
    1
  0
ENDSEC
  0
EOF
