<?xml version="1.0" encoding="UTF-8" standalone="no"?>
<!-- Created with Inkscape (http://www.inkscape.org/) -->

<svg
   width="210mm"
   height="297mm"
   viewBox="0 0 210 297"
   version="1.1"
   id="svg5"
   xml:space="preserve"
   inkscape:version="1.2.1 (9c6d41e410, 2022-07-14)"
   sodipodi:docname="fabmax_logo.svg"
   xmlns:inkscape="http://www.inkscape.org/namespaces/inkscape"
   xmlns:sodipodi="http://sodipodi.sourceforge.net/DTD/sodipodi-0.dtd"
   xmlns="http://www.w3.org/2000/svg"
   xmlns:svg="http://www.w3.org/2000/svg"><sodipodi:namedview
     id="namedview7"
     pagecolor="#ffffff"
     bordercolor="#666666"
     borderopacity="1.0"
     inkscape:showpageshadow="2"
     inkscape:pageopacity="0.0"
     inkscape:pagecheckerboard="0"
     inkscape:deskcolor="#d1d1d1"
     inkscape:document-units="mm"
     showgrid="false"
     inkscape:zoom="6.1250535"
     inkscape:cx="6.4489233"
     inkscape:cy="1062.1948"
     inkscape:window-width="1858"
     inkscape:window-height="1057"
     inkscape:window-x="54"
     inkscape:window-y="-8"
     inkscape:window-maximized="1"
     inkscape:current-layer="layer1" /><defs
     id="defs2"><marker
       id="DistanceX"
       orient="auto"
       refX="0.0"
       refY="0.0"
       style="overflow:visible"><path
         d="M 3,-3 L -3,3 M 0,-5 L  0,5"
         style="stroke:#000000; stroke-width:0.5"
         id="path184" /></marker><pattern
       id="Hatch"
       patternUnits="userSpaceOnUse"
       width="8"
       height="8"
       x="0"
       y="0"><path
         d="M8 4 l-4,4"
         stroke="#000000"
         stroke-width="0.25"
         linecap="square"
         id="path187" /><path
         d="M6 2 l-4,4"
         stroke="#000000"
         stroke-width="0.25"
         linecap="square"
         id="path189" /><path
         d="M4 0 l-4,4"
         stroke="#000000"
         stroke-width="0.25"
         linecap="square"
         id="path191" /></pattern><symbol
       id="*MODEL_SPACE" /><symbol
       id="*PAPER_SPACE" /></defs><g
     inkscape:label="Layer 1"
     inkscape:groupmode="layer"
     id="layer1"><path
       id="path802"
       style="vector-effect:non-scaling-stroke;fill:#ff0000;stroke:#00ffff;stroke-width:0.264583;stroke-dasharray:none;-inkscape-stroke:hairline"
       d="m 17.714152,270.02892 -4.272994,1.98755 -18.9582434,-3.30332 -6.8324136,2.41802 -4.859602,-1.0623 11.7894616,-3.89837 z m -5.684143,21.45662 -0.02294,-0.0476 v 0 l -1.063467,-4.3508 v 0 l -0.04149,8.21319 v 0 l -0.09541,0.25083 -4e-6,2e-5 -1.9560168,1.38986 v -2.8e-4 l -0.09229,-0.0937 h -2.3e-5 l 0.101627,-18.3687 0.01225,-0.13706 v 0 l 0.05538,-0.20293 v 0 l 2.0913478,-1.05728 h 2.8e-5 l 0.08004,0.0646 3.107108,12.48543 v 0 l -0.04149,0.30453 h 3e-5 l -0.06927,0.19712 h -2.8e-5 l -2.048298,1.38059 v -2.8e-4 z m 10.989663,-4.69228 v 0 l 0.03993,0.0616 2.134496,-1.51448 0.06615,-0.17992 -4.867566,-12.74392 h 2.9e-5 l -0.07995,-0.054 h -2.4e-5 l -2.106798,1.06337 -0.05392,0.19552 -5e-6,4e-5 z m -37.4479,3.16093 h -2.9e-5 v -2.6e-4 l -3.11478,-1.22502 -0.143087,-0.18918 h -2.7e-5 l 3.471836,-12.21608 h 2.9e-5 l 0.08316,-0.0476 0.08152,0.0876 h -2.9e-5 l 1.685158,6.38361 v 0 l -0.563192,2.03596 v 0 l 0.995627,0.33232 v 0 l 0.06162,0.0677 h -2.8e-5 l 0.906462,3.9505 v 0 l -0.0616,0.0722 v 0 l -2.65467,-0.98954 v 0 l -0.664813,1.72508 z m -7.358324,-14.2195 v 0 l -0.980308,-3.45493 0.186346,0.0429 0.520171,0.11854 v 0 l 6.015646,1.37742 0.190817,0.177 v 0 3.1795 0 l -0.137001,0.0968 v 0 z m 15.7239536,17.51251 v 0 l -3.3625368,-1.32345 -0.0616,-0.12012 v 0 l -4.0489438,-17.3482 v 0 l 0.06159,-0.16933 v 0 l 3.156373,0.72178 v 0 l 0.08319,0.11403 h -2.8e-5 l 4.1920567,18.00993 -0.01992,0.11562 z m 0.838637,-16.89897 0.123203,-0.14632 v 0 l 1.514237,0.34793 v 0 l 2.7685439,11.98351 v 0 l -1.104942,-0.36777 v 0 3.11467 0 l 1.87130098,0.67575 v 0 l 0.88634503,4.00579 v 0 l -2.90231001,-1.14353 -1.1342079,-0.44476 v 0 l -1.879071,-0.74004 h 2.7e-5 l -0.143113,-0.20638 -2.7e-5,1e-5 z m 8.349664,20.03232 0.567055,-0.1884 0.499983,-0.34396 v 0 l 0.484531,-0.61939 0.346287,-0.81015 0.207883,-1.00092 0.06935,-1.19062 v 0 l -0.08242,-1.11813 -0.246882,-1.10755 -0.410766,-1.09564 -0.574146,-1.08135 v 0 l 0.574596,-0.64558 0.410713,-0.84879 0.246644,-1.05172 0.08226,-1.25359 -0.0707,-1.17793 -0.211956,-1.09458 -0.353034,-1.01071 -0.49395,-0.92577 -0.612246,-0.79349 -0.707787,-0.62706 -0.802973,-0.46196 -0.8979191,-0.29819 v 0 l -3.194745,-0.73104 v 0 l -0.0049,-0.003 v 0 l -0.569036,-0.12991 v 0 l 0.884888,3.80576 v 0 l 2.843824,0.74507 0.5850731,0.28178 0.417584,0.47175 0.250253,0.58341 0.08309,0.61727 -0.08391,0.57309 -0.250749,0.45059 -0.417417,0.25056 -0.5839271,-0.0275 v 0 l -2.075911,-0.60325 v 0 l 1.11572698,4.93527 v 0 l 0.93861502,0.31089 v 0 0.002 0 l 0.6121321,0.3384 0.433125,0.51118 0.256175,0.60642 0.08128,0.62389 -0.09156,0.56383 -0.262343,0.42624 -0.431069,0.21114 -0.5977391,-0.0818 v 0 l -0.17235199,-0.0616 v 0 l 0.87567509,3.99199 z m -28.2195186,-10.60284 3.01326,1.1864 v 0 l 0.143113,-0.0892 v 0 -5.36945 l 0.947949,0.31379 -2.745502,-9.76127 v 0 l -1.378744,-0.31538 h 2.7e-5 l -0.123217,0.11059 V 285.602 l 0.143114,0.17543 z m 7.636298,-2.91944 v 0 -3.12711 0 l -0.207725,-0.19235 -3.33494,-0.98346 v 0 l 0.97872,3.58431 v 0 l 2.414614,0.8001 v 0 z m 35.578869,7.33298 2.062215,-8.11319 v 0 l 0.0739,-0.21616 0.05998,0.0624 1.001845,2.47597 v 0 l -1.049549,4.24762 -0.07996,0.24474 v 0 l -0.0018,-2.6e-4 v 0 l -1.986703,1.41129 1.7e-5,-2.5e-4 z m 5.067519,-12.60687 h -2.8e-5 l 2.019088,-7.53771 v 0 l -0.07996,-0.11404 v 0 l -1.988291,1.00357 v 0 l -7.9e-5,-2.7e-4 h 4e-6 l -0.07996,0.22172 -0.992637,3.87033 v 0 l 0.989515,2.70245 v 0 l 0.0598,0.0614 z m -5.737022,-3.63198 -0.01098,0.0569 v 0 l 0.01098,0.10001 v 0 l -0.0476,16.61451 -0.09541,0.21379 v 0 l -1.956038,1.388 h 2.8e-5 l -0.09387,-0.10768 0.0277,-7.56074 -0.769488,3.39805 h 2.9e-5 l -0.04061,0.1278 -0.03945,-0.0738 v 0 l -0.983404,-3.90128 1.785118,-9.15987 v 0 l 0.05538,-0.1524 v 0 l 2.105263,-1.06151 -5e-6,-2.9e-4 z"
       sodipodi:nodetypes="cccccccccccccccccccccccccccccccccccccccccccccccccccccccccccccccccccccccccccccccccccccccccccccccccccccccccccccccccccccccccccccccccccccccccccccccccccccccccccccccccccccccccccccccccccccccccccccccccccccccccccccccccccccccccccccccccccccccccccccccccccccccccccccccccccccccccccccccccccccccccccccccccccccccccccccccccccccccccccccccccccccccccccccccccccccccccccccccc" /></g></svg>
