<?xml version="1.0" encoding="UTF-8" standalone="no"?>
<!-- Created with Inkscape (http://www.inkscape.org/) -->

<svg
   xmlns:dc="http://purl.org/dc/elements/1.1/"
   xmlns:cc="http://creativecommons.org/ns#"
   xmlns:rdf="http://www.w3.org/1999/02/22-rdf-syntax-ns#"
   xmlns:svg="http://www.w3.org/2000/svg"
   xmlns="http://www.w3.org/2000/svg"
   xmlns:sodipodi="http://sodipodi.sourceforge.net/DTD/sodipodi-0.dtd"
   xmlns:inkscape="http://www.inkscape.org/namespaces/inkscape"
   width="500mm"
   height="500mm"
   viewBox="0 0 500 500"
   version="1.1"
   id="svg8"
   inkscape:version="0.92.4 (5da689c313, 2019-01-14)"
   sodipodi:docname="cage_all_parts.svg">
  <defs
     id="defs2">
    <marker
       style="overflow:visible"
       refY="0"
       refX="0"
       orient="auto"
       id="DistanceX">
      <path
         id="path4520"
         style="stroke:#000000;stroke-width:0.5"
         d="M 3,-3 -3,3 M 0,-5 V 5"
         inkscape:connector-curvature="0" />
    </marker>
    <pattern
       y="0"
       x="0"
       width="8"
       patternUnits="userSpaceOnUse"
       id="Hatch"
       height="8">
      <path
         id="path4523"
         stroke-width="0.25"
         stroke="#000000"
         linecap="square"
         d="M8 4 l-4,4" />
      <path
         id="path4525"
         stroke-width="0.25"
         stroke="#000000"
         linecap="square"
         d="M6 2 l-4,4" />
      <path
         id="path4527"
         stroke-width="0.25"
         stroke="#000000"
         linecap="square"
         d="M4 0 l-4,4" />
    </pattern>
    <symbol
       id="*MODEL_SPACE" />
    <symbol
       id="*PAPER_SPACE" />
    <marker
       style="overflow:visible"
       refY="0.0"
       refX="0.0"
       orient="auto"
       id="DistanceX-0">
      <path
         id="path4676"
         style="stroke:#000000; stroke-width:0.5"
         d="M 3,-3 L -3,3 M 0,-5 L  0,5" />
    </marker>
    <pattern
       y="0"
       x="0"
       width="8"
       patternUnits="userSpaceOnUse"
       id="Hatch-6"
       height="8">
      <path
         id="path4679"
         stroke-width="0.25"
         stroke="#000000"
         linecap="square"
         d="M8 4 l-4,4" />
      <path
         id="path4681"
         stroke-width="0.25"
         stroke="#000000"
         linecap="square"
         d="M6 2 l-4,4" />
      <path
         id="path4683"
         stroke-width="0.25"
         stroke="#000000"
         linecap="square"
         d="M4 0 l-4,4" />
    </pattern>
    <symbol
       id="*MODEL_SPACE-7" />
    <symbol
       id="*PAPER_SPACE-4" />
    <marker
       style="overflow:visible"
       refY="0.0"
       refX="0.0"
       orient="auto"
       id="DistanceX-6">
      <path
         id="path5237"
         style="stroke:#000000; stroke-width:0.5"
         d="M 3,-3 L -3,3 M 0,-5 L  0,5" />
    </marker>
    <pattern
       y="0"
       x="0"
       width="8"
       patternUnits="userSpaceOnUse"
       id="Hatch-1"
       height="8">
      <path
         id="path5240"
         stroke-width="0.25"
         stroke="#000000"
         linecap="square"
         d="M8 4 l-4,4" />
      <path
         id="path5242"
         stroke-width="0.25"
         stroke="#000000"
         linecap="square"
         d="M6 2 l-4,4" />
      <path
         id="path5244"
         stroke-width="0.25"
         stroke="#000000"
         linecap="square"
         d="M4 0 l-4,4" />
    </pattern>
    <symbol
       id="*MODEL_SPACE-4" />
    <symbol
       id="*PAPER_SPACE-2" />
    <marker
       style="overflow:visible"
       refY="0.0"
       refX="0.0"
       orient="auto"
       id="DistanceX-68">
      <path
         id="path5348"
         style="stroke:#000000; stroke-width:0.5"
         d="M 3,-3 L -3,3 M 0,-5 L  0,5" />
    </marker>
    <pattern
       y="0"
       x="0"
       width="8"
       patternUnits="userSpaceOnUse"
       id="Hatch-7"
       height="8">
      <path
         id="path5351"
         stroke-width="0.25"
         stroke="#000000"
         linecap="square"
         d="M8 4 l-4,4" />
      <path
         id="path5353"
         stroke-width="0.25"
         stroke="#000000"
         linecap="square"
         d="M6 2 l-4,4" />
      <path
         id="path5355"
         stroke-width="0.25"
         stroke="#000000"
         linecap="square"
         d="M4 0 l-4,4" />
    </pattern>
    <symbol
       id="*MODEL_SPACE-76" />
    <symbol
       id="*PAPER_SPACE-9" />
    <marker
       style="overflow:visible"
       refY="0.0"
       refX="0.0"
       orient="auto"
       id="DistanceX-4">
      <path
         id="path5435"
         style="stroke:#000000; stroke-width:0.5"
         d="M 3,-3 L -3,3 M 0,-5 L  0,5" />
    </marker>
    <pattern
       y="0"
       x="0"
       width="8"
       patternUnits="userSpaceOnUse"
       id="Hatch-9"
       height="8">
      <path
         id="path5438"
         stroke-width="0.25"
         stroke="#000000"
         linecap="square"
         d="M8 4 l-4,4" />
      <path
         id="path5440"
         stroke-width="0.25"
         stroke="#000000"
         linecap="square"
         d="M6 2 l-4,4" />
      <path
         id="path5442"
         stroke-width="0.25"
         stroke="#000000"
         linecap="square"
         d="M4 0 l-4,4" />
    </pattern>
    <symbol
       id="*MODEL_SPACE-5" />
    <symbol
       id="*PAPER_SPACE-3" />
    <marker
       style="overflow:visible"
       refY="0.0"
       refX="0.0"
       orient="auto"
       id="DistanceX-5">
      <path
         id="path5504"
         style="stroke:#000000; stroke-width:0.5"
         d="M 3,-3 L -3,3 M 0,-5 L  0,5" />
    </marker>
    <pattern
       y="0"
       x="0"
       width="8"
       patternUnits="userSpaceOnUse"
       id="Hatch-8"
       height="8">
      <path
         id="path5507"
         stroke-width="0.25"
         stroke="#000000"
         linecap="square"
         d="M8 4 l-4,4" />
      <path
         id="path5509"
         stroke-width="0.25"
         stroke="#000000"
         linecap="square"
         d="M6 2 l-4,4" />
      <path
         id="path5511"
         stroke-width="0.25"
         stroke="#000000"
         linecap="square"
         d="M4 0 l-4,4" />
    </pattern>
    <symbol
       id="*MODEL_SPACE-71" />
    <symbol
       id="*PAPER_SPACE-7" />
    <marker
       style="overflow:visible"
       refY="0.0"
       refX="0.0"
       orient="auto"
       id="DistanceX-62">
      <path
         id="path5603"
         style="stroke:#000000; stroke-width:0.5"
         d="M 3,-3 L -3,3 M 0,-5 L  0,5" />
    </marker>
    <pattern
       y="0"
       x="0"
       width="8"
       patternUnits="userSpaceOnUse"
       id="Hatch-3"
       height="8">
      <path
         id="path5606"
         stroke-width="0.25"
         stroke="#000000"
         linecap="square"
         d="M8 4 l-4,4" />
      <path
         id="path5608"
         stroke-width="0.25"
         stroke="#000000"
         linecap="square"
         d="M6 2 l-4,4" />
      <path
         id="path5610"
         stroke-width="0.25"
         stroke="#000000"
         linecap="square"
         d="M4 0 l-4,4" />
    </pattern>
    <symbol
       id="*MODEL_SPACE-6" />
    <symbol
       id="*PAPER_SPACE-5" />
  </defs>
  <sodipodi:namedview
     id="base"
     pagecolor="#ffffff"
     bordercolor="#666666"
     borderopacity="1.0"
     inkscape:pageopacity="0.0"
     inkscape:pageshadow="2"
     inkscape:zoom="0.94909143"
     inkscape:cx="618.81911"
     inkscape:cy="1454.0153"
     inkscape:document-units="mm"
     inkscape:current-layer="layer1"
     showgrid="false"
     inkscape:snap-bbox="true"
     inkscape:snap-nodes="false"
     inkscape:snap-others="false"
     inkscape:bbox-paths="true"
     inkscape:bbox-nodes="true"
     inkscape:window-width="1858"
     inkscape:window-height="1057"
     inkscape:window-x="54"
     inkscape:window-y="-8"
     inkscape:window-maximized="1" />
  <metadata
     id="metadata5">
    <rdf:RDF>
      <cc:Work
         rdf:about="">
        <dc:format>image/svg+xml</dc:format>
        <dc:type
           rdf:resource="http://purl.org/dc/dcmitype/StillImage" />
        <dc:title></dc:title>
      </cc:Work>
    </rdf:RDF>
  </metadata>
  <g
     inkscape:label="Layer 1"
     inkscape:groupmode="layer"
     id="layer1"
     transform="translate(0,203)">
    <path
       style="fill:#cccccc;stroke:#000000;stroke-width:0.99999994;fill-opacity:1"
       d="M 311.84375 25.626953 A 15.11811 15.11811 0 0 0 296.72656 40.744141 L 296.72656 629.13867 A 15.11811 15.11811 0 0 0 311.84375 644.25586 L 546.17578 644.25586 A 15.11811 15.11811 0 0 0 561.29297 629.13867 L 561.29297 40.744141 A 15.11811 15.11811 0 0 0 546.17578 25.626953 L 311.84375 25.626953 z M 313.19531 45.205078 A 5.6692913 5.6692913 0 0 1 319.02539 50.875 A 5.6692913 5.6692913 0 1 1 307.6875 50.875 A 5.6692913 5.6692913 0 0 1 313.19531 45.205078 z M 544.49805 45.208984 A 5.6692913 5.6692913 0 0 1 550.33203 50.875 A 5.6692913 5.6692913 0 0 1 538.99414 50.875 A 5.6692913 5.6692913 0 0 1 544.49805 45.208984 z M 306.8457 76.951172 A 2.07874 2.07874 0 0 1 309.00977 79.027344 L 317.70312 79.027344 A 2.07874 2.07874 0 1 1 319.78125 81.107422 L 319.78125 108.69727 A 2.07874 2.07874 0 1 1 317.70312 110.77539 L 309.00977 110.77539 A 2.07874 2.07874 0 1 1 306.93164 108.69727 L 306.93164 81.107422 A 2.07874 2.07874 0 0 1 306.8457 76.951172 z M 538.15234 76.951172 A 2.07874 2.07874 0 0 1 540.31641 79.027344 L 549.00977 79.027344 A 2.07874 2.07874 0 1 1 551.08789 81.107422 L 551.08789 108.69727 A 2.07874 2.07874 0 1 1 549.00977 110.77539 L 540.31641 110.77539 A 2.07874 2.07874 0 1 1 538.23828 108.69727 L 538.23828 81.107422 A 2.07874 2.07874 0 0 1 538.15234 76.951172 z M 376.09961 80.404297 A 2.07874 2.07874 0 0 1 376.85352 84.419922 L 376.85352 91.886719 A 2.07874 2.07874 0 1 1 374.16016 94.578125 L 347.79688 94.578125 A 2.07874 2.07874 0 1 1 345.10547 91.886719 L 345.10547 84.419922 A 2.07874 2.07874 0 1 1 347.79688 81.728516 L 374.16016 81.728516 A 2.07874 2.07874 0 0 1 376.09961 80.404297 z M 444.13086 80.404297 A 2.07874 2.07874 0 0 1 444.88477 84.419922 L 444.88477 91.886719 A 2.07874 2.07874 0 1 1 442.19141 94.578125 L 415.82812 94.578125 A 2.07874 2.07874 0 1 1 413.13672 91.886719 L 413.13672 84.419922 A 2.07874 2.07874 0 1 1 415.82812 81.728516 L 442.19141 81.728516 A 2.07874 2.07874 0 0 1 444.13086 80.404297 z M 512.16211 80.404297 A 2.07874 2.07874 0 0 1 512.91602 84.419922 L 512.91602 91.886719 A 2.07874 2.07874 0 1 1 510.22266 94.578125 L 483.85938 94.578125 A 2.07874 2.07874 0 1 1 481.16797 91.886719 L 481.16797 84.419922 A 2.07874 2.07874 0 1 1 483.85938 81.728516 L 510.22266 81.728516 A 2.07874 2.07874 0 0 1 512.16211 80.404297 z M 319.0293 148.19336 A 2.07874 2.07874 0 0 1 319.78125 152.20898 L 319.78125 181.17969 A 2.07874 2.07874 0 1 1 316.94727 183.11719 L 309.76562 183.11719 A 2.07874 2.07874 0 1 1 306.93164 181.17969 L 306.93164 152.20898 A 2.07874 2.07874 0 1 1 309.62305 149.51562 L 317.08984 149.51562 A 2.07874 2.07874 0 0 1 319.0293 148.19336 z M 550.33594 148.19336 A 2.07874 2.07874 0 0 1 551.08789 152.20898 L 551.08789 181.17969 A 2.07874 2.07874 0 1 1 548.25391 183.11719 L 541.07227 183.11719 A 2.07874 2.07874 0 1 1 538.23828 181.17969 L 538.23828 152.20898 A 2.07874 2.07874 0 1 1 540.93164 149.51562 L 548.39648 149.51562 A 2.07874 2.07874 0 0 1 550.33594 148.19336 z M 306.93164 220.00391 L 319.78125 220.00391 L 319.78125 221.43164 A 2.07874 2.07874 0 0 1 319.78125 225.30469 L 319.78125 249.06055 A 2.07874 2.07874 0 1 1 317.08984 251.75195 L 309.62305 251.75195 A 2.07874 2.07874 0 1 1 306.93164 249.06055 L 306.93164 225.30469 A 2.07874 2.07874 0 0 1 306.93164 221.43164 L 306.93164 220.00391 z M 538.23828 220.00391 L 551.08789 220.00391 L 551.08789 221.43164 A 2.07874 2.07874 0 0 1 551.08789 225.30469 L 551.08789 249.06055 A 2.07874 2.07874 0 1 1 548.39648 251.75195 L 540.93164 251.75195 A 2.07874 2.07874 0 1 1 538.23828 249.06055 L 538.23828 225.30469 A 2.07874 2.07874 0 0 1 538.23828 221.43164 L 538.23828 220.00391 z M 376.09961 273.34961 A 2.07874 2.07874 0 0 1 376.85352 277.36523 L 376.85352 284.83008 A 2.07874 2.07874 0 1 1 374.16016 287.52344 L 347.79688 287.52344 A 2.07874 2.07874 0 1 1 345.10547 284.83008 L 345.10547 277.36523 A 2.07874 2.07874 0 1 1 347.79688 274.67383 L 374.16016 274.67383 A 2.07874 2.07874 0 0 1 376.09961 273.34961 z M 444.13086 273.34961 A 2.07874 2.07874 0 0 1 444.88477 277.36523 L 444.88477 284.83008 A 2.07874 2.07874 0 1 1 442.19141 287.52344 L 415.82812 287.52344 A 2.07874 2.07874 0 1 1 413.13672 284.83008 L 413.13672 277.36523 A 2.07874 2.07874 0 1 1 415.82812 274.67383 L 442.19141 274.67383 A 2.07874 2.07874 0 0 1 444.13086 273.34961 z M 512.16211 273.34961 A 2.07874 2.07874 0 0 1 512.91602 277.36523 L 512.91602 284.83008 A 2.07874 2.07874 0 1 1 510.22266 287.52344 L 483.85938 287.52344 A 2.07874 2.07874 0 1 1 481.16797 284.83008 L 481.16797 277.36523 A 2.07874 2.07874 0 1 1 483.85938 274.67383 L 510.22266 274.67383 A 2.07874 2.07874 0 0 1 512.16211 273.34961 z M 307.75 289.16992 A 2.07874 2.07874 0 0 1 309.62305 290.49219 L 319.78125 290.49219 L 319.78125 291.91992 A 2.07874 2.07874 0 0 1 319.78125 295.79297 L 319.78125 319.54883 A 2.07874 2.07874 0 1 1 317.08984 322.24023 L 309.62305 322.24023 A 2.07874 2.07874 0 1 1 306.93164 319.54883 L 306.93164 293.18555 A 2.07874 2.07874 0 0 1 307.75 289.16992 z M 539.05859 289.16992 A 2.07874 2.07874 0 0 1 540.93164 290.49219 L 548.39648 290.49219 A 2.07874 2.07874 0 1 1 551.08789 293.18555 L 551.08789 319.54883 A 2.07874 2.07874 0 1 1 548.39648 322.24023 L 540.93164 322.24023 A 2.07874 2.07874 0 1 1 538.23828 319.54883 L 538.23828 293.18555 A 2.07874 2.07874 0 0 1 539.05859 289.16992 z M 353.14453 292.60352 A 9.4488189 9.4488189 0 0 1 362.86914 302.04883 A 9.4488189 9.4488189 0 0 1 343.9707 302.04883 A 9.4488189 9.4488189 0 0 1 353.14453 292.60352 z M 504.32422 292.60352 A 9.4488189 9.4488189 0 0 1 514.04883 302.04883 A 9.4488189 9.4488189 0 0 1 495.15234 302.04883 A 9.4488189 9.4488189 0 0 1 504.32422 292.60352 z M 307.75 359.6582 A 2.07874 2.07874 0 0 1 309.62305 360.98047 L 317.08984 360.98047 A 2.07874 2.07874 0 1 1 319.78125 363.67383 L 319.78125 390.03711 A 2.07874 2.07874 0 1 1 317.08984 392.72852 L 309.62305 392.72852 A 2.07874 2.07874 0 1 1 306.93164 390.03711 L 306.93164 363.67383 A 2.07874 2.07874 0 0 1 307.75 359.6582 z M 539.05859 359.6582 A 2.07874 2.07874 0 0 1 540.93164 360.98047 L 548.39648 360.98047 A 2.07874 2.07874 0 1 1 551.08789 363.67383 L 551.08789 390.03711 A 2.07874 2.07874 0 1 1 548.39648 392.72852 L 540.93164 392.72852 A 2.07874 2.07874 0 1 1 538.23828 390.03711 L 538.23828 363.67383 A 2.07874 2.07874 0 0 1 539.05859 359.6582 z M 337.88086 369.10156 A 5.6692913 5.6692913 0 0 1 343.7168 374.76758 A 5.6692913 5.6692913 0 0 1 332.37891 374.76758 A 5.6692913 5.6692913 0 0 1 337.88086 369.10156 z M 519.80664 369.10156 A 5.6692913 5.6692913 0 0 1 525.64258 374.76758 A 5.6692913 5.6692913 0 0 1 514.30273 374.76758 A 5.6692913 5.6692913 0 0 1 519.80664 369.10156 z M 307.75 430.14648 A 2.07874 2.07874 0 0 1 309.62305 431.46875 L 317.08984 431.46875 A 2.07874 2.07874 0 1 1 319.78125 434.16211 L 319.78125 460.52539 A 2.07874 2.07874 0 1 1 317.08984 463.2168 L 309.62305 463.2168 A 2.07874 2.07874 0 1 1 306.93164 460.52539 L 306.93164 434.16211 A 2.07874 2.07874 0 0 1 307.75 430.14648 z M 539.05859 430.14648 A 2.07874 2.07874 0 0 1 540.93164 431.46875 L 548.39648 431.46875 A 2.07874 2.07874 0 1 1 551.08789 434.16211 L 551.08789 460.52539 A 2.07874 2.07874 0 1 1 548.39648 463.2168 L 540.93164 463.2168 A 2.07874 2.07874 0 1 1 538.23828 460.52539 L 538.23828 434.16211 A 2.07874 2.07874 0 0 1 539.05859 430.14648 z M 307.75 500.63477 A 2.07874 2.07874 0 0 1 309.62305 501.95703 L 317.08984 501.95703 A 2.07874 2.07874 0 1 1 319.78125 504.65039 L 319.78125 531.01367 A 2.07874 2.07874 0 1 1 317.08984 533.70508 L 309.62305 533.70508 A 2.07874 2.07874 0 1 1 306.93164 531.01367 L 306.93164 504.65039 A 2.07874 2.07874 0 0 1 307.75 500.63477 z M 539.05859 500.63477 A 2.07874 2.07874 0 0 1 540.93164 501.95703 L 548.39648 501.95703 A 2.07874 2.07874 0 1 1 551.08789 504.65039 L 551.08789 531.01367 A 2.07874 2.07874 0 1 1 548.39648 533.70508 L 540.93164 533.70508 A 2.07874 2.07874 0 1 1 538.23828 531.01367 L 538.23828 504.65039 A 2.07874 2.07874 0 0 1 539.05859 500.63477 z M 353.14453 519.375 A 9.4488189 9.4488189 0 0 1 362.86914 528.82031 A 9.4488189 9.4488189 0 0 1 343.9707 528.82031 A 9.4488189 9.4488189 0 0 1 353.14453 519.375 z M 504.32422 519.375 A 9.4488189 9.4488189 0 0 1 514.04883 528.82031 A 9.4488189 9.4488189 0 0 1 495.15234 528.82031 A 9.4488189 9.4488189 0 0 1 504.32422 519.375 z M 376.09961 541.56641 A 2.07874 2.07874 0 0 1 376.85352 545.58203 L 376.85352 553.04688 A 2.07874 2.07874 0 1 1 374.16016 555.74023 L 347.79688 555.74023 A 2.07874 2.07874 0 1 1 345.10547 553.04688 L 345.10547 545.58203 A 2.07874 2.07874 0 1 1 347.79688 542.88867 L 374.16016 542.88867 A 2.07874 2.07874 0 0 1 376.09961 541.56641 z M 444.13086 541.56641 A 2.07874 2.07874 0 0 1 444.88477 545.58203 L 444.88477 553.04688 A 2.07874 2.07874 0 1 1 442.19141 555.74023 L 415.82812 555.74023 A 2.07874 2.07874 0 1 1 413.13672 553.04688 L 413.13672 545.58203 A 2.07874 2.07874 0 1 1 415.82812 542.88867 L 442.19141 542.88867 A 2.07874 2.07874 0 0 1 444.13086 541.56641 z M 512.16211 541.56641 A 2.07874 2.07874 0 0 1 512.91602 545.58203 L 512.91602 553.04688 A 2.07874 2.07874 0 1 1 510.22266 555.74023 L 483.85938 555.74023 A 2.07874 2.07874 0 1 1 481.16797 553.04688 L 481.16797 545.58203 A 2.07874 2.07874 0 1 1 483.85938 542.88867 L 510.22266 542.88867 A 2.07874 2.07874 0 0 1 512.16211 541.56641 z M 307.75 571.12305 A 2.07874 2.07874 0 0 1 309.62305 572.44531 L 317.08984 572.44531 A 2.07874 2.07874 0 1 1 319.78125 575.13867 L 319.78125 601.50195 A 2.07874 2.07874 0 1 1 317.08984 604.19336 L 309.62305 604.19336 A 2.07874 2.07874 0 1 1 306.93164 601.50195 L 306.93164 575.13867 A 2.07874 2.07874 0 0 1 307.75 571.12305 z M 539.05859 571.12305 A 2.07874 2.07874 0 0 1 540.93164 572.44531 L 548.39648 572.44531 A 2.07874 2.07874 0 1 1 551.08789 575.13867 L 551.08789 601.50195 A 2.07874 2.07874 0 1 1 548.39648 604.19336 L 540.93164 604.19336 A 2.07874 2.07874 0 1 1 538.23828 601.50195 L 538.23828 575.13867 A 2.07874 2.07874 0 0 1 539.05859 571.12305 z M 345.92383 598.67578 A 2.07874 2.07874 0 0 1 347.79688 599.99805 L 374.16016 599.99805 A 2.07874 2.07874 0 1 1 376.85352 602.69141 L 376.85352 610.15625 A 2.07874 2.07874 0 1 1 374.16016 612.84961 L 347.79688 612.84961 A 2.07874 2.07874 0 1 1 345.10547 610.15625 L 345.10547 602.69141 A 2.07874 2.07874 0 0 1 345.92383 598.67578 z M 413.95508 598.67578 A 2.07874 2.07874 0 0 1 415.82812 599.99805 L 442.19141 599.99805 A 2.07874 2.07874 0 1 1 444.88477 602.69141 L 444.88477 610.15625 A 2.07874 2.07874 0 1 1 442.19141 612.84961 L 415.82812 612.84961 A 2.07874 2.07874 0 1 1 413.13672 610.15625 L 413.13672 602.69141 A 2.07874 2.07874 0 0 1 413.95508 598.67578 z M 481.98633 598.67578 A 2.07874 2.07874 0 0 1 483.85938 599.99805 L 510.22266 599.99805 A 2.07874 2.07874 0 1 1 512.91602 602.69141 L 512.91602 610.15625 A 2.07874 2.07874 0 1 1 510.22266 612.84961 L 483.85938 612.84961 A 2.07874 2.07874 0 1 1 481.16797 610.15625 L 481.16797 602.69141 A 2.07874 2.07874 0 0 1 481.98633 598.67578 z M 337.88086 617.09766 A 5.6692913 5.6692913 0 0 1 343.7168 622.76562 A 5.6692913 5.6692913 0 0 1 332.37891 622.76562 A 5.6692913 5.6692913 0 0 1 337.88086 617.09766 z M 519.80664 617.09766 A 5.6692913 5.6692913 0 0 1 525.64258 622.76562 A 5.6692913 5.6692913 0 0 1 514.30273 622.76562 A 5.6692913 5.6692913 0 0 1 519.80664 617.09766 z "
       transform="matrix(0.26458333,0,0,0.26458333,0,-203)"
       id="path4534" />
    <path
       style="fill:#cccccc;stroke:#000000;stroke-width:0.99999994;fill-opacity:1"
       d="M 586.26953 25.626953 A 15.11811 15.11811 0 0 0 571.15234 40.744141 L 571.15234 629.13867 A 15.11811 15.11811 0 0 0 586.26953 644.25586 L 820.60156 644.25586 A 15.11811 15.11811 0 0 0 835.71875 629.13867 L 835.71875 40.744141 A 15.11811 15.11811 0 0 0 820.60156 25.626953 L 586.26953 25.626953 z M 587.61719 45.208984 A 5.6692913 5.6692913 0 0 1 593.45117 50.875 A 5.6692913 5.6692913 0 0 1 582.11328 50.875 A 5.6692913 5.6692913 0 0 1 587.61719 45.208984 z M 818.92383 45.208984 A 5.6692913 5.6692913 0 0 1 824.75781 50.875 A 5.6692913 5.6692913 0 0 1 813.41992 50.875 A 5.6692913 5.6692913 0 0 1 818.92383 45.208984 z M 581.29688 76.951172 A 2.07874 2.07874 0 0 1 583.43555 79.027344 L 592.12891 79.027344 A 2.07874 2.07874 0 1 1 594.20703 81.107422 L 594.20703 108.69727 A 2.07874 2.07874 0 1 1 592.12891 110.77539 L 583.43555 110.77539 A 2.07874 2.07874 0 1 1 581.35742 108.69727 L 581.35742 81.107422 A 2.07874 2.07874 0 0 1 581.29688 76.951172 z M 812.60352 76.951172 A 2.07874 2.07874 0 0 1 814.74219 79.027344 L 823.43555 79.027344 A 2.07874 2.07874 0 1 1 825.51367 81.107422 L 825.51367 108.69727 A 2.07874 2.07874 0 1 1 823.43555 110.77539 L 814.74219 110.77539 A 2.07874 2.07874 0 1 1 812.66406 108.69727 L 812.66406 81.107422 A 2.07874 2.07874 0 0 1 812.60352 76.951172 z M 620.2832 80.404297 A 2.07874 2.07874 0 0 1 622.22266 81.728516 L 648.58594 81.728516 A 2.07874 2.07874 0 1 1 651.27734 84.419922 L 651.27734 91.886719 A 2.07874 2.07874 0 1 1 648.58594 94.578125 L 622.22266 94.578125 A 2.07874 2.07874 0 1 1 619.5293 91.886719 L 619.5293 84.419922 A 2.07874 2.07874 0 0 1 620.2832 80.404297 z M 688.31445 80.404297 A 2.07874 2.07874 0 0 1 690.25391 81.728516 L 716.61719 81.728516 A 2.07874 2.07874 0 1 1 719.30859 84.419922 L 719.30859 91.886719 A 2.07874 2.07874 0 1 1 716.61719 94.578125 L 690.25391 94.578125 A 2.07874 2.07874 0 1 1 687.56055 91.886719 L 687.56055 84.419922 A 2.07874 2.07874 0 0 1 688.31445 80.404297 z M 756.3457 80.404297 A 2.07874 2.07874 0 0 1 758.28516 81.728516 L 784.64844 81.728516 A 2.07874 2.07874 0 1 1 787.3418 84.419922 L 787.3418 91.886719 A 2.07874 2.07874 0 1 1 784.64844 94.578125 L 758.28516 94.578125 A 2.07874 2.07874 0 1 1 755.59375 91.886719 L 755.59375 84.419922 A 2.07874 2.07874 0 0 1 756.3457 80.404297 z M 683.75586 133.02734 L 771.19141 147.61133 L 755.04102 155.12305 L 683.38672 142.63672 L 657.56445 151.77539 L 639.19727 147.76172 L 683.75586 133.02734 z M 799.40039 147.1875 C 799.55119 147.18471 799.58805 147.34903 799.51367 147.67773 L 791.88281 176.16602 C 791.68477 177.0268 791.51634 177.21341 791.38281 176.71875 L 787.64258 166.50391 L 791.39258 151.87695 C 791.52637 151.35383 791.62577 151.07308 791.69531 151.03906 L 799.21094 147.24609 C 799.28653 147.20839 799.35012 147.18843 799.40039 147.1875 z M 582.10938 148.19336 A 2.07874 2.07874 0 0 1 584.04883 149.51562 L 591.51562 149.51562 A 2.07874 2.07874 0 1 1 594.20703 152.20898 L 594.20703 181.17969 A 2.07874 2.07874 0 1 1 591.37305 183.11719 L 584.19141 183.11719 A 2.07874 2.07874 0 1 1 581.35742 181.17969 L 581.35742 152.20898 A 2.07874 2.07874 0 0 1 582.10938 148.19336 z M 813.41602 148.19336 A 2.07874 2.07874 0 0 1 815.35547 149.51562 L 822.82227 149.51562 A 2.07874 2.07874 0 1 1 825.51367 152.20898 L 825.51367 181.17969 A 2.07874 2.07874 0 1 1 822.67969 183.11719 L 815.49805 183.11719 A 2.07874 2.07874 0 1 1 812.66406 181.17969 L 812.66406 152.20898 A 2.07874 2.07874 0 0 1 813.41602 148.19336 z M 609.11523 154.07227 C 609.17363 154.06382 609.2417 154.06713 609.32031 154.08594 L 614.53125 155.2793 L 624.9082 192.17188 L 621.32617 190.98633 L 621.32617 211.2793 C 621.32617 211.64704 621.14572 211.75665 620.78516 211.61719 L 609.39648 207.13281 C 609.03588 206.99282 608.85547 206.77073 608.85547 206.46875 L 608.85547 154.50586 C 608.85547 154.24408 608.94005 154.09761 609.11523 154.07227 z M 618.19141 156.11719 L 618.89453 156.2793 L 620.86133 156.72656 L 643.59766 161.93359 C 644.07996 162.04433 644.31836 162.26401 644.31836 162.60156 L 644.31836 174.61914 C 644.3184 174.95552 644.14468 175.07961 643.80078 174.98633 L 621.89648 169.17383 L 618.19141 156.11719 z M 781.10547 156.4043 C 781.19435 156.404 781.26655 156.48209 781.31445 156.63477 L 799.71094 204.80078 C 799.7801 205.08387 799.69602 205.31674 799.46094 205.48047 L 791.39258 211.20508 C 791.32341 211.20512 791.2762 211.11621 791.24219 210.9707 L 772.8457 161.1875 C 772.74706 160.81522 772.80732 160.5713 773.04883 160.44922 L 781.01172 156.42969 C 781.04517 156.41211 781.07584 156.4044 781.10547 156.4043 z M 770.12891 161.96094 C 770.22982 161.978 770.25138 162.13833 770.19922 162.43945 L 770.15625 162.6543 C 770.17893 162.75937 770.19922 162.8628 770.19922 163.03125 L 770.01953 225.82617 C 770.01575 226.19883 769.89291 226.46881 769.6582 226.63477 L 762.26562 231.88086 C 762.02676 232.04943 761.91016 231.91243 761.91016 231.47461 L 762.01562 202.89844 L 759.10742 215.74023 C 759.00273 216.31627 758.90333 216.38718 758.80469 215.94531 L 755.08789 201.19922 L 761.83398 166.58008 C 761.868 166.24824 761.93828 166.05758 762.04297 166.00391 L 770 161.99219 C 770.0514 161.96601 770.09527 161.95525 770.12891 161.96094 z M 653.31445 163.70117 L 665.24414 166.42773 C 665.3511 166.45797 665.45579 166.60252 665.55859 166.85938 L 665.55664 166.85938 L 681.40234 234.92773 C 681.44997 235.25391 681.43162 235.4053 681.32617 235.36523 L 681.32617 235.36328 L 668.61719 230.36133 C 668.56201 230.27364 668.47774 230.10878 668.38477 229.9082 L 653.08008 164.33984 C 652.97539 163.851 653.0514 163.64259 653.31445 163.70117 z M 684.75781 170.9375 C 684.8159 170.92307 684.88393 170.92383 684.96094 170.94141 L 690.68359 172.25586 L 701.14844 217.54883 L 696.9707 216.1582 L 696.9707 227.92969 L 704.04492 230.48438 L 707.39453 245.62305 L 696.42383 241.30273 L 692.13867 239.62109 L 685.03516 236.82422 C 684.67493 236.67882 684.49609 236.4231 684.49609 236.04492 L 684.49609 171.49414 C 684.49609 171.16725 684.58355 170.98079 684.75781 170.9375 z M 650.83008 171.2207 C 650.98693 171.25736 651.08651 171.36678 651.13867 171.55273 L 657.50781 195.67969 L 655.37891 203.37305 L 659.14258 204.63086 C 659.18982 204.649 659.26993 204.74121 659.375 204.88672 L 662.80078 219.81641 C 662.8484 220.07455 662.77094 220.16543 662.56836 220.08984 L 652.53516 216.34961 L 650.02148 222.87109 C 649.97386 222.96483 649.86388 222.98109 649.70703 222.91797 L 637.93555 218.28711 C 637.57494 218.14171 637.39453 217.90373 637.39453 217.57227 L 650.51562 171.40039 C 650.56929 171.23938 650.67247 171.17951 650.83008 171.2207 z M 694.3418 173.09375 L 696.49414 173.58398 L 696.51172 173.5957 L 708.58594 176.35742 C 713.34962 177.45091 717.15958 180.17926 720.00391 184.59961 C 722.84766 189.05102 724.27344 194.36309 724.27344 200.50781 C 724.27344 207.33353 722.61467 212.13072 719.30664 214.86914 C 722.61067 220.28101 724.27344 225.85276 724.27344 231.50977 C 724.27344 237.98818 722.87576 242.55664 720.08594 245.19531 C 717.73624 247.32432 714.70504 247.86572 711.01172 246.89453 L 707.70312 231.80664 L 708.35352 232.03906 C 715.21098 234.59845 715.432 222.22719 708.35352 219.94727 L 708.35352 219.93945 L 704.80664 218.76367 L 700.58984 200.11133 L 708.43555 202.39062 C 715.15933 204.33345 715.17694 191.91563 708.43555 190.29297 L 697.6875 187.47656 L 694.3418 173.09375 z M 745.98242 174.24219 C 746.0721 174.24731 746.13959 174.3332 746.1875 174.50781 L 757.93164 221.69727 L 757.77539 222.84766 C 757.70547 223.27436 757.61799 223.5247 757.51367 223.59375 L 749.77148 228.81055 C 749.74881 228.78409 749.71837 228.73349 749.70703 228.70703 C 749.6768 228.65034 749.64755 228.58435 749.62109 228.52539 L 745.60156 212.08203 L 745.44336 243.125 C 745.44336 243.58663 745.32436 243.90238 745.08398 244.07227 L 737.69141 249.32422 C 737.45216 249.4943 737.33462 249.377 737.3418 248.9707 L 737.72656 179.54492 C 737.72664 179.33516 737.74049 179.17282 737.77148 179.02734 C 737.68833 178.62993 737.7617 178.37391 737.98242 178.25977 L 745.88672 174.26367 C 745.92158 174.2477 745.95253 174.24048 745.98242 174.24219 z M 624.86719 179.83594 L 637.47266 183.55273 C 637.99582 183.70958 638.25781 183.94821 638.25781 184.2793 L 638.25781 196.09961 C 638.25781 196.42654 638.07143 196.53028 637.69336 196.4082 L 628.56641 193.38281 L 624.86719 179.83594 z M 780.86523 192.29492 C 780.9252 192.28813 780.97912 192.37847 781.0293 192.56836 L 784.81641 201.92773 L 780.84961 217.98047 C 780.71581 218.55046 780.61037 218.84842 780.54688 218.90625 L 780.53906 218.9043 L 773.03125 224.23828 C 772.73014 224.45239 772.62874 224.31142 772.72852 223.81445 L 780.52344 193.15039 C 780.65071 192.59057 780.76529 192.30625 780.86523 192.29492 z M 581.35742 220.00391 L 594.20703 220.00391 L 594.20703 221.43164 A 2.07874 2.07874 0 0 1 594.20703 225.30469 L 594.20703 249.06055 A 2.07874 2.07874 0 1 1 591.51562 251.75195 L 584.04883 251.75195 A 2.07874 2.07874 0 1 1 581.35742 249.06055 L 581.35742 225.30469 A 2.07874 2.07874 0 0 1 581.35742 221.43164 L 581.35742 220.00391 z M 812.66406 220.00391 L 825.51367 220.00391 L 825.51367 221.43164 A 2.07874 2.07874 0 0 1 825.51367 225.30469 L 825.51367 249.06055 A 2.07874 2.07874 0 1 1 822.82227 251.75195 L 815.35547 251.75195 A 2.07874 2.07874 0 1 1 812.66406 249.06055 L 812.66406 225.30469 A 2.07874 2.07874 0 0 1 812.66406 221.43164 L 812.66406 220.00391 z M 620.2832 273.34961 A 2.07874 2.07874 0 0 1 622.22266 274.67383 L 648.58594 274.67383 A 2.07874 2.07874 0 1 1 651.27734 277.36523 L 651.27734 284.83008 A 2.07874 2.07874 0 1 1 648.58594 287.52344 L 622.22266 287.52344 A 2.07874 2.07874 0 1 1 619.5293 284.83008 L 619.5293 277.36523 A 2.07874 2.07874 0 0 1 620.2832 273.34961 z M 688.31445 273.34961 A 2.07874 2.07874 0 0 1 690.25391 274.67383 L 716.61719 274.67383 A 2.07874 2.07874 0 1 1 719.30859 277.36523 L 719.30859 284.83008 A 2.07874 2.07874 0 1 1 716.61719 287.52344 L 690.25391 287.52344 A 2.07874 2.07874 0 1 1 687.56055 284.83008 L 687.56055 277.36523 A 2.07874 2.07874 0 0 1 688.31445 273.34961 z M 756.3457 273.34961 A 2.07874 2.07874 0 0 1 758.28516 274.67383 L 784.64844 274.67383 A 2.07874 2.07874 0 1 1 787.3418 277.36523 L 787.3418 284.83008 A 2.07874 2.07874 0 1 1 784.64844 287.52344 L 758.28516 287.52344 A 2.07874 2.07874 0 1 1 755.59375 284.83008 L 755.59375 277.36523 A 2.07874 2.07874 0 0 1 756.3457 273.34961 z M 582.10938 289.16992 A 2.07874 2.07874 0 0 1 584.04883 290.49219 L 594.20703 290.49219 L 594.20703 291.91992 A 2.07874 2.07874 0 0 1 594.20703 295.79297 L 594.20703 319.54883 A 2.07874 2.07874 0 1 1 591.51562 322.24023 L 584.04883 322.24023 A 2.07874 2.07874 0 1 1 581.35742 319.54883 L 581.35742 293.18555 A 2.07874 2.07874 0 0 1 582.10938 289.16992 z M 813.41602 289.16992 A 2.07874 2.07874 0 0 1 815.35547 290.49219 L 822.82227 290.49219 A 2.07874 2.07874 0 1 1 825.51367 293.18555 L 825.51367 319.54883 A 2.07874 2.07874 0 1 1 822.82227 322.24023 L 815.35547 322.24023 A 2.07874 2.07874 0 1 1 812.66406 319.54883 L 812.66406 293.18555 A 2.07874 2.07874 0 0 1 813.41602 289.16992 z M 627.56836 292.60352 A 9.4488189 9.4488189 0 0 1 637.29297 302.04883 A 9.4488189 9.4488189 0 0 1 618.39648 302.04883 A 9.4488189 9.4488189 0 0 1 627.56836 292.60352 z M 778.75 292.60352 A 9.4488189 9.4488189 0 0 1 788.47461 302.04883 A 9.4488189 9.4488189 0 0 1 769.57812 302.04883 A 9.4488189 9.4488189 0 0 1 778.75 292.60352 z M 624.06445 325.31836 L 782.80469 325.31836 L 782.80469 505.09375 L 624.06445 505.09375 L 624.06445 325.31836 z M 582.10938 359.6582 A 2.07874 2.07874 0 0 1 584.04883 360.98047 L 591.51562 360.98047 A 2.07874 2.07874 0 1 1 594.20703 363.67383 L 594.20703 390.03711 A 2.07874 2.07874 0 1 1 591.51562 392.72852 L 584.04883 392.72852 A 2.07874 2.07874 0 1 1 581.35742 390.03711 L 581.35742 363.67383 A 2.07874 2.07874 0 0 1 582.10938 359.6582 z M 813.41602 359.6582 A 2.07874 2.07874 0 0 1 815.35547 360.98047 L 822.82227 360.98047 A 2.07874 2.07874 0 1 1 825.51367 363.67383 L 825.51367 390.03711 A 2.07874 2.07874 0 1 1 822.82227 392.72852 L 815.35547 392.72852 A 2.07874 2.07874 0 1 1 812.66406 390.03711 L 812.66406 363.67383 A 2.07874 2.07874 0 0 1 813.41602 359.6582 z M 612.30664 369.10156 A 5.6692913 5.6692913 0 0 1 618.14258 374.76758 A 5.6692913 5.6692913 0 0 1 606.80273 374.76758 A 5.6692913 5.6692913 0 0 1 612.30664 369.10156 z M 794.23242 369.10156 A 5.6692913 5.6692913 0 0 1 800.06836 374.76758 A 5.6692913 5.6692913 0 0 1 788.72852 374.76758 A 5.6692913 5.6692913 0 0 1 794.23242 369.10156 z M 582.10938 430.14648 A 2.07874 2.07874 0 0 1 584.04883 431.46875 L 591.51562 431.46875 A 2.07874 2.07874 0 1 1 594.20703 434.16211 L 594.20703 460.52539 A 2.07874 2.07874 0 1 1 591.51562 463.2168 L 584.04883 463.2168 A 2.07874 2.07874 0 1 1 581.35742 460.52539 L 581.35742 434.16211 A 2.07874 2.07874 0 0 1 582.10938 430.14648 z M 813.41602 430.14648 A 2.07874 2.07874 0 0 1 815.35547 431.46875 L 822.82227 431.46875 A 2.07874 2.07874 0 1 1 825.51367 434.16211 L 825.51367 460.52539 A 2.07874 2.07874 0 1 1 822.82227 463.2168 L 815.35547 463.2168 A 2.07874 2.07874 0 1 1 812.66406 460.52539 L 812.66406 434.16211 A 2.07874 2.07874 0 0 1 813.41602 430.14648 z M 582.10938 500.63477 A 2.07874 2.07874 0 0 1 584.04883 501.95703 L 591.51562 501.95703 A 2.07874 2.07874 0 1 1 594.20703 504.65039 L 594.20703 531.01367 A 2.07874 2.07874 0 1 1 591.51562 533.70508 L 584.04883 533.70508 A 2.07874 2.07874 0 1 1 581.35742 531.01367 L 581.35742 504.65039 A 2.07874 2.07874 0 0 1 582.10938 500.63477 z M 813.41602 500.63477 A 2.07874 2.07874 0 0 1 815.35547 501.95703 L 822.82227 501.95703 A 2.07874 2.07874 0 1 1 825.51367 504.65039 L 825.51367 531.01367 A 2.07874 2.07874 0 1 1 822.82227 533.70508 L 815.35547 533.70508 A 2.07874 2.07874 0 1 1 812.66406 531.01367 L 812.66406 504.65039 A 2.07874 2.07874 0 0 1 813.41602 500.63477 z M 627.56836 519.375 A 9.4488189 9.4488189 0 0 1 637.29297 528.82031 A 9.4488189 9.4488189 0 0 1 618.39648 528.82031 A 9.4488189 9.4488189 0 0 1 627.56836 519.375 z M 778.75 519.375 A 9.4488189 9.4488189 0 0 1 788.47461 528.82031 A 9.4488189 9.4488189 0 0 1 769.57812 528.82031 A 9.4488189 9.4488189 0 0 1 778.75 519.375 z M 620.2832 541.56641 A 2.07874 2.07874 0 0 1 622.22266 542.88867 L 648.58594 542.88867 A 2.07874 2.07874 0 1 1 651.27734 545.58203 L 651.27734 553.04688 A 2.07874 2.07874 0 1 1 648.58594 555.74023 L 622.22266 555.74023 A 2.07874 2.07874 0 1 1 619.5293 553.04688 L 619.5293 545.58203 A 2.07874 2.07874 0 0 1 620.2832 541.56641 z M 688.31445 541.56641 A 2.07874 2.07874 0 0 1 690.25391 542.88867 L 716.61719 542.88867 A 2.07874 2.07874 0 1 1 719.30859 545.58203 L 719.30859 553.04688 A 2.07874 2.07874 0 1 1 716.61719 555.74023 L 690.25391 555.74023 A 2.07874 2.07874 0 1 1 687.56055 553.04688 L 687.56055 545.58203 A 2.07874 2.07874 0 0 1 688.31445 541.56641 z M 756.3457 541.56641 A 2.07874 2.07874 0 0 1 758.28516 542.88867 L 784.64844 542.88867 A 2.07874 2.07874 0 1 1 787.3418 545.58203 L 787.3418 553.04688 A 2.07874 2.07874 0 1 1 784.64844 555.74023 L 758.28516 555.74023 A 2.07874 2.07874 0 1 1 755.59375 553.04688 L 755.59375 545.58203 A 2.07874 2.07874 0 0 1 756.3457 541.56641 z M 582.10938 571.12305 A 2.07874 2.07874 0 0 1 584.04883 572.44531 L 591.51562 572.44531 A 2.07874 2.07874 0 1 1 594.20703 575.13867 L 594.20703 601.50195 A 2.07874 2.07874 0 1 1 591.51562 604.19336 L 584.04883 604.19336 A 2.07874 2.07874 0 1 1 581.35742 601.50195 L 581.35742 575.13867 A 2.07874 2.07874 0 0 1 582.10938 571.12305 z M 813.41602 571.12305 A 2.07874 2.07874 0 0 1 815.35547 572.44531 L 822.82227 572.44531 A 2.07874 2.07874 0 1 1 825.51367 575.13867 L 825.51367 601.50195 A 2.07874 2.07874 0 1 1 822.82227 604.19336 L 815.35547 604.19336 A 2.07874 2.07874 0 1 1 812.66406 601.50195 L 812.66406 575.13867 A 2.07874 2.07874 0 0 1 813.41602 571.12305 z M 620.2832 598.67578 A 2.07874 2.07874 0 0 1 622.22266 599.99805 L 648.58594 599.99805 A 2.07874 2.07874 0 1 1 651.27734 602.69141 L 651.27734 610.15625 A 2.07874 2.07874 0 1 1 648.58594 612.84961 L 622.22266 612.84961 A 2.07874 2.07874 0 1 1 619.5293 610.15625 L 619.5293 602.69141 A 2.07874 2.07874 0 0 1 620.2832 598.67578 z M 688.31445 598.67578 A 2.07874 2.07874 0 0 1 690.25391 599.99805 L 716.61719 599.99805 A 2.07874 2.07874 0 1 1 719.30859 602.69141 L 719.30859 610.15625 A 2.07874 2.07874 0 1 1 716.61719 612.84961 L 690.25391 612.84961 A 2.07874 2.07874 0 1 1 687.56055 610.15625 L 687.56055 602.69141 A 2.07874 2.07874 0 0 1 688.31445 598.67578 z M 756.3457 598.67578 A 2.07874 2.07874 0 0 1 758.28516 599.99805 L 784.64844 599.99805 A 2.07874 2.07874 0 1 1 787.3418 602.69141 L 787.3418 610.15625 A 2.07874 2.07874 0 1 1 784.64844 612.84961 L 758.28516 612.84961 A 2.07874 2.07874 0 1 1 755.59375 610.15625 L 755.59375 602.69141 A 2.07874 2.07874 0 0 1 756.3457 598.67578 z M 612.30664 617.09766 A 5.6692913 5.6692913 0 0 1 618.14258 622.76562 A 5.6692913 5.6692913 0 0 1 606.80273 622.76562 A 5.6692913 5.6692913 0 0 1 612.30664 617.09766 z M 794.23242 617.09766 A 5.6692913 5.6692913 0 0 1 800.06836 622.76562 A 5.6692913 5.6692913 0 0 1 788.72852 622.76562 A 5.6692913 5.6692913 0 0 1 794.23242 617.09766 z "
       transform="matrix(0.26458333,0,0,0.26458333,0,-203)"
       id="path4690" />
    <path
       style="fill:#cccccc;stroke:#000000;stroke-width:0.99999994;fill-opacity:1"
       d="M 856.91602 25.626953 L 856.91602 45.935547 A 1.03937 1.03937 0 1 1 855.87695 46.976562 L 845.57812 46.976562 L 845.57812 77.210938 L 855.87695 77.210938 A 1.03937 1.03937 0 1 1 856.91602 78.251953 L 856.91602 116.42383 A 1.03937 1.03937 0 1 1 855.87695 117.46289 L 845.57812 117.46289 L 845.57812 147.69922 L 855.87695 147.69922 A 1.03937 1.03937 0 1 1 856.91602 148.74023 L 856.91602 186.91211 A 1.03937 1.03937 0 1 1 855.87695 187.95117 L 845.57812 187.95117 L 845.57812 218.1875 L 855.87695 218.1875 A 1.03937 1.03937 0 1 1 856.91602 219.22852 L 856.91602 257.40039 A 1.03937 1.03937 0 1 1 855.87695 258.43945 L 845.57812 258.43945 L 845.57812 288.67578 L 855.87695 288.67578 A 1.03937 1.03937 0 1 1 856.91602 289.71484 L 856.91602 327.88867 A 1.03937 1.03937 0 1 1 855.87695 328.92773 L 845.57812 328.92773 L 845.57812 359.16406 L 855.87695 359.16406 A 1.03937 1.03937 0 1 1 856.91602 360.20312 L 856.91602 398.37695 A 1.03937 1.03937 0 1 1 855.87695 399.41602 L 845.57812 399.41602 L 845.57812 429.65234 L 855.87695 429.65234 A 1.03937 1.03937 0 1 1 856.91602 430.69141 L 856.91602 468.86523 A 1.03937 1.03937 0 1 1 855.87695 469.9043 L 845.57812 469.9043 L 845.57812 500.14062 L 855.87695 500.14062 A 1.03937 1.03937 0 1 1 856.91602 501.17969 L 856.91602 539.35352 A 1.03937 1.03937 0 1 1 855.87695 540.39258 L 845.57812 540.39258 L 845.57812 570.62891 L 855.87695 570.62891 A 1.03937 1.03937 0 1 1 856.91602 571.66797 L 856.91602 590.03125 A 1.0393702 1.0393702 0 1 1 856.91602 592.10938 L 856.86719 610.87695 L 1041.791 610.87695 L 1041.791 610.7832 L 1076.1289 610.74023 L 1076.1289 591.84375 A 1.03937 1.03937 0 1 1 1076.1289 590.25391 L 1076.1289 571.40039 A 1.03937 1.03937 0 1 1 1076.4961 570.62891 L 1087.4668 570.62891 L 1087.4668 540.39258 L 1076.4883 540.39258 A 1.03937 1.03937 0 1 1 1076.1289 539.58398 L 1076.1289 500.89844 A 1.03937 1.03937 0 1 1 1076.4805 500.14062 L 1087.4668 500.14062 L 1087.4668 469.9043 L 1076.4746 469.9043 A 1.03937 1.03937 0 1 1 1076.1289 469.10938 L 1076.1289 430.39844 A 1.03937 1.03937 0 1 1 1076.4668 429.65234 L 1087.4668 429.65234 L 1087.4668 399.41602 L 1076.4609 399.41602 A 1.03937 1.03937 0 1 1 1076.1289 398.63281 L 1076.1289 359.89844 A 1.03937 1.03937 0 1 1 1076.4531 359.16406 L 1087.4668 359.16406 L 1087.4668 328.92773 L 1076.4473 328.92773 A 1.03937 1.03937 0 1 1 1076.1289 328.1582 L 1076.1289 289.39648 A 1.03937 1.03937 0 1 1 1076.4395 288.67578 L 1087.4668 288.67578 L 1087.4668 258.43945 L 1076.4336 258.43945 A 1.03937 1.03937 0 1 1 1076.1289 257.68359 L 1076.1289 218.89453 A 1.03937 1.03937 0 1 1 1076.4258 218.1875 L 1087.4688 218.1875 L 1087.4688 187.95117 L 1076.4199 187.95117 A 1.03937 1.03937 0 1 1 1076.1289 187.20898 L 1076.1289 148.39062 A 1.03937 1.03937 0 1 1 1076.4121 147.69922 L 1087.4668 147.69922 L 1087.4668 117.46289 L 1076.4062 117.46289 A 1.03937 1.03937 0 1 1 1076.1289 116.73633 L 1076.1289 77.888672 A 1.03937 1.03937 0 1 1 1076.3984 77.210938 L 1087.4688 77.210938 L 1087.4688 46.976562 L 1076.3926 46.976562 A 1.03937 1.03937 0 1 1 1076.1289 46.263672 L 1076.1289 25.626953 L 856.91602 25.626953 z M 883.05859 47.597656 A 2.07874 2.07874 0 0 1 884.93164 48.919922 L 911.29492 48.919922 A 2.07874 2.07874 0 1 1 913.98633 51.611328 L 913.98633 59.078125 A 2.07874 2.07874 0 1 1 911.29492 61.769531 L 884.93164 61.769531 A 2.07874 2.07874 0 1 1 882.23828 59.078125 L 882.23828 51.611328 A 2.07874 2.07874 0 0 1 883.05859 47.597656 z M 951.11133 47.597656 A 2.07874 2.07874 0 0 1 952.96289 48.919922 L 979.30664 48.919922 A 2.07874 2.07874 0 1 1 981.99805 51.611328 L 981.99805 59.070312 A 2.07874 2.07874 0 1 1 979.32617 61.769531 L 952.96289 61.769531 A 2.07874 2.07874 0 1 1 950.25 59.085938 L 950.25 51.603516 A 2.07874 2.07874 0 0 1 951.11133 47.597656 z M 1049.2969 47.597656 A 2.07874 2.07874 0 0 1 1050.0098 51.626953 L 1050.0098 59.0625 A 2.07874 2.07874 0 1 1 1047.3574 61.769531 L 1020.9941 61.769531 A 2.07874 2.07874 0 1 1 1018.2617 59.09375 L 1018.2617 51.595703 A 2.07874 2.07874 0 1 1 1020.9941 48.919922 L 1047.3574 48.919922 A 2.07874 2.07874 0 0 1 1049.2969 47.597656 z M 913.23438 240.54102 A 2.07874 2.07874 0 0 1 913.98633 244.55664 L 913.98633 252.02344 A 2.07874 2.07874 0 1 1 911.29492 254.71484 L 884.93164 254.71484 A 2.07874 2.07874 0 1 1 882.23828 252.02344 L 882.23828 244.55664 A 2.07874 2.07874 0 1 1 884.93164 241.86523 L 911.29492 241.86523 A 2.07874 2.07874 0 0 1 913.23438 240.54102 z M 981.26562 240.54102 A 2.07874 2.07874 0 0 1 981.99805 244.56445 L 981.99805 252.01562 A 2.07874 2.07874 0 1 1 979.32617 254.71484 L 952.96289 254.71484 A 2.07874 2.07874 0 1 1 950.25 252.03125 L 950.25 244.54883 A 2.07874 2.07874 0 1 1 952.96289 241.86523 L 979.32617 241.86523 A 2.07874 2.07874 0 0 1 981.26562 240.54102 z M 1049.2559 240.54102 A 2.07874 2.07874 0 0 1 1050.0098 244.55664 L 1050.0098 252.00781 A 2.07874 2.07874 0 1 1 1047.3574 254.71484 L 1020.9941 254.71484 A 2.07874 2.07874 0 1 1 1018.2617 252.03906 L 1018.2617 244.54102 A 2.07874 2.07874 0 1 1 1020.9941 241.86523 L 1047.3164 241.86523 A 2.07874 2.07874 0 0 1 1049.2559 240.54102 z M 886.59961 284.95117 L 966.12109 284.95117 L 1045.6426 285.07422 L 1045.3379 479.96875 L 965.96875 479.8457 L 886.59961 479.8457 L 886.59961 284.95117 z M 913.23438 508.75781 A 2.07874 2.07874 0 0 1 913.98633 512.77344 L 913.98633 520.23828 A 2.07874 2.07874 0 1 1 911.29492 522.93164 L 884.93164 522.93164 A 2.07874 2.07874 0 1 1 882.23828 520.23828 L 882.23828 512.77344 A 2.07874 2.07874 0 1 1 884.93164 510.08203 L 911.29492 510.08203 A 2.07874 2.07874 0 0 1 913.23438 508.75781 z M 981.24414 508.75781 A 2.07874 2.07874 0 0 1 981.99805 512.77344 L 981.99805 519.87891 A 2.07874 2.07874 0 1 1 979.82031 522.93164 L 953.00195 522.93164 A 2.07874 2.07874 0 1 1 950.25 520.19531 L 950.25 512.87695 A 2.07874 2.07874 0 1 1 952.58398 510.08203 L 979.30664 510.08203 A 2.07874 2.07874 0 0 1 981.24414 508.75781 z M 1049.2969 508.75781 A 2.07874 2.07874 0 0 1 1050.0098 512.78906 L 1050.0098 520.22461 A 2.07874 2.07874 0 1 1 1047.3574 522.93164 L 1020.9531 522.93164 A 2.07874 2.07874 0 1 1 1018.2617 520.23828 L 1018.2617 512.77344 A 2.07874 2.07874 0 1 1 1020.9531 510.08203 L 1047.3574 510.08203 A 2.07874 2.07874 0 0 1 1049.2969 508.75781 z M 995.56445 520.28516 A 1.8897657 1.8897657 0 1 1 995.56445 524.06445 A 1.8897657 1.8897657 0 1 1 995.56445 520.28516 z M 937.77539 520.66406 A 1.889764 1.889764 0 1 1 937.77539 524.44336 A 1.889764 1.889764 0 1 1 937.77539 520.66406 z M 877.06445 521.51367 A 1.0393701 1.0393701 0 1 1 877.06445 523.59375 A 1.0393701 1.0393701 0 1 1 877.06445 521.51367 z M 1055.2246 521.51367 A 1.0393701 1.0393701 0 1 1 1055.2246 523.59375 A 1.0393701 1.0393701 0 1 1 1055.2246 521.51367 z M 883.05859 565.86719 A 2.07874 2.07874 0 0 1 884.93164 567.18945 L 911.29492 567.18945 A 2.07874 2.07874 0 1 1 913.98633 569.88281 L 913.98633 577.34766 A 2.07874 2.07874 0 1 1 911.29492 580.04102 L 884.93164 580.04102 A 2.07874 2.07874 0 1 1 882.23828 577.34766 L 882.23828 569.88281 A 2.07874 2.07874 0 0 1 883.05859 565.86719 z M 1019.0801 565.86719 A 2.07874 2.07874 0 0 1 1020.9531 567.18945 L 1047.3164 567.18945 A 2.07874 2.07874 0 1 1 1050.0098 569.88281 L 1050.0098 577.33203 A 2.07874 2.07874 0 1 1 1047.3574 580.04102 L 1020.9941 580.04102 A 2.07874 2.07874 0 1 1 1018.2617 577.36328 L 1018.2617 569.88281 A 2.07874 2.07874 0 0 1 1019.0801 565.86719 z M 981.27148 565.87305 A 2.07874 2.07874 0 0 1 981.99805 569.89453 L 981.99805 577.33984 A 2.07874 2.07874 0 1 1 979.32617 580.04102 L 952.94141 580.04102 A 2.07874 2.07874 0 1 1 950.25 577.34766 L 950.25 570.18555 A 2.07874 2.07874 0 1 1 952.5957 567.18945 L 979.32812 567.18945 A 2.07874 2.07874 0 0 1 981.27148 565.87305 z M 877.06445 566.90625 A 1.0393705 1.0393705 0 1 1 877.06445 568.98438 A 1.0393705 1.0393705 0 1 1 877.06445 566.90625 z M 1055.2246 566.90625 A 1.0393705 1.0393705 0 1 1 1055.2246 568.98438 A 1.0393705 1.0393705 0 1 1 1055.2246 566.90625 z "
       transform="matrix(0.26458333,0,0,0.26458333,0,-203)"
       id="path5251" />
    <path
       style="fill:#cccccc;stroke:#000000;stroke-width:0.99999994;fill-opacity:1"
       d="M 1108.6641 25.626953 L 1108.6641 45.935547 A 1.03937 1.03937 0 1 1 1107.625 46.976562 L 1097.3262 46.976562 L 1097.3262 77.210938 L 1107.625 77.210938 A 1.03937 1.03937 0 1 1 1108.6641 78.251953 L 1108.6641 116.42383 A 1.03937 1.03937 0 1 1 1107.625 117.46289 L 1097.3262 117.46289 L 1097.3262 147.69922 L 1107.625 147.69922 A 1.03937 1.03937 0 1 1 1108.6641 148.74023 L 1108.6641 186.91211 A 1.03937 1.03937 0 1 1 1107.625 187.95117 L 1097.3262 187.95117 L 1097.3262 218.1875 L 1107.625 218.1875 A 1.03937 1.03937 0 1 1 1108.6641 219.22852 L 1108.6641 257.40039 A 1.03937 1.03937 0 1 1 1107.625 258.43945 L 1097.3262 258.43945 L 1097.3262 288.67578 L 1107.625 288.67578 A 1.03937 1.03937 0 1 1 1108.6641 289.71484 L 1108.6641 327.88867 A 1.03937 1.03937 0 1 1 1107.625 328.92773 L 1097.3262 328.92773 L 1097.3262 359.16406 L 1107.625 359.16406 A 1.03937 1.03937 0 1 1 1108.6641 360.20312 L 1108.6641 398.37695 A 1.03937 1.03937 0 1 1 1107.625 399.41602 L 1097.3262 399.41602 L 1097.3262 429.65234 L 1107.625 429.65234 A 1.03937 1.03937 0 1 1 1108.6641 430.69141 L 1108.6641 468.86523 A 1.03937 1.03937 0 1 1 1107.625 469.9043 L 1097.3262 469.9043 L 1097.3262 500.14062 L 1107.625 500.14062 A 1.03937 1.03937 0 1 1 1108.6641 501.17969 L 1108.6641 539.35352 A 1.03937 1.03937 0 1 1 1107.625 540.39258 L 1097.3262 540.39258 L 1097.3262 570.62891 L 1107.625 570.62891 A 1.03937 1.03937 0 1 1 1108.6641 571.66797 L 1108.6641 590.03125 A 1.03937 1.03937 0 1 1 1107.9082 591.7832 L 1107.9082 610.87695 L 1293.5391 610.87695 L 1293.5391 610.7832 L 1327.877 610.74023 L 1327.877 591.84375 A 1.03937 1.03937 0 1 1 1327.877 590.25391 L 1327.877 571.40039 A 1.03937 1.03937 0 1 1 1328.2441 570.62891 L 1339.2168 570.62891 L 1339.2168 540.39258 L 1328.2383 540.39258 A 1.03937 1.03937 0 1 1 1327.877 539.58398 L 1327.877 500.89844 A 1.03937 1.03937 0 1 1 1328.2285 500.14062 L 1339.2168 500.14062 L 1339.2168 469.9043 L 1328.2227 469.9043 A 1.03937 1.03937 0 1 1 1327.877 469.10938 L 1327.877 430.39844 A 1.03937 1.03937 0 1 1 1328.2148 429.65234 L 1339.2168 429.65234 L 1339.2168 399.41602 L 1328.209 399.41602 A 1.03937 1.03937 0 1 1 1327.877 398.63281 L 1327.877 359.89844 A 1.03937 1.03937 0 1 1 1328.2012 359.16406 L 1339.2168 359.16406 L 1339.2168 328.92773 L 1328.1953 328.92773 A 1.03937 1.03937 0 1 1 1327.877 328.1582 L 1327.877 289.39648 A 1.03937 1.03937 0 1 1 1328.1875 288.67578 L 1339.2168 288.67578 L 1339.2168 258.43945 L 1328.1816 258.43945 A 1.03937 1.03937 0 1 1 1327.877 257.68359 L 1327.877 218.89453 A 1.03937 1.03937 0 1 1 1328.1738 218.1875 L 1339.2168 218.1875 L 1339.2168 187.95117 L 1328.168 187.95117 A 1.03937 1.03937 0 1 1 1327.877 187.20898 L 1327.877 148.39062 A 1.03937 1.03937 0 1 1 1328.1602 147.69922 L 1339.2148 147.69922 L 1339.2148 117.46289 L 1328.1543 117.46289 A 1.03937 1.03937 0 1 1 1327.877 116.73633 L 1327.877 77.888672 A 1.03937 1.03937 0 1 1 1328.1465 77.210938 L 1339.2148 77.210938 L 1339.2148 46.976562 L 1328.1406 46.976562 A 1.03937 1.03937 0 1 1 1327.877 46.263672 L 1327.877 25.626953 L 1108.6641 25.626953 z M 1164.9805 47.595703 A 2.07874 2.07874 0 0 1 1164.9824 47.595703 A 2.07874 2.07874 0 0 1 1165.7363 51.611328 L 1165.7363 59.078125 A 2.07874 2.07874 0 1 1 1163.043 61.769531 L 1136.6797 61.769531 A 2.07874 2.07874 0 1 1 1133.9883 59.078125 L 1133.9883 51.611328 A 2.07874 2.07874 0 0 1 1134.7402 47.597656 A 2.07874 2.07874 0 0 1 1136.6797 48.919922 L 1163.043 48.919922 A 2.07874 2.07874 0 0 1 1164.9805 47.595703 z M 1232.9922 47.595703 A 2.07874 2.07874 0 0 1 1233.7461 51.611328 L 1233.7461 59.070312 A 2.07874 2.07874 0 1 1 1231.0742 61.769531 L 1204.7109 61.769531 A 2.07874 2.07874 0 1 1 1201.998 59.085938 L 1201.998 51.603516 A 2.07874 2.07874 0 0 1 1202.7715 47.597656 A 2.07874 2.07874 0 0 1 1204.7109 48.919922 L 1231.0547 48.919922 A 2.07874 2.07874 0 0 1 1232.9922 47.595703 z M 1301.043 47.595703 A 2.07874 2.07874 0 0 1 1301.0449 47.595703 A 2.07874 2.07874 0 0 1 1301.7578 51.626953 L 1301.7578 59.0625 A 2.07874 2.07874 0 1 1 1299.1055 61.769531 L 1272.7422 61.769531 A 2.07874 2.07874 0 1 1 1270.0098 59.09375 L 1270.0098 51.595703 A 2.07874 2.07874 0 0 1 1270.8027 47.597656 A 2.07874 2.07874 0 0 1 1272.7422 48.919922 L 1299.1055 48.919922 A 2.07874 2.07874 0 0 1 1301.043 47.595703 z M 1172.5391 165.80469 A 4.346457 4.346457 0 1 1 1172.5391 174.49609 A 4.346457 4.346457 0 1 1 1172.5391 165.80469 z M 1263.248 165.80469 A 4.3464569 4.3464569 0 1 1 1263.248 174.49609 A 4.3464569 4.3464569 0 1 1 1263.248 165.80469 z M 1134.7402 240.54102 A 2.07874 2.07874 0 0 1 1136.6797 241.86523 L 1163.043 241.86523 A 2.07874 2.07874 0 1 1 1165.7363 244.55664 L 1165.7363 252.02344 A 2.07874 2.07874 0 1 1 1163.043 254.71484 L 1136.6797 254.71484 A 2.07874 2.07874 0 1 1 1133.9883 252.02344 L 1133.9883 244.55664 A 2.07874 2.07874 0 0 1 1134.7402 240.54102 z M 1202.7715 240.54102 A 2.07874 2.07874 0 0 1 1204.7109 241.86523 L 1231.0742 241.86523 A 2.07874 2.07874 0 1 1 1233.7461 244.56445 L 1233.7461 252.01562 A 2.07874 2.07874 0 1 1 1231.0742 254.71484 L 1204.7109 254.71484 A 2.07874 2.07874 0 1 1 1201.998 252.03125 L 1201.998 244.54883 A 2.07874 2.07874 0 0 1 1202.7715 240.54102 z M 1270.8027 240.54102 A 2.07874 2.07874 0 0 1 1272.7422 241.86523 L 1299.0664 241.86523 A 2.07874 2.07874 0 1 1 1301.7578 244.55664 L 1301.7578 252.00781 A 2.07874 2.07874 0 1 1 1299.1055 254.71484 L 1272.7422 254.71484 A 2.07874 2.07874 0 1 1 1270.0098 252.03906 L 1270.0098 244.54102 A 2.07874 2.07874 0 0 1 1270.8027 240.54102 z M 1150.3809 378.34961 L 1285.4043 378.34961 L 1285.4043 510.08203 L 1299.1055 510.08203 A 2.07874 2.07874 0 1 1 1301.7578 512.78906 L 1301.7578 520.22461 A 2.07874 2.07874 0 0 1 1303.0859 522.55273 L 1305.9336 522.55273 A 1.03937 1.03937 0 1 1 1306.9727 523.59375 L 1306.9727 566.90625 A 1.03937 1.03937 0 1 1 1305.9336 567.94531 L 1303.0801 567.94531 A 2.07874 2.07874 0 0 1 1301.7578 569.88281 L 1301.7578 577.33203 A 2.07874 2.07874 0 1 1 1299.1055 580.04102 L 1272.7422 580.04102 A 2.07874 2.07874 0 1 1 1270.0098 577.36328 L 1270.0098 569.88281 A 2.07874 2.07874 0 0 1 1268.6875 567.94531 L 1246.2617 567.94531 L 1246.2617 567.95117 L 1235.0898 567.95117 A 2.07874 2.07874 0 0 1 1233.7461 569.89453 L 1233.7461 577.33984 A 2.07874 2.07874 0 1 1 1231.0742 580.03906 L 1204.6914 580.03906 A 2.07874 2.07874 0 1 1 1201.998 577.34766 L 1201.998 570.18555 A 2.07874 2.07874 0 0 1 1200.4453 567.95117 L 1189.5254 567.95117 L 1189.5254 567.94531 L 1167.0586 567.94531 A 2.07874 2.07874 0 0 1 1165.7363 569.88281 L 1165.7363 577.34766 A 2.07874 2.07874 0 1 1 1163.043 580.04102 L 1136.6797 580.04102 A 2.07874 2.07874 0 1 1 1133.9883 577.34766 L 1133.9883 569.88281 A 2.07874 2.07874 0 0 1 1132.6641 567.94531 L 1129.8516 567.94531 A 1.03937 1.03937 0 1 1 1128.8125 566.90625 L 1128.8125 523.59375 A 1.03937 1.03937 0 1 1 1129.8516 522.55273 L 1132.6992 522.55273 A 2.07874 2.07874 0 0 1 1133.9883 520.23828 L 1133.9883 512.77344 A 2.07874 2.07874 0 1 1 1136.6797 510.08203 L 1150.3809 510.08203 L 1150.3809 378.34961 z "
       transform="matrix(0.26458333,0,0,0.26458333,0,-203)"
       id="path5362" />
    <path
       style="fill:#cccccc;stroke:#000000;stroke-width:0.99999994;fill-opacity:1"
       d="M 82.773438 25.626953 L 82.773438 34.886719 A 2.07874 2.07874 0 1 1 80.695312 36.964844 L 56.316406 36.964844 L 56.316406 61.382812 A 2.07874 2.07874 0 1 1 54.238281 63.462891 L 44.978516 63.462891 L 44.978516 93.699219 L 54.238281 93.699219 A 2.07874 2.07874 0 1 1 56.316406 95.777344 L 56.316406 129.39453 A 2.07874 2.07874 0 1 1 54.238281 131.47266 L 44.978516 131.47266 L 44.978516 161.70898 L 54.238281 161.70898 A 2.07874 2.07874 0 1 1 56.316406 163.78906 L 56.316406 197.40625 A 2.07874 2.07874 0 1 1 54.238281 199.48438 L 44.978516 199.48438 L 44.978516 229.7207 L 54.238281 229.7207 A 2.07874 2.07874 0 1 1 56.316406 231.79883 L 56.316406 256.17773 L 80.695312 256.17773 A 2.07874 2.07874 0 1 1 82.773438 258.25586 L 82.773438 267.51562 L 113.00977 267.51562 L 113.00977 258.25586 A 2.07874 2.07874 0 1 1 115.08789 256.17773 L 148.72656 256.17773 A 2.07874 2.07874 0 1 1 150.80469 258.25586 L 150.80469 267.51562 L 181.04102 267.51562 L 181.04102 258.25586 A 2.07874 2.07874 0 1 1 183.11914 256.17773 L 216.75781 256.17773 A 2.07874 2.07874 0 1 1 218.83594 258.25586 L 218.83594 267.51562 L 249.07227 267.51562 L 249.07227 258.25586 A 2.07874 2.07874 0 1 1 251.15234 256.17773 L 275.5293 256.17773 L 275.5293 231.79883 A 2.07874 2.07874 0 1 1 277.60742 229.7207 L 286.86719 229.7207 L 286.86719 199.48438 L 277.60742 199.48438 A 2.07874 2.07874 0 1 1 275.5293 197.40625 L 275.5293 163.78906 A 2.07874 2.07874 0 1 1 277.60742 161.70898 L 286.86719 161.70898 L 286.86719 131.47266 L 277.60742 131.47266 A 2.07874 2.07874 0 1 1 275.5293 129.39453 L 275.5293 95.777344 A 2.07874 2.07874 0 1 1 277.60742 93.699219 L 286.86719 93.699219 L 286.86719 63.462891 L 277.60742 63.462891 A 2.07874 2.07874 0 1 1 275.5293 61.382812 L 275.5293 36.964844 L 251.15234 36.964844 A 2.07874 2.07874 0 1 1 249.07227 34.886719 L 249.07227 25.626953 L 218.83594 25.626953 L 218.83594 34.886719 A 2.07874 2.07874 0 1 1 216.75781 36.964844 L 183.11914 36.964844 A 2.07874 2.07874 0 1 1 181.04102 34.886719 L 181.04102 25.626953 L 150.80469 25.626953 L 150.80469 34.886719 A 2.07874 2.07874 0 1 1 148.72656 36.964844 L 115.08789 36.964844 A 2.07874 2.07874 0 1 1 113.00977 34.886719 L 113.00977 25.626953 L 82.773438 25.626953 z M 162.80078 39.65625 A 106.96063 106.96063 0 0 1 272.88477 146.57031 A 106.96063 106.96063 0 1 1 58.962891 146.57031 A 106.96063 106.96063 0 0 1 162.80078 39.65625 z "
       transform="matrix(0.26458333,0,0,0.26458333,0,-203)"
       id="path5449" />
    <path
       style="fill:#cccccc;stroke:#000000;stroke-width:0.99999994;fill-opacity:1"
       d="M 82.773438 277.375 L 82.773438 286.63477 A 2.07874 2.07874 0 1 1 80.695312 288.71289 L 56.316406 288.71289 L 56.316406 313.0918 A 2.07874 2.07874 0 1 1 54.238281 315.16992 L 44.978516 315.16992 L 44.978516 345.40625 L 54.238281 345.40625 A 2.07874 2.07874 0 1 1 56.316406 347.48438 L 56.316406 381.10156 A 2.07874 2.07874 0 1 1 54.238281 383.18164 L 44.978516 383.18164 L 44.978516 413.41797 L 54.238281 413.41797 A 2.07874 2.07874 0 1 1 56.316406 415.49609 L 56.316406 449.11328 A 2.07874 2.07874 0 1 1 54.238281 451.19336 L 44.978516 451.19336 L 44.978516 481.42773 L 54.238281 481.42773 A 2.07874 2.07874 0 1 1 56.316406 483.50781 L 56.316406 507.92578 L 80.695312 507.92578 A 2.07874 2.07874 0 1 1 82.773438 510.00391 L 82.773438 519.26367 L 113.00977 519.26367 L 113.00977 510.00391 A 2.07874 2.07874 0 1 1 115.08789 507.92578 L 148.72656 507.92578 A 2.07874 2.07874 0 1 1 150.80469 510.00391 L 150.80469 519.26367 L 181.04102 519.26367 L 181.04102 510.00391 A 2.07874 2.07874 0 1 1 183.11914 507.92578 L 216.75781 507.92578 A 2.07874 2.07874 0 1 1 218.83594 510.00391 L 218.83594 519.26367 L 249.07227 519.26367 L 249.07227 510.00391 A 2.07874 2.07874 0 1 1 251.15234 507.92578 L 275.5293 507.92578 L 275.5293 483.50781 A 2.07874 2.07874 0 1 1 277.60742 481.42773 L 286.86719 481.42773 L 286.86719 451.19336 L 277.60742 451.19336 A 2.07874 2.07874 0 1 1 275.5293 449.11328 L 275.5293 415.49609 A 2.07874 2.07874 0 1 1 277.60742 413.41797 L 286.86719 413.41797 L 286.86719 383.18164 L 277.60742 383.18164 A 2.07874 2.07874 0 1 1 275.5293 381.10156 L 275.5293 347.48438 A 2.07874 2.07874 0 1 1 277.60742 345.40625 L 286.86719 345.40625 L 286.86719 315.16992 L 277.60742 315.16992 A 2.07874 2.07874 0 1 1 275.5293 313.0918 L 275.5293 288.71289 L 251.15234 288.71289 A 2.07874 2.07874 0 1 1 249.07227 286.63477 L 249.07227 277.375 L 218.83594 277.375 L 218.83594 286.63477 A 2.07874 2.07874 0 1 1 216.75781 288.71289 L 183.11914 288.71289 A 2.07874 2.07874 0 1 1 181.04102 286.63477 L 181.04102 277.375 L 150.80469 277.375 L 150.80469 286.63477 A 2.07874 2.07874 0 1 1 148.72656 288.71289 L 115.08789 288.71289 A 2.07874 2.07874 0 1 1 113.00977 286.63477 L 113.00977 277.375 L 82.773438 277.375 z M 105.51172 328.35742 A 9.826772 9.826772 0 0 1 115.61719 338.1875 A 9.826772 9.826772 0 1 1 95.964844 338.1875 A 9.826772 9.826772 0 0 1 105.51172 328.35742 z M 225.77539 328.35742 A 9.826772 9.826772 0 0 1 235.88281 338.1875 A 9.826772 9.826772 0 1 1 216.22852 338.1875 A 9.826772 9.826772 0 0 1 225.77539 328.35742 z M 128.33984 355.04688 A 5.8582681 5.8582681 0 0 1 134.36523 360.9043 A 5.8582681 5.8582681 0 1 1 122.65039 360.9043 A 5.8582681 5.8582681 0 0 1 128.33984 355.04688 z M 203.16992 355.04688 A 5.8582681 5.8582681 0 0 1 209.19727 360.9043 A 5.8582681 5.8582681 0 1 1 197.48047 360.9043 A 5.8582681 5.8582681 0 0 1 203.16992 355.04688 z M 165.99805 372.35938 A 25.961018 25.961018 0 0 1 183.72266 379.42188 L 184.44727 379.42188 A 18.897657 18.897657 0 0 1 184.44727 417.2168 L 183.72266 417.2168 A 25.961018 25.961018 0 1 1 165.99805 372.35938 z M 128.33984 429.87695 A 5.8582681 5.8582681 0 0 1 134.36523 435.73438 A 5.8582681 5.8582681 0 1 1 122.65039 435.73438 A 5.8582681 5.8582681 0 0 1 128.33984 429.87695 z M 203.16992 429.87695 A 5.8582681 5.8582681 0 0 1 209.19727 435.73438 A 5.8582681 5.8582681 0 1 1 197.48047 435.73438 A 5.8582681 5.8582681 0 0 1 203.16992 429.87695 z M 105.51172 448.62109 A 9.826772 9.826772 0 0 1 115.61719 458.45117 A 9.826772 9.826772 0 1 1 95.964844 458.45117 A 9.826772 9.826772 0 0 1 105.51172 448.62109 z M 225.77539 448.62109 A 9.826772 9.826772 0 0 1 235.88281 458.45117 A 9.826772 9.826772 0 1 1 216.22852 458.45117 A 9.826772 9.826772 0 0 1 225.77539 448.62109 z "
       transform="matrix(0.26458333,0,0,0.26458333,0,-203)"
       id="path5518" />
    <path
       style="fill:#cccccc;stroke:#000000;stroke-width:0.99999994"
       d="M 82.773438 529.12305 L 82.773438 538.38281 A 2.07874 2.07874 0 1 1 80.695312 540.46094 L 56.316406 540.46094 L 56.316406 564.87891 A 2.07874 2.07874 0 1 1 54.238281 566.95898 L 44.978516 566.95898 L 44.978516 597.19531 L 54.238281 597.19531 A 2.07874 2.07874 0 1 1 56.316406 599.27344 L 56.316406 632.89062 A 2.07874 2.07874 0 1 1 54.238281 634.9707 L 44.978516 634.9707 L 44.978516 665.20508 L 54.238281 665.20508 A 2.07874 2.07874 0 1 1 56.316406 667.28516 L 56.316406 700.90234 A 2.07874 2.07874 0 1 1 54.238281 702.98047 L 44.978516 702.98047 L 44.978516 733.2168 L 54.238281 733.2168 A 2.07874 2.07874 0 1 1 56.316406 735.29688 L 56.316406 759.67383 L 80.695312 759.67383 A 2.07874 2.07874 0 1 1 82.773438 761.75195 L 82.773438 771.01172 L 113.00977 771.01172 L 113.00977 761.75195 A 2.07874 2.07874 0 1 1 115.08789 759.67383 L 148.72656 759.67383 A 2.07874 2.07874 0 1 1 150.80469 761.75195 L 150.80469 771.01172 L 181.04102 771.01172 L 181.04102 761.75195 A 2.07874 2.07874 0 1 1 183.11914 759.67383 L 216.75781 759.67383 A 2.07874 2.07874 0 1 1 218.83594 761.75195 L 218.83594 771.01172 L 249.07227 771.01172 L 249.07227 761.75195 A 2.07874 2.07874 0 1 1 251.15234 759.67383 L 275.5293 759.67383 L 275.5293 735.29688 A 2.07874 2.07874 0 1 1 277.60742 733.2168 L 286.86719 733.2168 L 286.86719 702.98047 L 277.60742 702.98047 A 2.07874 2.07874 0 1 1 275.5293 700.90234 L 275.5293 667.28516 A 2.07874 2.07874 0 1 1 277.60742 665.20508 L 286.86719 665.20508 L 286.86719 634.9707 L 277.60742 634.9707 A 2.07874 2.07874 0 1 1 275.5293 632.89062 L 275.5293 599.27344 A 2.07874 2.07874 0 1 1 277.60742 597.19531 L 286.86719 597.19531 L 286.86719 566.95898 L 277.60742 566.95898 A 2.0787402 2.0787402 0 0 1 273.45117 566.95898 L 249.07227 566.95898 L 249.07227 542.54102 A 2.07875 2.07875 0 0 1 249.07227 538.38281 L 249.07227 529.12305 L 218.83594 529.12305 L 218.83594 538.38281 A 2.07874 2.07874 0 1 1 216.75781 540.46094 L 183.11914 540.46094 A 2.07874 2.07874 0 1 1 181.04102 538.38281 L 181.04102 529.12305 L 150.80469 529.12305 L 150.80469 538.38281 A 2.07874 2.07874 0 1 1 148.72656 540.46094 L 115.08789 540.46094 A 2.07874 2.07874 0 1 1 113.00977 538.38281 L 113.00977 529.12305 L 82.773438 529.12305 z M 105.51172 580.10547 A 9.826772 9.826772 0 0 1 115.61719 589.93555 A 9.826772 9.826772 0 1 1 95.964844 589.93555 A 9.826772 9.826772 0 0 1 105.51172 580.10547 z M 225.77539 580.10547 A 9.826772 9.826772 0 0 1 235.88281 589.93555 A 9.826772 9.826772 0 1 1 216.22852 589.93555 A 9.826772 9.826772 0 0 1 225.77539 580.10547 z M 164.03516 585.44727 A 64.648819 64.648819 0 0 1 230.57227 650.06836 A 64.648819 64.648819 0 1 1 101.27539 650.06836 A 64.648819 64.648819 0 0 1 164.03516 585.44727 z M 105.51172 700.37109 A 9.826772 9.826772 0 0 1 115.61719 710.19922 A 9.826772 9.826772 0 1 1 95.964844 710.19922 A 9.826772 9.826772 0 0 1 105.51172 700.37109 z M 225.77539 700.37109 A 9.826772 9.826772 0 0 1 235.88281 710.19922 A 9.826772 9.826772 0 1 1 216.22852 710.19922 A 9.826772 9.826772 0 0 1 225.77539 700.37109 z "
       transform="matrix(0.26458333,0,0,0.26458333,0,-203)"
       id="path5617" />
  </g>
</svg>
