0
SECTION
2
HEADER
9
$INSUNITS
70
4
9
$ACADVER
1
AC1014
9
$HANDSEED
5
FFFF
0
ENDSEC
0
SECTION
2
TABLES
0
TABLE
2
VPORT
5
8
100
AcDbSymbolTable
0
ENDTAB
0
TABLE
2
LTYPE
5
5
100
AcDbSymbolTable
0
LTYPE
5
14
100
AcDbSymbolTableRecord
100
AcDbLinetypeTableRecord
2
BYBLOCK
70
0
0
LTYPE
5
15
100
AcDbSymbolTableRecord
100
AcDbLinetypeTableRecord
2
BYLAYER
70
0
0
ENDTAB
0
TABLE
2
LAYER
5
2
100
AcDbSymbolTable
70
2
0
LAYER
5
50
100
AcDbSymbolTableRecord
100
AcDbLayerTableRecord
2
0
70
0
6
CONTINUOUS
0
ENDTAB
0
TABLE
2
STYLE
5
3
100
AcDbSymbolTable
70
1
0
STYLE
5
11
100
AcDbSymbolTableRecord
100
AcDbTextStyleTableRecord
2
STANDARD
70
0
0
ENDTAB
0
TABLE
2
VIEW
5
6
100
AcDbSymbolTable
70
0
0
ENDTAB
0
TABLE
2
UCS
5
7
100
AcDbSymbolTable
70
0
0
ENDTAB
0
TABLE
2
APPID
5
9
100
AcDbSymbolTable
70
2
0
APPID
5
12
100
AcDbSymbolTableRecord
100
AcDbRegAppTableRecord
2
ACAD
70
0
0
ENDTAB
0
TABLE
2
DIMSTYLE
5
A
100
AcDbSymbolTable
70
1
0
ENDTAB
0
TABLE
2
BLOCK_RECORD
5
1
100
AcDbSymbolTable
70
1
0
BLOCK_RECORD
5
1F
100
AcDbSymbolTableRecord
100
AcDbBlockTableRecord
2
*MODEL_SPACE
0
BLOCK_RECORD
5
1B
100
AcDbSymbolTableRecord
100
AcDbBlockTableRecord
2
*PAPER_SPACE
0
ENDTAB
0
ENDSEC
0
SECTION
2
BLOCKS
0
BLOCK
5
20
100
AcDbEntity
100
AcDbBlockBegin
2
*MODEL_SPACE
0
ENDBLK
5
21
100
AcDbEntity
100
AcDbBlockEnd
0
BLOCK
5
1C
100
AcDbEntity
100
AcDbBlockBegin
2
*PAPER_SPACE
0
ENDBLK
5
1D
100
AcDbEntity
100
AcDbBlockEnd
0
ENDSEC
0
SECTION
2
ENTITIES
0
LWPOLYLINE
5
100
100
AcDbEntity
8
0
100
AcDbPolyline
90
106
70
1
43
0.0
10
72.050151504106807
20
29.000000000000014
42
-2.4142135623730128
10
71.775151504106816
20
29.275000000000027
10
71.775151504106816
20
32.000000000000014
10
63.775151504106837
20
32.000000000000014
10
63.775151504106837
20
29.275000000000016
42
-2.4142135623730128
10
63.500151504106839
20
29.000000000000014
10
53.400151504106859
20
29.000000000000014
42
-2.4142135623730128
10
53.12515150410686
20
29.275000000000027
10
53.12515150410686
20
32.000000000000014
10
45.125151504106888
20
32.000000000000014
10
45.125151504106888
20
29.275000000000016
42
-2.4142135623730128
10
44.85015150410689
20
29.000000000000014
10
34.750151504106945
20
29.000000000000014
42
-2.4142135623730403
10
34.475151504106947
20
29.275000000000027
10
34.475151504106947
20
32.000000000000014
10
26.47515150410694
20
32.000000000000014
10
26.47515150410694
20
29.275000000000002
42
-2.4142135623730949
10
26.200151504106959
20
29.000000000000014
10
16.100151504106964
20
29.000000000000014
42
-2.4142135623730128
10
15.825151504106962
20
29.275000000000027
10
15.825151504106962
20
32.000000000000014
10
7.8251515041069908
20
32.000000000000014
10
7.8251515041069908
20
29.274999999999999
42
-2.4142135623730674
10
7.5501515041070091
20
29.000000000000014
10
-2.5498484958929843
20
29.000000000000014
42
-2.414213562373019
10
-2.8248484958929865
20
29.275000000000027
10
-2.8248484958929865
20
32.000000000000014
10
-10.824848495892994
20
32.000000000000014
10
-10.824848495892994
20
29.27500000000002
42
-2.4142135623732734
10
-11.099848495892957
20
29.000000000000014
10
-21.199848495892937
20
29.000000000000014
42
-2.4142135623730403
10
-21.474848495892935
20
29.275000000000027
10
-21.474848495892935
20
32.000000000000014
10
-29.474848495892942
20
32.000000000000014
10
-29.474848495892942
20
29.275000000000038
42
-2.4142135623732601
10
-29.749848495892923
20
29.000000000000014
10
-39.849848495892878
20
29.000000000000014
42
-2.4142135623730128
10
-40.124848495892884
20
29.275000000000027
10
-40.124848495892884
20
32.000000000000014
10
-48.124848495892891
20
32.000000000000014
10
-48.124848495892891
20
29.275000000000027
42
-2.4142135623734253
10
-48.39984849589284
20
29.000000000000014
10
-58.499848495892799
20
29.000000000000014
42
-2.414213562372737
10
-58.774848495892854
20
29.275000000000016
10
-58.774848495892854
20
32.000000000000014
10
-66.77484849589284
20
32.000000000000014
10
-66.77484849589284
20
29.275000000000027
42
-2.4142135623729839
10
-67.049848495892832
20
29.000000000000014
10
-71.908301989150061
20
28.999999999999911
42
-1.0003906386752359
10
-72.45830190525362
20
29.000214809290515
10
-77.423804234522123
20
29.01299602506727
10
-77.423804234522123
20
-19.914585356158788
10
-77.399001492269846
20
-19.914554682792541
10
-77.387765589850716
20
-29.000000000000014
10
-72.388048973700791
20
-29.000000000000014
42
-2.1477199860844944
10
-71.967130074521549
20
-29.000000000000014
10
-66.978692160019435
20
-29.000000000000014
42
-4.6593730561408684
10
-66.77484849589284
20
-29.096864071412142
10
-66.77484849589284
20
-32
10
-58.774848495892854
20
-32
10
-58.774848495892854
20
-29.095283398241939
42
-4.4737974289770159
10
-58.560933829714443
20
-29.000000000000007
10
-48.325504474724006
20
-29.000000000000007
42
-4.7620838902239742
10
-48.124848495892891
20
-29.093179127083978
10
-48.124848495892891
20
-32
10
-40.124848495892884
20
-32
10
-40.124848495892884
20
-29.091598453913548
42
-4.5694239544406043
10
-39.914171708686652
20
-29.000000000000007
10
-29.672199901106641
20
-29.000000000000025
42
-4.8709574119383063
10
-29.474848495892942
20
-29.089494182755317
10
-29.474848495892942
20
-32
10
-21.474848495892935
20
-32
10
-21.474848495892935
20
-29.087913509584737
42
-4.6706783968886079
10
-21.267528894636847
20
-29.000000000000007
10
-11.018772634039777
20
-28.999999999999989
42
-4.9866555939575976
10
-10.824848495892994
20
-29.085809238426194
10
-10.824848495892994
20
-32
10
-2.8248484958929865
20
-32
10
-2.8248484958929865
20
-29.084228565255387
42
-4.7781589391465795
10
-2.6210114516801744
20
-29.000000000000007
10
7.634783760746692
20
-29.000000000000025
42
-5.1099442645002728
10
7.8251515041069908
20
-29.082124294096591
10
7.8251515041069908
20
-32
10
15.825151504106962
20
-32
10
15.825151504106962
20
-29.080543620925603
42
-4.8925570095077457
10
16.025373887031691
20
-29.000000000000007
10
26.288476444926083
20
-29.000000000000018
42
-5.2417150358746118
10
26.47515150410694
20
-29.078439349766505
10
26.47515150410694
20
-32
10
34.475151504106947
20
-32
10
34.475151504106947
20
-29.076858676595268
42
-5.0146769029202076
10
34.671619612687081
20
-29.000000000000007
10
44.942313426728894
20
-29.000000000000025
42
-5.3830131666779293
10
45.125151504106888
20
-29.074754405435918
10
45.125151504106888
20
-32
10
53.12515150410686
20
-32
10
53.12515150410686
20
-29.073173732264507
42
-5.1454607058729573
10
53.317717311046913
20
-29.000000000000007
10
63.596303706700432
20
-29
42
-5.5350733520629181
10
63.775151504106837
20
-29.071069461104862
10
63.775151504106837
20
-32
10
71.775151504106816
20
-32
10
71.775151504106816
20
-29.069488787933246
42
-5.2860203094384817
10
71.963657503065576
20
-29.000000000000007
10
77.423804234522066
20
-29.000000000000014
10
77.423804234522066
20
29.000000000000014
0
CIRCLE
5
101
100
AcDbEntity
8
0
100
AcDbCircle
10
-54.054848495892841
20
23.669072596594248
30
0
40
0.27500000000000091
210
-0
220
0
230
1
0
CIRCLE
5
102
100
AcDbEntity
8
0
100
AcDbCircle
10
-66.064848495893088
20
23.669072596594248
30
0
40
0.27500000000000091
210
-0
220
0
230
1
0
CIRCLE
5
103
100
AcDbEntity
8
0
100
AcDbCircle
10
-66.064848495893088
20
-23.469072596594248
30
0
40
0.27500000000000091
210
-0
220
0
230
1
0
CIRCLE
5
104
100
AcDbEntity
8
0
100
AcDbCircle
10
-54.054848495892841
20
-23.469072596594248
30
0
40
0.27500000000000091
210
-0
220
0
230
1
0
CIRCLE
5
105
100
AcDbEntity
8
0
100
AcDbCircle
10
-54.054848495892841
20
7.6057499634826167
30
0
40
0.50000000000000133
210
-0
220
0
230
1
0
CIRCLE
5
106
100
AcDbEntity
8
0
100
AcDbCircle
10
-53.954848495892833
20
-7.68423455321948
30
0
40
0.50000000000000133
210
-0
220
0
230
1
0
LWPOLYLINE
5
107
100
AcDbEntity
8
0
100
AcDbPolyline
90
6
70
1
43
0.0
10
-42.754850927059621
20
21.146437992262797
10
8.8108125680213512
20
21.146437992262797
10
8.8108125680213512
20
0.10623687907712842
10
8.7780062804658243
20
-20.93393865799472
10
-42.787594532263789
20
-20.853536480491162
10
-42.754850927059621
20
0.14643799226279786
0
LWPOLYLINE
5
108
100
AcDbEntity
8
0
100
AcDbPolyline
90
8
70
1
43
0.0
10
71.260810136854715
20
3.5876524617020196
10
71.26081013685473
20
-3.3823027190221735
42
-1.5303836105167437
10
70.548462598556725
20
-4.0946502573201755
10
68.575213944505165
20
-4.0946502573201773
42
-1.5391251048093881
10
67.860810136854681
20
-3.3876524617020696
10
67.860810136854667
20
3.5876524617020671
42
-1.5216762611863528
10
68.571037030678895
20
4.305349742679824
10
70.550583243030772
20
4.3053497426798355
42
-1.5216762611867665
0
LWPOLYLINE
5
109
100
AcDbEntity
8
0
100
AcDbPolyline
90
8
70
1
43
0.0
10
71.260810136854857
20
21.587652461702067
10
71.260810136854857
20
14.612347538297978
42
-1.5303836105166653
10
70.548462598556867
20
13.900000000000007
10
68.573157675152757
20
13.900000000000006
42
-1.5303836105167232
10
67.860810136854823
20
14.612347538297989
10
67.860810136854809
20
21.587652461702014
42
-1.5303836105167818
10
68.573157675152814
20
22.300000000000008
10
70.548462598556824
20
22.300000000000018
42
-1.5303836105167483
0
LWPOLYLINE
5
110
100
AcDbEntity
8
0
100
AcDbPolyline
90
8
70
1
43
0.0
10
71.260810136854573
20
-14.412347538298025
10
71.260810136854559
20
-21.387652461701933
42
-1.547902231379555
10
70.544413665955901
20
-22.089300514640357
10
68.577206607753737
20
-22.089300514640367
42
-1.5479022313787281
10
67.860810136854582
20
-21.387652461702107
10
67.860810136854568
20
-14.412347538297883
42
-1.5130015673206274
10
68.568851204947947
20
-13.689300514640358
10
70.552769068761705
20
-13.689300514640335
42
-1.5130015673214101
0
LWPOLYLINE
5
111
100
AcDbEntity
8
0
100
AcDbPolyline
90
8
70
1
43
0.0
10
20.210810136854604
20
-14.41234753829805
10
20.210810136854612
20
-21.376952976342352
42
-1.530383610516757
10
19.498462598556614
20
-22.089300514640357
10
17.527206607753769
20
-22.089300514640353
42
-1.5479022313787485
10
16.810810136854588
20
-21.387652461702107
10
16.810810136854577
20
-14.412347538297885
42
-1.5130015673206267
10
17.518851204947961
20
-13.689300514640358
10
19.502769068761737
20
-13.689300514640358
42
-1.5130015673213841
0
LWPOLYLINE
5
112
100
AcDbEntity
8
0
100
AcDbPolyline
90
8
70
1
43
0.0
10
20.210810136854711
20
3.5876524617019969
10
20.210810136854708
20
-3.3876524617019736
42
-1.5391251048098447
10
19.496406329204508
20
-4.0946502573201755
10
17.525213944505168
20
-4.0946502573201746
42
-1.5391251048094283
10
16.810810136854712
20
-3.3876524617020736
10
16.810810136854709
20
3.5876524617020822
42
-1.5216762611863819
10
17.521037030678883
20
4.305349742679824
10
19.5005832430308
20
4.305349742679816
42
-1.5216762611867871
0
LWPOLYLINE
5
113
100
AcDbEntity
8
0
100
AcDbPolyline
90
8
70
1
43
0.0
10
20.210810136854853
20
21.587652461702042
10
20.210810136854846
20
14.612347538297964
42
-1.5303836105166893
10
19.498462598556898
20
13.900000000000007
10
17.523157675152799
20
13.900000000000016
42
-1.5303836105167719
10
16.810810136854855
20
14.612347538297993
10
16.810810136854844
20
21.58765246170201
42
-1.5303836105168114
10
17.523157675152845
20
22.300000000000008
10
19.498462598556856
20
22.300000000000011
42
-1.5303836105167394
0
LWPOLYLINE
5
114
100
AcDbEntity
8
0
100
AcDbPolyline
90
8
70
1
43
0.0
10
-50.754848495893086
20
-14.40164805293832
10
-50.754848495893086
20
-21.387652461701908
42
-1.5479022313795607
10
-51.471244966791787
20
-22.089300514640357
10
-53.438452024993893
20
-22.089300514640357
42
-1.5479022313787267
10
-54.154848495893084
20
-21.387652461702107
10
-54.154848495893084
20
-14.401648052938326
42
-1.5303836105167652
10
-53.442500957595115
20
-13.689300514640358
10
-51.467196034191048
20
-13.689300514640356
42
-1.5303836105167563
0
LWPOLYLINE
5
115
100
AcDbEntity
8
0
100
AcDbPolyline
90
8
70
1
43
0.0
10
-50.754848495892951
20
3.687652461701973
10
-50.754848495892951
20
-3.382302719022162
42
-1.5303836105169422
10
-51.467196034190799
20
-4.0946502573201755
10
-53.347144934576804
20
-4.0946502573201702
42
-1.5876384362021276
10
-54.154848495892963
20
-3.5185517733521605
10
-54.154848495892949
20
3.5770010902546057
42
-1.4543741017878922
10
-53.430665749342154
20
4.305349742679824
10
-51.494664605060848
20
4.3053497426798177
42
-1.6914694039958205
0
LWPOLYLINE
5
116
100
AcDbEntity
8
0
100
AcDbPolyline
90
8
70
1
43
0.0
10
-50.75484849589283
20
21.587652461702042
10
-50.754848495892837
20
14.612347538297978
42
-1.5303836105167046
10
-51.467196034190799
20
13.900000000000007
10
-53.442500957594852
20
13.900000000000006
42
-1.5303836105167021
10
-54.154848495892843
20
14.612347538297996
10
-54.154848495892843
20
21.587652461702042
42
-1.5303836105167459
10
-53.442500957594845
20
22.300000000000008
10
-51.46719603419082
20
22.300000000000008
42
-1.5303836105167585
0
LWPOLYLINE
5
117
100
AcDbEntity
8
0
100
AcDbPolyline
90
8
70
1
43
0.0
10
-69.264848495893091
20
-21.387652461702096
10
-69.264848495893091
20
-14.412347538297849
42
-1.5130015673206303
10
-68.556807427799725
20
-13.689300514640358
10
-66.577196034191076
20
-13.689300514640356
42
-1.5303836105167488
10
-65.864848495893085
20
-14.401648052938329
10
-65.864848495893085
20
-21.376952976342348
42
-1.5303836105167581
10
-66.577196034191076
20
-22.089300514640357
10
-68.548452024993892
20
-22.089300514640357
42
-1.5479022313787554
0
LWPOLYLINE
5
118
100
AcDbEntity
8
0
100
AcDbPolyline
90
8
70
1
43
0.0
10
-69.264848495892977
20
-3.3876524617020474
10
-69.264848495892963
20
3.5930022043818628
42
-1.5303836105167437
10
-68.552500957594987
20
4.305349742679824
10
-66.657668849434103
20
4.3053497426798213
42
-1.5327054038325159
10
-65.864848495892957
20
3.684803967950562
10
-65.864848495892971
20
-3.3882059508196343
42
-1.5368049514539881
10
-66.580664446234849
20
-4.0946502573201755
10
-68.550444688242479
20
-4.0946502573201728
42
-1.5391251048094423
0
LWPOLYLINE
5
119
100
AcDbEntity
8
0
100
AcDbPolyline
90
8
70
1
43
0.0
10
-69.264848495892835
20
14.612347538298007
10
-69.264848495892835
20
21.587652461702049
42
-1.5303836105167599
10
-68.552500957594859
20
22.300000000000008
10
-66.57719603419082
20
22.300000000000008
42
-1.5303836105167763
10
-65.864848495892844
20
21.587652461702032
10
-65.864848495892844
20
14.61234753829801
42
-1.5303836105167454
10
-66.57719603419082
20
13.900000000000007
10
-68.552500957594859
20
13.900000000000006
42
-1.5303836105167405
0
ENDSEC
0
SECTION
2
OBJECTS
0
DICTIONARY
5
C
100
AcDbDictionary
3
ACAD_GROUP
350
D
3
ACAD_MLINESTYLE
350
17
0
DICTIONARY
5
D
100
AcDbDictionary
0
DICTIONARY
5
1A
330
C
100
AcDbDictionary
0
DICTIONARY
5
17
100
AcDbDictionary
0
ENDSEC
0
EOF
