0
SECTION
2
HEADER
9
$INSUNITS
70
4
9
$ACADVER
1
AC1014
9
$HANDSEED
5
FFFF
0
ENDSEC
0
SECTION
2
TABLES
0
TABLE
2
VPORT
5
8
100
AcDbSymbolTable
0
ENDTAB
0
TABLE
2
LTYPE
5
5
100
AcDbSymbolTable
0
LTYPE
5
14
100
AcDbSymbolTableRecord
100
AcDbLinetypeTableRecord
2
BYBLOCK
70
0
0
LTYPE
5
15
100
AcDbSymbolTableRecord
100
AcDbLinetypeTableRecord
2
BYLAYER
70
0
0
ENDTAB
0
TABLE
2
LAYER
5
2
100
AcDbSymbolTable
70
2
0
LAYER
5
50
100
AcDbSymbolTableRecord
100
AcDbLayerTableRecord
2
0
70
0
6
CONTINUOUS
0
ENDTAB
0
TABLE
2
STYLE
5
3
100
AcDbSymbolTable
70
1
0
STYLE
5
11
100
AcDbSymbolTableRecord
100
AcDbTextStyleTableRecord
2
STANDARD
70
0
0
ENDTAB
0
TABLE
2
VIEW
5
6
100
AcDbSymbolTable
70
0
0
ENDTAB
0
TABLE
2
UCS
5
7
100
AcDbSymbolTable
70
0
0
ENDTAB
0
TABLE
2
APPID
5
9
100
AcDbSymbolTable
70
2
0
APPID
5
12
100
AcDbSymbolTableRecord
100
AcDbRegAppTableRecord
2
ACAD
70
0
0
ENDTAB
0
TABLE
2
DIMSTYLE
5
A
100
AcDbSymbolTable
70
1
0
ENDTAB
0
TABLE
2
BLOCK_RECORD
5
1
100
AcDbSymbolTable
70
1
0
BLOCK_RECORD
5
1F
100
AcDbSymbolTableRecord
100
AcDbBlockTableRecord
2
*MODEL_SPACE
0
BLOCK_RECORD
5
1B
100
AcDbSymbolTableRecord
100
AcDbBlockTableRecord
2
*PAPER_SPACE
0
ENDTAB
0
ENDSEC
0
SECTION
2
BLOCKS
0
BLOCK
5
20
100
AcDbEntity
100
AcDbBlockBegin
2
*MODEL_SPACE
0
ENDBLK
5
21
100
AcDbEntity
100
AcDbBlockEnd
0
BLOCK
5
1C
100
AcDbEntity
100
AcDbBlockBegin
2
*PAPER_SPACE
0
ENDBLK
5
1D
100
AcDbEntity
100
AcDbBlockEnd
0
ENDSEC
0
SECTION
2
ENTITIES
0
LWPOLYLINE
5
100
100
AcDbEntity
8
0
100
AcDbPolyline
90
76
70
1
43
0.0
10
-29.550000000000004
20
13.989300514640359
10
-32
20
13.989300514640359
10
-32
20
21.989300514640359
10
-29.550000000000004
20
21.989300514640359
42
2.4142135623730674
10
-29
20
22.539300514640356
10
-29
20
29.000000000000014
10
-22.549999999999997
20
29.000000000000014
42
2.4142135623730949
10
-22.000000000000007
20
29.550000000000011
10
-22.000000000000007
20
32.000000000000014
10
-14
20
32.000000000000014
10
-14
20
29.550000000000011
42
2.4142135623730887
10
-13.450000000000003
20
29.000000000000014
10
-4.5500000000000016
20
29.000000000000014
42
2.4142135623731051
10
-4.0000000000000071
20
29.550000000000011
10
-4.0000000000000071
20
32
10
4
20
32
10
4
20
29.550000000000011
42
2.4142135623731114
10
4.5499999999999936
20
29.000000000000014
10
13.449999999999996
20
29.000000000000014
42
2.4142135623730949
10
13.999999999999993
20
29.550000000000011
10
13.999999999999993
20
32
10
22
20
32
10
22
20
29.550000000000011
42
2.414213562373122
10
22.54999999999999
20
29.000000000000014
10
28.999999999999993
20
29.000000000000014
10
28.999999999999993
20
22.539300514640356
42
2.4142135623731082
10
29.54999999999999
20
21.989300514640359
10
31.999999999999993
20
21.989300514640362
10
31.999999999999993
20
13.989300514640359
10
29.549999999999997
20
13.989300514640359
42
2.4142135623730949
10
28.999999999999993
20
13.43930051464036
10
28.999999999999993
20
4.5446502573201757
42
2.4142135623730918
10
29.549999999999997
20
3.9946502573201763
10
31.999999999999993
20
3.9946502573201759
10
31.999999999999993
20
-4.0053497426798241
10
29.54999999999999
20
-4.0053497426798241
42
2.4142135623731176
10
29
20
-4.555349742679824
10
29
20
-13.450000000000008
42
2.4142135623730949
10
29.549999999999997
20
-14.000000000000007
10
32
20
-14.000000000000007
10
32
20
-22.000000000000011
10
29.54999999999999
20
-22.000000000000011
42
2.4142135623730949
10
29
20
-22.550000000000008
10
29
20
-28.999999999999993
10
22.549999999999994
20
-28.999999999999993
42
2.4142135623730812
10
22
20
-29.550000000000001
10
22
20
-32.000000000000007
10
13.999999999999993
20
-32.000000000000007
10
13.999999999999993
20
-29.549999999999997
42
2.4142135623731082
10
13.449999999999999
20
-28.999999999999993
10
4.5499999999999954
20
-28.999999999999993
42
2.4142135623730767
10
4
20
-29.550000000000001
10
3.9999999999999996
20
-32.000000000000007
10
-4.0000000000000071
20
-32.000000000000007
10
-4.0000000000000071
20
-29.550000000000001
42
2.4142135623731464
10
-4.5499999999999874
20
-29
10
-13.450000000000005
20
-29
42
2.4142135623730949
10
-14
20
-29.550000000000001
10
-14
20
-32.000000000000007
10
-22.000000000000007
20
-32.000000000000007
10
-22.000000000000007
20
-29.550000000000004
42
2.4142135623731082
10
-22.54999999999999
20
-29
10
-29.000000000000004
20
-29
10
-29.000000000000014
20
-22.550000000000008
42
2.4142135623731082
10
-29.550000000000004
20
-22.000000000000011
10
-32
20
-22.000000000000011
10
-32
20
-14.000000000000007
10
-29.550000000000011
20
-14.000000000000007
42
2.4142135623731082
10
-29.000000000000014
20
-13.450000000000006
10
-29.000000000000007
20
-4.555349742679824
42
2.4142135623731038
10
-29.550000000000004
20
-4.0053497426798241
10
-32
20
-4.0053497426798241
10
-32
20
3.9946502573201763
10
-29.550000000000004
20
3.9946502573201763
42
2.4142135623731051
10
-29.000000000000007
20
4.5446502573201748
10
-29.000000000000004
20
13.43930051464036
42
2.4142135623730812
0
CIRCLE
5
101
100
AcDbEntity
8
0
100
AcDbCircle
10
-8.8817841970012523e-15
20
8.8817841970012523e-15
30
0
40
28.300000000000001
210
0
220
-0
230
1
0
ENDSEC
0
SECTION
2
OBJECTS
0
DICTIONARY
5
C
100
AcDbDictionary
3
ACAD_GROUP
350
D
3
ACAD_MLINESTYLE
350
17
0
DICTIONARY
5
D
100
AcDbDictionary
0
DICTIONARY
5
1A
330
C
100
AcDbDictionary
0
DICTIONARY
5
17
100
AcDbDictionary
0
ENDSEC
0
EOF
