0
SECTION
2
HEADER
9
$INSUNITS
70
4
9
$ACADVER
1
AC1014
9
$HANDSEED
5
FFFF
0
ENDSEC
0
SECTION
2
TABLES
0
TABLE
2
VPORT
5
8
100
AcDbSymbolTable
0
ENDTAB
0
TABLE
2
LTYPE
5
5
100
AcDbSymbolTable
0
LTYPE
5
14
100
AcDbSymbolTableRecord
100
AcDbLinetypeTableRecord
2
BYBLOCK
70
0
0
LTYPE
5
15
100
AcDbSymbolTableRecord
100
AcDbLinetypeTableRecord
2
BYLAYER
70
0
0
ENDTAB
0
TABLE
2
LAYER
5
2
100
AcDbSymbolTable
70
2
0
LAYER
5
50
100
AcDbSymbolTableRecord
100
AcDbLayerTableRecord
2
0
70
0
6
CONTINUOUS
0
ENDTAB
0
TABLE
2
STYLE
5
3
100
AcDbSymbolTable
70
1
0
STYLE
5
11
100
AcDbSymbolTableRecord
100
AcDbTextStyleTableRecord
2
STANDARD
70
0
0
ENDTAB
0
TABLE
2
VIEW
5
6
100
AcDbSymbolTable
70
0
0
ENDTAB
0
TABLE
2
UCS
5
7
100
AcDbSymbolTable
70
0
0
ENDTAB
0
TABLE
2
APPID
5
9
100
AcDbSymbolTable
70
2
0
APPID
5
12
100
AcDbSymbolTableRecord
100
AcDbRegAppTableRecord
2
ACAD
70
0
0
ENDTAB
0
TABLE
2
DIMSTYLE
5
A
100
AcDbSymbolTable
70
1
0
ENDTAB
0
TABLE
2
BLOCK_RECORD
5
1
100
AcDbSymbolTable
70
1
0
BLOCK_RECORD
5
1F
100
AcDbSymbolTableRecord
100
AcDbBlockTableRecord
2
*MODEL_SPACE
0
BLOCK_RECORD
5
1B
100
AcDbSymbolTableRecord
100
AcDbBlockTableRecord
2
*PAPER_SPACE
0
ENDTAB
0
ENDSEC
0
SECTION
2
BLOCKS
0
BLOCK
5
20
100
AcDbEntity
100
AcDbBlockBegin
2
*MODEL_SPACE
0
ENDBLK
5
21
100
AcDbEntity
100
AcDbBlockEnd
0
BLOCK
5
1C
100
AcDbEntity
100
AcDbBlockBegin
2
*PAPER_SPACE
0
ENDBLK
5
1D
100
AcDbEntity
100
AcDbBlockEnd
0
ENDSEC
0
SECTION
2
ENTITIES
0
LWPOLYLINE
5
100
100
AcDbEntity
8
0
100
AcDbPolyline
90
8
70
1
43
0.0
10
-34.999999999999986
20
77.839618205902724
10
-34.999999999999986
20
-77.839618205903122
42
0.41421356237309598
10
-30.999999999999982
20
-81.839618205903122
10
31.000000000000018
20
-81.839618205903122
42
0.41421356237309731
10
35.000000000000014
20
-77.839618205903122
10
35.000000000000021
20
77.839618205902795
42
0.41421356237309892
10
31.000000000000018
20
81.839618205902823
10
-30.999999999999993
20
81.839618205902809
42
0.4142135623731012
0
CIRCLE
5
101
100
AcDbEntity
8
0
100
AcDbCircle
10
-19.999999999999982
20
8.7027693377848614
30
0
40
2.499999999999992
210
0
220
-0
230
1
0
CIRCLE
5
102
100
AcDbEntity
8
0
100
AcDbCircle
10
-19.999999999999982
20
-51.297230662215142
30
0
40
2.4999999999999991
210
0
220
-0
230
1
0
CIRCLE
5
103
100
AcDbEntity
8
0
100
AcDbCircle
10
20.000000000000018
20
-51.297230662215142
30
0
40
2.4999999999999991
210
0
220
-0
230
1
0
CIRCLE
5
104
100
AcDbEntity
8
0
100
AcDbCircle
10
20.000000000000018
20
8.7027693377848614
30
0
40
2.4999999999999991
210
0
220
-0
230
1
0
CIRCLE
5
105
100
AcDbEntity
8
0
100
AcDbCircle
10
-30.599999999999991
20
75.159034524511782
30
0
40
1.5000000000000013
210
0
220
-0
230
1
0
CIRCLE
5
106
100
AcDbEntity
8
0
100
AcDbCircle
10
-24.067222489272183
20
-10.537365302450095
30
0
40
1.5000000000000013
210
0
220
-0
230
1
0
CIRCLE
5
107
100
AcDbEntity
8
0
100
AcDbCircle
10
24.067222489272218
20
-10.537365302450095
30
0
40
1.5000000000000013
210
-0
220
0
230
1
0
CIRCLE
5
108
100
AcDbEntity
8
0
100
AcDbCircle
10
30.600000000000026
20
75.159034524511782
30
0
40
1.5000000000000049
210
-0
220
0
230
1
0
CIRCLE
5
109
100
AcDbEntity
8
0
100
AcDbCircle
10
-24.067222489272172
20
-76.153300031012122
30
0
40
1.5000000000000013
210
0
220
-0
230
1
0
CIRCLE
5
110
100
AcDbEntity
8
0
100
AcDbCircle
10
24.067222489272208
20
-76.153300031012122
30
0
40
1.5000000000000049
210
-0
220
0
230
1
0
LWPOLYLINE
5
111
100
AcDbEntity
8
0
100
AcDbPolyline
90
8
70
1
43
0.0
10
-32.299999999999997
20
-70.527270667605137
10
-32.299999999999997
20
-63.551965744201098
42
-1.5303836105167299
10
-31.587652461702021
20
-62.839618205903129
10
-29.612347538297982
20
-62.839618205903136
42
-1.530383610516761
10
-28.899999999999991
20
-63.551965744201119
10
-28.899999999999988
20
-70.527270667605137
42
-1.5303836105167459
10
-29.612347538297978
20
-71.239618205903128
10
-31.587652461702014
20
-71.239618205903128
42
-1.5303836105167372
0
LWPOLYLINE
5
112
100
AcDbEntity
8
0
100
AcDbPolyline
90
8
70
1
43
0.0
10
-29.612347538297904
20
-52.589618205903164
10
-31.58765246170195
20
-52.589618205903164
42
-1.5303836105167425
10
-32.299999999999933
20
-51.877270667605195
10
-32.299999999999926
20
-44.901965744201121
42
-1.5303836105167437
10
-31.587652461701961
20
-44.189618205903173
10
-29.612347538297907
20
-44.189618205903173
42
-1.5303836105167563
10
-28.899999999999928
20
-44.901965744201142
10
-28.899999999999928
20
-51.877270667605195
42
-1.5303836105167532
0
LWPOLYLINE
5
113
100
AcDbEntity
8
0
100
AcDbPolyline
90
8
70
1
43
0.0
10
-21.487652461702002
20
-55.019618205903107
10
-14.512347538297943
20
-55.019618205903107
42
-1.5303836105167361
10
-13.799999999999976
20
-55.731965744201084
10
-13.799999999999972
20
-57.707270667605137
42
-1.5303836105167254
10
-14.512347538297954
20
-58.419618205903127
10
-21.487652461702002
20
-58.419618205903127
42
-1.5303836105167368
10
-22.199999999999974
20
-57.70727066760513
10
-22.199999999999974
20
-55.731965744201091
42
-1.5303836105167472
0
LWPOLYLINE
5
114
100
AcDbEntity
8
0
100
AcDbPolyline
90
8
70
1
43
0.0
10
-21.487652461701998
20
-70.129618205903114
10
-14.512347538297963
20
-70.129618205903114
42
-1.530383610516761
10
-13.799999999999976
20
-70.841965744201104
10
-13.799999999999976
20
-72.817270667605143
42
-1.5303836105167563
10
-14.512347538297959
20
-73.52961820590312
10
-21.487652461702002
20
-73.529618205903105
42
-1.5303836105167621
10
-22.199999999999974
20
-72.817270667605143
10
-22.199999999999974
20
-70.84196574420109
42
-1.5303836105167621
0
LWPOLYLINE
5
115
100
AcDbEntity
8
0
100
AcDbPolyline
90
8
70
1
43
0.0
10
-3.4876524617019977
20
-70.129618205903114
10
3.4876524617020346
20
-70.129618205903114
42
-1.5303836105167592
10
4.2000000000000224
20
-70.841965744201104
10
4.200000000000025
20
-72.817270667605143
42
-1.5303836105167514
10
3.4876524617020395
20
-73.52961820590312
10
-3.4876524617020008
20
-73.52961820590312
42
-1.5303836105167599
10
-4.1999999999999771
20
-72.817270667605143
10
-4.1999999999999735
20
-70.841965744201104
42
-1.5303836105167672
0
LWPOLYLINE
5
116
100
AcDbEntity
8
0
100
AcDbPolyline
90
8
70
1
43
0.0
10
4.2000000000000224
20
-55.731965744201084
10
4.2000000000000242
20
-57.707270667605137
42
-1.5303836105167266
10
3.4876524617020452
20
-58.419618205903127
10
-3.4876524617020004
20
-58.419618205903127
42
-1.5303836105167348
10
-4.1999999999999771
20
-57.70727066760513
10
-4.1999999999999762
20
-55.731965744201091
42
-1.5303836105167454
10
-3.4876524617020026
20
-55.019618205903107
10
3.4876524617020528
20
-55.019618205903114
42
-1.5303836105167348
0
LWPOLYLINE
5
117
100
AcDbEntity
8
0
100
AcDbPolyline
90
8
70
1
43
0.0
10
21.487652461702048
20
-58.419618205903127
10
14.512347538297995
20
-58.419618205903127
42
-1.5303836105167272
10
13.800000000000022
20
-57.707270667605137
10
13.800000000000017
20
-55.731965744201091
42
-1.5303836105167337
10
14.512347538297997
20
-55.019618205903107
10
21.487652461702055
20
-55.019618205903107
42
-1.5303836105167425
10
22.200000000000021
20
-55.731965744201084
10
22.200000000000024
20
-57.70727066760513
42
-1.5303836105167348
0
LWPOLYLINE
5
118
100
AcDbEntity
8
0
100
AcDbPolyline
90
8
70
1
43
0.0
10
14.512347538298
20
-70.129618205903114
10
21.487652461702037
20
-70.129618205903114
42
-1.5303836105167672
10
22.200000000000021
20
-70.841965744201104
10
22.200000000000021
20
-72.817270667605143
42
-1.5303836105167621
10
21.487652461702041
20
-73.52961820590312
10
14.512347538298
20
-73.52961820590312
42
-1.5303836105167563
10
13.800000000000022
20
-72.817270667605143
10
13.800000000000022
20
-70.84196574420109
42
-1.5303836105167548
0
LWPOLYLINE
5
119
100
AcDbEntity
8
0
100
AcDbPolyline
90
8
70
1
43
0.0
10
-29.612347538297836
20
-33.939618205903237
10
-31.587652461701893
20
-33.939618205903237
42
-1.5303836105167348
10
-32.299999999999862
20
-33.227270667605247
10
-32.299999999999862
20
-26.251965744201193
42
-1.5303836105167599
10
-31.587652461701889
20
-25.539618205903221
10
-29.612347538297836
20
-25.539618205903221
42
-1.5303836105167621
10
-28.899999999999864
20
-26.251965744201193
10
-28.899999999999864
20
-33.227270667605239
42
-1.5303836105167372
0
LWPOLYLINE
5
120
100
AcDbEntity
8
0
100
AcDbPolyline
90
8
70
1
43
0.0
10
31.587652461702046
20
-71.239618205903128
10
29.612347538298003
20
-71.239618205903113
42
-1.5303836105167459
10
28.900000000000027
20
-70.527270667605137
10
28.900000000000034
20
-63.551965744201112
42
-1.5303836105167459
10
29.612347538298003
20
-62.839618205903129
10
31.587652461702049
20
-62.839618205903129
42
-1.5303836105167323
10
32.300000000000033
20
-63.551965744201112
10
32.300000000000033
20
-70.527270667605137
42
-1.5303836105167372
0
LWPOLYLINE
5
121
100
AcDbEntity
8
0
100
AcDbPolyline
90
8
70
1
43
0.0
10
-29.612347538297776
20
-15.28961820590327
10
-31.587652461701822
20
-15.28961820590327
42
-1.5303836105167576
10
-32.299999999999798
20
-14.577270667605298
10
-32.299999999999798
20
-7.6019657442012409
42
-1.5303836105167565
10
-31.587652461701829
20
-6.8896182059032718
10
-29.612347538297779
20
-6.8896182059032736
42
-1.5303836105167576
10
-28.899999999999796
20
-7.6019657442012445
10
-28.899999999999796
20
-14.577270667605298
42
-1.5303836105167532
0
LWPOLYLINE
5
122
100
AcDbEntity
8
0
100
AcDbPolyline
90
8
70
1
43
0.0
10
29.612347538297939
20
-44.189618205903173
10
31.587652461701985
20
-44.189618205903173
42
-1.5303836105167425
10
32.299999999999969
20
-44.901965744201142
10
32.299999999999962
20
-51.877270667605217
42
-1.5303836105167437
10
31.587652461701996
20
-52.589618205903164
10
29.612347538297943
20
-52.589618205903164
42
-1.5303836105167563
10
28.899999999999963
20
-51.877270667605195
10
28.899999999999963
20
-44.901965744201142
42
-1.5303836105167532
0
LWPOLYLINE
5
123
100
AcDbEntity
8
0
100
AcDbPolyline
90
8
70
1
43
0.0
10
28.899999999999899
20
-33.227270667605247
10
28.899999999999899
20
-26.251965744201193
42
-1.5303836105167599
10
29.612347538297872
20
-25.539618205903221
10
31.587652461701925
20
-25.539618205903221
42
-1.5303836105167599
10
32.299999999999898
20
-26.251965744201193
10
32.299999999999905
20
-33.227270667605239
42
-1.5303836105167348
10
31.587652461701925
20
-33.939618205903237
10
29.612347538297861
20
-33.939618205903237
42
-1.5303836105167323
0
LWPOLYLINE
5
124
100
AcDbEntity
8
0
100
AcDbPolyline
90
9
70
1
43
0.0
10
-29.612347538297708
20
3.3603817940966962
10
-31.587652461701758
20
3.3603817940966954
42
-1.5303836105167177
10
-32.299999999999734
20
4.0727293323946867
10
-32.29999999999972
20
11.048034255798711
42
-1.530383610516755
10
-31.587652461701762
20
11.760381794096677
10
-28.899999999999736
20
11.760381794096677
10
-28.899999999999729
20
11.38272933239479
42
-0.68313005106397595
10
-28.899999999999736
20
10.358034255798803
10
-28.899999999999736
20
4.0727293323946876
42
-1.5303836105167261
0
LWPOLYLINE
5
125
100
AcDbEntity
8
0
100
AcDbPolyline
90
8
70
1
43
0.0
10
-13.799999999999976
20
15.233692888546617
10
-13.799999999999976
20
13.258387965142512
42
-1.5303836105167736
10
-14.512347538297941
20
12.546040426844574
10
-21.487652461701959
20
12.546040426844563
42
-1.5303836105167969
10
-22.199999999999982
20
13.258387965142564
10
-22.199999999999974
20
15.233692888546578
42
-1.5303836105167283
10
-21.487652461701998
20
15.946040426844572
10
-14.512347538297911
20
15.946040426844558
42
-1.5303836105167119
0
LWPOLYLINE
5
126
100
AcDbEntity
8
0
100
AcDbPolyline
90
10
70
1
43
0.0
10
-28.899999999999668
20
29.008034255798822
10
-28.899999999999672
20
22.722729332394639
42
-1.5303836105167694
10
-29.612347538297641
20
22.010381794096663
10
-31.587652461701673
20
22.010381794096659
42
-1.5303836105167636
10
-32.29999999999967
20
22.722729332394653
10
-32.299999999999656
20
29.008034255798847
42
-0.68313005106397995
10
-32.29999999999967
20
30.032729332394812
10
-32.29999999999967
20
30.410381794096644
10
-28.899999999999668
20
30.410381794096644
10
-28.899999999999654
20
30.032729332394837
42
-0.68313005106398395
0
LWPOLYLINE
5
127
100
AcDbEntity
8
0
100
AcDbPolyline
90
8
70
1
43
0.0
10
-3.487652461702011
20
15.946040426844572
10
3.4876524617020834
20
15.946040426844563
42
-1.5303836105167032
10
4.2000000000000242
20
15.233692888546617
10
4.2000000000000188
20
13.258387965142514
42
-1.5303836105167787
10
3.4876524617020577
20
12.546040426844574
10
-3.4876524617019973
20
12.54604042684457
42
-1.5303836105167741
10
-4.1999999999999806
20
13.258387965142528
10
-4.1999999999999913
20
15.233692888546592
42
-1.5303836105166961
0
LWPOLYLINE
5
128
100
AcDbEntity
8
0
100
AcDbPolyline
90
8
70
1
43
0.0
10
21.487652461702051
20
12.546040426844574
10
14.512347538298016
20
12.546040426844558
42
-1.5303836105168103
10
13.800000000000017
20
13.258387965142564
10
13.800000000000004
20
15.233692888546592
42
-1.5303836105166961
10
14.512347538297984
20
15.946040426844572
10
21.487652461702055
20
15.946040426844572
42
-1.5303836105167323
10
22.200000000000021
20
15.233692888546582
10
22.20000000000001
20
13.258387965142527
42
-1.5303836105168014
0
LWPOLYLINE
5
129
100
AcDbEntity
8
0
100
AcDbPolyline
90
8
70
1
43
0.0
10
28.899999999999832
20
-14.577270667605298
10
28.899999999999832
20
-7.6019657442012427
42
-1.5303836105167532
10
29.612347538297811
20
-6.8896182059032718
10
31.587652461701857
20
-6.8896182059032718
42
-1.5303836105167599
10
32.299999999999834
20
-7.6019657442012445
10
32.299999999999834
20
-14.577270667605301
42
-1.5303836105167576
10
31.587652461701865
20
-15.28961820590327
10
29.612347538297815
20
-15.28961820590327
42
-1.5303836105167563
0
LWPOLYLINE
5
130
100
AcDbEntity
8
0
100
AcDbPolyline
90
8
70
1
43
0.0
10
29.612347538297744
20
11.760381794096677
10
31.587652461701769
20
11.760381794096688
42
-1.5303836105167521
10
32.29999999999977
20
11.048034255798687
10
32.29999999999977
20
4.0727293323946823
42
-1.5303836105167155
10
31.587652461701797
20
3.3603817940966962
10
29.612347538297744
20
3.3603817940966962
42
-1.5303836105167257
10
28.899999999999771
20
4.0727293323946867
10
28.899999999999775
20
11.048034255798708
42
-1.5303836105167521
0
LWPOLYLINE
5
131
100
AcDbEntity
8
0
100
AcDbPolyline
90
8
70
1
43
0.0
10
-21.487652461701998
20
66.996040426844573
10
-14.512347538297909
20
66.996040426844573
42
-1.5303836105167024
10
-13.799999999999972
20
66.283692888546582
10
-13.799999999999974
20
64.308387965142515
42
-1.5303836105167625
10
-14.512347538297934
20
63.596040426844539
10
-21.487652461701984
20
63.596040426844525
42
-1.5303836105167443
10
-22.199999999999982
20
64.308387965142529
10
-22.199999999999992
20
66.283692888546568
42
-1.5303836105166795
0
LWPOLYLINE
5
132
100
AcDbEntity
8
0
100
AcDbPolyline
90
8
70
1
43
0.0
10
3.4876524617020657
20
63.596040426844539
10
-3.4876524617020137
20
63.596040426844539
42
-1.5303836105167314
10
-4.1999999999999806
20
64.308387965142501
10
-4.1999999999999895
20
66.283692888546582
42
-1.5303836105166768
10
-3.487652461702011
20
66.996040426844573
10
3.4876524617020834
20
66.996040426844573
42
-1.5303836105167046
10
4.2000000000000259
20
66.283692888546582
10
4.2000000000000322
20
64.308387965142501
42
-1.5303836105167417
0
LWPOLYLINE
5
133
100
AcDbEntity
8
0
100
AcDbPolyline
90
8
70
1
43
0.0
10
21.487652461702051
20
63.596040426844539
10
14.512347538298012
20
63.596040426844532
42
-1.5303836105167565
10
13.800000000000017
20
64.308387965142529
10
13.800000000000006
20
66.283692888546568
42
-1.530383610516679
10
14.512347538297989
20
66.996040426844573
10
21.487652461702076
20
66.996040426844573
42
-1.5303836105166924
10
22.200000000000024
20
66.283692888546582
10
22.20000000000001
20
64.308387965142529
42
-1.5303836105167774
0
LWPOLYLINE
5
134
100
AcDbEntity
8
0
100
AcDbPolyline
90
10
70
1
43
0.0
10
28.899999999999704
20
22.722729332394653
10
28.899999999999718
20
29.008034255798854
42
-0.68313005106398572
10
28.899999999999704
20
30.032729332394812
10
28.899999999999704
20
30.410381794096644
10
32.299999999999699
20
30.410381794096644
10
32.299999999999713
20
30.032729332394837
42
-0.68313005106398028
10
32.299999999999699
20
29.008034255798822
10
32.299999999999692
20
22.722729332394636
42
-1.5303836105167636
10
31.58765246170173
20
22.010381794096663
10
29.612347538297694
20
22.010381794096652
42
-1.5303836105167694
0
LWPOLYLINE
5
135
100
AcDbEntity
8
0
100
AcDbPolyline
90
8
70
1
43
0.0
10
29.449999999999573
20
67.710381794096563
10
31.749999999999538
20
67.710381794096563
42
-2.4142135623730949
10
32.299999999999571
20
67.160381794096523
10
32.299999999999571
20
59.860381794096526
42
-2.4142135623730949
10
31.749999999999567
20
59.310381794096529
10
29.449999999999608
20
59.310381794096529
42
-2.4142135623730949
10
28.899999999999576
20
59.860381794096554
10
28.899999999999576
20
67.160381794096565
42
-2.4142135623730949
0
LWPOLYLINE
5
136
100
AcDbEntity
8
0
100
AcDbPolyline
90
8
70
1
43
0.0
10
-31.749999999999531
20
67.710381794096563
10
-29.449999999999573
20
67.710381794096563
42
-2.4142135623730949
10
-28.89999999999954
20
67.160381794096523
10
-28.89999999999954
20
59.860381794096526
42
-2.4142135623730949
10
-29.449999999999537
20
59.310381794096529
10
-31.749999999999503
20
59.310381794096529
42
-2.4142135623730949
10
-32.299999999999535
20
59.860381794096554
10
-32.299999999999535
20
67.160381794096565
42
-2.4142135623730949
0
LWPOLYLINE
5
137
100
AcDbEntity
8
0
100
AcDbPolyline
90
8
70
1
43
0.0
10
28.899999999999636
20
40.682729332394686
10
28.899999999999629
20
48.348034255798595
42
-1.5303836105166997
10
29.612347538297609
20
49.060381794096614
10
31.587652461701694
20
49.0603817940966
42
-1.5303836105166946
10
32.299999999999642
20
48.348034255798623
10
32.299999999999628
20
40.682729332394644
42
-1.8941901927030318
10
31.549999999999649
20
40.170381794096656
10
29.649999999999679
20
40.170381794096642
42
-1.8941901927029972
0
LWPOLYLINE
5
138
100
AcDbEntity
8
0
100
AcDbPolyline
90
8
70
1
43
0.0
10
-32.299999999999606
20
40.682729332394686
10
-32.299999999999621
20
48.348034255798581
42
-1.5303836105167021
10
-31.587652461701627
20
49.060381794096614
10
-29.612347538297549
20
49.060381794096614
42
-1.5303836105166924
10
-28.899999999999601
20
48.348034255798623
10
-28.899999999999622
20
40.682729332394644
42
-1.8941901927030258
10
-29.649999999999601
20
40.170381794096656
10
-31.549999999999578
20
40.170381794096656
42
-1.8941901927030338
0
ENDSEC
0
SECTION
2
OBJECTS
0
DICTIONARY
5
C
100
AcDbDictionary
3
ACAD_GROUP
350
D
3
ACAD_MLINESTYLE
350
17
0
DICTIONARY
5
D
100
AcDbDictionary
0
DICTIONARY
5
1A
330
C
100
AcDbDictionary
0
DICTIONARY
5
17
100
AcDbDictionary
0
ENDSEC
0
EOF
